<svg xmlns="http://www.w3.org/2000/svg" viewBox="0 0 768 768"><defs><style>.cls-1{fill:#36d6ba;}</style></defs><title>Animation_turquoise</title><g id="Layer_2" data-name="Layer 2"><g id="Layer_1-2" data-name="Layer 1"><path class="cls-1" d="M384,40A344.1,344.1,0,0,1,517.89,701,344.1,344.1,0,0,1,250.11,67,341.78,341.78,0,0,1,384,40m0-40C171.92,0,0,171.92,0,384S171.92,768,384,768,768,596.08,768,384,596.08,0,384,0Z"/><rect class="cls-1" x="133.25" y="373.75" width="20.51" height="20.51" transform="translate(313.56 11) rotate(45)"/><rect class="cls-1" x="614.25" y="373.75" width="20.51" height="20.51" transform="translate(454.44 -329.12) rotate(45)"/><path class="cls-1" d="M384,582.7,185.3,384,384,185.3,582.7,384ZM241.87,384,384,526.13,526.13,384,384,241.87Z"/><polygon class="cls-1" points="384.25 213.75 384.25 554.75 213.25 383.75 384.25 213.75"/></g></g></svg>