<svg xmlns="http://www.w3.org/2000/svg" viewBox="0 0 768 768"><defs><style>.cls-1{fill:#36d6ba;}.cls-2{fill:#fff;}</style></defs><title>Control_turquoise</title><g id="Layer_2" data-name="Layer 2"><g id="Layer_1-2" data-name="Layer 1"><path class="cls-1" d="M384,40A344.1,344.1,0,0,1,517.89,701,344.1,344.1,0,0,1,250.11,67,341.78,341.78,0,0,1,384,40m0-40C171.92,0,0,171.92,0,384S171.92,768,384,768,768,596.08,768,384,596.08,0,384,0Z"/><path class="cls-1" d="M582.25,581.75h-396v-396h396ZM215.37,552.63H553.13V214.87H215.37Z"/><rect class="cls-1" x="270.69" y="256.36" width="29.12" height="250.41"/><rect class="cls-1" x="371.15" y="256.36" width="29.12" height="250.41"/><rect class="cls-1" x="471.6" y="256.36" width="29.12" height="250.41"/><circle class="cls-2" cx="285.25" cy="310.23" r="25.48"/><path class="cls-1" d="M285.25,346.62a36.4,36.4,0,1,1,36.4-36.39A36.43,36.43,0,0,1,285.25,346.62Zm0-50.95a14.56,14.56,0,1,0,14.56,14.56A14.57,14.57,0,0,0,285.25,295.67Z"/><circle class="cls-2" cx="486.16" cy="310.23" r="25.48"/><path class="cls-1" d="M486.16,346.62a36.4,36.4,0,1,1,36.4-36.39A36.43,36.43,0,0,1,486.16,346.62Zm0-50.95a14.56,14.56,0,1,0,14.56,14.56A14.57,14.57,0,0,0,486.16,295.67Z"/><circle class="cls-2" cx="384.25" cy="383.75" r="25.48"/><path class="cls-1" d="M384.25,420.15a36.4,36.4,0,1,1,36.4-36.4A36.44,36.44,0,0,1,384.25,420.15Zm0-51a14.56,14.56,0,1,0,14.56,14.56A14.57,14.57,0,0,0,384.25,369.19Z"/></g></g></svg>