<svg xmlns="http://www.w3.org/2000/svg" viewBox="0 0 768 768"><defs><style>.cls-1{fill:#36d6ba;}</style></defs><title>Create_code_turquoise</title><g id="Layer_2" data-name="Layer 2"><g id="Layer_1-2" data-name="Layer 1"><path class="cls-1" d="M384,40A344.1,344.1,0,0,1,517.89,701,344.1,344.1,0,0,1,250.11,67,341.78,341.78,0,0,1,384,40m0-40C171.92,0,0,171.92,0,384S171.92,768,384,768,768,596.08,768,384,596.08,0,384,0Z"/><path class="cls-1" d="M532.45,381.48a18.21,18.21,0,0,0-8.93-2.42c-9.9,0-17.68,8.27-17.7,18.82q0,23.08,0,46.17c0,19,0,38.69-.05,58-.14,37.1-29.77,67.56-66,67.91-29.44.28-58.87.43-87.46.43-29.81,0-59.64-.16-88.65-.47-35.44-.37-65.53-30.65-65.71-66.12-.3-57.13-.3-116.06,0-175.15.15-30.83,23-58.58,53.06-64.55,8.82-1.75,18.38-1.81,27.63-1.87l2.95,0c10.8-.09,22.68-.13,37.39-.13l22,0,22,0h6.68c9,0,15.46-4.21,18.16-11.83a17.43,17.43,0,0,0-1.93-16c-3.51-5-9.49-7.83-16.41-7.85q-25-.06-50-.07c-18.47,0-35.55,0-52.22.09a131,131,0,0,0-18.76,1.47c-46.31,6.94-84,48.42-85.82,94.44-.85,21.55-.64,43.44-.43,64.61.08,7.77.15,15.76.18,23.69H162v5q0,11.43,0,22.86c0,20.24-.05,41.16.11,61.75a113.06,113.06,0,0,0,2.06,22.48c5.05,24.18,17.55,44.93,36.16,60s41.54,23.07,66.37,23.14c20.39.05,42.2.08,66.65.08q43.71,0,87.43-.08h.38q3,0,6.11.05c2.08,0,4.16,0,6.23,0a128,128,0,0,0,17.62-1c53.16-7.41,90.36-50.28,90.46-104.25q0-21.31,0-42.64l0-30.46c0-9.7,0-19.39,0-29.09C541.63,390.68,538.55,384.93,532.45,381.48Z"/><path class="cls-1" d="M605.27,239.1c-2.26-7.89-9.13-12.64-18.36-12.7q-9.07-.06-18.16-.05H541.57V213.77c0-10.34,0-21-.05-31.57a27.34,27.34,0,0,0-1.38-9.11A17.2,17.2,0,0,0,523.76,162a20,20,0,0,0-3.52.32,17.49,17.49,0,0,0-14.39,17.42c-.08,12.08-.07,23.95-.05,36.52q0,5,0,10.09H480.63c-8.31,0-14.7,0-20.71.09-11,.13-18.65,7.55-18.56,18,.09,10.21,8,17.64,18.89,17.67q8.55,0,17.11,0h28.42V273.5q0,16.49,0,33a27.09,27.09,0,0,0,.75,7.31,17.58,17.58,0,0,0,17.21,12.82,19,19,0,0,0,2.13-.12c9.07-1,15.48-8.33,15.6-17.75.14-10.75.12-21.67.1-32.22q0-6.57,0-13.12v-1.24h15.28l12.44,0c7.32,0,13.29,0,18.78-.09a17.77,17.77,0,0,0,17.2-23Z"/><path class="cls-1" d="M277.4,476.4,295.77,458l-42.85-43,42.85-42.85L277.4,353.84l-52.09,52.1a13,13,0,0,0,0,18.36Z"/><path class="cls-1" d="M426.13,476.4l52.1-52.1a13,13,0,0,0,0-18.36l-52.1-52.1-18.36,18.37,42.85,42.85-42.85,42.85Z"/><rect class="cls-1" x="281.65" y="402.16" width="140.26" height="26.05" transform="translate(-164.37 587.54) rotate(-68.19)"/></g></g></svg>