<svg xmlns="http://www.w3.org/2000/svg" viewBox="0 0 768 768"><defs><style>.cls-1{fill:#36d6ba;}</style></defs><title>Live_code_turquoise</title><g id="Layer_2" data-name="Layer 2"><g id="Layer_1-2" data-name="Layer 1"><path class="cls-1" d="M384,40A344.1,344.1,0,0,1,517.89,701,344.1,344.1,0,0,1,250.11,67,341.78,341.78,0,0,1,384,40m0-40C171.92,0,0,171.92,0,384S171.92,768,384,768,768,596.08,768,384,596.08,0,384,0Z"/><path class="cls-1" d="M297.64,474.21l22.56-22.56-52.64-52.8,52.64-52.64-22.56-22.56-64,64a16,16,0,0,0,0,22.56Z"/><path class="cls-1" d="M480.36,474.21l64-64a16,16,0,0,0,0-22.56l-64-64L457.8,346.21l52.64,52.64L457.8,451.49Z"/><rect class="cls-1" x="302.86" y="383" width="172.31" height="32" transform="translate(-125.95 611.94) rotate(-68.19)"/><path class="cls-1" d="M389,636.76a30,30,0,0,1-19.79-7.44c-20.69-18.09-40.63-35.08-58.22-50.07l-.09-.08c-51.58-44-96.13-81.92-127.12-119.31C149.14,418.05,133,378.41,133,335.11c0-42.07,14.43-80.88,40.62-109.29,26.5-28.75,62.87-44.58,102.41-44.58,29.56,0,56.62,9.35,80.45,27.77A164.78,164.78,0,0,1,389,243a164.82,164.82,0,0,1,32.53-34c23.82-18.42,50.89-27.77,80.44-27.77,39.54,0,75.91,15.83,102.42,44.58C630.58,254.23,645,293,645,335.11c0,43.3-16.13,82.94-50.78,124.74-31,37.4-75.53,75.36-127.1,119.31-17.63,15-37.6,32-58.33,50.17A30,30,0,0,1,389,636.76ZM276,211.23c-31.07,0-59.6,12.4-80.37,34.92C174.59,269,163,300.6,163,335.11c0,36.42,13.53,69,43.88,105.61,29.33,35.39,73,72.57,123.48,115.62l.09.08c17.66,15.05,37.68,32.12,58.52,50.33,21-18.25,41-35.34,58.7-50.41,50.52-43.05,94.14-80.23,123.47-115.62C601.48,404.1,615,371.53,615,335.11c0-34.51-11.6-66.11-32.67-89C561.58,223.63,533,211.23,502,211.23c-22.76,0-43.65,7.24-62.1,21.5-16.44,12.72-27.89,28.8-34.61,40a18.93,18.93,0,0,1-32.52,0c-6.71-11.25-18.17-27.33-34.61-40C319.68,218.47,298.79,211.23,276,211.23Z"/></g></g></svg>