<svg xmlns="http://www.w3.org/2000/svg" viewBox="0 0 768 768"><defs><style>.cls-1{fill:#36d6ba;}</style></defs><title>Quiz_turquoise</title><g id="Layer_2" data-name="Layer 2"><g id="Layer_1-2" data-name="Layer 1"><path class="cls-1" d="M384,40A344.1,344.1,0,0,1,517.89,701,344.1,344.1,0,0,1,250.11,67,341.78,341.78,0,0,1,384,40m0-40C171.92,0,0,171.92,0,384S171.92,768,384,768,768,596.08,768,384,596.08,0,384,0Z"/><path class="cls-1" d="M361,396.78q13-18.88,38.05-41.67,18.33-16.65,26.94-28.05a41.67,41.67,0,0,0,8.61-25.83q0-20.53-16.38-32.49t-43.61-11.95q-26.12,0-46.38,10.84a98.75,98.75,0,0,0-34.16,30.27l-67.22-39.44q23.34-35.55,63-55T384.05,184q63.88,0,102.49,27.22t38.61,75.55q0,22.79-7.5,40A105.82,105.82,0,0,1,499.32,356q-10.83,12-28.05,27.49-20.56,18.33-30,30.83t-9.44,30.28H348Q348,415.68,361,396.78Zm-8.89,172.47a47.82,47.82,0,0,1-15.27-35.82q0-21.1,15-35.28T390.16,484q23.34,0,38.33,14.16t15,35.28a47.85,47.85,0,0,1-15.27,35.82Q412.93,584,390.16,584T352.11,569.25Z"/></g></g></svg>