<svg width="327" height="327" viewBox="0 0 327 327" fill="none" xmlns="http://www.w3.org/2000/svg">
<g opacity="0.1">
<path d="M163.5 17.0312C183.28 17.0312 202.46 20.9016 220.507 28.5346C237.946 35.9108 253.612 46.474 267.07 59.9308C280.526 73.3881 291.089 89.0534 298.465 106.493C306.099 124.539 309.969 143.719 309.969 163.5C309.969 183.281 306.099 202.461 298.465 220.507C291.089 237.947 280.526 253.612 267.07 267.069C253.612 280.526 237.946 291.089 220.507 298.465C202.46 306.098 183.28 309.969 163.5 309.969C143.72 309.969 124.539 306.098 106.493 298.465C89.0531 291.089 73.388 280.526 59.931 267.069C46.474 253.612 35.9107 237.947 28.5347 220.507C20.9014 202.461 17.0315 183.281 17.0315 163.5C17.0315 143.719 20.9014 124.539 28.5347 106.493C35.9107 89.0534 46.474 73.3881 59.931 59.9308C73.388 46.474 89.0531 35.9108 106.493 28.5346C124.539 20.9016 143.72 17.0312 163.5 17.0312ZM163.5 0C73.2014 0 0 73.2016 0 163.5C0 253.798 73.2014 327 163.5 327C253.799 327 327 253.798 327 163.5C327 73.2016 253.799 0 163.5 0Z" fill="black"/>
<path d="M270.046 141.926C270.049 140.076 270.052 138.225 270.052 136.376V129.928H254.725V134.186C254.725 135.867 254.728 137.537 254.73 139.2C254.738 144.501 254.746 149.512 254.676 154.609C254.671 154.624 254.664 154.639 254.657 154.653C251.752 157.676 248.711 160.697 245.769 163.618L245.377 164.008C245.329 163.96 245.281 163.913 245.233 163.865C242.05 160.701 239.034 157.705 236.021 154.625C235.975 150.641 235.981 146.581 235.986 142.652C235.988 141.342 235.99 140.032 235.99 138.723V129.851H220.659V134.109C220.659 136.056 220.655 137.989 220.652 139.911C220.64 145.998 220.628 151.748 220.732 157.631C220.785 160.732 222.852 163.127 223.483 163.786L224.433 164.78C227.992 168.502 231.672 172.352 235.632 175.886C237.755 177.782 238.023 179.057 237.774 180.748C237.737 181.001 237.707 181.25 237.678 181.494C237.656 181.679 237.628 181.915 237.601 182.073C219.042 200.569 200.207 219.404 181.991 237.619L171.275 248.333C171.268 236.466 171.263 224.23 171.33 212.188C171.372 212.116 171.428 212.038 171.469 211.997C184.683 198.703 198.45 184.93 212.386 171.063C214.56 168.9 215.606 166.365 215.584 163.317C215.512 153.42 215.518 143.522 215.605 133.895C215.617 133.855 215.638 133.806 215.657 133.77C222.815 126.505 230.478 118.826 239.765 109.612C241.843 107.551 242.846 105.14 242.829 102.243C242.786 94.5941 242.792 86.81 242.798 79.2822C242.8 76.6551 242.802 74.0276 242.802 71.4005V65.1505H227.474V71.6036C227.474 73.9616 227.471 76.32 227.468 78.678C227.461 85.5774 227.451 92.7117 227.509 99.738C227.513 100.158 227.513 100.183 227.146 100.545C222.167 105.456 217.149 110.481 212.297 115.341C210.828 116.813 209.358 118.284 207.887 119.754C206.544 118.411 205.2 117.067 203.857 115.723C198.828 110.69 193.627 105.486 188.478 100.393C188.36 100.277 188.302 100.203 188.278 100.169C188.272 100.134 188.266 100.061 188.266 99.9381C188.318 92.8084 188.311 85.5676 188.306 78.5656C188.303 76.2417 188.301 73.9182 188.301 71.5951V65.1586H173.537L173.109 68.9378C173.099 69.0281 173.088 69.109 173.077 69.1843C173.036 69.4717 172.982 69.866 172.982 70.3374C172.98 72.5731 172.977 74.8089 172.973 77.0447C172.961 85.5335 172.947 94.311 173.043 102.956C173.071 105.583 174.528 107.991 175.883 109.369C180.102 113.662 184.419 117.988 188.594 122.172C192.379 125.966 196.292 129.888 200.114 133.766C200.134 133.803 200.154 133.854 200.165 133.893C200.254 142.891 200.257 152.13 200.173 161.355C200.165 161.394 200.148 161.451 200.13 161.496C190.555 171.162 180.785 180.93 171.272 190.433C171.265 180.962 171.259 172.001 171.313 162.855C171.332 159.637 170.24 156.981 167.975 154.735C161.514 148.325 154.965 141.78 148.633 135.451C143.732 130.553 138.83 125.654 133.918 120.766C133.846 120.694 133.799 120.64 133.769 120.604C133.768 120.583 133.768 120.557 133.769 120.525C133.787 119.372 133.816 118.219 133.846 117.064C133.949 112.99 134.057 108.777 133.686 104.554C133.346 100.679 134.254 98.4266 136.926 96.5212C142.539 92.5193 144.943 86.9228 144.074 79.8868C143.806 77.7187 143.876 75.4127 143.95 72.9717C143.985 71.8267 144.022 70.6426 144.022 69.4526V65.1948H128.692L128.694 72.924C128.697 76.429 128.7 79.7416 128.677 83.1074C127.807 84.0147 126.905 84.9174 125.971 85.8405C123.77 83.9168 123.019 81.6248 123.474 78.3774C123.79 76.1122 123.715 73.951 123.642 71.8604C123.611 71.0033 123.583 70.1934 123.583 69.4045V65.1467H108.278V69.4045C108.278 70.8347 108.275 72.2581 108.271 73.6763C108.26 77.9776 108.249 82.4249 108.344 86.7998C108.383 88.5825 109.254 90.3802 110.93 92.1416C112.057 93.3249 113.214 94.474 114.333 95.5857C115.739 96.9819 117.068 98.301 118.316 99.6541C118.35 99.6992 118.398 99.7989 118.421 99.8678C118.513 107.153 118.517 114.746 118.434 122.439C118.401 125.478 119.453 128.016 121.65 130.199C133.335 141.81 144.82 153.303 155.779 164.351C155.81 164.385 155.852 164.449 155.885 164.509C155.948 183.356 155.942 202.5 155.933 221.092C145.405 210.543 134.61 199.735 123.934 189.12C123.542 188.73 123.543 188.698 123.545 188.3C123.599 179.444 123.592 170.446 123.586 161.744C123.584 158.95 123.582 156.157 123.582 153.364V146.902H108.163V173.349L93.418 158.569C93.2784 158.429 93.129 158.293 92.9766 158.158C92.9678 158.136 92.9595 158.117 92.9527 158.1C92.8994 154.884 92.8643 151.134 92.9766 147.43C93.3653 147.011 93.752 146.587 94.1393 146.163C95.8791 144.257 97.5228 142.457 99.3306 141.069C105.033 136.691 107.478 130.788 106.598 123.524C106.352 121.497 106.418 119.338 106.487 117.052C106.52 115.975 106.553 114.863 106.553 113.745V109.487H91.2235L91.2255 117.208C91.2284 120.7 91.2314 124 91.2069 127.377C89.2791 129.361 87.3121 131.322 85.2593 133.363C84.0814 132.09 82.8401 130.82 81.4216 129.679C79.545 128.169 78.9673 126.738 79.2139 124.208C79.4649 121.635 79.4063 119.119 79.3487 116.687C79.3248 115.646 79.3018 114.663 79.3018 113.678V109.42H63.9736V113.678C63.9736 115.189 63.9775 116.691 63.9814 118.188C63.9912 122.051 64.0004 125.699 63.9472 129.417C63.9042 132.389 64.9072 134.827 67.0148 136.871C70.8378 140.578 74.2722 144.025 77.5116 147.408C77.5243 147.43 77.537 147.46 77.5468 147.485C77.6865 152.039 77.6899 155.769 77.558 159.215C77.4267 162.676 78.5532 165.473 81.1056 168.017C95.8127 182.674 110.746 197.6 125.187 212.035C135.391 222.235 145.596 232.435 155.808 242.628C155.89 242.71 155.941 242.768 155.971 242.806C155.972 242.83 155.974 242.864 155.973 242.905C155.927 250.048 155.932 257.303 155.936 264.319C155.937 266.628 155.939 277.784 155.939 277.784H171.271V273.527C171.271 273.375 171.278 273.235 171.283 273.102C171.302 272.614 171.33 271.946 171.195 271.179C171.103 270.656 171.024 270.203 172.561 268.674C181.266 260.011 190.09 251.182 198.623 242.643C214.054 227.202 230.011 211.234 245.838 195.678C250.034 191.554 254.152 186.242 253.136 178.043C257.322 173.717 261.848 169.177 266.967 164.166C269.102 162.076 270.123 159.584 270.087 156.548C270.03 151.685 270.038 146.723 270.046 141.926Z" fill="black"/>
</g>
</svg>
