<svg width="281" height="330" viewBox="0 0 281 330" fill="none" xmlns="http://www.w3.org/2000/svg">
<mask id="mask0_1_1336" style="mask-type:alpha" maskUnits="userSpaceOnUse" x="0" y="0" width="331" height="330">
<path d="M0 0H330V330H0V0Z" fill="black"/>
</mask>
<g mask="url(#mask0_1_1336)">
<path opacity="0.4" d="M-96.364 -57.8686H217.679V190.08H-96.364V-57.8686Z" fill="#F2F2F2"/>
<path d="M280.499 62.4737L254.036 54.4811L252.427 90.6425L280.255 99.0249L280.499 62.4737Z" fill="#F5F5F5"/>
<path d="M94.3311 6.18475V42.9795L252.427 90.6423L254.035 54.4811L94.3311 6.18475Z" fill="#F5F5F5"/>
<path opacity="0.1" d="M280.499 62.4737L254.036 54.4811L252.427 90.6425L280.255 99.0249L280.499 62.4737Z" fill="black"/>
<path d="M280.499 131.726L254.036 123.734L252.427 159.895L280.255 168.277L280.499 131.726Z" fill="#3AD29F"/>
<path d="M94.3311 75.4372V112.232L252.427 159.895L254.035 123.733L94.3311 75.4372Z" fill="#FBB03B"/>
<path d="M280.499 131.726L254.036 123.734L252.427 159.895L280.255 168.277L280.499 131.726Z" fill="#F15A24"/>
<path d="M260.761 144.445L265.099 150.976L273.725 140.157" stroke="white" stroke-width="7" stroke-linecap="round"/>
<g opacity="0.4">
<line x1="265.782" y1="70.0232" x2="270.942" y2="79.0911" stroke="white" stroke-width="7" stroke-linecap="round"/>
<line x1="271.835" y1="75.8096" x2="265.959" y2="81.7126" stroke="white" stroke-width="7" stroke-linecap="round"/>
</g>
<path d="M280.499 196.641L254.036 188.648L252.427 224.809L280.255 233.192L280.499 196.641Z" fill="#F5F5F5"/>
<path d="M94.3311 140.401V177.195L252.427 224.809L254.035 188.648L94.3311 140.401Z" fill="#F5F5F5"/>
<path opacity="0.1" d="M280.499 196.641L254.036 188.648L252.427 224.809L280.255 233.192L280.499 196.641Z" fill="black"/>
<g opacity="0.4">
<line x1="265.783" y1="204.232" x2="270.936" y2="213.256" stroke="white" stroke-width="7" stroke-linecap="round"/>
<line x1="271.824" y1="210.025" x2="265.959" y2="215.891" stroke="white" stroke-width="7" stroke-linecap="round"/>
</g>
<ellipse opacity="0.3" cx="203.644" cy="125" rx="5.40957" ry="10.8191" fill="black"/>
<ellipse opacity="0.1" cx="203.644" cy="125" rx="45.4697" ry="90.8905" fill="#36D6BA"/>
<ellipse opacity="0.1" cx="203.644" cy="125.001" rx="24.9035" ry="49.7583" fill="white"/>
<circle opacity="0.5" cx="143.992" cy="71.7334" r="1.46205" fill="#F55F44"/>
<path d="M127.513 87.3816L128.053 73.4545L138.863 73.8738L138.323 87.8008L127.513 87.3816Z" fill="#6C63FF"/>
<path d="M176.937 122.223C176.937 122.223 191.948 115.059 191.704 121.248C191.46 127.438 176.596 131.531 176.596 131.531L176.937 122.223Z" fill="#FFB9B9"/>
<path d="M168.701 174.613C168.701 174.613 175.768 191.913 178.399 204.438C181.031 216.914 184.978 234.118 179.861 246.35C174.744 258.534 160.172 294.403 160.026 298.253C159.88 302.103 161.293 306.051 158.174 305.953C155.055 305.855 138.242 300.544 137.559 298.155C136.877 295.767 143.311 289.871 143.311 289.871L159.198 240.112L142.628 207.703L130.688 256.048L128.349 316.382C128.349 316.382 116.847 312.825 115.19 315.895C115.19 315.895 110.024 308.731 109.39 305.612C108.757 302.493 111.828 242.939 111.828 242.939C111.828 242.939 101.301 175.1 109.78 175.441C118.26 175.782 151.644 155.362 168.701 174.613Z" fill="black"/>
<path d="M158.32 302.834C158.32 302.834 166.166 320.184 166.897 321.012C167.628 321.84 172.746 329.784 168.895 329.589C165.045 329.395 155.883 325.203 149.157 318.77C142.432 312.337 133.563 301.128 134.39 300.397C135.219 299.666 140.678 297.522 140.678 297.522L158.32 302.834Z" fill="#36D6BA"/>
<path d="M126.936 312.435C126.936 312.435 127.423 320.184 128.836 323.352C130.25 326.519 130.103 331.149 126.205 331.003C122.306 330.857 112.315 328.907 112.315 328.907C112.315 328.907 111.73 324.229 112.51 323.498C113.29 322.766 116.75 314.384 115.287 311.996C113.826 309.608 126.936 312.435 126.936 312.435Z" fill="#36D6BA"/>
<path d="M121.233 60.4264C121.233 60.4264 112.998 73.2924 109.781 76.265C106.564 79.2382 115.629 85.7684 115.629 85.7684L131.809 87.9616C131.809 87.9616 131.614 73.2435 132.443 71.733C133.271 70.222 121.233 60.4264 121.233 60.4264Z" fill="#FFB9B9"/>
<path d="M135.269 77.2404C135.269 77.2404 131.955 83.3323 128.836 83.1859C125.717 83.0398 109.732 76.2654 109.05 73.8777C108.367 71.4896 103.737 90.7397 103.737 90.7397L142.92 159.651L152.472 153.072L147.842 112.622L144.041 90.7886L135.269 77.2404Z" fill="black"/>
<path d="M107.636 138.89C109.196 142.155 110.171 145.566 110.024 149.075C110.024 149.221 110.024 149.367 109.975 149.563C109.586 156.726 106.954 165.012 106.028 171.006C105.345 175.343 105.541 178.462 108.075 179.242C114.215 181.045 107.197 182.312 130.883 190.207C154.568 198.102 158.759 191.28 158.808 189.72C158.856 188.16 155.445 176.415 156.274 175.684C157.102 174.953 167.531 185.432 170.65 183.969C173.769 182.507 170.991 174.661 170.991 174.661C170.991 174.661 163.876 158.091 164.022 154.241C164.169 150.391 153.252 132.116 153.252 132.116L145.844 83.7703C145.844 83.7703 142.969 77.4839 139.168 76.5576C135.366 75.6318 132.149 77.8248 132.149 77.8248L138.582 92.0065L145.357 117.056L144.236 126.316C144.236 126.316 136.341 109.746 131.175 103.362C126.009 96.9776 114.946 81.8212 114.946 81.8212C114.946 81.8212 112.364 73.1461 114.313 70.5148C116.262 67.9317 106.222 67.5417 101.934 78.2147C99.6434 83.868 95.9885 92.2992 93.6492 100.194C91.6026 107.163 90.6272 113.645 92.6748 117.398C95.7936 123.099 103.64 130.556 107.636 138.89Z" fill="#36D6BA"/>
<path opacity="0.1" d="M92.6749 117.398C95.7937 123.099 103.64 130.556 107.636 138.89C108.66 135.137 109.975 131.238 109.975 131.238C109.975 131.238 114.849 105.067 100.423 98.3422C98.0357 98.0986 95.6471 98.7808 93.6982 100.243C91.6027 107.163 90.6273 113.694 92.6749 117.398Z" fill="black"/>
<path d="M150.084 115.741L162.365 119.298L179.373 119.98L181.128 134.747L153.154 136.745C153.105 136.794 146.137 117.154 150.084 115.741Z" fill="#36D6BA"/>
<path d="M130.054 165.499C130.054 165.499 146.477 168.228 142.725 173.15C138.972 178.073 124.449 172.907 124.449 172.907L130.054 165.499Z" fill="#FFB9B9"/>
<path opacity="0.1" d="M110.025 149.563C109.635 156.727 107.003 165.011 106.077 171.006C111.292 175.928 116.263 180.314 118.163 180.363C122.014 180.51 128.251 179.973 130.542 180.851C132.832 181.728 134.197 167.059 134.197 167.059C134.197 167.059 132.832 162.38 126.74 159.797C122.549 158.043 114.654 153.364 110.025 149.563Z" fill="black"/>
<path d="M100.57 93.7125C100.57 93.7125 87.4599 91.6655 88.1904 113.402C88.9215 135.137 86.826 148.978 92.0896 153.072C97.3532 157.165 114.459 175.636 118.309 175.782C122.159 175.928 128.397 175.392 130.687 176.269C132.978 177.146 134.342 162.477 134.342 162.477C134.342 162.477 132.978 157.799 126.886 155.216C120.794 152.633 106.417 143.568 106.515 140.498C106.612 137.428 110.17 126.706 110.17 126.706C110.17 126.706 114.995 100.438 100.57 93.7125Z" fill="#36D6BA"/>
<circle cx="132.789" cy="62.3833" r="17.0575" transform="rotate(-74.5172 132.789 62.3833)" fill="#FFB9B9"/>
<path d="M144.236 38.0086C144.626 38.3497 145.162 38.5933 145.649 38.7396C146.185 38.8371 146.721 38.4955 146.819 37.9111C147.209 38.7396 147.647 39.5682 148.427 40.0068C149.207 40.4454 150.474 40.0554 150.572 39.1782C150.669 39.8604 151.01 40.494 151.449 40.9812C151.936 41.4687 152.813 41.5664 153.252 41.0298C152.911 42.9308 153.106 44.8801 153.008 46.8295C152.911 48.7788 152.375 50.8259 150.913 52.0931C148.769 53.9447 145.6 53.5061 142.774 53.1164C142.336 53.0189 141.897 53.0675 141.507 53.1648C140.435 53.6036 140.483 55.0657 140.483 56.2354C140.288 60.3777 137.169 63.7892 133.076 64.2766C131.955 64.4714 130.834 64.1791 129.908 63.4967C129.128 62.8147 128.69 61.7423 127.812 61.2065C126.35 60.3777 124.547 61.596 123.426 62.912C122.305 64.228 121.282 65.8363 119.576 66.0796C117.335 66.3721 115.677 64.1303 114.849 62.0348C112.558 56.1379 112.705 49.5588 115.336 43.7594C120.015 33.6713 135.854 32.0628 144.236 38.0086Z" fill="black"/>
</g>
</svg>
