<svg width="23" height="24" viewBox="0 0 23 24" fill="none" xmlns="http://www.w3.org/2000/svg">
<path d="M11.2238 9.77869H17.7375C17.8967 9.77869 18.0257 9.65041 18.0257 9.49146V6.06763C18.0257 5.90892 17.8972 5.7804 17.7375 5.7804H11.2238C11.0651 5.7804 10.9361 5.90868 10.9361 6.06763V9.4917C10.9361 9.65041 11.0648 9.77869 11.2238 9.77869Z" fill="black"/>
<path d="M11.2238 4.02819H14.9047C15.0634 4.02819 15.1924 3.89943 15.1924 3.74048V0.317135C15.1924 0.157943 15.0639 0.0294218 14.9047 0.0294218H11.2238C11.0651 0.0294218 10.9361 0.1577 10.9361 0.317135V3.74048C10.9361 3.89943 11.0648 4.02819 11.2238 4.02819Z" fill="black"/>
<path d="M11.2238 16.6246H20.2252C20.3836 16.6246 20.5126 16.4964 20.5126 16.3374V12.9141C20.5126 12.7554 20.3841 12.6264 20.2252 12.6264H11.2238C11.0651 12.6264 10.9361 12.7551 10.9361 12.9141V16.3374C10.9361 16.4961 11.0648 16.6246 11.2238 16.6246Z" fill="black"/>
<path d="M22.7121 19.4738H11.2238C11.0651 19.4738 10.9361 19.6018 10.9361 19.7618V23.1846C10.9361 23.3433 11.0648 23.4723 11.2238 23.4723H22.7123C22.871 23.4723 22.9998 23.3436 22.9998 23.1846V19.7613C22.9996 19.6018 22.8713 19.4738 22.7121 19.4738Z" fill="black"/>
<path d="M9.2866 15.9666H7.33663V0.486824C7.33663 0.217854 7.11853 0 6.8498 0H2.92357C2.65484 0 2.43675 0.217854 2.43675 0.486824V15.9666H0.487018C0.299347 15.9666 0.128715 16.0744 0.0479033 16.2436C-0.0331528 16.4125 -0.0100293 16.6129 0.107296 16.7589L4.50721 23.3198C4.5997 23.4352 4.73918 23.5014 4.88669 23.5014C5.03419 23.5014 5.17342 23.4352 5.26592 23.3198L9.66583 16.7589C9.78316 16.6126 9.80653 16.4125 9.72547 16.2436C9.64466 16.0747 9.47427 15.9666 9.2866 15.9666Z" fill="black"/>
</svg>
