<svg width="327" height="327" viewBox="0 0 327 327" fill="none" xmlns="http://www.w3.org/2000/svg">
<g opacity="0.1">
<path d="M163.5 17.0312C183.28 17.0312 202.46 20.9016 220.507 28.5346C237.946 35.9108 253.612 46.474 267.069 59.9308C280.526 73.3881 291.089 89.0534 298.465 106.493C306.098 124.539 309.969 143.719 309.969 163.5C309.969 183.281 306.098 202.461 298.465 220.507C291.089 237.947 280.526 253.612 267.069 267.069C253.612 280.526 237.946 291.089 220.507 298.465C202.46 306.098 183.28 309.969 163.5 309.969C143.719 309.969 124.539 306.098 106.493 298.465C89.0534 291.089 73.388 280.526 59.9307 267.069C46.474 253.612 35.9107 237.947 28.5345 220.507C20.9014 202.461 17.031 183.281 17.031 163.5C17.031 143.719 20.9014 124.539 28.5345 106.493C35.9107 89.0534 46.474 73.3881 59.9307 59.9308C73.388 46.474 89.0534 35.9108 106.493 28.5346C124.539 20.9016 143.719 17.0312 163.5 17.0312ZM163.5 0C73.2014 0 0 73.2016 0 163.5C0 253.798 73.2014 327 163.5 327C253.798 327 327 253.798 327 163.5C327 73.2016 253.798 0 163.5 0Z" fill="black"/>
<path d="M199.896 163.598H173.114V125.573C173.114 120.612 169.078 116.576 164.116 116.576C159.155 116.576 155.119 120.612 155.119 125.573V172.596C155.119 177.558 159.155 181.594 164.116 181.594H199.896C204.857 181.594 208.893 177.558 208.893 172.596C208.893 167.635 204.857 163.598 199.896 163.598Z" fill="black"/>
<path d="M238.467 116.3C240.171 118.029 242.447 118.981 244.874 118.981C247.252 118.981 249.496 118.061 251.19 116.392C252.903 114.705 253.854 112.451 253.872 110.048C253.889 107.645 252.969 105.379 251.283 103.667L233.905 86.0334C232.2 84.3042 229.924 83.3514 227.495 83.3514C225.118 83.3514 222.875 84.2706 221.179 85.941C219.468 87.6283 218.515 89.8811 218.498 92.2842C218.481 94.6878 219.401 96.9538 221.088 98.6646L221.697 99.2824L215.456 104.973C203.246 95.3447 188.567 89.3493 173.114 87.6722V78.6018H177.661C182.622 78.6018 186.659 74.5654 186.659 69.6041C186.659 64.6425 182.622 60.6065 177.661 60.6065H150.571C145.61 60.6065 141.573 64.6425 141.573 69.6041C141.573 74.5654 145.61 78.6018 150.571 78.6018H155.119V87.67C135.961 89.7338 118.22 98.3542 104.595 112.343C89.3825 127.962 81.0047 148.544 81.0047 170.296C81.0047 216.124 118.289 253.407 164.116 253.407C209.944 253.407 247.227 216.124 247.227 170.3C247.239 150.871 240.578 132.401 228.338 117.579L234.337 112.11L238.467 116.3ZM164.116 235.412C128.211 235.412 99.0001 206.201 99.0001 170.296C99.0001 134.391 128.211 105.18 164.116 105.18C200.021 105.18 229.232 134.391 229.232 170.296C229.232 206.201 200.021 235.412 164.116 235.412Z" fill="black"/>
</g>
</svg>
