<svg width="324" height="330" viewBox="0 0 324 330" fill="none" xmlns="http://www.w3.org/2000/svg">
<mask id="mask0_1_1505" style="mask-type:alpha" maskUnits="userSpaceOnUse" x="-7" y="0" width="331" height="331">
<path d="M-6.50556 0H323.854V330.359H-6.50556V0Z" fill="black"/>
</mask>
<g mask="url(#mask0_1_1505)">
<path opacity="0.4" d="M70.6972 -69.7493H477.755V251.638H70.6972V-69.7493Z" fill="#F2F2F2"/>
<path d="M386.487 221.257C386.487 268.17 358.598 284.55 324.196 284.55C289.793 284.55 261.904 268.17 261.904 221.257C261.904 174.344 324.196 114.664 324.196 114.664C324.196 114.664 386.487 174.344 386.487 221.257Z" fill="#36D6BA"/>
<path d="M321.926 277.374L322.564 238.112L349.115 189.54L322.664 231.953L322.951 214.299L341.25 179.157L323.027 209.628V209.628L323.543 177.877L343.137 149.9L323.624 172.884L323.946 114.664L321.921 191.737L322.087 188.557L302.166 158.064L321.768 194.661L319.912 230.121L319.857 229.18L296.89 197.09L319.787 232.505L319.555 236.94L319.513 237.006L319.532 237.37L314.823 327.337H321.115L321.87 280.867L344.71 245.539L321.926 277.374Z" fill="black"/>
<path d="M264.278 -0.764885H278.026V330H264.278V-0.764885Z" fill="#269984"/>
<path d="M247.942 311.016L245.505 309.205C245.505 309.205 243.892 318.217 245.692 319.567C247.492 320.917 254.243 323.167 254.243 325.868C254.243 328.568 269.545 332.168 269.995 328.118C270.445 324.067 268.645 321.817 268.645 321.817C268.645 321.817 261.444 314.616 260.544 313.266C259.644 311.916 257.394 309.215 257.394 309.215L247.942 311.016Z" fill="black"/>
<path d="M283.947 198.951C283.947 198.951 283.88 199.347 283.763 200.071C283.655 200.715 283.506 201.624 283.326 202.745C281.436 214.28 275.923 248.237 276.296 249.357C276.746 250.707 279.897 255.658 276.296 257.008C275.95 257.139 275.576 257.562 275.176 258.228C274.402 259.663 273.765 261.166 273.272 262.72C271.125 268.948 268.83 278.917 267.502 285.821C266.922 288.854 266.526 291.294 266.408 292.572C266.368 292.867 266.363 293.167 266.395 293.463C266.845 295.264 263.695 301.564 262.344 303.365C260.994 305.165 258.744 306.965 259.194 308.765C259.644 310.566 247.943 315.516 246.592 312.366C245.242 309.215 245.242 307.415 244.792 306.515C244.342 305.615 243.892 299.314 246.142 298.414C248.392 297.514 247.042 281.762 249.293 278.611C250.044 277.562 251.192 274.012 252.394 269.741C252.866 268.066 253.343 266.284 253.811 264.498C255.71 257.175 257.394 249.807 257.394 249.807L256.944 197.15L281.697 194L282.331 195.4L283.596 198.177L283.947 198.951Z" fill="black"/>
<path d="M285.298 285.362C285.298 285.362 288.898 281.762 290.699 285.362C292.499 288.963 294.299 302.914 297.449 306.065C300.6 309.215 304.65 324.968 300.15 325.868C295.649 326.767 290.699 324.517 290.248 321.817C289.798 319.117 280.347 305.165 280.347 303.815C280.347 302.464 286.648 297.514 286.648 297.514L285.298 285.362Z" fill="black"/>
<path d="M229.94 174.198C229.94 174.198 235.791 226.855 237.141 231.805C238.491 236.756 245.692 255.658 247.943 258.809C250.193 261.959 264.595 287.613 266.395 288.963C268.195 290.313 271.796 293.914 271.796 293.914C271.796 293.914 278.546 300.664 279.447 302.015C280.347 303.365 287.998 299.314 288.448 296.614C288.898 293.913 287.998 289.413 287.548 287.613C287.098 285.812 288.448 283.112 287.098 281.762C285.748 280.412 278.997 273.661 278.997 270.51C278.997 267.36 267.295 248.908 262.794 244.857C258.294 240.806 259.194 234.055 259.194 234.055V206.602L283.947 198.951C283.947 198.951 282.597 177.348 279.447 177.348C276.296 177.348 234.891 170.147 229.94 174.198Z" fill="black"/>
<circle cx="266.395" cy="84.1855" r="14.852" fill="#9F616A"/>
<path d="M261.444 95.8869C261.444 95.8869 259.644 102.638 257.394 104.438C255.143 106.239 263.245 113.889 263.245 113.889L278.547 114.79L281.247 106.239C281.247 106.239 276.296 96.3375 277.647 90.0364C278.997 83.7353 261.444 95.8869 261.444 95.8869Z" fill="#9F616A"/>
<path d="M255.144 103.538C255.144 103.538 259.195 103.988 260.095 105.338C260.995 106.689 267.296 110.739 272.246 109.839C277.197 108.938 280.347 107.589 281.248 108.038C282.148 108.489 283.948 117.94 283.948 117.94L278.997 132.342L279.898 171.947L281.248 182.749C281.248 182.749 283.948 179.148 273.147 181.398C262.345 183.649 248.393 179.598 243.893 179.148C239.392 178.698 231.741 177.348 231.291 174.648C230.841 171.947 232.641 162.046 232.641 162.046L239.842 131.892L244.343 115.69L255.144 103.538Z" fill="black"/>
<path d="M259.4 101.507C259.4 101.507 255.594 99.4874 254.244 101.288C252.893 103.088 235.791 105.788 235.791 107.138C235.791 108.489 232.191 144.944 233.09 148.094C233.991 151.244 231.29 154.845 231.29 154.845L228.14 168.347C228.14 168.347 219.589 194 223.189 194.9C226.79 195.8 229.94 194.9 231.29 194.9C232.641 194.9 232.19 177.798 235.791 173.297C239.391 168.797 244.342 157.545 245.242 155.295C246.142 153.045 257.394 121.99 256.944 118.39C256.494 114.79 259.4 101.507 259.4 101.507Z" fill="#FBB03B"/>
<path d="M278.097 103.538C278.097 103.538 281.697 103.538 282.147 104.438C282.597 105.338 287.098 111.189 288.898 112.539C290.699 113.889 296.999 119.74 296.999 121.09C296.999 122.44 283.947 132.342 283.947 132.342C283.947 132.342 278.547 158.895 281.247 167.897C283.948 176.898 287.998 198.501 286.198 199.851C284.398 201.201 280.347 201.651 280.347 199.851C280.347 198.051 277.647 178.698 275.396 174.647C273.146 170.597 266.395 144.944 269.096 137.742C271.796 130.542 278.097 103.538 278.097 103.538Z" fill="#FBB03B"/>
<path d="M218.689 148.094C218.689 148.094 218.239 162.046 223.19 169.247C228.14 176.448 231.291 184.549 231.291 184.549C231.291 184.549 239.392 182.299 240.742 179.598C242.092 176.898 250.643 179.148 250.643 178.248C250.643 177.348 240.292 172.848 239.392 171.947C238.492 171.047 235.341 171.047 233.541 169.247C231.741 167.447 231.291 163.396 231.291 163.396L229.49 151.695L218.689 148.094Z" fill="#9F616A"/>
<path d="M256.166 75.0282C255.023 74.924 253.845 74.81 252.835 74.2653C250.572 73.0454 249.973 69.5703 251.695 67.6619C252.17 67.1763 252.701 66.7495 253.277 66.3897L256.698 64.0613C258.211 63.0312 259.76 61.9846 261.525 61.499C263.121 61.0602 264.807 61.1052 266.459 61.2079C269.666 61.4073 272.894 61.819 275.911 62.9263C278.928 64.0339 281.742 65.8865 283.569 68.5305C286.466 72.7216 286.505 78.3737 284.91 83.2123C283.315 88.0506 280.284 92.2639 277.298 96.3917L275.749 88.8318C275.611 88.1587 275.432 87.4207 274.872 87.0222C273.481 86.0316 271.778 88.0655 270.069 88.0523C268.972 88.0437 268.05 87.1411 267.635 86.125C267.219 85.1094 267.191 83.9842 267.095 82.8908C266.891 80.5749 266.082 77.3525 263.888 76.0751C261.845 74.8851 258.463 75.2366 256.166 75.0282Z" fill="black"/>
<path opacity="0.1" d="M256.999 199.314C256.999 199.314 258.519 243.282 259.419 244.632C260.32 245.982 259.419 199.176 259.419 199.176L256.999 199.314Z" fill="black"/>
<path d="M239.392 107.138H235.791C235.791 107.138 220.489 127.841 222.29 129.192C224.09 130.542 222.29 134.143 222.29 134.143L218.689 140.893C218.689 140.893 214.188 144.944 215.539 145.844C216.889 146.744 218.689 150.344 218.689 150.344C218.689 150.344 227.69 148.994 230.391 154.395L236.228 147.026L239.392 107.138Z" fill="#FBB03B"/>
<path d="M280.347 145.843C280.347 145.843 270.446 146.293 259.195 139.092L247.943 134.142C247.943 134.142 238.042 118.84 237.142 121.54C236.241 124.241 238.492 129.641 238.492 129.641C238.492 129.641 224.913 135.926 224.56 136.756C224.207 137.587 232.191 135.492 232.191 135.492C232.191 135.492 230.841 144.043 238.492 144.493C246.143 144.943 248.393 143.143 248.393 143.143C248.393 143.143 280.798 170.147 286.198 161.596C291.599 153.045 280.347 145.843 280.347 145.843Z" fill="#9F616A"/>
<path d="M292.049 119.29L296.999 121.09V134.592L298.8 137.293C298.8 137.293 298.35 142.693 296.999 144.043C295.649 145.394 292.949 144.944 293.849 148.094C294.39 150.148 294.543 152.285 294.299 154.395C294.299 154.395 286.198 164.746 285.748 163.396C285.298 162.046 278.997 145.394 278.097 145.394C277.197 145.394 287.098 119.29 287.098 119.29H292.049Z" fill="#FBB03B"/>
<path d="M232.865 187.474C232.865 187.474 228.212 182.973 230.539 182.748C232.865 182.523 240.966 178.023 242.317 180.273C243.667 182.523 232.865 187.474 232.865 187.474Z" fill="black"/>
<path d="M161.819 319.689C169.91 306.19 174.172 290.743 174.148 275.006C174.148 226.916 135.164 187.932 87.0744 187.932C38.9844 187.932 9.80201e-05 226.916 9.80201e-05 275.006C-0.0235677 290.743 4.23852 306.19 12.3291 319.689H161.819Z" fill="black"/>
<circle cx="87.0742" cy="269.277" r="8.4019" fill="#36D6BA"/>
<circle cx="20.2413" cy="283.026" r="4.20095" fill="#36D6BA"/>
<circle cx="22.7059" cy="246.64" r="4.20095" fill="#36D6BA"/>
<circle cx="43.5582" cy="216.721" r="4.20095" fill="#36D6BA"/>
<circle cx="76.8423" cy="201.816" r="4.20095" fill="#36D6BA"/>
<circle cx="113.049" cy="206.182" r="4.20095" fill="#36D6BA"/>
<circle cx="141.835" cy="228.572" r="4.20095" fill="#36D6BA"/>
<circle cx="154.978" cy="262.59" r="4.20095" fill="#36D6BA"/>
<circle cx="148.724" cy="298.518" r="4.20095" fill="#36D6BA"/>
<line x1="85.8605" y1="267.683" x2="129.016" y2="234.839" stroke="#36D6BA" stroke-width="4"/>
</g>
</svg>
