<svg width="327" height="327" viewBox="0 0 327 327" fill="none" xmlns="http://www.w3.org/2000/svg">
<g opacity="0.1">
<path d="M163.5 17.0312C183.281 17.0312 202.461 20.9016 220.507 28.5346C237.947 35.9108 253.612 46.474 267.069 59.9308C280.526 73.3881 291.089 89.0534 298.465 106.493C306.098 124.539 309.969 143.719 309.969 163.5C309.969 183.281 306.098 202.461 298.465 220.507C291.089 237.947 280.526 253.612 267.069 267.069C253.612 280.526 237.947 291.089 220.507 298.465C202.461 306.098 183.281 309.969 163.5 309.969C143.719 309.969 124.539 306.098 106.493 298.465C89.0534 291.089 73.3881 280.526 59.9308 267.069C46.474 253.612 35.9108 237.947 28.5346 220.507C20.9016 202.461 17.0312 183.281 17.0312 163.5C17.0312 143.719 20.9016 124.539 28.5346 106.493C35.9108 89.0534 46.474 73.3881 59.9308 59.9308C73.3881 46.474 89.0534 35.9108 106.493 28.5346C124.539 20.9016 143.719 17.0312 163.5 17.0312ZM163.5 0C73.2016 0 0 73.2016 0 163.5C0 253.798 73.2016 327 163.5 327C253.798 327 327 253.798 327 163.5C327 73.2016 253.798 0 163.5 0Z" fill="black"/>
<path d="M222.115 275.161H184.529C178.348 275.161 173.319 270.132 173.319 263.952V248.917C173.319 238.275 170.718 227.98 165.741 218.733C160.757 228.008 158.152 238.332 158.152 249.003V263.952C158.152 270.132 153.123 275.161 146.942 275.161H109.356C103.175 275.161 98.1465 270.132 98.1465 263.952V248.942C98.1465 222.969 106.126 198.068 121.221 176.931L123.853 173.248C131.624 162.365 135.732 149.545 135.732 136.172V128.575H120.653L120.603 128.575C116.42 128.575 112.631 126.275 110.701 122.558C108.758 118.817 109.073 114.36 111.525 110.929L156.778 46.868C158.882 43.9761 162.272 42.2495 165.848 42.2495C169.425 42.2495 172.816 43.9765 174.919 46.8697L174.989 46.9664L219.968 110.96C222.399 114.386 222.707 118.828 220.769 122.559C218.84 126.275 215.051 128.575 210.868 128.575C210.85 128.575 210.833 128.575 210.816 128.575H195.739V136.159C195.708 149.552 199.813 162.367 207.61 173.235L207.639 173.276L210.255 176.976C225.409 198.074 233.387 222.957 233.324 248.935V263.952C233.324 270.132 228.296 275.161 222.115 275.161ZM188.221 260.259H218.422V248.917C218.477 226.064 211.463 204.191 198.136 185.648L198.102 185.601L195.487 181.902C185.864 168.48 180.799 152.657 180.836 136.142V113.673H203.659L165.841 59.8667L127.832 113.673H150.635V136.172C150.635 152.669 145.567 168.484 135.979 181.909L133.348 185.593C120.068 204.187 113.049 226.092 113.049 248.942V260.259H143.25V249.003C143.25 232.481 148.315 216.634 157.899 203.175L165.735 192.172L173.621 203.244C183.172 216.657 188.221 232.45 188.221 248.917V260.259ZM123.696 119.528L123.674 119.559L123.696 119.528Z" fill="black"/>
</g>
</svg>
