<svg width="330" height="330" viewBox="0 0 330 330" fill="none" xmlns="http://www.w3.org/2000/svg">
<mask id="mask0_1_1463" style="mask-type:alpha" maskUnits="userSpaceOnUse" x="0" y="0" width="330" height="330">
<path d="M0 0H330V330H0V0Z" fill="black"/>
</mask>
<g mask="url(#mask0_1_1463)">
<path opacity="0.4" d="M-49.4975 218.148H264.545V466.097H-49.4975V218.148Z" fill="#F2F2F2"/>
<path d="M10.3767 160.473H100.368V161.417H10.3767V160.473Z" fill="black"/>
<path d="M217.273 160.473H307.265V161.417H217.273V160.473Z" fill="black"/>
<circle cx="55.3728" cy="160.945" r="5.46677" fill="#FBB03B"/>
<circle cx="298.434" cy="160.945" r="5.46677" fill="#FBB03B"/>
<path d="M61.8553 115.548L61.6163 114.634L117.454 100.05L94.2214 11.1009L-6.7091 37.4628L10.5091 103.383L9.59501 103.622L-7.86092 36.7879L94.8965 9.94857L95.016 10.4055L118.606 100.725L61.8553 115.548Z" fill="black"/>
<path d="M271.229 135.899L270.99 134.986L348.74 114.678L316.372 -9.25122L175.797 27.4658L199.764 119.225L198.85 119.463L174.645 26.7907L317.047 -10.403L317.166 -9.94662L349.893 115.353L271.229 135.899Z" fill="black"/>
<circle cx="55.3724" cy="183.361" r="8.97021" fill="black"/>
<circle cx="262.268" cy="183.361" r="8.97021" fill="black"/>
<path d="M106.445 312.469L105.938 312.279C105.827 312.237 94.7451 307.991 89.5536 298.364C84.3623 288.737 86.9044 277.145 86.9308 277.029L87.0505 276.501L87.5568 276.691C87.6682 276.733 98.7496 280.979 103.941 290.606C109.133 300.234 106.59 311.825 106.564 311.941L106.445 312.469ZM90.3848 297.916C94.7741 306.056 103.531 310.228 105.75 311.181C106.172 308.803 107.495 299.186 103.11 291.054C98.7251 282.923 89.9645 278.744 87.7449 277.789C87.3227 280.169 85.9999 289.784 90.3848 297.916Z" fill="black"/>
<path d="M93.5218 294.987C102.851 300.6 106.444 311.748 106.444 311.748C106.444 311.748 94.9114 313.797 85.5822 308.184C76.2528 302.571 72.66 291.423 72.66 291.423C72.66 291.423 84.1924 289.374 93.5218 294.987Z" fill="#36D6BA"/>
<path d="M166.103 113.511C166.103 113.511 158.292 112.395 154.387 126.9C150.482 141.406 149.366 142.522 149.366 142.522C149.366 142.522 172.24 145.869 172.798 144.753C173.356 143.638 177.819 116.858 166.103 113.511Z" fill="black"/>
<circle cx="161.64" cy="92.8684" r="15.0635" fill="#FFB8B8"/>
<path d="M154.945 105.142C154.945 105.142 159.966 117.974 158.292 119.648C156.619 121.321 178.935 123.553 178.935 123.553C178.935 123.553 180.609 115.184 173.914 110.163C173.914 110.163 171.125 101.795 171.682 100.121C172.24 98.4471 154.945 105.142 154.945 105.142Z" fill="#FFB8B8"/>
<path d="M168.336 110.721C162.617 112.881 157.465 116.315 153.272 120.763C146.577 128.016 143.23 130.248 143.23 130.248C143.23 130.248 135.419 133.037 138.209 146.427C139.603 153.122 138.627 160.654 137.302 166.512C135.278 175.603 134.272 184.891 134.303 194.204V199.986C134.303 199.986 82.9755 307.662 100.271 314.915C117.566 322.168 133.187 324.4 134.303 322.726C135.419 321.052 155.504 234.019 155.504 234.019C155.504 234.019 161.083 327.189 175.03 327.189C188.978 327.189 211.852 323.284 211.852 323.284L183.399 211.702C183.399 211.702 190.094 192.733 173.357 179.344L171.125 173.207C180.381 173.212 184.611 114.631 175.03 109.605C175.03 109.605 172.799 107.932 168.336 110.721Z" fill="black"/>
<path d="M154.388 140.848L146.577 161.491L128.166 199.986C128.166 199.986 119.797 225.092 126.492 225.092C133.187 225.092 138.208 201.102 138.208 201.102L158.851 168.744L170.567 139.732L154.388 140.848Z" fill="#FFB8B8"/>
<ellipse cx="117.287" cy="321.61" rx="9.76336" ry="5.57907" fill="black"/>
<ellipse cx="192.046" cy="321.61" rx="9.76336" ry="5.57907" fill="black"/>
<path d="M167.455 71.7445C166.68 71.746 165.906 71.8227 165.146 71.9742C163.771 71.3069 162.264 70.9594 160.736 70.958H160.336C152.619 70.958 146.364 77.9405 146.364 86.554H148.95L149.367 83.3758L149.979 86.554H152.133C151.463 89.1044 151.127 91.7308 151.133 94.3675V110.242H155.042L157.305 104.361L156.739 110.242H181.867L183.924 104.895L183.41 110.242H186.239V97.7778C186.239 83.4 177.83 71.7445 167.455 71.7445Z" fill="black"/>
<path d="M42.9597 54.953C44.339 59.7176 46.4179 64.2995 48.5043 68.789C51.0288 74.2217 53.3759 79.7594 56.0788 85.1041C56.1067 85.1589 56.1272 85.2134 56.1424 85.2674C56.4947 85.2634 56.8485 85.2683 57.2035 85.2884C55.0746 80.2486 54.7975 74.3791 54.0542 69.0358C53.3413 63.91 53.1856 58.7393 53.4522 53.5754C52.1914 52.3356 50.8065 51.1838 49.0995 50.8266C47.3725 50.4654 45.4789 51.036 44.2396 52.2914C43.5686 52.9714 43.109 53.8417 42.8818 54.769C42.9128 54.824 42.9397 54.8839 42.9597 54.953Z" fill="#36D6BA"/>
<path d="M61.2691 67.4351C60.1875 73.6066 59.7156 79.9414 61.3874 86.0411C61.5707 86.0971 61.752 86.1564 61.9323 86.2183C64.753 75.4118 67.6694 64.6657 73.5248 55.0964C72.9433 53.2912 71.8906 51.6223 70.254 50.7134C68.8173 49.9158 66.8948 49.9481 65.5412 50.7815C63.4648 56.0937 62.2512 61.8323 61.2691 67.4351Z" fill="#36D6BA"/>
<path d="M33.8517 61.3114C39.4986 69.9655 45.8605 78.1155 52.8944 85.6859C53.3989 85.5527 53.9174 85.4491 54.4481 85.3804C51.8359 80.1552 49.5388 74.7651 47.0771 69.4685C45.1148 65.2465 43.1586 60.9454 41.7673 56.4901C40.1926 55.7297 38.2557 55.7094 36.6943 56.5116C34.9879 57.3885 33.818 59.202 33.6604 61.1072C33.7295 61.1604 33.7955 61.2252 33.8517 61.3114Z" fill="#36D6BA"/>
<path d="M55.3918 67.0268C55.7671 70.1324 56.3047 73.2145 56.7508 76.3101C57.2148 79.5249 57.6199 82.5606 59.0357 85.4934C59.2336 85.5261 59.4308 85.5615 59.6272 85.6011C58.2386 79.8347 58.5927 73.8828 59.55 68.0489C60.4868 62.3421 61.7334 56.5226 63.7465 51.0743C62.7032 49.5951 60.5195 48.9315 58.7231 49.4798C57.1892 49.9482 55.966 51.0763 55.1015 52.449C54.7946 57.2957 54.8098 62.206 55.3918 67.0268Z" fill="#36D6BA"/>
<path d="M71.8403 77.0157C69.4997 80.4648 66.803 83.8479 64.9223 87.5883C65.1905 87.749 65.4481 87.9162 65.6958 88.0897C66.0514 87.4861 66.6649 87.0072 67.2494 86.586C71.8527 83.2654 76.5301 80.0113 80.6913 76.1502C81.9469 74.9854 83.1691 73.7459 84.0014 72.2488C84.8331 70.7517 85.2441 68.9524 84.7876 67.3014C84.3742 65.8082 83.2185 64.5626 81.7981 63.9586C78.1738 68.0777 74.9199 72.4787 71.8403 77.0157Z" fill="#36D6BA"/>
<path d="M74.778 56.0899C69.0956 65.4948 66.2302 76.0501 63.465 86.6452C63.4504 86.7018 63.4301 86.7532 63.4074 86.801C63.4425 86.8167 63.4763 86.8333 63.511 86.8494C65.4408 83.0187 68.2145 79.572 70.6027 76.029C73.6428 71.5188 76.8813 67.1526 80.4677 63.0597C80.714 61.245 80.3617 59.3166 79.2206 57.8941C78.1726 56.5874 76.4038 55.8348 74.778 56.0899Z" fill="#36D6BA"/>
<path d="M58.5274 87.1529C58.4243 87.1602 58.3214 87.1456 58.2249 87.1031C58.1012 87.0835 57.9776 87.0632 57.855 87.0449C55.2351 86.6559 50.9699 87.2995 49.3065 89.7673C49.1882 89.9428 49.0318 90.0474 48.8647 90.1006C48.4547 90.7305 48.2526 91.3675 48.29 92.2371C48.3335 93.2519 49.0323 94.1508 49.8973 94.6827C50.7622 95.2142 51.7792 95.436 52.781 95.6037C56.2733 96.1901 59.9108 96.2233 63.3064 95.2174C64.6141 94.8301 66.0667 94.0575 66.2314 92.7033C66.3458 91.7656 65.7892 90.8771 65.5258 89.9699C63.6097 88.3321 61.0057 87.5737 58.5274 87.1529Z" fill="#36D6BA"/>
<path d="M51.2683 86.2549C44.3608 78.7544 38.0807 70.7073 32.5073 62.1663C32.4426 62.0669 32.4054 61.9677 32.3876 61.8709C31.0017 62.1632 29.7834 63.4323 29.1427 64.7835C28.8407 65.4207 28.6069 66.121 28.6897 66.8213C28.7906 67.6748 29.3407 68.3983 29.8709 69.0746C35.3939 76.1245 41.0382 83.2788 48.323 88.4679C49.123 87.4979 50.1301 86.7692 51.2683 86.2549Z" fill="#36D6BA"/>
<path d="M240.39 39.4069C242.981 48.3569 246.885 56.9635 250.804 65.3965C255.546 75.6004 259.955 86.0022 265.032 96.0419C265.084 96.145 265.123 96.2471 265.151 96.3483C265.813 96.3412 266.478 96.3507 267.144 96.3879C263.146 86.9212 262.625 75.8958 261.229 65.8595C259.89 56.2315 259.598 46.5194 260.098 36.8196C257.73 34.4908 255.129 32.3272 251.922 31.6562C248.679 30.9777 245.122 32.0496 242.794 34.408C241.533 35.6844 240.67 37.3203 240.243 39.0617C240.302 39.1648 240.352 39.2777 240.39 39.4069Z" fill="#36D6BA"/>
<path d="M274.78 62.8529C272.749 74.4456 271.862 86.344 275.002 97.8014C275.347 97.9065 275.687 98.0181 276.026 98.1339C281.324 77.8356 286.802 57.6509 297.801 39.6767C296.709 36.2855 294.732 33.1511 291.658 31.4436C288.958 29.9448 285.347 30.0059 282.805 31.5717C278.905 41.5503 276.625 52.3294 274.78 62.8529Z" fill="#36D6BA"/>
<path d="M223.28 51.3511C233.887 67.6063 245.837 82.9152 259.049 97.1346C259.997 96.8847 260.971 96.6902 261.968 96.5609C257.061 86.7462 252.747 76.6215 248.122 66.6729C244.437 58.7426 240.762 50.6637 238.149 42.2941C235.191 40.8659 231.553 40.8281 228.62 42.3351C225.414 43.9822 223.217 47.3886 222.921 50.9672C223.051 51.0674 223.175 51.1891 223.28 51.3511Z" fill="#36D6BA"/>
<path d="M263.741 62.086C264.446 67.9189 265.456 73.7088 266.294 79.5229C267.166 85.5612 267.926 91.2637 270.586 96.7726C270.958 96.8337 271.328 96.9011 271.697 96.9744C269.088 86.1438 269.753 74.9637 271.552 64.005C273.311 53.2858 275.653 42.355 279.435 32.121C277.474 29.3429 273.373 28.0963 269.998 29.1264C267.117 30.0055 264.819 32.1245 263.196 34.7032C262.619 43.8069 262.648 53.0307 263.741 62.086Z" fill="#36D6BA"/>
<path d="M294.635 80.8481C290.238 87.3263 285.173 93.6809 281.641 100.707C282.145 101.008 282.628 101.323 283.093 101.649C283.761 100.515 284.914 99.6162 286.011 98.8243C294.659 92.5865 303.444 86.4746 311.26 79.2223C313.619 77.0337 315.915 74.7061 317.478 71.8938C319.041 69.0819 319.812 65.7017 318.954 62.601C318.179 59.796 316.008 57.4567 313.339 56.322C306.531 64.059 300.42 72.3253 294.635 80.8481Z" fill="#36D6BA"/>
<path d="M300.155 41.542C289.481 59.2079 284.099 79.0351 278.905 98.9362C278.877 99.0427 278.839 99.1387 278.796 99.2289C278.862 99.2587 278.926 99.2897 278.991 99.3198C282.615 92.1242 287.825 85.6499 292.311 78.995C298.022 70.5233 304.105 62.3217 310.841 54.6345C311.305 51.2253 310.642 47.6029 308.499 44.9315C306.531 42.4774 303.208 41.0634 300.155 41.542Z" fill="#36D6BA"/>
<path d="M269.63 99.8898C269.436 99.9035 269.243 99.8766 269.063 99.7965C268.83 99.7594 268.598 99.7217 268.367 99.6875C263.446 98.9569 255.435 100.166 252.31 104.801C252.088 105.13 251.794 105.327 251.48 105.427C250.71 106.611 250.33 107.806 250.401 109.44C250.483 111.346 251.795 113.034 253.42 114.034C255.045 115.033 256.955 115.448 258.836 115.764C265.397 116.865 272.229 116.927 278.607 115.038C281.064 114.31 283.791 112.859 284.102 110.316C284.316 108.554 283.27 106.885 282.776 105.181C279.177 102.105 274.286 100.68 269.63 99.8898Z" fill="#36D6BA"/>
<path d="M255.995 98.2027C243.02 84.114 231.224 68.9986 220.755 52.9557C220.633 52.7688 220.564 52.5828 220.53 52.4008C217.927 52.9498 215.639 55.3336 214.435 57.8716C213.868 59.0686 213.428 60.3841 213.585 61.6997C213.774 63.3025 214.808 64.6613 215.803 65.9319C226.178 79.1739 236.78 92.6126 250.462 102.359C251.965 100.537 253.857 99.1688 255.995 98.2027Z" fill="#36D6BA"/>
</g>
</svg>
