<svg width="330" height="296" viewBox="0 0 330 296" fill="none" xmlns="http://www.w3.org/2000/svg">
<mask id="mask0_1_1662" style="mask-type:alpha" maskUnits="userSpaceOnUse" x="0" y="-35" width="330" height="331">
<path d="M0 -34.4647H330V295.535H0V-34.4647Z" fill="black"/>
</mask>
<g mask="url(#mask0_1_1662)">
<path opacity="0.4" d="M163.159 192.323H477.202V440.272H163.159V192.323Z" fill="#F2F2F2"/>
<path d="M163.343 29.3482H192.35V71.6155H163.343V29.3482Z" fill="black"/>
<path d="M186.743 48.8486C186.743 48.8486 185.67 69.7143 195.275 70.5431C202.002 71.1275 182.111 89.6046 182.111 89.6046L165 65.9602C165 65.9602 177.822 67.2767 169.583 52.7976L186.743 48.8486Z" fill="#FFB8B8"/>
<path opacity="0.1" d="M165 65.9602L170.411 73.4678L182.111 89.6534C182.111 89.6534 191.862 80.5855 195.421 74.9305C196.737 72.7851 197.176 71.1764 195.908 70.6887L195.323 70.5431H195.275C194.689 70.4942 194.153 70.3476 193.617 70.1531C185.719 67.2279 186.694 48.7997 186.694 48.7997L169.583 52.7487C175.092 62.4016 171.191 65.0337 167.974 65.7164C167.292 65.8625 166.56 65.9602 165.829 65.9602C165.341 66.0091 165 65.9602 165 65.9602Z" fill="black"/>
<path d="M159.979 31.7372C163.099 41.0002 167.925 49.4827 177.724 49.4827C187.524 49.4827 194.885 41.5363 195.47 31.7372C196.152 19.2568 187.767 13.9429 177.724 13.9918C165.878 14.0406 156.273 20.7194 159.979 31.7372Z" fill="black"/>
<path d="M201.856 182.427L197.274 214.651C197.274 214.651 201.223 234.395 199.223 248.192L197.274 262.671H188.06L185.427 247.559C185.427 247.559 182.794 231.763 182.794 224.548C182.794 224.548 175.58 191.641 180.162 185.059L201.856 182.427Z" fill="#FFB8B8"/>
<path d="M145.938 180.477L150.521 214.7C150.521 214.7 146.572 234.445 148.57 248.241L150.521 262.72H159.735L162.367 247.607C162.367 247.607 165 231.812 165 224.597C165 224.597 172.215 189.739 167.632 183.158L145.938 180.477Z" fill="#FFB8B8"/>
<path d="M155.152 260.77C155.152 260.77 149.887 258.82 149.253 261.404C148.619 263.988 147.303 277.833 147.303 277.833C147.303 277.833 143.354 283.731 140.722 284.414C138.089 285.097 132.19 293.628 139.405 294.262C146.62 294.895 153.884 292.312 153.884 290.996C153.884 289.679 156.517 289.045 157.833 289.045C159.149 289.045 163.732 287.096 163.098 285.097C162.465 283.098 160.465 260.087 160.465 260.087L155.152 260.77Z" fill="black"/>
<path d="M192.641 260.77C192.641 260.77 197.907 258.82 198.541 261.404C199.174 263.988 200.49 277.833 200.49 277.833C200.49 277.833 204.439 283.731 207.072 284.414C209.705 285.097 215.603 293.628 208.388 294.262C201.173 294.895 193.909 292.312 193.909 290.996C193.909 289.679 191.276 289.045 189.96 289.045C188.644 289.045 184.061 287.096 184.695 285.097C185.329 283.098 187.328 260.087 187.328 260.087L192.641 260.77Z" fill="black"/>
<circle cx="176.846" cy="42.9497" r="13.6503" fill="#FFB8B8"/>
<path d="M125.512 117.978C125.512 117.978 153.153 129.824 155.786 117.296C157.395 109.495 158.516 101.549 159.101 93.6024C159.491 93.3586 173.093 85.0222 170.411 73.4678C169.777 70.9819 168.608 68.6421 166.999 66.6429C166.999 66.6429 166.609 66.3995 165.927 66.009C165.097 65.5702 164.268 65.1802 163.44 64.888C158.809 63.1332 151.057 62.1094 149.253 73.9066C146.621 91.0188 146.621 109.446 146.621 109.446C146.621 109.446 138.723 114.078 128.193 109.446C117.663 104.815 107.132 107.497 106.499 113.395C105.767 119.294 125.512 117.978 125.512 117.978Z" fill="#FFB8B8"/>
<path d="M195.275 70.5919L195.421 74.9793L196.981 124.267L197.225 132.457L220.235 158.1C220.235 158.1 224.867 171.897 234.715 173.895C244.562 175.894 228.133 154.834 228.133 154.834L205.756 121.927L205.707 120.805C205.464 111.591 206.244 102.378 207.999 93.3097C208.633 89.9457 208.779 86.4848 208.389 83.0719C207.463 75.7104 201.418 72.5418 197.859 71.2741C197.225 71.0308 196.543 70.8353 195.86 70.6887C195.616 70.6403 195.422 70.5919 195.275 70.5919C195.324 70.5919 195.324 70.5919 195.275 70.5919Z" fill="#FFB8B8"/>
<path d="M158.419 117.978V120.61C168.023 132.359 189.23 126.802 196.981 124.267C198.784 123.682 199.857 123.243 199.857 123.243C199.467 122.415 199.223 121.536 199.223 120.61V114.712C199.223 112.761 198.59 114.029 197.907 113.396C197.224 112.761 199.857 108.764 199.857 108.764C206.438 104.815 202.489 93.6508 202.489 93.6508L197.907 83.7546V71.323C197.273 71.0792 196.591 70.8842 195.908 70.7381L195.323 70.5919H195.275C194.689 70.5431 194.153 70.397 193.617 70.202C192.398 72.7373 189.717 76.1008 184.062 76.4908C177.334 76.9785 170.948 69.7143 167.974 65.7657C167.292 65.9118 166.56 66.0091 165.829 66.0091C165 65.5703 164.171 65.1803 163.343 64.8881L166.267 77.173C168.852 83.6573 159.345 93.2609 159.052 93.6025V100.867L159.686 108.764L160.32 110.714L159.004 112.664L159.637 114.614L159.004 115.93C158.419 117.296 158.419 116.662 158.419 117.978Z" fill="#FBB03B"/>
<path d="M198.59 122.56L200.54 121.927C200.54 121.927 224.233 181.159 208.438 183.792C192.642 186.425 180.795 191.007 178.163 186.425C175.53 181.842 176.846 165.364 176.846 165.364L174.214 164.73C174.214 164.73 178.797 189.057 169.631 187.107C160.466 185.157 134.774 181.842 134.774 179.209C134.774 176.577 158.468 119.733 158.468 119.733C158.468 119.733 168.315 125.875 198.59 122.56Z" fill="black"/>
<circle cx="177.724" cy="10.7253" r="7.02017" fill="black"/>
<path d="M186.11 7.0199C186.11 3.41197 183.38 0.438836 179.821 0.0488681C180.064 0.0488681 180.308 0 180.503 0C184.354 0 187.524 3.11974 187.524 7.0199C187.524 10.9201 184.354 13.9914 180.503 13.9914C180.26 13.9914 180.016 13.9914 179.821 13.9426C183.38 13.6015 186.11 10.579 186.11 7.0199Z" fill="black"/>
<path d="M183.33 25.3503C183.33 25.3503 183.476 24.5215 189.18 26.6668C194.884 28.8121 198.297 44.6073 195.469 53.9186C194.299 57.6727 195.274 60.354 196.786 62.255C202.538 69.3238 200.246 80.0005 191.911 83.6084C191.667 83.7057 191.423 83.8029 191.179 83.9007L187.62 86.0455C187.62 86.0455 192.154 80.0494 189.911 72.3956C187.913 65.863 187.669 58.9403 189.18 52.261C189.424 51.14 189.716 49.9701 190.057 48.7997C192.934 38.8061 191.52 39.9756 181.526 29.9332C181.526 29.9332 175.822 34.2228 170.801 36.3681C165.78 38.5134 161.538 40.6587 165.097 47.7759C168.656 54.894 177.236 61.329 171.533 70.6403C165.829 79.9516 165.097 76.3442 165.829 79.9032L166.56 83.4618L162.27 79.1717L165.146 84.8756C165.146 84.8756 155.883 84.8756 153.007 77.7091L151.593 79.1228C151.593 79.1228 145.89 69.1293 156.615 59.818C156.615 59.818 160.173 57.6727 155.201 50.5545C150.228 43.4374 154.031 28.0322 160.466 25.2047C166.901 22.3767 183.33 25.3503 183.33 25.3503Z" fill="black"/>
<path opacity="0.1" d="M245.196 128.654H358.298V183.743H245.196V128.654Z" fill="#36D6BA"/>
<path d="M-14.0144 165.413H99.0882V220.501H-14.0144V165.413Z" fill="black"/>
<path d="M232.52 121.341H345.623V176.43H232.52V121.341Z" fill="black"/>
<path d="M283.027 158.295C286 169.264 296.141 176.041 296.141 176.041C296.141 176.041 301.503 165.072 298.53 154.152C295.556 143.231 285.416 136.406 285.416 136.406C285.416 136.406 280.053 147.375 283.027 158.295Z" fill="white"/>
<path d="M287.366 155.955C295.507 163.852 296.482 176.04 296.482 176.04C296.482 176.04 284.294 175.357 276.202 167.46C268.109 159.562 267.085 147.374 267.085 147.374C267.085 147.374 279.224 148.057 287.366 155.955Z" fill="#36D6BA"/>
<path d="M31.519 203.243C34.4931 214.212 44.6333 220.989 44.6333 220.989C44.6333 220.989 49.9961 210.02 47.022 199.099C44.0483 188.179 33.9077 181.354 33.9077 181.354C33.9077 181.354 28.5943 192.323 31.519 203.243Z" fill="white"/>
<path d="M35.9063 200.904C44.0478 208.801 45.0232 220.989 45.0232 220.989C45.0232 220.989 32.8355 220.307 24.7424 212.409C16.6499 204.512 15.6261 192.323 15.6261 192.323C15.6261 192.323 27.7649 193.006 35.9063 200.904Z" fill="#36D6BA"/>
<path d="M58.4785 203.243C55.5048 214.212 45.3647 220.989 45.3647 220.989C45.3647 220.989 40.0019 210.02 42.9756 199.099C45.9497 188.179 56.0898 181.354 56.0898 181.354C56.0898 181.354 61.4521 192.323 58.4785 203.243Z" fill="white"/>
<path d="M54.1395 200.904C45.9981 208.801 45.0232 220.989 45.0232 220.989C45.0232 220.989 57.2109 220.307 65.3039 212.409C73.3965 204.512 74.4203 192.323 74.4203 192.323C74.4203 192.323 62.2326 193.006 54.1395 200.904Z" fill="#36D6BA"/>
<path d="M10.361 73.1756H123.464V128.264H10.361V73.1756Z" fill="black"/>
<path d="M66.5232 92.0421H67.4982V128.313H66.5232V92.0421Z" fill="white"/>
<circle cx="67.0103" cy="92.5297" r="5.11887" fill="#36D6BA"/>
<path d="M67.0099 114.419C67.0099 114.419 66.2793 98.6719 51.2636 100.476L67.0099 114.419Z" fill="white"/>
<path d="M-44.3029 222.157H109.721V225.304H-44.3029V222.157Z" fill="#36D6BA"/>
<path d="M-44.3029 160.075H109.721V163.223H-44.3029V160.075Z" fill="#36D6BA"/>
<path d="M-44.3029 97.9938H109.721V101.141H-44.3029V97.9938Z" fill="#36D6BA"/>
<path d="M-44.3029 35.9122H109.721V39.0596H-44.3029V35.9122Z" fill="#36D6BA"/>
<path d="M108.147 0H111.294V272.829H108.147V0Z" fill="#36D6BA"/>
</g>
</svg>
