<svg width="327" height="327" viewBox="0 0 327 327" fill="none" xmlns="http://www.w3.org/2000/svg">
<g opacity="0.1">
<path d="M163.5 17.0312C183.281 17.0312 202.461 20.9016 220.507 28.5346C237.947 35.9108 253.612 46.474 267.069 59.9308C280.526 73.3881 291.089 89.0534 298.465 106.493C306.098 124.539 309.969 143.719 309.969 163.5C309.969 183.281 306.098 202.461 298.465 220.507C291.089 237.947 280.526 253.612 267.069 267.069C253.612 280.526 237.947 291.089 220.507 298.465C202.461 306.098 183.281 309.969 163.5 309.969C143.719 309.969 124.539 306.098 106.493 298.465C89.0534 291.089 73.3881 280.526 59.9308 267.069C46.474 253.612 35.9108 237.947 28.5346 220.507C20.9016 202.461 17.0312 183.281 17.0312 163.5C17.0312 143.719 20.9016 124.539 28.5346 106.493C35.9108 89.0534 46.474 73.3881 59.9308 59.9308C73.3881 46.474 89.0534 35.9108 106.493 28.5346C124.539 20.9016 143.719 17.0312 163.5 17.0312ZM163.5 0C73.2016 0 0 73.2016 0 163.5C0 253.798 73.2016 327 163.5 327C253.798 327 327 253.798 327 163.5C327 73.2016 253.798 0 163.5 0Z" fill="black"/>
<path d="M234.685 129.551H124.172V82.9209H234.685V129.551ZM136.846 116.876H222.01V95.5951H136.846V116.876Z" fill="black"/>
<path d="M234.685 216.454H124.172V169.824H234.685V216.454ZM136.846 203.78H222.01V182.499H136.846V203.78Z" fill="black"/>
<path d="M234.685 250.41H124.172V203.78H234.685V250.41ZM136.846 237.736H222.01V216.454H136.846V237.736Z" fill="black"/>
<path d="M72.9504 185.163V115.363L133.399 150.263L72.9504 185.163ZM85.6251 137.315V163.21L108.051 150.263L85.6251 137.315Z" fill="black"/>
</g>
</svg>
