<svg width="327" height="327" viewBox="0 0 327 327" fill="none" xmlns="http://www.w3.org/2000/svg">
<g opacity="0.1">
<path d="M163.5 17.0312C183.28 17.0312 202.461 20.9016 220.507 28.5346C237.947 35.9108 253.612 46.474 267.069 59.9308C280.526 73.3881 291.089 89.0534 298.465 106.493C306.098 124.539 309.969 143.719 309.969 163.5C309.969 183.28 306.098 202.461 298.465 220.507C291.089 237.947 280.526 253.612 267.069 267.069C253.612 280.526 237.947 291.089 220.507 298.465C202.461 306.098 183.28 309.969 163.5 309.969C143.719 309.969 124.539 306.098 106.493 298.465C89.0534 291.089 73.3881 280.526 59.9308 267.069C46.474 253.612 35.9108 237.947 28.5346 220.507C20.9016 202.461 17.0312 183.28 17.0312 163.5C17.0312 143.719 20.9016 124.539 28.5346 106.493C35.9108 89.0534 46.474 73.3881 59.9308 59.9308C73.3881 46.474 89.0534 35.9108 106.493 28.5346C124.539 20.9016 143.719 17.0312 163.5 17.0312ZM163.5 0C73.2016 0 0 73.2016 0 163.5C0 253.798 73.2016 327 163.5 327C253.798 327 327 253.798 327 163.5C327 73.2016 253.798 0 163.5 0Z" fill="black"/>
<path d="M127.371 131.879C90.6924 131.879 60.8519 161.719 60.8519 198.397C60.8519 235.075 90.6924 264.916 127.371 264.916C164.049 264.916 193.89 235.075 193.89 198.397C193.89 161.719 164.049 131.879 127.371 131.879ZM127.371 146.375C156.057 146.375 179.394 169.712 179.394 198.397C179.393 227.083 156.056 250.42 127.371 250.42C98.6851 250.42 75.3481 227.083 75.3481 198.397C75.3481 169.712 98.6851 146.375 127.371 146.375Z" fill="black"/>
<path d="M127.371 170.082C142.984 170.082 155.686 182.784 155.686 198.397C155.686 202.394 158.937 205.645 162.934 205.645C166.93 205.645 170.182 202.394 170.182 198.397C170.182 174.792 150.977 155.587 127.371 155.587C123.375 155.587 120.124 158.838 120.124 162.835C120.124 166.831 123.375 170.082 127.371 170.082Z" fill="black"/>
<path d="M233.584 96.33C211.592 96.33 193.701 114.221 193.701 136.213C193.701 158.204 211.592 176.095 233.584 176.095C255.575 176.095 273.467 158.204 273.467 136.213C273.467 114.221 255.575 96.33 233.584 96.33ZM233.584 110.827C247.582 110.827 258.971 122.215 258.971 136.214C258.971 150.212 247.582 161.6 233.584 161.6C219.586 161.6 208.197 150.212 208.197 136.214C208.197 122.215 219.586 110.827 233.584 110.827Z" fill="black"/>
<path d="M238.232 157.969C242.228 157.969 245.48 154.717 245.48 150.72C245.48 146.724 242.228 143.472 238.232 143.472C231.431 143.472 225.899 137.94 225.899 131.14C225.899 127.143 222.647 123.892 218.651 123.892C214.654 123.892 211.403 127.143 211.403 131.14C211.403 145.933 223.438 157.969 238.232 157.969Z" fill="black"/>
<path d="M134.024 117.502C149.632 117.502 162.331 104.803 162.331 89.1943C162.331 73.5855 149.632 60.8866 134.024 60.8866C118.414 60.8866 105.715 73.5855 105.715 89.1943C105.715 104.803 118.414 117.502 134.024 117.502ZM134.024 75.3823C141.639 75.3823 147.835 81.5787 147.835 89.1943C147.835 96.8102 141.639 103.006 134.024 103.006C126.408 103.006 120.212 96.8102 120.212 89.1943C120.212 81.5787 126.408 75.3823 134.024 75.3823Z" fill="black"/>
</g>
</svg>
