<svg width="327" height="327" viewBox="0 0 327 327" fill="none" xmlns="http://www.w3.org/2000/svg">
<g opacity="0.1">
<path d="M163.5 17.0312C183.28 17.0312 202.461 20.9016 220.507 28.5346C237.947 35.9108 253.612 46.474 267.069 59.9308C280.526 73.3881 291.089 89.0534 298.465 106.493C306.098 124.539 309.969 143.719 309.969 163.5C309.969 183.281 306.098 202.461 298.465 220.507C291.089 237.947 280.526 253.612 267.069 267.069C253.612 280.526 237.947 291.089 220.507 298.465C202.461 306.098 183.28 309.969 163.5 309.969C143.719 309.969 124.539 306.098 106.493 298.465C89.0534 291.089 73.3881 280.526 59.9308 267.069C46.474 253.612 35.9108 237.947 28.5346 220.507C20.9016 202.461 17.0312 183.281 17.0312 163.5C17.0312 143.719 20.9016 124.539 28.5346 106.493C35.9108 89.0534 46.474 73.3881 59.9308 59.9308C73.3881 46.474 89.0534 35.9108 106.493 28.5346C124.539 20.9016 143.719 17.0312 163.5 17.0312ZM163.5 0C73.2015 0 0 73.2016 0 163.5C0 253.798 73.2015 327 163.5 327C253.798 327 327 253.798 327 163.5C327 73.2016 253.798 0 163.5 0Z" fill="black"/>
<path d="M218.913 114.742C216.259 114.742 213.666 115.285 211.266 116.33C207.888 110.416 201.544 106.63 194.576 106.63C191.923 106.63 189.329 107.173 186.929 108.217C183.552 102.304 177.208 98.5179 170.239 98.5179C168.497 98.5179 166.771 98.7555 165.107 99.2179V77.1616C165.107 66.5719 156.492 57.9567 145.903 57.9567C135.313 57.9567 126.697 66.5719 126.697 77.1616V167.179L108.711 158.182C104.945 156.299 100.722 155.303 96.4991 155.303C86.3118 155.303 78.024 163.613 78.024 173.827C78.024 178.761 79.9477 183.402 83.4399 186.894L135.893 239.347C148.307 251.77 164.826 258.611 182.408 258.611C213.127 258.611 238.118 233.62 238.118 202.901V133.947C238.118 123.358 229.502 114.742 218.913 114.742ZM145.852 229.389L93.384 176.929C92.5424 176.092 92.0974 175.003 92.0974 173.779C92.0974 171.351 94.0717 169.377 96.4991 169.377C98.5373 169.377 100.585 169.86 102.419 170.774L130.599 184.86C131.57 185.342 132.657 185.597 133.741 185.597C135.056 185.597 136.336 185.232 137.436 184.547C139.493 183.274 140.771 180.982 140.771 178.565V77.1616C140.771 74.3323 143.073 72.03 145.903 72.03C148.732 72.03 151.035 74.3323 151.035 77.1616V154.228C151.035 158.108 154.191 161.265 158.071 161.265C161.951 161.265 165.107 158.108 165.107 154.228V117.723C165.107 114.893 167.41 112.591 170.239 112.591C173.069 112.591 175.371 114.893 175.371 117.723V154.228C175.371 158.108 178.528 161.265 182.408 161.265C186.288 161.265 189.445 158.108 189.445 154.228V125.835C189.445 123.006 191.746 120.704 194.576 120.704C197.405 120.704 199.708 123.006 199.708 125.835V154.228C199.708 158.108 202.864 161.265 206.744 161.265C210.624 161.265 213.781 158.108 213.781 154.228V133.947C213.781 131.118 216.083 128.816 218.913 128.816C221.742 128.816 224.044 131.118 224.044 133.947V202.901C224.044 225.86 205.362 244.538 182.399 244.538C168.585 244.538 155.607 239.159 145.852 229.389Z" fill="black"/>
</g>
</svg>
