<svg width="329" height="330" viewBox="0 0 329 330" fill="none" xmlns="http://www.w3.org/2000/svg">
<mask id="mask0_1_1757" style="mask-type:alpha" maskUnits="userSpaceOnUse" x="-2" y="0" width="331" height="331">
<path d="M-1.09496 0H329V330.094H-1.09496V0Z" fill="black"/>
</mask>
<g mask="url(#mask0_1_1757)">
<path opacity="0.4" d="M51.0789 75.472H277.985V254.623H51.0789V75.472Z" fill="#F2F2F2"/>
<path d="M74.8797 232.331C75.0913 237.321 71.9355 241.7 68.929 245.654C67.5742 247.507 66.3529 249.454 65.2736 251.48C62.0056 257.293 54.982 260.063 51.177 265.552C50.2661 266.886 49.5553 268.346 48.7444 269.755C45.9903 274.588 42.5297 278.982 38.4776 282.792L31.6659 289.229C29.5992 290.939 27.8653 293.015 26.5514 295.354C25.4105 298.233 24.9573 301.339 25.2291 304.424V305.447V306.146C25.235 309.922 25.6534 313.687 26.4764 317.372C26.9253 318.501 26.9952 319.744 26.676 320.916C26.0381 322.072 24.9341 322.9 23.6446 323.186C22.3329 323.734 20.8757 323.831 19.5031 323.461C18.2165 322.87 17.1384 321.905 16.4093 320.692C12.3922 315.177 10.7703 308.353 8.37507 301.978C7.98133 300.586 8.3301 299.088 9.29845 298.012C10.2509 296.964 11.2992 296.008 12.4296 295.155C17.1702 291.013 19.3782 284.763 21.1621 278.738C22.9461 272.713 24.7176 266.413 28.8594 261.684C31.5413 258.616 35.0967 256.408 38.0658 253.651C45.5509 246.74 49.2933 236.672 51.1897 226.692C53.4827 226.257 55.8345 226.227 58.138 226.605L70.3886 228.227C71.7365 228.247 73.0314 228.756 74.0311 229.661C74.5969 230.435 74.8948 231.372 74.8797 232.331Z" fill="#EFB7B9"/>
<path d="M127.187 242.448C126.93 244.299 126.28 246.072 125.279 247.65C123.803 249.92 122.134 252.057 120.289 254.037C115.611 259.414 114.812 267.061 111.831 273.536C110.87 275.631 109.66 277.615 108.687 279.773C106.117 285.275 105.169 291.325 104.608 297.413C104.545 298.186 104.47 298.972 104.42 299.758C104.371 300.544 104.271 301.692 104.196 302.653C104.009 305.148 103.846 307.88 104.919 310.138C105.481 311.385 106.379 312.308 106.416 313.618C104.57 315.414 101.426 315.202 99.2808 313.755C97.2373 312.158 95.6711 310.03 94.7524 307.605C92.7775 303.3 91.3482 298.766 90.4984 294.107C90.1738 292.348 90.0244 290.264 91.2969 288.992C92.0052 288.434 92.7514 287.926 93.5296 287.47C95.0892 286.223 95.5382 284.102 95.8877 282.144C97.0853 275.416 98.2869 268.691 99.4927 261.972C99.7574 260.323 100.111 258.691 100.553 257.081C101.576 253.476 103.136 249.459 106.055 247.101C106.82 246.394 107.169 245.344 106.978 244.319C106.768 243.314 106.379 242.355 105.83 241.487C103.659 237.595 101.052 233.678 97.0975 231.507C101.171 228.1 105.817 225.443 110.82 223.661C111.698 223.244 112.673 223.076 113.639 223.174C114.159 223.288 114.656 223.486 115.112 223.76C117.717 225.409 119.997 227.523 121.836 229.998C124.742 233.64 127.724 237.845 127.187 242.448Z" fill="#EFB7B9"/>
<path d="M31.841 322.001C30.6275 320.847 29.2216 319.914 27.6867 319.244C27.3443 319.037 26.9613 318.905 26.5639 318.857C25.6034 318.857 24.8799 319.681 24.069 320.105C22.7066 320.841 21.0652 320.841 19.7028 320.105C18.3762 319.36 17.2604 318.292 16.459 316.999C14.7129 314.416 14.3634 311.847 13.64 309.014L21.2622 307.58C22.6475 307.255 23.9851 306.751 25.2417 306.083V305.384V304.361C23.8321 304.773 20.8503 306.158 20.1396 306.32C17.8453 306.84 15.52 307.211 13.1785 307.43C12.8168 306.707 12.2925 306.083 11.9308 305.372C11.0744 303.956 10.5301 302.374 10.3341 300.731C10.3182 300.079 10.1916 299.433 9.95965 298.822C9.71182 298.199 9.07977 297.817 8.41302 297.887C8.16323 297.95 7.92958 298.065 7.72671 298.224C5.59008 299.703 3.93346 301.776 2.96144 304.187C1.53897 307.755 1.71373 311.747 1.17725 315.552C0.740485 318.409 -0.132549 321.24 0.0170301 324.122C0.0143415 324.276 0.0576022 324.429 0.141679 324.558C0.270484 324.684 0.437416 324.763 0.615836 324.783C2.20059 325.132 4.03441 325.444 5.31903 324.459C6.60389 323.473 6.79111 321.602 7.04041 319.98C7.37183 317.817 8.02343 315.714 8.97419 313.743C10.941 316.152 11.9692 319.192 11.8685 322.301C11.8685 324.009 11.6688 325.968 12.8415 327.216C13.4171 327.768 14.1198 328.171 14.8872 328.388C16.4531 328.93 18.078 329.282 19.7278 329.436C22.7255 329.612 25.7334 329.458 28.6974 328.974C29.6327 328.862 30.5811 328.737 31.5039 328.538C31.9801 328.455 32.4315 328.267 32.8262 327.989C33.2525 327.592 33.5262 327.058 33.5998 326.479C33.7303 324.796 33.0819 323.146 31.841 322.001Z" fill="black"/>
<path d="M110.408 312.458C109.666 311.794 108.824 311.25 107.913 310.849C107.184 310.396 106.36 310.123 105.506 310.05C104.545 310.146 103.612 310.43 102.761 310.886C101.894 311.34 100.87 311.386 99.9664 311.01C99.3004 310.524 98.8136 309.831 98.5819 309.039C97.5089 306.544 96.7107 303.825 95.7749 301.23C95.9925 300.884 96.3164 300.617 96.6979 300.469C96.9883 300.377 97.2923 300.339 97.5962 300.357C99.8567 300.425 102.117 300.203 104.32 299.696C104.32 298.91 104.445 298.124 104.508 297.35C102.928 297.203 101.336 297.338 99.8044 297.749C98.7446 298.159 97.6047 298.317 96.4736 298.211C95.7 298.049 94.964 297.575 94.2157 297.475C93.8662 296.814 93.4795 296.227 93.1052 295.529C92.1695 293.87 91.8579 291.936 90.9597 290.314C90.6744 289.752 90.1166 289.378 89.4876 289.329C88.8201 289.419 88.2173 289.774 87.8158 290.314C86.2008 291.765 84.8647 293.498 83.874 295.429C83.5031 296.323 83.2191 297.251 83.0254 298.199C81.7778 303.512 81.1786 308.958 81.2417 314.416C82.6221 314.857 84.081 314.998 85.5204 314.828C86.2606 311.152 87.1629 307.513 88.2277 303.912C88.2468 303.778 88.3186 303.657 88.4272 303.575C88.6643 303.451 88.9014 303.7 89.0384 303.925C90.3413 305.864 91.3935 307.959 92.1695 310.162C92.4831 311.77 93.0249 313.324 93.7789 314.778C94.7534 316.11 96.16 317.063 97.7583 317.473C99.3496 317.874 100.983 318.083 102.624 318.096L105.119 318.221C106.436 318.378 107.771 318.277 109.048 317.921C110.355 317.544 111.327 316.445 111.543 315.102C111.568 314.098 111.153 313.132 110.408 312.458Z" fill="black"/>
<path d="M121.836 228.139C120.737 229.067 119.403 229.672 117.981 229.886L113.752 230.921C113.261 230.955 112.807 231.195 112.504 231.582C112.267 232.031 112.43 232.58 112.317 233.067C112.273 233.26 112.183 233.439 112.055 233.591C111.455 234.122 110.672 234.399 109.872 234.364C109.176 234.339 108.483 234.445 107.826 234.676C107.552 234.793 107.315 234.983 107.14 235.225C106.928 235.537 106.828 235.923 106.604 236.21C106.222 236.627 105.705 236.897 105.144 236.971C104.565 237.106 103.978 237.198 103.385 237.246C101.035 237.455 98.6729 237.024 96.549 235.998C96.0519 235.65 95.4408 235.503 94.8396 235.587C94.4886 235.715 94.1902 235.957 93.9915 236.273C93.7727 236.61 93.5354 236.935 93.2802 237.246C92.1951 238.419 90.2989 238.107 88.7393 237.782C87.7666 237.57 86.7933 237.396 85.8203 237.233C79.9623 236.423 74.0569 236.007 68.1431 235.986C60.4711 235.749 52.8112 235.537 45.4015 233.728C43.7793 233.341 41.8208 232.48 41.9083 230.746C41.9083 229.798 42.7068 228.988 42.7068 228.039C42.7068 226.43 40.7232 225.544 39.1389 225.295C39.7128 216.462 45.0145 208.741 47.7715 200.345C48.4578 198.262 49.019 196.129 49.7424 194.107C53.0982 184.826 60.4833 177.69 66.6212 169.956C67.5661 168.874 68.3401 167.654 68.9167 166.338C69.4429 164.765 69.7169 163.119 69.7276 161.46L70.0644 155.635C79.0558 155.015 88.0899 155.577 96.9354 157.306C97.5208 157.371 98.0641 157.64 98.4701 158.067C98.6592 158.378 98.7743 158.728 98.8069 159.09C99.1559 161.211 99.393 163.356 99.5303 165.502C99.5396 165.974 99.6068 166.443 99.7298 166.899C99.9695 167.475 100.298 168.01 100.703 168.484C105.905 175.083 109.011 183.154 111.506 191.3C114.001 199.447 115.985 207.73 119.128 215.639C120.201 218.371 121.624 221.44 121.898 224.372C122.918 225.43 122.89 227.115 121.836 228.139Z" fill="black"/>
<path opacity="0.1" d="M85.8705 237.196C80.0127 236.386 74.1067 235.969 68.1935 235.949L68.6798 219.543C68.7923 215.913 68.9042 212.271 69.341 208.665C69.9522 203.538 71.1997 198.498 71.8359 193.383C72.191 190.445 72.3533 187.486 72.3225 184.527C72.1495 181.522 72.2331 178.509 72.5721 175.519C72.9837 173.025 74.0442 169.618 76.3147 168.284C77.824 170.342 75.5038 176.118 75.2418 178.588C74.6804 183.74 76.0649 188.868 77.2626 193.895C78.6972 199.933 79.8699 206.033 81.0052 212.134C82.6435 220.467 84.2652 228.821 85.8705 237.196Z" fill="black"/>
<path opacity="0.1" d="M103.434 237.246C101.085 237.455 98.7224 237.024 96.598 235.998C96.1012 235.65 95.4901 235.503 94.8892 235.587C94.5377 235.715 94.2395 235.957 94.0406 236.273C92.032 226.742 92.1445 216.812 90.5477 207.181C89.9863 203.738 89.2005 200.233 89.8617 196.827C90.5725 193.172 92.8805 190.003 93.7787 186.398C94.2569 184.014 94.4248 181.577 94.2777 179.15C94.1572 176.992 93.6327 174.877 92.7306 172.913C94.8391 173.262 96.5605 175.332 97.4089 177.204C98.3227 179.545 98.7883 182.038 98.7812 184.551C99.1182 190.615 99.1678 196.665 99.0807 202.728C98.9679 205.552 99.0306 208.381 99.2677 211.198C99.5797 213.98 100.266 216.7 100.515 219.482C100.777 222.825 100.39 226.243 101.201 229.462C101.825 232.057 103.247 234.676 103.434 237.246Z" fill="black"/>
<path opacity="0.1" d="M112.105 233.59C111.505 234.121 110.722 234.398 109.922 234.364C109.226 234.338 108.532 234.444 107.876 234.676L104.358 212.945C103.873 210.279 103.536 207.588 103.347 204.885C103.198 201.754 103.435 198.648 103.222 195.492C102.827 191.665 102.106 187.88 101.064 184.177C100.515 181.969 98.0202 175.357 99.4175 173.486C101.601 174.896 102.936 177.914 103.672 180.335C104.436 183.132 104.921 185.999 105.119 188.892C105.668 194.465 106.225 200.049 106.79 205.647C107.714 214.928 108.674 224.359 111.905 233.091C111.98 233.241 112.042 233.416 112.105 233.59Z" fill="black"/>
<path d="M130.494 130.734C132.053 129.412 133.625 128.077 135.072 126.618C137.097 124.464 138.969 122.172 140.673 119.756C142.584 117.349 144.174 114.703 145.401 111.885C146.649 108.604 147.073 104.873 149.293 102.154C149.549 101.802 149.9 101.529 150.304 101.368C151.551 100.969 152.512 102.616 152.799 103.864C153.984 110.288 151.165 116.7 148.408 122.576C147.612 124.589 146.444 126.434 144.965 128.015C144.1 128.757 143.196 129.452 142.257 130.098C140.871 131.224 139.593 132.477 138.44 133.841C136.469 136.086 134.573 138.419 132.789 140.827C130.703 143.907 128.389 146.826 125.865 149.559C123.323 152.302 119.962 154.149 116.285 154.823C117.332 154.674 116.983 148.511 116.871 147.738C116.709 146.602 115.935 145.243 115.91 144.182C115.91 142.835 116.434 142.635 117.557 141.688L130.494 130.734Z" fill="#EFB7B9"/>
<path opacity="0.1" d="M130.494 130.734C132.053 129.412 133.625 128.077 135.072 126.618C137.097 124.464 138.969 122.172 140.673 119.756C142.584 117.349 144.174 114.703 145.401 111.885C146.649 108.604 147.073 104.873 149.293 102.154C149.549 101.802 149.9 101.529 150.304 101.368C151.551 100.969 152.512 102.616 152.799 103.864C153.984 110.288 151.165 116.7 148.408 122.576C147.612 124.589 146.444 126.434 144.965 128.015C144.1 128.757 143.196 129.452 142.257 130.098C140.871 131.224 139.593 132.477 138.44 133.841C136.469 136.086 134.573 138.419 132.789 140.827C130.703 143.907 128.389 146.826 125.865 149.559C123.323 152.302 119.962 154.149 116.285 154.823C117.332 154.674 116.983 148.511 116.871 147.738C116.709 146.602 115.935 145.243 115.91 144.182C115.91 142.835 116.434 142.635 117.557 141.688L130.494 130.734Z" fill="black"/>
<path d="M86.4064 91.8622C86.4064 91.8622 82.8137 109.689 78.6844 112.708C74.5555 115.727 101.252 119.233 101.252 119.233C101.252 119.233 101.85 104.986 108.974 98.449C116.097 91.9125 86.4064 91.8622 86.4064 91.8622Z" fill="#EFB7B9"/>
<path d="M79.3089 110.899C77.5374 111.158 75.9177 112.043 74.7431 113.395C71.9487 116.413 71.3873 121.004 72.3479 125.008C73.5296 128.964 75.4282 132.668 77.9493 135.937C80.8497 140.466 84.4303 144.523 88.5655 147.962C90.8722 149.632 93.2665 151.177 95.7384 152.591C99.8388 155.111 103.78 157.882 107.54 160.887C108.369 161.628 109.313 162.23 110.334 162.671C111.214 162.943 112.134 163.062 113.054 163.02C116.174 162.993 119.249 162.277 122.061 160.924C122.324 160.824 122.557 160.657 122.735 160.438C122.935 159.972 122.935 159.444 122.735 158.979C121.051 152.217 124.281 144.532 121.075 138.344C117.595 139.467 113.765 140.69 110.284 141.825C109.749 142.036 109.176 142.134 108.6 142.112C107.908 141.968 107.274 141.62 106.779 141.114C103.037 137.846 100.616 133.292 98.4458 128.801C96.2749 124.31 94.1666 119.657 90.7735 116.002C87.3803 112.347 84.2741 110.376 79.3089 110.899Z" fill="#36D6BA"/>
<path opacity="0.1" d="M79.3089 110.899C77.5374 111.158 75.9177 112.043 74.7431 113.395C71.9487 116.413 71.3873 121.004 72.3479 125.008C73.5296 128.964 75.4282 132.668 77.9493 135.937C80.8497 140.466 84.4303 144.523 88.5655 147.962C90.8722 149.632 93.2665 151.177 95.7384 152.591C99.8388 155.111 103.78 157.882 107.54 160.887C108.369 161.628 109.313 162.23 110.334 162.671C111.214 162.943 112.134 163.062 113.054 163.02C116.174 162.993 119.249 162.277 122.061 160.924C122.324 160.824 122.557 160.657 122.735 160.438C122.935 159.972 122.935 159.444 122.735 158.979C121.051 152.217 124.281 144.532 121.075 138.344C117.595 139.467 113.765 140.69 110.284 141.825C109.749 142.036 109.176 142.134 108.6 142.112C107.908 141.968 107.274 141.62 106.779 141.114C103.037 137.846 100.616 133.292 98.4458 128.801C96.2749 124.31 94.1666 119.657 90.7735 116.002C87.3803 112.347 84.2741 110.376 79.3089 110.899Z" fill="black"/>
<circle cx="100.366" cy="87.4088" r="17.8143" fill="#EFB7B9"/>
<path d="M107.477 138.694V138.769C106.441 140.677 104.907 142.287 103.847 144.183C102.75 146.395 102.004 148.764 101.639 151.206C101.302 152.828 101.003 154.449 100.728 156.084C100.454 157.718 100.179 159.389 99.9296 161.074C94.553 159.252 88.5899 162.321 83.0134 161.199C81.38 160.702 79.7122 160.327 78.0233 160.076C76.7761 160.076 75.5284 160.301 74.2811 160.188C72.2227 159.988 70.1768 158.691 68.2056 159.352C67.3326 159.651 66.2469 160.275 65.6107 159.589C65.4662 159.407 65.3565 159.2 65.2864 158.978C64.6401 157.619 64.4099 156.101 64.6255 154.612C65.092 153.423 65.7172 152.303 66.4842 151.281C67.4374 149.273 67.9316 147.079 67.9314 144.856C68.2931 139.13 68.2804 133.354 69.1788 127.691C70.0768 122.027 72.0978 116.388 75.9275 112.11C77.6956 109.885 80.2413 108.414 83.0508 107.992C93.3554 107.157 101.676 112.833 106.18 121.852C108.837 127.067 110.259 133.516 107.477 138.694Z" fill="#36D6BA"/>
<path d="M137.617 133.117C139.189 131.782 140.76 130.46 142.195 128.988C144.224 126.843 146.096 124.553 147.796 122.139C149.716 119.731 151.31 117.08 152.537 114.255C153.784 110.986 154.196 107.256 156.429 104.537C156.676 104.181 157.024 103.908 157.427 103.751C158.674 103.352 159.635 104.998 159.922 106.246C161.169 112.671 158.275 119.095 155.518 124.959C154.731 126.973 153.567 128.819 152.088 130.397C151.252 131.171 150.279 131.782 149.381 132.468C147.988 133.587 146.71 134.841 145.563 136.211C143.584 138.473 141.696 140.801 139.899 143.197C137.814 146.274 135.504 149.193 132.988 151.929C130.439 154.671 127.076 156.521 123.395 157.206C124.455 157.057 124.106 150.881 123.994 150.108C123.609 148.946 123.288 147.763 123.033 146.565C123.033 145.205 123.557 145.006 124.668 144.07L137.617 133.117Z" fill="#EFB7B9"/>
<path opacity="0.1" d="M105.693 139.292V139.367C104.67 141.276 103.123 142.873 102.062 144.781C100.962 146.992 100.217 149.362 99.854 151.805C99.5297 153.426 99.2178 155.048 98.9436 156.682C96.7899 155.458 94.7073 154.113 92.706 152.653C88.5635 149.217 84.9779 145.16 82.0771 140.627C79.5562 137.358 77.6577 133.654 76.4762 129.699C75.5156 125.694 76.0768 121.103 78.8836 118.084C80.0607 116.754 81.6767 115.891 83.4372 115.652C88.4271 115.115 91.5458 117.036 94.939 120.642C98.3321 124.248 100.441 128.938 102.611 133.441C103.584 135.45 104.57 137.421 105.693 139.292Z" fill="black"/>
<path d="M86.4314 113.27C84.6643 113.531 83.0496 114.416 81.8777 115.764C79.0711 118.783 78.5097 123.374 79.4826 127.379C80.4557 131.383 82.7263 134.864 85.0717 138.307C87.9788 142.835 91.5634 146.891 95.7002 150.332C98.0028 151.998 100.393 153.539 102.861 154.948C106.963 157.466 110.904 160.236 114.662 163.245C115.488 163.991 116.432 164.594 117.457 165.028C118.34 165.305 119.264 165.427 120.189 165.39C123.308 165.349 126.382 164.63 129.196 163.282C129.461 163.185 129.694 163.016 129.869 162.795C130.069 162.333 130.069 161.809 129.869 161.348C128.198 154.574 131.429 146.89 128.223 140.702L117.419 144.183C116.886 144.4 116.311 144.498 115.735 144.469C115.048 144.319 114.416 143.977 113.914 143.484C110.171 140.215 107.751 135.662 105.58 131.158C103.41 126.655 101.314 122.027 97.9083 118.372C94.5026 114.716 91.3965 112.708 86.4314 113.27Z" fill="#36D6BA"/>
<path d="M111.88 74.9589C113.614 73.0001 113.24 69.8189 111.731 67.6857C110.051 65.6483 107.914 64.0366 105.493 62.9827C101.813 61.024 97.5843 59.1401 93.6293 60.4878C92.1139 61.1003 90.6599 61.8565 89.2883 62.7457C86.6685 64.2053 83.7744 65.1282 81.1047 66.4881C78.3297 67.7092 76.0701 69.8629 74.7175 72.5759C73.5949 75.2829 73.944 78.3395 74.2434 81.3086C74.815 85.817 74.8444 90.3777 74.3306 94.894C73.8012 99.4336 72.0507 103.745 69.2659 107.369C67.2574 109.864 64.6001 111.885 63.3901 114.854C62.7991 116.549 62.4669 118.324 62.4046 120.119L61.7557 127.778C61.5064 130.835 61.1195 134.165 58.9117 136.299C63.6403 135.808 67.9654 133.412 70.8876 129.661C73.1457 127.166 75.4911 124.522 76.1644 121.228C76.676 118.733 76.2519 115.976 77.7489 113.968C79.5077 111.598 83.2628 111.573 85.7578 113.145C88.2527 114.717 89.7871 117.411 91.1221 120.043C92.4571 122.676 93.7918 125.433 96.112 127.292C98.001 128.731 100.225 129.666 102.574 130.011C104.133 130.474 105.815 130.243 107.19 129.375C108.899 128.002 108.724 125.37 108.175 123.249C107.439 120.443 106.304 117.523 107.103 114.717C107.365 113.793 107.826 112.92 108.113 111.997C108.463 110.654 108.626 109.269 108.6 107.88C108.762 100.92 109.086 93.4216 106.828 86.673C106.104 84.527 104.158 82.4813 105.156 80.1609C106.416 77.2167 109.997 77.117 111.88 74.9589Z" fill="black"/>
<g opacity="0.1">
<path d="M74.7044 86.8845C74.7977 83.5933 74.6604 80.3006 74.2925 77.0289C74.2925 76.3929 74.1557 75.7814 74.1056 75.0956C73.944 77.1296 74.0068 79.1753 74.2925 81.1956C74.48 83.0795 74.6296 84.9757 74.7044 86.8845Z" fill="black"/>
<path d="M107.214 125.096C105.837 125.958 104.157 126.189 102.599 125.732C100.249 125.387 98.0255 124.452 96.1367 123.012C93.8412 121.141 92.5189 118.384 91.1465 115.765C89.7742 113.145 88.2774 110.425 85.7822 108.866C83.2873 107.306 79.5451 107.319 77.7734 109.689C76.2764 111.698 76.7004 114.492 76.1889 116.95C75.5155 120.243 73.1701 122.9 70.912 125.383C69.7709 126.741 68.4777 127.963 67.0574 129.025C65.2838 130.155 63.3304 130.973 61.2813 131.446C60.9978 133.223 60.1795 134.872 58.9362 136.173C63.6653 135.684 67.9899 133.287 70.912 129.537C73.1701 127.042 75.5155 124.397 76.1889 121.104C76.7004 118.609 76.2764 115.852 77.7734 113.843C79.5324 111.473 83.2873 111.448 85.7822 113.02C88.2774 114.592 89.8118 117.286 91.1465 119.919C92.4815 122.551 93.8162 125.308 96.1367 127.166C98.0255 128.606 100.249 129.541 102.599 129.886C104.157 130.35 105.84 130.117 107.214 129.25C108.811 128.003 108.761 125.507 108.3 123.536C108.087 124.145 107.711 124.685 107.214 125.096Z" fill="black"/>
<path d="M111.88 70.8047C109.997 72.9502 106.416 73.0621 105.181 75.9193C104.75 77.0998 104.864 78.4113 105.493 79.4994C106.928 77.1917 110.134 77.0045 111.88 74.9587C113.087 73.4175 113.386 71.3522 112.666 69.5319C112.482 69.9992 112.216 70.4303 111.88 70.8047Z" fill="black"/>
<path d="M108.624 103.601C108.65 104.989 108.487 106.374 108.137 107.718C107.85 108.641 107.389 109.502 107.127 110.438C106.79 111.844 106.79 113.31 107.127 114.717V114.592C107.389 113.668 107.85 112.795 108.137 111.872C108.487 110.529 108.65 109.143 108.624 107.756C108.686 104.986 108.773 102.142 108.724 99.2849C108.699 100.732 108.661 102.179 108.624 103.601Z" fill="black"/>
</g>
<path d="M231.296 3.2184C234.435 23.9068 225.725 42.3896 225.725 42.3896C225.725 42.3896 211.903 27.3329 208.764 6.64014C205.626 -14.0531 214.336 -32.531 214.336 -32.531C214.336 -32.531 228.157 -17.4788 231.296 3.2184Z" fill="#FBB03B"/>
<path d="M289.655 36.182C301.044 36.0568 310.344 42.1666 310.344 42.1666C310.344 42.1666 301.179 48.4763 289.79 48.5971C278.401 48.7178 269.102 42.6124 269.102 42.6124C269.102 42.6124 278.266 36.3076 289.655 36.182Z" fill="#FBB03B"/>
<path d="M257.63 4.73179C247.03 16.3804 244.788 31.6042 244.788 31.6042C244.788 31.6042 259.728 27.9366 270.323 16.2831C280.918 4.63011 283.169 -10.5844 283.169 -10.5844C283.169 -10.5844 268.229 -6.91682 257.63 4.73179Z" fill="#46455B"/>
<line x1="269.375" y1="226.599" x2="222.337" y2="147.735" stroke="#373E46"/>
<line x1="175.301" y1="226.086" x2="222.339" y2="147.222" stroke="#373E46"/>
<g opacity="0.1">
<path d="M170.735 8.1027H161.482V180.814H284.051V8.1027H170.735Z" fill="black"/>
</g>
<path d="M172.834 11.5846H281.582V177.332H163.953V11.5846H172.834Z" fill="white"/>
<path d="M178.805 35.3466H266.73V54.3588H178.805V35.3466Z" fill="#36D6BA"/>
<path d="M186.53 77.8232H259.009V79.0118H186.53V77.8232Z" fill="#373E46"/>
<path d="M186.53 84.3554H259.009V85.5439H186.53V84.3554Z" fill="#373E46"/>
<path d="M186.53 90.8928H259.009V92.0814H186.53V90.8928Z" fill="#373E46"/>
<path d="M186.53 97.425H259.009V98.6135H186.53V97.425Z" fill="#373E46"/>
<path d="M186.53 103.962H259.009V105.151H186.53V103.962Z" fill="#373E46"/>
<path d="M186.53 110.499H259.009V111.688H186.53V110.499Z" fill="#373E46"/>
<path d="M186.53 117.032H259.009V118.22H186.53V117.032Z" fill="#373E46"/>
<path d="M186.53 123.569H259.009V124.757H186.53V123.569Z" fill="#373E46"/>
<path d="M186.53 130.101H259.009V131.289H186.53V130.101Z" fill="#373E46"/>
<path d="M186.53 136.638H259.009V137.827H186.53V136.638Z" fill="#373E46"/>
<path d="M186.53 143.17H259.009V144.359H186.53V143.17Z" fill="#373E46"/>
<path d="M237.688 220.835H307.627V327.428H231.978V220.835H237.688Z" fill="#EEEFF0"/>
<path d="M241.532 236.119H298.077V248.343H241.532V236.119Z" fill="#36D6BA"/>
<path d="M246.496 263.437H293.109V264.203H246.496V263.437Z" fill="#373E46"/>
<path d="M246.496 267.639H293.109V268.405H246.496V267.639Z" fill="#373E46"/>
<path d="M246.496 271.84H293.109V272.606H246.496V271.84Z" fill="#373E46"/>
<path d="M246.496 276.042H293.109V276.808H246.496V276.042Z" fill="#373E46"/>
<path d="M246.496 280.244H293.109V281.01H246.496V280.244Z" fill="#373E46"/>
<path d="M246.496 284.45H293.109V285.216H246.496V284.45Z" fill="#373E46"/>
<path d="M246.496 288.652H293.109V289.418H246.496V288.652Z" fill="#373E46"/>
<path d="M246.496 292.854H293.109V293.62H246.496V292.854Z" fill="#373E46"/>
<path d="M246.496 297.056H293.109V297.822H246.496V297.056Z" fill="#373E46"/>
<path d="M246.496 301.257H293.109V302.023H246.496V301.257Z" fill="#373E46"/>
<path d="M246.496 305.463H293.109V306.229H246.496V305.463Z" fill="#373E46"/>
<path d="M142.897 220.835H212.836V327.428H137.187V220.835H142.897Z" fill="#EEEFF0"/>
<path d="M146.737 236.119H203.282V248.343H146.737V236.119Z" fill="#36D6BA"/>
<path d="M151.705 263.437H198.318V264.203H151.705V263.437Z" fill="#373E46"/>
<path d="M151.705 267.639H198.318V268.405H151.705V267.639Z" fill="#373E46"/>
<path d="M151.705 271.84H198.318V272.606H151.705V271.84Z" fill="#373E46"/>
<path d="M151.705 276.042H198.318V276.808H151.705V276.042Z" fill="#373E46"/>
<path d="M151.705 280.244H198.318V281.01H151.705V280.244Z" fill="#373E46"/>
<path d="M151.705 284.45H198.318V285.216H151.705V284.45Z" fill="#373E46"/>
<path d="M151.705 288.652H198.318V289.418H151.705V288.652Z" fill="#373E46"/>
<path d="M151.705 292.854H198.318V293.62H151.705V292.854Z" fill="#373E46"/>
<path d="M151.705 297.056H198.318V297.822H151.705V297.056Z" fill="#373E46"/>
<path d="M151.705 301.257H198.318V302.023H151.705V301.257Z" fill="#373E46"/>
<path d="M151.705 305.463H198.318V306.229H151.705V305.463Z" fill="#373E46"/>
</g>
</svg>
