<svg width="327" height="327" viewBox="0 0 327 327" fill="none" xmlns="http://www.w3.org/2000/svg">
<g opacity="0.1">
<path d="M163.5 17.0312C183.281 17.0312 202.461 20.9016 220.507 28.5346C237.947 35.9108 253.612 46.474 267.069 59.9308C280.526 73.3881 291.089 89.0534 298.465 106.493C306.098 124.539 309.969 143.719 309.969 163.5C309.969 183.281 306.098 202.461 298.465 220.507C291.089 237.947 280.526 253.612 267.069 267.069C253.612 280.526 237.947 291.089 220.507 298.465C202.461 306.098 183.281 309.969 163.5 309.969C143.72 309.969 124.539 306.098 106.493 298.465C89.0535 291.089 73.3881 280.526 59.931 267.069C46.4741 253.612 35.9108 237.947 28.5346 220.507C20.9016 202.461 17.0312 183.281 17.0312 163.5C17.0312 143.719 20.9016 124.539 28.5346 106.493C35.9108 89.0534 46.4741 73.3881 59.931 59.9308C73.3881 46.474 89.0535 35.9108 106.493 28.5346C124.539 20.9016 143.72 17.0312 163.5 17.0312ZM163.5 0C73.2017 0 0 73.2016 0 163.5C0 253.798 73.2017 327 163.5 327C253.799 327 327 253.798 327 163.5C327 73.2016 253.799 0 163.5 0Z" fill="black"/>
<path d="M265.306 152.048C265.729 149.167 266.004 145.27 265.495 140.95C264.268 130.514 259.038 122.315 250.346 117.167C247.679 110.381 238.693 92.7618 215.645 86.2C212.48 82.8739 203.466 75.0471 188.819 75.0471C187.29 75.0471 185.724 75.1332 184.15 75.303C181.213 73.0336 175.287 68.9653 165.948 68.9653C156.601 68.9653 150.673 73.0409 147.746 75.303C146.172 75.1327 144.606 75.0467 143.075 75.0467C128.432 75.0467 119.417 82.8739 116.251 86.2C93.2047 92.7613 84.2172 110.381 81.5497 117.167C72.8583 122.316 67.6288 130.515 66.4009 140.95C65.8928 145.268 66.1675 149.166 66.5899 152.048C63.9117 154.752 60.5677 159.73 60.5677 167.726C60.5677 182.723 66.4204 195.996 77.963 207.177C87.3391 216.26 98.5423 222.211 106.727 226.558C110.007 228.3 113.693 230.258 115.04 231.366C115.295 232.397 115.337 235.062 115.354 236.12C115.422 240.381 115.493 244.787 118.457 247.988C122.703 252.573 131.701 255.183 146.773 256.202C152.103 256.562 157.116 256.638 160.383 256.638C163.25 256.638 165.266 256.583 165.949 256.561C166.533 256.579 168.599 256.639 171.518 256.639C174.784 256.639 179.795 256.563 185.125 256.202C200.198 255.183 209.196 252.573 213.442 247.988C216.404 244.789 216.476 240.385 216.544 236.119C216.561 235.064 216.604 232.398 216.859 231.366C218.205 230.258 221.893 228.3 225.178 226.555C233.357 222.21 244.56 216.259 253.936 207.177C265.478 195.996 271.329 182.723 271.329 167.726C271.329 159.729 267.985 154.751 265.306 152.048ZM127.735 240.006C127.624 239.298 127.552 237.932 127.519 235.926C127.448 231.489 127.368 226.46 123.912 223.003C121.579 220.671 117.743 218.633 112.433 215.813C97.5855 207.926 72.7344 194.726 72.7344 167.726C72.7344 162.148 75.6931 160.125 76.0852 159.882C78.642 158.594 79.9186 155.655 79.1258 152.834C78.9324 152.146 74.8292 136.973 86.112 128.719L136.496 242.784C130.783 241.757 128.513 240.547 127.735 240.006ZM150.437 244.23L94.6327 117.897C95.6499 116 96.8254 114.168 98.1382 112.438C103.017 106.009 109.359 101.403 117.022 98.7146L151.625 244.285C151.226 244.267 150.83 244.249 150.437 244.23ZM171.929 82.1628C174.35 83.0693 176.042 84.3982 177.333 85.4183L177.517 85.5644C178.676 86.4866 180.264 87.7499 182.529 87.7499C182.85 87.7499 183.176 87.7226 183.499 87.6694C185.291 87.3705 187.067 87.219 188.776 87.219C195.253 87.219 200.03 89.3551 203.2 91.5091L171.929 226.317V82.1628ZM154.378 85.5673L154.564 85.4192C155.856 84.3986 157.548 83.0697 159.968 82.1632V226.798L127.942 92.0422C131.189 89.6365 136.179 87.2185 143.119 87.2185C144.829 87.2185 146.605 87.3701 148.401 87.6694C148.721 87.7226 149.047 87.7499 149.369 87.7499C151.632 87.7499 153.219 86.4883 154.378 85.5673ZM180.251 244.285L214.081 98.4447C222.102 101.089 228.712 105.787 233.759 112.438C235.04 114.126 236.192 115.912 237.192 117.762L181.459 244.229C181.06 244.249 180.657 244.268 180.251 244.285ZM204.378 235.925C204.346 237.928 204.274 239.296 204.163 240.004C203.384 240.546 201.111 241.757 195.395 242.785L245.69 128.651C257.081 136.889 252.966 152.142 252.774 152.824C251.984 155.603 253.264 158.556 255.812 159.88C256.158 160.097 259.163 162.141 259.163 167.727C259.163 194.727 234.311 207.927 219.463 215.813C214.155 218.632 210.32 220.669 207.986 223.003C204.528 226.46 204.448 231.489 204.378 235.925Z" fill="black"/>
</g>
</svg>
