<svg width="21" height="21" viewBox="0 0 21 21" fill="none" xmlns="http://www.w3.org/2000/svg">
<path d="M20.5327 18.2483L16.2041 13.9199C17.2472 12.414 17.7691 10.7353 17.7691 8.88456C17.7691 7.68148 17.5355 6.53087 17.0684 5.43299C16.6016 4.33494 15.9705 3.38849 15.1755 2.59344C14.3804 1.79839 13.4341 1.16732 12.3363 0.700464C11.2381 0.233473 10.0875 0 8.88447 0C7.68148 0 6.53087 0.233473 5.43299 0.700462C4.33494 1.16732 3.38849 1.79838 2.59344 2.59344C1.7983 3.38849 1.16732 4.33511 0.700418 5.43299C0.233473 6.531 0 7.68148 0 8.88456C0 10.0875 0.233473 11.2378 0.700418 12.3359C1.16727 13.4338 1.7983 14.3801 2.59344 15.1752C3.38849 15.9705 4.33511 16.6013 5.43299 17.0684C6.531 17.5353 7.68148 17.7688 8.88447 17.7688C10.7356 17.7688 12.4141 17.2469 13.92 16.2038L18.2486 20.5197C18.5515 20.8393 18.9296 20.9992 19.3843 20.9992C19.8217 20.9992 20.2006 20.8394 20.52 20.5197C20.8396 20.2001 20.9995 19.8215 20.9995 19.384C20.9996 18.9384 20.844 18.5596 20.5327 18.2483ZM12.8787 12.8783C11.7724 13.9848 10.4411 14.5381 8.88447 14.5381C7.32813 14.5381 5.99683 13.9847 4.89042 12.8783C3.78401 11.772 3.23082 10.4409 3.23082 8.88429C3.23082 7.32796 3.78414 5.99643 4.89042 4.89024C5.99661 3.78379 7.32813 3.23065 8.88447 3.23065C10.4409 3.23065 11.7722 3.78401 12.8787 4.89024C13.9852 5.99643 14.5384 7.32796 14.5384 8.88429C14.5384 10.4409 13.985 11.772 12.8787 12.8783Z" fill="black"/>
</svg>
