<svg width="292" height="329" viewBox="0 0 292 329" fill="none" xmlns="http://www.w3.org/2000/svg">
<mask id="mask0_1_1617" style="mask-type:alpha" maskUnits="userSpaceOnUse" x="-38" y="0" width="330" height="330">
<path d="M-37.8441 0H292V329.844H-37.8441V0Z" fill="black"/>
</mask>
<g mask="url(#mask0_1_1617)">
<path opacity="0.4" d="M47.49 -134.149H453.912V186.736H47.49V-134.149Z" fill="#F2F2F2"/>
<path d="M72.6111 171.597L71.5803 171.031L146.371 34.9742L217.542 171.042L216.5 171.587L146.345 37.4629L72.6111 171.597Z" fill="black"/>
<path d="M101.494 276.038L72.8254 173.557L45.7962 276.03L44.6589 275.73L72.7917 169.071L102.627 275.721L101.494 276.038Z" fill="black"/>
<path d="M246.294 276.038L217.625 173.557L190.596 276.03L189.459 275.73L217.591 169.071L247.427 275.721L246.294 276.038Z" fill="black"/>
<circle cx="45.228" cy="275.88" r="22.9841" fill="#36D6BA"/>
<circle cx="45.2283" cy="275.879" r="6.54697" fill="#269984"/>
<circle cx="102.061" cy="275.88" r="22.9841" fill="#36D6BA"/>
<circle cx="72.0957" cy="171.314" r="22.9841" fill="#36D6BA"/>
<circle cx="217.021" cy="171.314" r="22.9841" fill="#36D6BA"/>
<circle cx="148.029" cy="36.2186" r="22.9841" fill="#36D6BA"/>
<circle cx="190.028" cy="275.88" r="22.9841" fill="#36D6BA"/>
<circle cx="246.861" cy="275.88" r="22.9841" fill="#36D6BA"/>
<circle cx="102.061" cy="275.879" r="6.54697" fill="#269984"/>
<circle cx="190.027" cy="275.879" r="6.54697" fill="#269984"/>
<circle cx="246.861" cy="275.879" r="6.54697" fill="#269984"/>
<circle cx="72.0959" cy="171.314" r="6.54697" fill="#269984"/>
<circle cx="217.021" cy="171.314" r="6.54697" fill="#269984"/>
<circle cx="148.029" cy="36.2186" r="6.54697" fill="#269984"/>
<path d="M38.7906 100.32C38.7906 100.32 42.7673 109.765 33.8199 114.238C24.8724 118.712 57.6793 127.162 61.159 116.227C61.159 116.227 52.2115 112.747 56.1882 102.308L38.7906 100.32Z" fill="#FFB9B9"/>
<path d="M49.4779 295.422L48.9807 305.861L57.4307 307.352V296.914L49.4779 295.422Z" fill="#FFB9B9"/>
<path d="M17.6647 295.422L18.1617 305.861L9.71135 307.352V296.914L17.6647 295.422Z" fill="#FFB9B9"/>
<circle cx="48.4837" cy="92.1184" r="13.9181" fill="#FFB9B9"/>
<path d="M67.8702 193.025L67.3728 197.001L69.8585 206.446L73.3379 197.996L67.8702 193.025Z" fill="#FFB9B9"/>
<path d="M12.6941 194.516L9.71148 229.808C9.71148 229.808 6.23219 236.27 8.22037 241.738C8.22037 241.738 5.23808 249.194 6.23219 251.679C7.22625 254.165 7.72331 256.65 6.72925 257.644C5.73514 258.639 5.23808 286.475 6.72925 288.96C8.22037 291.446 9.21442 297.411 9.21442 297.411C9.21442 297.411 17.6648 299.399 19.653 293.931C21.6415 288.463 20.6471 287.966 22.6356 286.475C24.6238 284.983 24.6238 264.106 24.6238 264.106C24.6238 264.106 22.1386 261.621 23.6297 260.627C25.1208 259.633 26.1153 260.627 24.6238 258.142C23.1327 255.656 20.6471 255.656 23.1327 254.662C24.5175 254.125 25.8491 253.459 27.1094 252.674L41.5243 214.896C41.5243 214.896 46.9921 257.147 47.9866 259.136C48.9806 261.124 50.4718 258.639 48.9806 261.124C47.4892 263.609 46.9921 262.118 47.4895 263.609C47.9866 265.101 44.5069 286.475 46.4951 290.948C47.6556 293.534 48.6519 296.191 49.4777 298.902C49.4777 298.902 57.4308 302.382 58.4252 299.896C59.4193 297.411 58.9222 292.937 60.4133 292.44C61.9045 291.943 63.3956 290.948 63.3956 286.972C63.3956 282.995 66.3782 263.609 66.3782 263.609C66.3782 263.609 62.8986 262.118 63.893 259.633C64.8871 257.147 64.8871 257.644 64.39 255.656C63.893 253.668 62.8986 253.171 63.893 251.679C64.8871 250.188 64.8871 245.715 64.8871 245.715L70.8519 206.446L66.2458 193.025L12.6941 194.516Z" fill="black"/>
<path d="M49.9752 303.376C49.9752 303.376 48.4841 301.884 47.9871 303.376C47.49 304.867 47.49 318.785 47.49 318.785C47.49 318.785 51.4663 321.767 51.4663 323.259C51.4663 324.75 54.4489 329.721 61.4079 328.726C61.4775 328.717 61.5463 328.706 61.6146 328.695C65.2021 328.114 67.6393 324.734 67.0573 321.146C66.9582 320.534 66.7732 319.94 66.5077 319.38L59.4198 304.37C59.4198 304.37 54.4489 299.399 49.9752 303.376Z" fill="black"/>
<path d="M17.168 303.376C17.168 303.376 18.6591 301.884 19.1561 303.376C19.6531 304.867 19.6531 318.785 19.6531 318.785C19.6531 318.785 15.6768 321.767 15.6768 323.259C15.6768 324.75 12.6942 329.721 5.73525 328.726C5.6654 328.717 5.59683 328.706 5.52857 328.695C1.94073 328.114 -0.496085 324.734 0.0859025 321.146C0.184997 320.534 0.369997 319.94 0.635164 319.38L7.72342 304.37C7.72342 304.37 12.6942 299.399 17.168 303.376Z" fill="black"/>
<path d="M37.876 77.0426L35.3892 76.0473C35.3892 76.0473 40.5887 70.323 47.8229 70.8207L45.7882 68.5807C45.7882 68.5807 50.7615 66.5895 55.2827 71.8162C57.6597 74.5637 60.4095 77.7933 62.1237 81.4313H64.787L63.6755 83.8784L67.5658 86.3258L63.5727 85.8864C63.9511 87.999 63.8215 90.1716 63.1952 92.2246L63.3021 94.1591C63.3021 94.1591 58.6739 86.9981 58.6739 86.0022V88.4913C58.6739 88.4913 56.1871 86.2515 56.1871 84.7581L54.8307 86.5004L54.1527 83.7627L45.7882 86.5004L47.1447 84.2604L41.9452 85.0072L43.9797 82.2692C43.9797 82.2692 38.1019 85.5047 37.876 88.2427C37.6498 90.98 34.711 94.4646 34.711 94.4646L33.3548 91.9757C33.3548 91.9757 31.32 80.7758 37.876 77.0426Z" fill="black"/>
<path d="M69.8575 122.937H75.3955C76.2335 122.937 76.9602 123.517 77.1442 124.335C77.999 128.119 80.2011 138.846 79.799 147.294C79.302 157.732 80.2961 165.188 79.799 166.679C79.302 168.171 79.799 168.668 79.799 170.159C79.799 171.65 81.2902 170.656 79.799 172.644C78.3076 174.633 78.3076 174.136 78.3076 175.627C78.3076 177.118 73.3368 199.984 73.3368 199.984C73.3368 199.984 69.9198 194.367 66.1605 195.435L66.8748 175.13L67.869 166.679L66.3778 151.767L69.8575 122.937Z" fill="#FBB03B"/>
<path d="M45.7496 117.718C45.7496 117.718 37.2996 117.411 34.5655 113.836C34.5655 113.836 16.9194 119.706 14.9312 124.677C12.9427 129.647 21.8902 152.016 21.8902 152.016C21.8902 152.016 6.4808 197.747 13.9368 197.747C21.3931 197.747 38.2936 203.712 48.2352 200.232C54.3954 198.096 60.7101 196.434 67.1239 195.262C67.1239 195.262 68.118 181.841 67.1239 179.355C66.1298 176.87 63.6446 178.361 65.1357 174.882C66.6268 171.402 66.1298 170.905 65.6327 169.414C65.1357 167.922 66.6268 165.934 66.6268 163.946C66.6268 161.957 66.1298 157.484 66.1298 157.484C66.1298 157.484 79.551 126.168 76.5684 123.186C73.5861 120.203 58.4045 114.457 58.4045 114.457C58.4045 114.457 54.2001 119.706 45.7496 117.718Z" fill="#FBB03B"/>
<path d="M6.72943 197.995C6.72943 197.995 2.25566 221.358 9.71166 219.37C17.168 217.382 13.6884 197.995 13.6884 197.995H6.72943Z" fill="#FFB9B9"/>
<path d="M18.1621 122.937L16.3966 123.82C15.0036 124.516 14.0168 125.824 13.7299 127.355L6.72934 164.691C6.72934 164.691 4.74117 169.165 4.74117 169.662C4.74117 170.159 5.73529 170.159 4.74117 171.65C3.74675 173.142 2.25563 172.644 3.24975 173.639C3.81721 174.154 4.17182 174.864 4.24381 175.627L5.23823 199.984C5.23823 199.984 13.6883 197.498 16.1739 199.984C16.1739 199.984 13.6883 192.528 15.1795 190.043C16.6709 187.557 16.6709 184.077 16.6709 184.077C16.6709 184.077 15.6765 184.077 18.1621 181.592C20.6473 179.106 21.1446 178.112 20.6473 177.615C20.1502 177.118 19.6532 172.644 19.6532 172.148C19.6532 171.65 24.6239 138.346 24.6239 138.346L18.1621 122.937Z" fill="#FBB03B"/>
<path d="M290.929 199.719C290.929 199.719 291.545 194.956 302.266 197.112C302.266 197.112 302.155 200.199 298.283 201.461C294.412 202.722 292.719 201.403 290.929 199.719Z" fill="#36D6BA"/>
<path d="M290.267 199.648C290.267 199.648 285.623 200.872 289.156 211.216C289.156 211.216 292.206 210.708 292.951 206.701C293.696 202.695 292.171 201.224 290.267 199.648Z" fill="#36D6BA"/>
<path d="M284.531 192.536C284.531 192.536 284.304 184.648 295.311 186.052C295.311 186.052 295.715 193.214 286.367 194.552L284.531 192.536Z" fill="#36D6BA"/>
<path d="M277.7 183.274C277.7 183.274 279.687 174.438 290.571 177.682C290.571 177.682 290.206 185.392 279.388 185.495L277.7 183.274Z" fill="#36D6BA"/>
<path d="M272.863 173.809C272.863 173.809 275.856 165.237 286.645 168.439C286.645 168.439 283.626 176.114 273.5 175.45L272.863 173.809Z" fill="#36D6BA"/>
<path d="M268.277 164.57C268.277 164.57 271.232 155.691 281.635 158.956C281.635 158.956 277.658 167.332 268.888 166.143L268.277 164.57Z" fill="#36D6BA"/>
<path d="M265.466 155.882C265.466 155.882 267.955 144.958 277.665 147.922C277.665 147.922 274.275 157.797 266.108 157.522L265.466 155.882Z" fill="#36D6BA"/>
<path d="M262.976 145.418C262.976 145.418 265.83 134.437 275.611 138.217C275.611 138.217 271.147 148.511 263.578 147.016L262.976 145.418Z" fill="#36D6BA"/>
<path d="M261.573 135.748C261.573 135.748 265.796 124.827 273.471 125.541C273.471 125.541 269.135 137.077 262.082 138.014L261.573 135.748Z" fill="#36D6BA"/>
<path d="M260.866 126.335C260.866 126.335 265.526 113.166 271.733 114.539C271.733 114.539 268.456 124.613 260.979 128.429L260.866 126.335Z" fill="#36D6BA"/>
<path d="M260.779 115.135C260.779 115.135 265.07 104.188 271.262 104.08C271.262 104.08 268.159 114.91 260.747 118.044L260.779 115.135Z" fill="#36D6BA"/>
<path d="M260.585 104.702C260.585 104.702 265.792 93.7916 269.892 93.7552C269.892 93.7552 267.299 104.636 260.893 106.554L260.585 104.702Z" fill="#36D6BA"/>
<path d="M260.584 94.9956C260.584 94.9956 264.068 83.0288 268.203 82.2473C268.203 82.2473 267.116 92.1287 260.949 95.9295L260.584 94.9956Z" fill="#36D6BA"/>
<path d="M259.726 82.2495C259.726 82.2495 263.221 72.7511 266.604 71.4543C266.604 71.4543 265.348 82.8064 260.369 84.6678L259.726 82.2495Z" fill="#36D6BA"/>
<path d="M258.893 73.8628L259.196 56.7998C259.196 56.7998 264.686 69.9767 259.203 76.8854L258.893 73.8628Z" fill="#36D6BA"/>
<path d="M255.022 56.6838C255.022 56.6838 251.239 44.0108 250.207 43.2632C250.207 43.2632 258.502 51.7959 257.097 62.1278L255.022 56.6838Z" fill="#36D6BA"/>
<path d="M284.221 192.467C284.221 192.467 276.449 191.028 276.096 202.101C276.096 202.101 283.103 203.627 285.897 194.606L284.221 192.467Z" fill="#36D6BA"/>
<path d="M277.344 182.958C277.344 182.958 268.305 182.444 268.439 193.805C268.439 193.805 275.956 195.563 279.017 185.188L277.344 182.958Z" fill="#36D6BA"/>
<path d="M272.736 174.537C272.736 174.537 264.731 170.249 258.956 179.914C258.956 179.914 266.366 183.525 273.377 176.191L272.736 174.537Z" fill="#36D6BA"/>
<path d="M268.089 164.647C268.089 164.647 259.907 160.099 254.451 169.544C254.451 169.544 263.045 173.025 268.711 166.212L268.089 164.647Z" fill="#36D6BA"/>
<path d="M265.56 156.122C265.56 156.122 257.884 147.968 251.015 155.438C251.015 155.438 258.94 162.236 265.842 157.866L265.56 156.122Z" fill="#36D6BA"/>
<path d="M263.432 145.194C263.432 145.194 255.713 136.859 248.87 144.785C248.87 144.785 257.658 151.753 263.633 146.868L263.432 145.194Z" fill="#36D6BA"/>
<path d="M262.418 135.473C262.418 135.473 256.676 125.279 249.181 127.084C249.181 127.084 255.129 137.88 262.227 137.788L262.418 135.473Z" fill="#36D6BA"/>
<path d="M261.058 126.284C261.058 126.284 255.395 113.517 249.315 115.359C249.315 115.359 253.359 125.151 261.109 128.38L261.058 126.284Z" fill="#36D6BA"/>
<path d="M261.248 114.524C261.248 114.524 255.272 104.399 249.128 105.275C249.128 105.275 253.909 115.479 261.729 117.398L261.248 114.524Z" fill="#36D6BA"/>
<path d="M261.283 104.518C261.283 104.518 256.85 93.2736 252.746 92.9644C252.746 92.9644 254.586 103.993 260.845 106.348L261.283 104.518Z" fill="#36D6BA"/>
<path d="M260.801 94.77C260.801 94.77 255.796 83.3539 251.596 83.1109C251.596 83.1109 253.954 92.7654 260.56 95.7368L260.801 94.77Z" fill="#36D6BA"/>
<path d="M260.586 82.979C260.586 82.979 256.888 73.5563 253.482 72.3306C253.482 72.3306 254.976 83.6516 259.994 85.3934L260.586 82.979Z" fill="#36D6BA"/>
<path d="M258.397 73.5187L249.805 58.7776C249.805 58.7776 251.454 72.9541 259.619 76.3044L258.397 73.5187Z" fill="#36D6BA"/>
<path d="M252.816 57.7145C252.816 57.7145 242.338 49.625 242.017 48.4024C242.017 48.4024 247.005 59.2069 257.154 61.6057L252.816 57.7145Z" fill="#36D6BA"/>
<path d="M252.362 54.3051C252.362 54.3051 240.523 41.6415 237.331 41.4691C237.331 41.4691 247.596 42.4895 252.691 53.6613L252.362 54.3051Z" fill="#36D6BA"/>
<path d="M260.369 84.7536L259.927 84.7799C258.557 66.3019 255.718 55.2722 251.928 53.7258L252.101 53.3023C256.101 54.945 258.969 65.8213 260.369 84.7536Z" fill="#444053"/>
<path d="M261.481 128.821L260.79 128.844C260.74 127.122 260.718 125.36 260.736 123.612C260.903 108.379 260.622 94.3851 259.839 83.8531L260.262 83.3822C261.049 93.9398 261.581 108.373 261.426 123.616C261.41 125.358 261.429 127.108 261.481 128.821Z" fill="#444053"/>
<path d="M309.645 214.715C309.528 214.657 297.725 208.614 285.861 195.067C278.913 187.138 273.264 178.159 269.126 168.463C263.967 156.339 261.193 141.634 260.75 127.47L261.445 127.846C262.429 159.641 275.686 182.051 286.518 194.433C298.264 207.85 309.938 213.84 310.055 213.897L309.645 214.715Z" fill="#444053"/>
<path d="M290.096 145.763C290.096 145.763 291.907 140.58 298.427 142.516C298.427 142.516 296.602 147.141 290.484 146.753L290.096 145.763Z" fill="#36D6BA"/>
<path d="M287.325 140.178C287.325 140.178 289.113 134.808 295.402 136.785C295.402 136.785 292.999 141.848 287.695 141.129L287.325 140.178Z" fill="#36D6BA"/>
<path d="M285.628 134.921C285.628 134.921 287.154 128.315 292.999 130.112C292.999 130.112 290.949 136.081 286.01 135.909L285.628 134.921Z" fill="#36D6BA"/>
<path d="M284.112 128.604C284.112 128.604 285.846 121.959 291.743 124.235C291.743 124.235 289.043 130.458 284.464 129.556L284.112 128.604Z" fill="#36D6BA"/>
<path d="M283.273 122.754C283.273 122.754 285.824 116.154 290.466 116.587C290.466 116.587 287.844 123.56 283.59 124.122L283.273 122.754Z" fill="#36D6BA"/>
<path d="M282.845 117.063C282.845 117.063 285.663 109.105 289.415 109.93C289.415 109.93 287.435 116.021 282.914 118.328L282.845 117.063Z" fill="#36D6BA"/>
<path d="M282.795 110.298C282.795 110.298 285.389 103.68 289.141 103.614C289.141 103.614 287.267 110.159 282.788 112.052L282.795 110.298Z" fill="#36D6BA"/>
<path d="M282.675 103.984C282.675 103.984 285.822 97.3902 288.3 97.368C288.3 97.368 286.737 103.942 282.861 105.105L282.675 103.984Z" fill="#36D6BA"/>
<path d="M282.675 98.1178C282.675 98.1178 284.782 90.8829 287.279 90.4044C287.279 90.4044 286.625 96.3769 282.896 98.6788L282.675 98.1178Z" fill="#36D6BA"/>
<path d="M282.162 90.4096C282.162 90.4096 284.275 84.6673 286.319 83.8809C286.319 83.8809 285.559 90.7466 282.545 91.86L282.162 90.4096Z" fill="#36D6BA"/>
<path d="M281.654 85.3377L281.834 75.0344C281.834 75.0344 285.146 82.9981 281.83 87.1909L281.654 85.3377Z" fill="#36D6BA"/>
<path d="M279.314 74.9526C279.314 74.9526 277.025 67.2937 276.401 66.8414C276.401 66.8414 281.415 71.9967 280.565 78.2472L279.314 74.9526Z" fill="#36D6BA"/>
<path d="M292.804 151.273C292.804 151.273 287.337 150.965 287.418 157.832C287.418 157.832 291.962 158.894 293.815 152.626L292.804 151.273Z" fill="#36D6BA"/>
<path d="M290.018 146.202C290.018 146.202 285.184 143.61 281.688 149.449C281.688 149.449 286.172 151.642 290.407 147.196L290.018 146.202Z" fill="#36D6BA"/>
<path d="M287.212 140.222C287.212 140.222 282.266 137.476 278.968 143.185C278.968 143.185 284.162 145.286 287.583 141.173L287.212 140.222Z" fill="#36D6BA"/>
<path d="M285.678 135.054C285.678 135.054 281.037 130.124 276.882 134.639C276.882 134.639 281.675 138.747 285.848 136.108L285.678 135.054Z" fill="#36D6BA"/>
<path d="M284.394 128.457C284.394 128.457 279.727 123.417 275.579 128.214C275.579 128.214 280.892 132.429 284.503 129.462L284.394 128.457Z" fill="#36D6BA"/>
<path d="M283.786 122.593C283.786 122.593 280.313 116.426 275.782 117.521C275.782 117.521 279.375 124.046 283.666 123.99L283.786 122.593Z" fill="#36D6BA"/>
<path d="M282.961 117.031C282.961 117.031 279.546 109.311 275.845 110.429C275.845 110.429 278.291 116.351 282.974 118.305L282.961 117.031Z" fill="#36D6BA"/>
<path d="M283.074 109.923C283.074 109.923 279.462 103.8 275.747 104.328C275.747 104.328 278.638 110.492 283.366 111.654L283.074 109.923Z" fill="#36D6BA"/>
<path d="M283.096 103.874C283.096 103.874 280.403 97.0666 277.939 96.8864C277.939 96.8864 279.048 103.556 282.831 104.979L283.096 103.874Z" fill="#36D6BA"/>
<path d="M282.806 97.9776C282.806 97.9776 279.782 91.0758 277.242 90.9285C277.242 90.9285 278.671 96.7821 282.661 98.5632L282.806 97.9776Z" fill="#36D6BA"/>
<path d="M282.675 90.8514C282.675 90.8514 280.436 85.1575 278.399 84.4063C278.399 84.4063 279.303 91.2536 282.334 92.3045L282.675 90.8514Z" fill="#36D6BA"/>
<path d="M281.362 85.1277L276.167 76.2157C276.167 76.2157 277.163 84.7897 282.099 86.8138L281.362 85.1277Z" fill="#36D6BA"/>
<path d="M277.98 75.579C277.98 75.579 271.65 70.6928 271.453 69.9489C271.453 69.9489 274.464 76.4809 280.6 77.9294L277.98 75.579Z" fill="#36D6BA"/>
<path d="M277.693 73.5175C277.693 73.5175 270.534 65.862 268.609 65.7687C268.609 65.7687 274.817 66.3847 277.895 73.1434L277.693 73.5175Z" fill="#36D6BA"/>
<path d="M282.541 91.9198L282.264 91.9394C281.454 80.7634 279.721 74.0997 277.43 73.1675L277.533 72.9101C279.965 73.9017 281.698 80.4796 282.541 91.9198Z" fill="#444053"/>
<path d="M283.219 118.566L282.799 118.576C282.769 117.537 282.759 116.473 282.775 115.433C282.866 106.224 282.702 97.7624 282.229 91.3967L282.485 91.1093C282.959 97.4884 283.284 106.219 283.19 115.437C283.176 116.482 283.185 117.528 283.219 118.566Z" fill="#444053"/>
<path d="M312.335 170.494C312.264 170.457 305.129 166.805 297.955 158.614C293.757 153.821 290.342 148.393 287.839 142.533C284.712 135.204 283.044 126.31 282.78 117.745L283.199 117.973C283.794 137.194 291.809 150.744 298.357 158.232C305.465 166.353 312.514 169.96 312.587 169.995L312.335 170.494Z" fill="#444053"/>
</g>
</svg>
