<svg width="330" height="330" viewBox="0 0 330 330" fill="none" xmlns="http://www.w3.org/2000/svg">
<mask id="mask0_1_1245" style="mask-type:alpha" maskUnits="userSpaceOnUse" x="0" y="0" width="330" height="330">
<path d="M0 0H330V330H0V0Z" fill="black"/>
</mask>
<g mask="url(#mask0_1_1245)">
<path opacity="0.4" d="M169.749 -37.3587H483.792V210.59H169.749V-37.3587Z" fill="#F2F2F2"/>
<circle cx="181.048" cy="71.265" r="6.74972" fill="black"/>
<path d="M182.949 64.6706C186.673 64.6706 189.698 67.6965 189.698 71.4203C189.698 72.5452 189.427 73.6316 188.884 74.6402C191.211 71.7308 190.746 67.4634 187.837 65.1361C184.927 62.8087 180.66 63.2742 178.333 66.1836C178.061 66.4939 177.867 66.8428 177.673 67.192C178.953 65.6404 180.893 64.6706 182.949 64.6706Z" fill="black"/>
<circle cx="168.441" cy="51.4037" r="19.8612" fill="black"/>
<path d="M152.847 39.0682C159.946 31.0768 172.126 30.1459 180.389 36.9735C180.234 36.8183 180.078 36.6632 179.884 36.508C171.66 29.2149 159.131 29.9521 151.838 38.1759C144.545 46.3999 145.282 58.9295 153.468 66.2223C153.623 66.3772 153.817 66.5326 153.972 66.6489C146.252 59.2786 145.709 47.0591 152.847 39.0682Z" fill="black"/>
<circle cx="168.247" cy="58.2701" r="12.8012" fill="#A0616A"/>
<path d="M159.169 62.3431C159.169 62.3431 160.837 77.8211 158.16 79.5278C155.484 81.196 173.638 83.5621 173.638 83.5621C173.638 83.5621 170.962 66.7266 177.673 62.3431H159.169Z" fill="#A0616A"/>
<path d="M175.307 76.8121C175.307 76.8121 180.311 74.4848 173.096 75.2991C165.881 76.1138 159.635 72.9327 159.635 72.9327C159.635 72.9327 157.463 70.7605 157.114 73.0879C156.765 75.4157 158.123 79.8378 150.713 80.4973C143.304 81.157 136.593 79.1397 133.878 84.1824C131.162 89.2254 132.52 111.104 132.52 111.104C132.52 111.104 137.563 129.297 141.597 131.974C145.632 134.65 180.971 130.965 180.971 130.965L191.056 112.772V91.6304C191.056 91.6304 189.698 84.2215 180.272 86.2385C180.272 86.2385 174.221 84.8807 174.531 81.8548C174.842 78.8294 175.307 76.8121 175.307 76.8121Z" fill="#FBB03B"/>
<path d="M153.118 122.586L150.092 120.569L146.717 122.586C146.717 122.586 145.709 130.344 141.675 132.013L143.342 143.456C143.342 143.456 139.308 158.274 142.334 169.718C142.334 169.718 87.793 292.609 99.5859 299.32C111.378 306.031 142.994 310.104 145.36 307.079C147.726 304.053 170.613 184.187 170.613 184.187C170.613 184.187 163.204 303.355 184.074 305.721C204.943 308.087 223.447 306.07 221.779 302.695C220.11 299.32 200.249 171.735 200.249 171.735C200.249 171.735 194.508 141.788 183.065 135.698L184.694 124.409L181.397 123.905L176.354 125.573C176.315 125.612 164.562 131.004 153.118 122.586Z" fill="black"/>
<path d="M140.977 80.187C143.265 84.881 144.08 90.1566 143.343 95.3547C141.985 103.772 147.377 124.642 147.377 124.642L151.412 123.634C151.412 123.634 148.735 106.139 149.394 102.104C150.054 98.0698 150.054 82.2433 146.718 80.2261C143.343 78.1311 140.977 80.187 140.977 80.187Z" fill="black"/>
<path d="M180.155 87.1696L181.552 124.448L184.228 126.116C184.228 126.116 188.108 85.23 186.091 85.23H181.978C180.97 85.23 180.116 86.0447 180.116 87.0919C180.116 87.0919 180.116 87.1305 180.155 87.1696Z" fill="black"/>
<path d="M102.961 297.652L97.9178 310.104C97.9178 310.104 74.3712 321.897 81.7415 326.59C89.1123 331.285 104.628 323.565 104.628 323.565L107.654 319.531L112.348 319.88L119.758 317.203L122.783 301.376L102.961 297.652Z" fill="black"/>
<path d="M209.327 297.652L214.37 310.104C214.37 310.104 237.917 321.897 230.546 326.59C223.176 331.285 207.659 323.565 207.659 323.565L204.634 319.531L199.94 319.88L192.531 317.203L189.505 301.376L209.327 297.652Z" fill="black"/>
<circle cx="149.239" cy="122.082" r="1.66803" fill="#36D6BA"/>
<circle cx="182.91" cy="123.75" r="1.66803" fill="#36D6BA"/>
<path d="M157.308 42.2881V55.0891H160.294L164.057 51.055L163.553 55.0891H176.626L175.811 51.055L177.44 55.0891H179.535V42.2881H157.308Z" fill="black"/>
<ellipse cx="155.29" cy="55.5935" rx="1.00858" ry="1.86199" fill="#A0616A"/>
<ellipse cx="181.203" cy="55.5935" rx="1.00857" ry="1.86199" fill="#A0616A"/>
<circle cx="124.451" cy="298.195" r="41.2354" fill="#269984"/>
<circle cx="163.437" cy="151.098" r="41.2354" fill="#36D6BA"/>
<circle cx="195.983" cy="241.482" r="48.9937" fill="#40FFDE"/>
<path d="M223.796 339.509L76.466 192.179H224.029V192.799H78.0176L224.261 339.043L223.796 339.509Z" fill="#269984"/>
<path d="M188.109 123.595C188.109 123.595 172.786 120.724 171.777 125.767C170.769 130.81 188.768 128.638 188.768 128.638L188.109 123.595Z" fill="#A0616A"/>
<path d="M187.797 88.9152C187.797 88.9152 224.494 118.203 217.744 125.263C210.995 132.323 185.431 130.306 185.431 130.306L187.099 121.888L201.917 120.22L194.508 112.811L187.759 113.47V88.9152H187.797Z" fill="#FBB03B"/>
<path d="M133.567 137.754L138.261 141.439C138.261 141.439 141.636 151.874 146.679 148.848C151.722 145.822 141.985 135.038 141.985 135.038L136.244 133.021L133.567 137.754Z" fill="#A0616A"/>
<path d="M138.3 83.5231L133.606 84.9195C133.606 84.9195 100.943 109.087 99.5857 115.836C98.2281 122.586 105.986 126.271 105.986 126.271L135.274 140.081L138.3 132.013L124.49 124.952C124.49 124.952 125.499 122.935 121.464 122.586C117.43 122.237 116.771 117.893 116.771 117.893C116.771 117.893 124.839 105.44 129.223 108.117C133.606 110.794 134.964 112.811 134.964 112.811L138.3 83.5231Z" fill="#FBB03B"/>
<path opacity="0.1" d="M28.3191 289.002H46.008V306.691H28.3191V289.002Z" fill="#36D6BA"/>
<path d="M43.6803 304.363H25.0606V285.744H43.6803V304.363ZM25.9915 303.432H42.7494V286.674H25.9915V303.432Z" fill="#269984"/>
<path d="M21.4917 209.829C28.0474 209.984 33.2846 214.716 33.2846 214.716C33.2846 214.716 27.8534 219.255 21.2977 219.1C14.7421 218.944 9.54396 214.212 9.54396 214.212C9.54396 214.212 14.9361 209.712 21.4917 209.829Z" fill="#36D6BA"/>
<path d="M-11.4425 187.446C-5.50744 190.278 1.28084 188.338 1.28084 188.338C1.28084 188.338 -1.51198 181.86 -7.44702 179.067C-13.3821 176.274 -20.1708 178.175 -20.1708 178.175C-20.1708 178.175 -17.3775 184.653 -11.4425 187.446Z" fill="#36D6BA"/>
<path d="M-10.86 184.653C-4.34292 184.071 1.39812 188.183 1.39812 188.183C1.39812 188.183 -3.48968 193.303 -10.0067 193.885C-16.5233 194.467 -22.2643 190.355 -22.2643 190.355C-22.2643 190.355 -17.3765 185.273 -10.86 184.653Z" fill="#269984"/>
<path d="M13.0745 185.778C12.4538 192.295 16.5656 198.036 16.5656 198.036C16.5656 198.036 21.686 193.187 22.3066 186.67C22.9273 180.153 18.8155 174.412 18.8155 174.412C18.8155 174.412 13.6951 179.261 13.0745 185.778Z" fill="#269984"/>
<path d="M43.8354 225.85C40.4219 231.436 41.5855 238.418 41.5855 238.418C41.5855 238.418 48.3352 236.323 51.7491 230.698C55.1625 225.074 53.999 218.13 53.999 218.13C53.999 218.13 47.2879 220.225 43.8354 225.85Z" fill="#269984"/>
<path d="M33.9057 286.636L34.41 286.287C32.6645 283.727 31.6944 280.701 31.6558 277.597C31.6558 273.059 33.9057 268.869 36.0393 264.796C36.4273 264.059 36.8539 263.283 37.2029 262.547C38.7935 259.482 40.112 256.262 41.0434 252.926C44.3796 240.513 41.082 225.85 32.2374 213.708C25.216 204.088 14.7426 195.67 0.234567 187.989L-0.0371398 188.532C14.3936 196.174 24.7899 204.514 31.7721 214.057C40.5391 226.044 43.7585 240.513 40.4614 252.732C39.5305 256.029 38.2892 259.21 36.6985 262.236C36.3105 262.973 35.923 263.749 35.535 264.486C33.3623 268.598 31.0733 272.865 31.0733 277.559C31.0733 280.856 32.0825 283.998 33.9057 286.636Z" fill="#269984"/>
<path d="M-19.0068 303.665H54.3091V304.557H-19.0068V303.665Z" fill="#269984"/>
<path d="M293.342 303.665H366.658V304.557H293.342V303.665Z" fill="#269984"/>
<path d="M336.051 275.386C328.332 287.993 330.969 303.665 330.969 303.665C330.969 303.665 346.137 298.894 353.857 286.286C361.576 273.679 358.938 258.007 358.938 258.007C358.938 258.007 343.809 262.779 336.051 275.386Z" fill="#269984"/>
<path d="M331.319 304.208L330.892 304.092C330.737 304.053 315.492 299.127 307.773 286.558C300.053 273.951 302.613 258.163 302.652 258.007L302.73 257.581L303.157 257.697C303.312 257.736 318.556 262.662 326.276 275.231C333.995 287.838 331.435 303.626 331.397 303.781L331.319 304.208ZM303.35 258.551C303.001 261.188 301.605 274.959 308.432 286.131C315.259 297.264 328.177 302.307 330.698 303.2C331.048 300.562 332.444 286.791 325.616 275.619C318.789 264.447 305.872 259.443 303.35 258.551Z" fill="#269984"/>
<circle cx="331.475" cy="254.283" r="8.53413" fill="#269984"/>
</g>
</svg>
