<svg width="330" height="330" viewBox="0 0 330 330" fill="none" xmlns="http://www.w3.org/2000/svg">
<mask id="mask0_1_7233" style="mask-type:alpha" maskUnits="userSpaceOnUse" x="0" y="0" width="330" height="330">
<path d="M0 0H330V330H0V0Z" fill="black"/>
</mask>
<g mask="url(#mask0_1_7233)">
<path d="M0 0H330V330H0V0Z" fill="white"/>
<path opacity="0.4" d="M-148.987 -11.4425H165.061V236.52H-148.987V-11.4425Z" fill="#F2F2F2"/>
<path d="M67.213 224.672H74.2234V245.947H67.213V224.672Z" fill="black"/>
<path d="M255.876 223.565H262.886V246.072H255.876V223.565Z" fill="black"/>
<path d="M307.595 323.489V328.285L251.541 328.802L250.943 328.813L229.639 329.008L229.13 329.016L222.655 329.071H222.463L182.991 329.437L118.197 330.038H118.141L101.667 330.193L101.49 330.197L28.2866 330.868V325.334L45.499 315.002L80.0342 314.715L80.7725 314.711L81.0158 314.707L81.7535 314.696L98.3352 314.56L99.0763 314.556L99.3128 314.552L100.05 314.549L105.367 314.504L105.508 314.5L118.625 314.39H118.732L221.083 313.526L223.588 313.508H223.839L225.75 313.49L239.642 313.375L240.38 313.364L241.062 313.357H241.416L245.737 313.324L246.593 313.313L247.741 313.305L251.338 313.272L257.046 313.224L257.784 313.217L259.068 313.209H259.308L286.873 312.973L307.595 323.489Z" fill="#269984"/>
<path opacity="0.2" d="M307.595 323.489V328.285L251.541 328.802L250.943 328.813L229.639 329.008L229.13 329.016L222.655 329.071H222.463L182.991 329.437L118.197 330.038H118.141L101.667 330.193L101.49 330.197L28.2866 330.868V325.334L45.499 315.002L80.0342 314.715L80.7725 314.711L81.0158 314.707L81.7535 314.696L98.3352 314.56L99.0763 314.556L99.3128 314.552L100.05 314.549L105.367 314.504L105.508 314.5L118.625 314.39H118.732L221.083 313.526L223.588 313.508H223.839L225.75 313.49L239.642 313.375L240.38 313.364L241.062 313.357H241.416L245.737 313.324L246.593 313.313L247.741 313.305L251.338 313.272L257.046 313.224L257.784 313.217L259.068 313.209H259.308L286.873 312.973L307.595 323.489Z" fill="black"/>
<path d="M98.3901 305.044V314.08C98.3901 314.954 97.8876 315.749 97.0984 316.124C96.8104 316.263 96.4962 316.339 96.176 316.346L83.2993 316.619C82.9551 316.627 82.6143 316.555 82.3029 316.409C81.4997 316.04 80.9847 315.236 80.9855 314.353V305.044H98.3901Z" fill="black"/>
<path opacity="0.1" d="M98.3901 305.044V314.08C98.3901 314.954 97.8876 315.749 97.0984 316.124C96.8104 316.263 96.4962 316.339 96.176 316.346L83.2993 316.619C82.9551 316.627 82.6143 316.555 82.3029 316.409C81.4997 316.04 80.9847 315.236 80.9855 314.353V305.044H98.3901Z" fill="black"/>
<path d="M99.1283 305.044V314.08C99.1288 314.954 98.6259 315.749 97.8368 316.124C97.5491 316.263 97.2342 316.339 96.9144 316.346L84.0375 316.619C83.6936 316.627 83.3523 316.555 83.0411 316.409C82.2376 316.04 81.7229 315.236 81.7242 314.353V305.044H99.1283Z" fill="black"/>
<path d="M240.38 305.044H257.784V316.666H240.38V305.044Z" fill="black"/>
<path opacity="0.1" d="M240.38 305.044H257.784V316.666H240.38V305.044Z" fill="black"/>
<path d="M239.642 305.044H257.046V316.666H239.642V305.044Z" fill="black"/>
<path opacity="0.1" d="M74.2233 224.668V226.782L67.213 226.602V224.668H74.2233Z" fill="black"/>
<path d="M120.366 165.11L111.943 225.62C111.832 226.42 111.138 227.01 110.331 226.989L42.8835 225.24L41.6032 225.207C40.7272 225.186 40.0335 224.459 40.0545 223.583C40.0559 223.525 40.0603 223.467 40.0679 223.41L49.5247 160.066C49.651 159.252 50.3787 158.671 51.2 158.727L118.89 163.309C119.763 163.359 120.43 164.108 120.379 164.981C120.377 165.024 120.372 165.067 120.366 165.11Z" fill="#269984"/>
<path d="M54.0512 163.176L46.9192 219.012L108.905 220.979L116.528 167.109L54.0512 163.176Z" fill="#36D6BA"/>
<path d="M131.044 169.777C131.044 165.655 134.386 162.313 138.508 162.313H199.097C203.219 162.313 206.561 165.655 206.561 169.777V218.802C206.561 222.924 203.219 226.266 199.097 226.266H138.508C134.386 226.266 131.044 222.924 131.044 218.802V169.777Z" fill="#269984"/>
<path d="M134.608 166.619H203.236V219.872H134.608V166.619Z" fill="#36D6BA"/>
<path opacity="0.1" d="M262.887 223.562V224.96L255.877 225.104V223.562H262.887Z" fill="black"/>
<path d="M294.518 222.381C294.559 223.007 294.084 223.548 293.458 223.589C293.442 223.59 293.427 223.59 293.411 223.591L224.34 225.019C223.745 225.031 223.242 224.582 223.185 223.989L217.249 162.269C217.189 161.644 217.647 161.089 218.272 161.029C218.29 161.027 218.308 161.026 218.326 161.025L286.873 157.616L287.611 157.579C288.221 157.547 288.746 158.004 288.799 158.612L294.518 222.381Z" fill="#269984"/>
<path d="M221.194 164.652L283.797 161.575L289.084 217.658L226.976 219.133L221.194 164.652Z" fill="#36D6BA"/>
<path opacity="0.1" d="M294.518 222.381C294.559 223.007 294.085 223.548 293.458 223.589C293.443 223.59 293.427 223.59 293.411 223.591L286.873 157.616L287.611 157.579C288.221 157.547 288.746 158.004 288.799 158.612L294.518 222.381Z" fill="black"/>
<path opacity="0.1" d="M51.2107 158.723L42.8835 225.24L41.6032 225.207C40.7272 225.187 40.0335 224.46 40.0545 223.584C40.0559 223.526 40.0603 223.468 40.0679 223.411L49.5247 160.066C49.6495 159.247 50.3843 158.661 51.2107 158.723Z" fill="black"/>
<path opacity="0.1" d="M67.213 239.644H74.2234V245.946H67.213V239.644Z" fill="black"/>
<path opacity="0.1" d="M99.1281 305.041V306.874L81.7242 307.339V305.041H99.1281Z" fill="black"/>
<path d="M129.845 241.84V303.9C129.836 304.687 129.211 305.328 128.425 305.357L57.7122 307.239H57.6939C56.8929 307.229 56.2463 306.582 56.2361 305.782V241.84C56.2463 241.039 56.8929 240.392 57.6939 240.382H128.388C129.189 240.392 129.835 241.039 129.845 241.84Z" fill="#269984"/>
<path opacity="0.1" d="M57.7122 240.382V307.239H57.6939C56.8929 307.229 56.2463 306.582 56.2361 305.782V241.84C56.2463 241.039 56.8929 240.392 57.6939 240.382H57.7122Z" fill="black"/>
<path d="M60.9399 244.345H126.431V299.044L60.9399 300.521V244.345Z" fill="#D4DFEC"/>
<path opacity="0.1" d="M255.876 239.644H262.886V246.072H255.876V239.644Z" fill="black"/>
<path opacity="0.1" d="M257.046 305.041V307.406L239.642 306.941V305.041H257.046Z" fill="black"/>
<path d="M280.014 241.84V305.782C280.004 306.589 279.346 307.239 278.538 307.239L207.811 305.357C207.025 305.328 206.4 304.687 206.391 303.9V241.84C206.4 241.039 207.048 240.392 207.848 240.382H278.542C279.348 240.384 280.004 241.033 280.014 241.84Z" fill="#269984"/>
<path opacity="0.1" d="M280.014 241.84V305.782C280.004 306.589 279.346 307.239 278.538 307.239V240.382C279.346 240.382 280.004 241.032 280.014 241.84Z" fill="black"/>
<path d="M275.31 244.345H209.818V299.044L275.31 300.521V244.345Z" fill="#D4DFEC"/>
<path d="M204.561 241.84V303.9C204.552 304.687 203.926 305.328 203.14 305.357L132.428 307.239C131.62 307.239 130.962 306.589 130.951 305.782V241.84C130.962 241.039 131.608 240.392 132.409 240.382H203.103C203.904 240.392 204.551 241.039 204.561 241.84Z" fill="#269984"/>
<path d="M135.656 244.345H201.148V299.044L135.656 300.521V244.345Z" fill="#D4DFEC"/>
<path opacity="0.1" d="M307.595 323.489V328.286L251.541 328.802L250.943 328.813L229.639 329.009L229.13 329.016L222.655 329.072H222.463L182.991 329.437L118.197 330.038H118.141L101.667 330.193L101.49 330.197L28.2866 330.868V325.334L103.006 324.843H103.183L118.307 324.74H118.377L222.824 324.05H222.931L222.994 324.046H223.167L224.935 324.035H225.474L252.958 323.851L254.582 323.843L254.943 323.84L307.595 323.489Z" fill="black"/>
<circle cx="168.922" cy="227.007" r="18.9391" fill="#FBBEBE"/>
<path d="M101.452 330.326C101.452 330.285 101.474 330.241 101.489 330.197C101.858 328.872 102.515 326.632 103.006 324.842C103.069 324.621 103.128 324.404 103.183 324.197C103.725 322.179 104.78 317.452 105.367 314.504C105.574 313.467 105.736 312.659 105.77 312.253C105.843 311.63 106.954 308.962 108.212 305.896C109.094 303.741 110.057 301.387 110.761 299.402C111.223 298.223 111.584 297.008 111.843 295.768C111.898 295.509 111.898 295.241 111.843 294.982C111.732 294.56 111.672 294.127 111.665 293.691C111.58 291.403 112.263 287.787 113.318 286.271C114.61 284.426 115.532 277.541 115.532 277.541C115.532 277.541 117.444 277.818 117.746 276.239C117.778 276.068 117.79 275.895 117.783 275.722C117.782 275.585 117.771 275.448 117.75 275.312C117.421 273.01 123.181 270.56 126.42 270.033C126.786 269.97 127.156 269.936 127.527 269.929C128.314 269.844 129.088 269.665 129.834 269.398C130.178 269.292 130.547 269.169 130.94 269.029C132.298 268.571 133.922 267.966 135.645 267.302C142.124 264.79 149.968 261.399 149.968 261.399C150.023 261.137 150.086 260.886 150.156 260.639C150.942 257.484 153.182 254.891 156.189 253.654V252.916C156.189 251.644 156.133 250.334 156.078 249.027C156.078 248.773 156.056 248.518 156.041 248.264V248.039V247.847C156.041 247.588 156.015 247.33 156 247.076L155.934 247.024C155.367 246.596 154.88 246.071 154.495 245.474C154.281 245.125 154.105 244.754 153.971 244.367C153.51 243.116 153.403 241.722 153.093 240.401L153.027 240.128C152.623 238.795 152.13 237.491 151.551 236.224C150.735 234.224 150.108 232.166 149.485 230.081C149.106 228.819 148.723 227.554 148.337 226.288L147.754 224.354C147.643 223.986 147.533 223.617 147.448 223.248C147.407 223.077 147.375 222.905 147.352 222.731C147.248 222.165 147.279 221.583 147.44 221.03C147.584 220.653 147.746 220.284 147.927 219.923C148.005 219.76 148.067 219.589 148.112 219.414C148.124 219.376 148.134 219.336 148.142 219.296C148.168 219.165 148.181 219.031 148.182 218.897C148.169 218.414 148.105 217.933 147.99 217.462C147.988 217.456 147.988 217.45 147.99 217.444C147.986 217.411 147.98 217.377 147.972 217.344C147.906 216.978 147.861 216.609 147.839 216.237C147.709 214.24 148.154 212.246 149.119 210.493L149.19 210.36C149.393 210.004 149.62 209.661 149.868 209.334C149.983 209.179 150.101 209.031 150.237 208.884C149.721 209.378 148.872 209.16 148.393 208.629C148.313 208.546 148.245 208.453 148.189 208.352C148.158 208.299 148.129 208.244 148.105 208.186C148.086 208.142 148.071 208.094 148.057 208.047C147.798 207.143 148.248 206.179 148.839 205.445C149.421 204.73 150.141 204.14 150.957 203.711C151.004 203.683 151.054 203.656 151.104 203.633C151.418 203.476 151.743 203.345 152.078 203.242C152.276 203.177 152.477 203.123 152.68 203.08L151.311 202.954L150.758 202.903C151.321 200.667 153.254 199.044 155.554 198.878H155.952C156.146 198.88 156.34 198.897 156.532 198.925C155.904 198.65 155.514 198.013 155.554 197.328C156.52 198.084 157.718 198.483 158.945 198.457H159.085C159.021 198.058 158.979 197.654 158.96 197.25C158.923 196.702 158.923 196.152 158.96 195.604C159.629 196.239 160.545 196.545 161.461 196.438L160.694 195.368C161.378 195.914 162.241 196.184 163.114 196.125L163.292 196.106C163.44 196.091 163.587 196.062 163.73 196.021H163.764C163.694 195.933 163.631 195.841 163.568 195.745L163.546 195.7C163.392 195.459 163.269 195.2 163.177 194.929C163.14 194.825 163.11 194.717 163.088 194.609C162.928 193.937 162.986 193.233 163.254 192.598C164.446 193.594 165.752 194.955 167.313 193.926C168.874 192.897 168.925 191.007 171.372 191.199C172.741 191.329 173.931 192.194 174.475 193.457C175.182 192.658 176.321 192.398 177.305 192.812C178.272 193.27 178.846 194.289 178.736 195.354C179.751 195.099 180.843 194.848 181.817 195.232C182.791 195.616 183.419 196.859 182.865 197.689C182.85 197.715 182.832 197.74 182.813 197.763C182.36 198.35 181.356 198.671 181.463 199.409L181.618 199.519L182.098 199.866C183.979 201.224 185.812 202.651 187.595 204.146C188.51 204.914 189.484 205.836 189.547 207.036C189.558 207.33 189.528 207.624 189.458 207.91C189.399 208.197 189.318 208.485 189.255 208.773C189.098 209.506 189.055 210.259 189.13 211.005C189.156 211.223 189.189 211.437 189.23 211.655C189.794 214.507 192.074 216.861 192.299 219.772V219.978C192.313 220.29 192.304 220.602 192.274 220.912C192.104 222.683 191.285 224.384 190.621 226.078C190.58 226.181 190.54 226.284 190.503 226.388C189.222 229.708 188.484 233.247 187.92 236.778C187.738 238.03 187.491 239.273 187.182 240.501C186.845 241.906 186.204 243.219 185.304 244.349C184.944 244.774 184.527 245.146 184.064 245.456C183.752 245.655 183.426 245.829 183.086 245.976V245.998C183.127 246.223 183.16 246.448 183.201 246.673C183.223 246.791 183.242 246.909 183.264 247.043C183.262 247.05 183.262 247.057 183.264 247.064C183.574 248.81 183.928 250.518 184.3 252.141L184.488 252.95C189.137 254.628 189.687 258.067 189.72 259.384C189.733 259.56 189.733 259.736 189.72 259.912C189.72 259.912 196.731 260.096 199.498 262.126C200.015 262.477 200.574 262.762 201.162 262.975C202.278 263.396 203.417 263.752 204.575 264.041C205.169 264.195 205.789 264.347 206.42 264.494C207.527 264.749 208.7 264.996 209.833 265.232C212.855 265.841 215.699 266.339 217.142 266.708C220.584 267.579 228.458 275.128 228.458 275.128C228.458 275.128 229.381 282.743 230.303 283.854C231.226 284.965 232.886 288.868 232.886 288.868L238.989 299.72L241.571 304.284H243.231C243.461 304.284 243.91 304.609 244.416 305.058C244.855 305.45 245.342 305.937 245.77 306.38L246.479 307.136L246.921 307.627C246.921 307.627 249.603 307.693 250.33 309.814C252.515 309.752 255.197 309.896 257.075 310.737C257.332 310.85 257.578 310.983 257.813 311.135C258.592 311.587 259.145 312.345 259.337 313.224C259.375 313.399 259.397 313.577 259.403 313.755V314.382C259.271 317.176 257.451 319.5 255.78 321.064L255.898 321.274C255.898 321.274 255.843 321.407 255.736 321.644C255.706 321.714 255.669 321.791 255.629 321.88C255.411 322.345 255.064 323.042 254.61 323.857C253.648 325.622 252.461 327.256 251.079 328.717L250.972 328.828L229.668 329.023L229.606 328.949L225.473 324.02L223.418 321.57L223.355 321.492L223.296 322.079L223.097 324.035L222.617 328.761L222.592 328.997V329.06L222.536 329.606L222.577 329.06H222.47L182.99 329.429L118.192 330.145V330.455H118.141V330.145L101.63 330.322L101.452 330.326Z" fill="url(#paint0_linear_1_7233)"/>
<path d="M187.864 265.749C187.864 265.749 151.152 270.177 154.658 265.749C155.926 264.148 156.277 259.403 156.207 253.998C156.185 252.356 156.126 250.655 156.041 248.961C155.635 240.844 154.658 232.911 154.658 232.911C154.658 232.911 186.757 217.783 183.068 229.775C181.592 234.619 182.075 241.423 183.197 247.81C183.525 249.673 183.905 251.5 184.304 253.233C185.276 257.463 186.465 261.641 187.864 265.749Z" fill="#FBBEBE"/>
<path opacity="0.1" d="M187.864 265.749C187.864 265.749 151.152 270.177 154.658 265.749C155.926 264.148 156.277 259.403 156.207 253.998C161.804 251.607 168.926 253.389 168.926 253.389C176.423 251.894 181.23 252.186 184.304 253.234C185.276 257.463 186.465 261.641 187.864 265.749Z" fill="black"/>
<path d="M118.182 330.455V330.145L182.98 329.44L222.459 329.071H222.57L222.53 329.617L222.585 329.071H222.655V329.009L223.16 324.046L223.352 322.168L223.411 321.581L223.463 321.09L225.743 313.486L228.023 305.893L229.942 299.499L232.872 289.728C232.872 289.728 231.211 285.854 230.289 284.747C229.366 283.64 228.444 276.077 228.444 276.077C228.444 276.077 220.57 268.575 217.128 267.712C215.685 267.343 212.836 266.852 209.811 266.236C208.678 266.007 207.516 265.764 206.398 265.498C205.767 265.354 205.147 265.203 204.553 265.052C203.397 264.763 202.257 264.41 201.14 263.996C200.554 263.784 199.997 263.5 199.48 263.151C196.768 261.163 189.971 260.938 189.709 260.938C189.709 260.929 189.709 260.921 189.709 260.912V260.879C189.719 260.724 189.719 260.568 189.709 260.414C189.709 260.266 189.709 260.093 189.676 259.897C189.676 259.838 189.676 259.776 189.65 259.713C189.632 259.58 189.61 259.44 189.577 259.292C189.566 259.226 189.551 259.161 189.533 259.096C189.425 258.652 189.271 258.22 189.071 257.809C189.045 257.75 189.012 257.687 188.983 257.628C188.802 257.288 188.592 256.963 188.356 256.658C188.307 256.595 188.256 256.529 188.201 256.466C187.899 256.109 187.562 255.783 187.197 255.492C187.098 255.414 186.994 255.333 186.887 255.259C186.827 255.211 186.765 255.166 186.699 255.126L186.371 254.912L186.064 254.736C185.795 254.588 185.511 254.444 185.201 254.307C185.105 254.263 185.002 254.222 184.898 254.182C184.795 254.141 184.632 254.078 184.496 254.027H184.474L184.197 253.916C183.987 253.846 183.773 253.784 183.548 253.721L183.205 253.632L182.836 253.547L182.467 253.47C182.098 253.396 181.703 253.329 181.29 253.278L180.869 253.226L180.437 253.182L179.991 253.145L179.356 253.108L178.619 253.082C175.364 253.082 172.119 253.427 168.937 254.112C166.727 253.62 164.462 253.412 162.199 253.492H161.879L161.509 253.514H161.273L160.797 253.558C160.639 253.558 160.476 253.592 160.318 253.614C160.159 253.636 159.993 253.654 159.834 253.68L159.591 253.721C159.351 253.761 159.107 253.806 158.853 253.857C158.772 253.872 158.691 253.89 158.609 253.913C158.288 253.983 157.967 254.068 157.65 254.164C157.492 254.207 157.333 254.259 157.174 254.315C157.093 254.337 157.015 254.366 156.938 254.396L156.702 254.481L156.47 254.573L156.193 254.684C156.053 254.743 155.916 254.805 155.779 254.872C155.702 254.905 155.625 254.942 155.551 254.983C155.477 255.023 155.399 255.056 155.329 255.097C154.495 255.528 153.724 256.072 153.038 256.713L152.85 256.894L152.665 257.082C152.603 257.145 152.543 257.211 152.485 257.278C152.244 257.54 152.02 257.818 151.813 258.108C151.754 258.185 151.699 258.262 151.643 258.344C151.409 258.689 151.197 259.049 151.009 259.421C150.961 259.51 150.917 259.602 150.872 259.691C150.571 260.314 150.324 260.962 150.134 261.628C150.066 261.874 150.003 262.12 149.946 262.366C149.861 262.735 142.135 265.812 135.656 268.306C133.933 268.97 132.31 269.572 130.951 270.025C130.557 270.158 130.188 270.28 129.845 270.394C129.1 270.664 128.326 270.842 127.539 270.926C127.168 270.932 126.798 270.966 126.432 271.029C123.454 271.512 118.352 273.612 117.794 275.718C117.749 275.887 117.737 276.062 117.757 276.235V276.276C118.126 278.858 115.544 278.49 115.544 278.49C115.544 278.49 114.621 285.315 113.33 287.16C112.396 288.488 111.758 291.451 111.677 293.687C111.631 294.384 111.685 295.083 111.839 295.764V295.816C111.987 296.311 111.633 297.661 111.031 299.391C110.378 301.292 109.426 303.653 108.511 305.882C107.131 309.247 105.833 312.302 105.751 312.973C105.718 313.272 105.622 313.807 105.489 314.497C104.951 317.309 103.755 322.662 103.165 324.828C102.726 326.444 102.088 328.658 101.648 330.178C101.648 330.222 101.622 330.266 101.611 330.307L118.152 330.145V330.455H118.204H118.182Z" fill="#36D6BA"/>
<path opacity="0.1" d="M124.218 286.965C124.218 286.965 145.249 297.849 152.813 296.558L124.218 286.965Z" fill="black"/>
<path opacity="0.1" d="M167.019 282.537C167.019 282.537 187.496 289.178 194.322 290.101C201.148 291.023 167.019 282.537 167.019 282.537Z" fill="black"/>
<path opacity="0.1" d="M189.731 261.167C179.031 263.137 158.885 262.712 150.178 262.414C153.369 250.976 168.933 254.865 168.933 254.865C188.196 251.02 189.672 258.997 189.731 261.167Z" fill="black"/>
<path d="M189.731 260.428C179.031 262.399 158.885 261.974 150.178 261.675C153.369 250.237 168.933 254.127 168.933 254.127C188.196 250.282 189.672 258.259 189.731 260.428Z" fill="#36D6BA"/>
<path d="M246.531 310.856C246.531 310.856 259.134 308.918 259.381 314.453C259.629 319.987 252.954 323.854 252.954 323.854L246.531 310.856Z" fill="#FBBEBE"/>
<path opacity="0.1" d="M183.198 247.81C182.655 248.052 182.101 248.267 181.537 248.452C177.56 249.824 173.549 251.208 169.361 251.71C165.174 252.212 160.779 251.769 157.126 249.681C156.743 249.464 156.373 249.224 156.02 248.961C155.614 240.844 154.636 232.911 154.636 232.911C154.636 232.911 186.736 217.783 183.046 229.775C181.578 234.619 182.076 241.423 183.198 247.81Z" fill="black"/>
<path d="M163.728 197.405C162.66 197.688 161.521 197.448 160.658 196.76L161.425 197.826C160.51 197.932 159.594 197.628 158.923 196.996C158.854 197.951 158.893 198.91 159.042 199.856C157.772 199.917 156.521 199.525 155.514 198.748C155.474 199.431 155.863 200.065 156.488 200.339C153.849 200.023 151.386 201.715 150.733 204.29L152.659 204.467C151.145 204.791 149.786 205.619 148.806 206.818C148.216 207.556 147.766 208.5 148.024 209.401C148.282 210.301 149.529 210.876 150.209 210.235C148.253 212.568 147.43 215.645 147.958 218.643C148.133 219.274 148.19 219.932 148.128 220.584C148.005 221.193 147.622 221.721 147.43 222.314C147.061 223.392 147.412 224.561 147.74 225.635L149.47 231.324C150.098 233.38 150.721 235.439 151.54 237.427C152.12 238.685 152.614 239.981 153.016 241.305C153.481 243.091 153.5 245.047 154.492 246.607C155.173 247.59 156.082 248.391 157.141 248.943C160.791 251.031 165.2 251.474 169.376 250.972C173.553 250.471 177.56 249.086 181.534 247.714C182.417 247.448 183.263 247.076 184.058 246.607C186.806 244.807 187.419 241.124 187.932 237.881C188.504 234.266 189.267 230.657 190.621 227.255C191.426 225.229 192.466 223.174 192.289 221.005C192.064 218.123 189.784 215.788 189.22 212.954C189.031 212.006 189.039 211.031 189.245 210.087C189.42 209.525 189.518 208.942 189.537 208.352C189.474 207.165 188.5 206.25 187.585 205.486C185.6 203.828 183.551 202.261 181.438 200.785C181.331 200.047 182.334 199.73 182.788 199.147C183.43 198.324 182.766 197.018 181.792 196.634C180.818 196.251 179.726 196.501 178.711 196.756C178.881 195.424 177.938 194.206 176.606 194.037C175.792 193.933 174.982 194.247 174.45 194.87C173.901 193.612 172.71 192.753 171.343 192.628C168.897 192.435 168.849 194.306 167.284 195.336C165.72 196.365 164.429 195.007 163.225 194.018C162.776 195.156 162.967 196.447 163.728 197.405Z" fill="black"/>
<path d="M255.877 321.924C255.877 321.924 255.548 322.707 254.943 323.84C254.027 325.582 252.913 327.213 251.622 328.699L251.523 328.806H250.925L229.621 329.002H229.112L229.049 328.928L224.916 324.024L223.36 322.175L223.297 322.098L223.164 321.943L223.09 321.855L222.994 321.74L219.965 318.147L221.072 313.534L222.957 305.764L223.005 305.576L223.374 304.1L223.636 302.993L224.514 299.385L227.525 286.969L232.875 289.736L238.517 299.698L241.545 305.048H243.206C243.52 305.048 244.239 305.653 244.962 306.351C245.221 306.598 245.479 306.859 245.701 307.089C246.357 307.767 246.877 308.35 246.877 308.35C246.877 308.35 249.567 308.41 250.29 310.527C250.328 310.63 250.359 310.734 250.382 310.841C250.623 311.673 250.935 312.483 251.316 313.261C251.792 314.298 252.39 315.475 252.995 316.652C254.12 318.811 255.264 320.866 255.685 321.611L255.736 321.704L255.877 321.924Z" fill="#36D6BA"/>
<path opacity="0.1" d="M224.183 305.265L224.146 305.793V305.829L224.083 306.678L223.592 313.508L222.998 321.736L222.828 324.053L222.46 329.012V329.075L182.98 329.444L118.193 330.144V330.454H118.141V330.144V330.041L118.307 324.743L118.625 314.39L118.898 305.612L118.924 304.737C118.989 302.593 120.781 300.908 122.926 300.973C122.996 300.975 123.067 300.979 123.137 300.985C124.879 301.133 127.141 301.314 129.845 301.505L130.952 301.586C146.57 302.671 175.434 304.073 204.561 302.324C205.173 302.291 205.789 302.254 206.406 302.21C210.922 301.926 215.434 301.561 219.902 301.103C222.037 300.879 223.948 302.428 224.172 304.562C224.195 304.79 224.199 305.018 224.183 305.247V305.265Z" fill="black"/>
<path d="M118.181 330.455V330.145L182.979 329.44L222.459 329.071H222.569V329.009L222.938 324.049L223.097 321.836L223.702 313.493L224.178 306.889V306.727C224.2 306.422 224.186 306.116 224.137 305.815C224.14 305.803 224.14 305.791 224.137 305.778C224.036 305.156 223.782 304.568 223.399 304.066C222.573 303.007 221.26 302.449 219.923 302.59C215.455 303.048 210.943 303.413 206.427 303.697C205.811 303.741 205.194 303.779 204.582 303.812C175.455 305.542 146.592 304.14 130.973 303.074L129.867 302.993C127.162 302.801 124.9 302.624 123.158 302.472C121.174 302.305 119.384 303.663 119.011 305.62C118.974 305.82 118.952 306.022 118.945 306.225L118.694 314.401L118.351 324.758L118.188 330.056V330.16V330.47L118.181 330.455Z" fill="black"/>
<path opacity="0.1" d="M224.293 307.852L223.84 313.508L223.164 321.939L222.995 324.049L222.626 328.776L222.604 329.012V329.075L222.548 329.621L222.589 329.075H222.482L183.002 329.444L118.193 330.145V330.042L118.374 324.743L118.743 314.39L118.979 307.508C119.003 306.714 119.428 305.984 120.109 305.572C120.526 305.316 121.015 305.199 121.503 305.239C122.277 305.302 123.23 305.376 124.34 305.457C126.145 305.59 128.37 305.745 130.959 305.907C135.756 306.21 141.774 306.535 148.67 306.8C167.856 307.538 193.758 307.785 218.36 305.631C219.467 305.535 220.611 305.428 221.729 305.321C222.172 305.277 222.617 305.361 223.013 305.564C223.125 305.62 223.231 305.687 223.331 305.763C223.652 305.996 223.906 306.309 224.068 306.671C224.106 306.743 224.137 306.818 224.161 306.896C224.271 307.202 224.317 307.528 224.293 307.852Z" fill="black"/>
<path opacity="0.1" d="M99.1283 312.903V314.08C99.1288 314.954 98.6259 315.749 97.8368 316.124L83.0411 316.408C82.2376 316.04 81.7229 315.236 81.7242 314.353V313.246L99.1283 312.903Z" fill="black"/>
<path d="M99.3123 316.817L80.0338 317.186V313.987L99.3123 313.619V316.817Z" fill="black"/>
<path opacity="0.1" d="M99.3123 316.817L80.0338 317.186V313.987L99.3123 313.619V316.817Z" fill="black"/>
<path d="M100.051 316.817L80.7725 317.186V313.987L100.051 313.619V316.817Z" fill="black"/>
<g opacity="0.1">
<path d="M163.878 196.195C163.518 195.726 163.279 195.177 163.181 194.593C163.093 195.163 163.146 195.746 163.336 196.291C163.52 196.274 163.701 196.242 163.878 196.195Z" fill="black"/>
<path d="M159.193 198.645C159.123 198.192 159.077 197.737 159.056 197.28V198.648L159.193 198.645Z" fill="black"/>
<path d="M189.264 210.957C189.284 210.628 189.328 210.302 189.397 209.979C189.571 209.418 189.67 208.836 189.692 208.248C189.683 208.117 189.664 207.986 189.633 207.858C189.57 208.197 189.47 208.536 189.397 208.872C189.249 209.557 189.205 210.26 189.264 210.957Z" fill="black"/>
<path d="M181.589 199.556L181.991 199.848C182.33 199.602 182.647 199.328 182.939 199.029C183.222 198.638 183.275 198.126 183.079 197.686C183.042 197.769 182.996 197.849 182.939 197.922C182.485 198.504 181.482 198.825 181.589 199.556Z" fill="black"/>
<path d="M151.271 203.106C151.137 203.376 151.029 203.657 150.95 203.947C151.528 203.625 152.149 203.39 152.795 203.25L151.271 203.106Z" fill="black"/>
<path d="M156.36 199.091C156.117 198.958 155.885 198.806 155.666 198.638C155.657 198.784 155.668 198.93 155.699 199.073C155.919 199.062 156.14 199.069 156.36 199.091Z" fill="black"/>
<path d="M192.433 220.831C192.282 222.62 191.448 224.343 190.773 226.041C189.419 229.442 188.655 233.051 188.083 236.67C187.57 239.914 186.976 243.596 184.209 245.393C183.418 245.865 182.572 246.237 181.689 246.5C177.711 247.876 173.7 249.256 169.513 249.758C165.325 250.26 160.931 249.82 157.278 247.732C156.219 247.18 155.31 246.378 154.629 245.396C153.643 243.836 153.625 241.88 153.153 240.094C152.75 238.768 152.257 237.472 151.677 236.213C150.862 234.228 150.234 232.154 149.611 230.114C149.033 228.218 148.456 226.32 147.88 224.421C147.691 223.85 147.55 223.263 147.46 222.668C147.316 223.613 147.596 224.601 147.88 225.528C148.456 227.429 149.033 229.327 149.611 231.221C150.234 233.276 150.862 235.335 151.677 237.32C152.257 238.578 152.75 239.875 153.153 241.201C153.618 242.987 153.636 244.943 154.629 246.504C155.31 247.485 156.219 248.287 157.278 248.839C160.931 250.927 165.336 251.367 169.513 250.864C173.689 250.363 177.696 248.983 181.689 247.607C182.572 247.344 183.418 246.972 184.209 246.5C186.958 244.703 187.57 241.02 188.083 237.777C188.655 234.158 189.419 230.549 190.773 227.148C191.577 225.125 192.617 223.07 192.44 220.897C192.44 220.875 192.433 220.853 192.433 220.831Z" fill="black"/>
<path d="M148.271 219.404V219.363C148.338 218.712 148.28 218.055 148.101 217.426C148.028 217.021 147.98 216.612 147.957 216.2C147.915 216.981 147.963 217.763 148.101 218.533C148.16 218.82 148.227 219.112 148.271 219.404Z" fill="black"/>
<path d="M149.398 210.378C149.681 209.901 150.003 209.449 150.361 209.024C149.685 209.67 148.438 209.094 148.176 208.197C148.08 208.56 148.08 208.941 148.176 209.304C148.361 209.855 148.827 210.265 149.398 210.378Z" fill="black"/>
</g>
<path opacity="0.1" d="M241.549 305.044C241.549 305.044 242.719 309.288 241.549 312.977C240.38 316.666 241.549 305.044 241.549 305.044Z" fill="black"/>
<path opacity="0.1" d="M246.531 309.372C246.531 309.372 247.022 314.759 245.915 315.714C244.808 316.67 246.531 309.372 246.531 309.372Z" fill="black"/>
<path d="M62.558 252.907L100.049 252.541L100.052 252.91L62.5616 253.276L62.558 252.907Z" fill="#269984"/>
<path d="M62.558 257.511L100.048 257.144L100.052 257.513L62.5616 257.88L62.558 257.511Z" fill="#269984"/>
<path d="M62.558 262.113L100.049 261.747L100.052 262.116L62.5616 262.482L62.558 262.113Z" fill="#269984"/>
</g>
<defs>
<linearGradient id="paint0_linear_1_7233" x1="201.344" y1="-1436.06" x2="201.344" y2="-1296.79" gradientUnits="userSpaceOnUse">
<stop stop-color="#808080" stop-opacity="0.25098"/>
<stop offset="0.54" stop-color="#808080" stop-opacity="0.121569"/>
<stop offset="1" stop-color="#808080" stop-opacity="0.101961"/>
</linearGradient>
</defs>
</svg>
