<svg width="246" height="166" viewBox="0 0 246 166" fill="none" xmlns="http://www.w3.org/2000/svg">
<ellipse cx="5.73952" cy="78.1746" rx="12.2979" ry="1.84469" transform="rotate(-63.6108 5.73952 78.1746)" fill="#E0E0E0"/>
<ellipse cx="159.405" cy="154.491" rx="12.2979" ry="1.25337" transform="rotate(-63.6108 159.405 154.491)" fill="#E0E0E0"/>
<path d="M56.8861 138.558L72.5466 119.592L78.2363 124.291L62.5758 143.256L56.8861 138.558Z" fill="#F15A24"/>
<path opacity="0.05" d="M65.1529 144.769L70.7823 120.827L78.8642 122.727L73.2348 146.67L65.1529 144.769Z" fill="black"/>
<path d="M66.0523 144.981L71.6817 121.038L78.8646 122.727L73.2351 146.669L66.0523 144.981Z" fill="#F15A24"/>
<path d="M0 89.7414L11.4786 66.607L165.157 142.858L153.679 165.992L0 89.7414Z" fill="url(#paint0_linear_1_7468)"/>
<path d="M153.952 165.441C150.944 163.998 -1.93008 88.0975 0.273147 89.1907C8.75796 76.2402 11.2051 67.1579 11.2051 67.1579L164.884 143.409C164.884 143.409 159.487 152.88 153.952 165.441Z" fill="#F5F5F5"/>
<path opacity="0.05" d="M67.4733 122.533L78.4053 100.501L91.0741 106.787L80.1422 128.819L67.4733 122.533Z" fill="black"/>
<path d="M68.0243 122.806L78.9563 100.774L90.5235 106.513L79.5915 128.546L68.0243 122.806Z" fill="#F15A24"/>
<path opacity="0.05" d="M69.6763 123.626L80.6083 101.594L88.3198 105.42L77.3878 127.453L69.6763 123.626Z" fill="black"/>
<path d="M70.2273 123.9L81.1593 101.867L87.7691 105.147L76.8371 127.179L70.2273 123.9Z" fill="#F55F44"/>
<path d="M67.1119 102.848L58.7015 115.464C58.7015 115.464 61.5051 128.429 123.529 128.079C185.553 127.728 190.459 115.464 190.459 115.464L178.895 98.6432L143.503 74.4642L67.1119 102.848Z" fill="#6C63FF"/>
<path d="M67.1119 102.848L58.7015 115.464C58.7015 115.464 61.5051 128.429 123.529 128.079C185.553 127.728 190.459 115.464 190.459 115.464L178.895 98.6432L143.503 74.4642L67.1119 102.848Z" fill="#269984"/>
<path d="M246 56.0674L135.618 104.776L1.05696 56.0674L124.405 0L184.954 27.918L187.123 28.9201L246 56.0674Z" fill="#6C63FF"/>
<path d="M246 56.0674L135.618 104.776L1.05696 56.0674L124.405 0L184.954 27.918L187.123 28.9201L246 56.0674Z" fill="#269984"/>
<path d="M189.409 67.7432L187.306 67.8694L184.955 27.918L187.124 28.9201L189.409 67.7432Z" fill="#F5F5F5"/>
<path d="M68.5134 55.8919L58.7015 115.463C58.7015 115.463 129.136 92.6859 190.459 115.463L181.348 52.3875C181.348 52.3875 98.9999 42.2255 68.5134 55.8919Z" fill="#36D6BA"/>
<ellipse cx="189.233" cy="72.8872" rx="10.1622" ry="7.00839" fill="#F5F5F5"/>
<defs>
<linearGradient id="paint0_linear_1_7468" x1="413.425" y1="588.354" x2="436.559" y2="599.832" gradientUnits="userSpaceOnUse">
<stop stop-color="#808080" stop-opacity="0.25098"/>
<stop offset="0.53514" stop-color="#808080" stop-opacity="0.121569"/>
<stop offset="1" stop-color="#808080" stop-opacity="0.101961"/>
</linearGradient>
</defs>
</svg>
