<svg width="331" height="331" viewBox="0 0 331 331" fill="none" xmlns="http://www.w3.org/2000/svg">
<mask id="mask0_1_7287" style="mask-type:alpha" maskUnits="userSpaceOnUse" x="0" y="0" width="331" height="331">
<path d="M0 0H331V331H0V0Z" fill="black"/>
</mask>
<g mask="url(#mask0_1_7287)">
<path d="M0 0H331V331H0V0Z" fill="white"/>
<path opacity="0.4" d="M-234.331 -51.5575H180.077V275.645H-234.331V-51.5575Z" fill="#F2F2F2"/>
<path d="M47.6209 36.6384H359.936V281.673H47.6209V36.6384Z" fill="#36D6BA"/>
<path d="M200.226 70.125H123.178C122.662 70.1266 122.241 69.7094 122.24 69.1929C122.238 68.6766 122.655 68.2565 123.172 68.2549H123.178H200.226C200.742 68.2565 201.159 68.6766 201.158 69.1929C201.157 69.707 200.74 70.1234 200.226 70.125Z" fill="#F2F2F2"/>
<path d="M284.566 80.4101H163.384C162.867 80.4101 162.449 79.9915 162.449 79.475C162.449 78.9589 162.867 78.54 163.384 78.54H284.566C285.082 78.54 285.501 78.9589 285.501 79.475C285.501 79.9915 285.082 80.4101 284.566 80.4101Z" fill="#F2F2F2"/>
<path d="M200.6 90.6959H123.552C123.035 90.6959 122.617 90.2773 122.617 89.7612C122.617 89.2447 123.035 88.8262 123.552 88.8262H200.6C201.117 88.8262 201.535 89.2447 201.535 89.7612C201.535 90.2773 201.117 90.6959 200.6 90.6959Z" fill="#F2F2F2"/>
<path d="M284.569 90.8828H207.52C207.004 90.8828 206.585 90.4643 206.585 89.9478C206.585 89.4314 207.004 89.0127 207.52 89.0127H284.569C285.085 89.0127 285.504 89.4314 285.504 89.9478C285.504 90.4643 285.085 90.8828 284.569 90.8828Z" fill="#F2F2F2"/>
<path d="M200.786 100.981H123.739C123.222 100.981 122.804 100.563 122.804 100.046C122.804 99.5298 123.222 99.1113 123.739 99.1113H200.786C201.302 99.1113 201.722 99.5298 201.722 100.046C201.722 100.563 201.302 100.981 200.786 100.981Z" fill="#F2F2F2"/>
<path d="M200.974 111.267H123.927C123.411 111.267 122.991 110.849 122.991 110.332C122.991 109.816 123.411 109.397 123.927 109.397H200.974C201.49 109.397 201.91 109.816 201.91 110.332C201.91 110.849 201.49 111.267 200.974 111.267Z" fill="#F2F2F2"/>
<path d="M235.944 70.3118H213.876C213.36 70.3118 212.941 69.8932 212.941 69.3771C212.941 68.8606 213.36 68.442 213.876 68.442H235.944C236.46 68.442 236.879 68.8606 236.879 69.3771C236.879 69.8932 236.46 70.3118 235.944 70.3118Z" fill="#F2F2F2"/>
<path d="M235.944 100.981H213.876C213.36 100.981 212.941 100.563 212.941 100.046C212.941 99.5298 213.36 99.1113 213.876 99.1113H235.944C236.46 99.1113 236.879 99.5298 236.879 100.046C236.879 100.563 236.46 100.981 235.944 100.981Z" fill="#F2F2F2"/>
<path d="M235.944 111.08H213.877C213.361 111.082 212.941 110.664 212.939 110.148C212.938 109.631 213.355 109.212 213.872 109.21H213.877H235.944C236.461 109.208 236.881 109.625 236.883 110.142C236.884 110.658 236.466 111.078 235.95 111.08H235.944Z" fill="#F2F2F2"/>
<path d="M272.971 111.08H250.905C250.388 111.078 249.971 110.658 249.972 110.142C249.974 109.628 250.39 109.212 250.905 109.21H272.971C273.488 109.208 273.908 109.625 273.909 110.142C273.911 110.658 273.494 111.078 272.977 111.08H272.971Z" fill="#F2F2F2"/>
<path d="M145.058 80.4101H122.99C122.474 80.4101 122.055 79.9915 122.055 79.475C122.055 78.9589 122.474 78.54 122.99 78.54H145.058C145.573 78.54 145.993 78.9589 145.993 79.475C145.993 79.9915 145.573 80.4101 145.058 80.4101Z" fill="#F2F2F2"/>
<path d="M200.319 221.603H123.27C122.754 221.603 122.336 221.184 122.336 220.668C122.336 220.151 122.754 219.733 123.27 219.733H200.319C200.834 219.733 201.254 220.151 201.254 220.668C201.254 221.184 200.834 221.603 200.319 221.603Z" fill="#F2F2F2"/>
<path d="M199.945 242.174H122.897C122.381 242.174 121.962 241.756 121.962 241.239C121.962 240.722 122.381 240.304 122.897 240.304H199.945C200.462 240.304 200.88 240.722 200.88 241.239C200.88 241.756 200.462 242.174 199.945 242.174Z" fill="#F2F2F2"/>
<path d="M200.133 252.459H123.084C122.568 252.459 122.148 252.041 122.148 251.524C122.148 251.008 122.568 250.589 123.084 250.589H200.133C200.649 250.589 201.068 251.008 201.068 251.524C201.068 252.041 200.649 252.459 200.133 252.459Z" fill="#F2F2F2"/>
<path d="M233.047 242.361H210.979C210.463 242.361 210.044 241.942 210.044 241.426C210.044 240.909 210.463 240.491 210.979 240.491H233.047C233.563 240.491 233.981 240.909 233.981 241.426C233.981 241.942 233.563 242.361 233.047 242.361Z" fill="#F2F2F2"/>
<path d="M233.047 252.459H210.979C210.463 252.459 210.044 252.041 210.044 251.524C210.044 251.008 210.463 250.589 210.979 250.589H233.047C233.563 250.589 233.981 251.008 233.981 251.524C233.981 252.041 233.563 252.459 233.047 252.459Z" fill="#F2F2F2"/>
<path d="M270.073 242.361H248.006C247.49 242.361 247.071 241.942 247.071 241.426C247.071 240.909 247.49 240.491 248.006 240.491H270.073C270.589 240.491 271.008 240.909 271.008 241.426C271.008 241.942 270.589 242.361 270.073 242.361Z" fill="#F2F2F2"/>
<path d="M284.66 231.889H163.478C162.961 231.889 162.543 231.469 162.543 230.953C162.543 230.437 162.961 230.018 163.478 230.018H284.66C285.176 230.018 285.595 230.437 285.595 230.953C285.595 231.469 285.176 231.889 284.66 231.889Z" fill="#F2F2F2"/>
<path d="M145.152 231.889H123.084C122.568 231.889 122.148 231.469 122.148 230.953C122.148 230.437 122.568 230.018 123.084 230.018H145.152C145.668 230.018 146.087 230.437 146.087 230.953C146.087 231.469 145.668 231.889 145.152 231.889Z" fill="#F2F2F2"/>
<path d="M284.66 262.932H163.478C162.961 262.932 162.543 262.513 162.543 261.997C162.543 261.48 162.961 261.062 163.478 261.062H284.66C285.176 261.062 285.595 261.48 285.595 261.997C285.595 262.513 285.176 262.932 284.66 262.932Z" fill="#F2F2F2"/>
<path d="M145.152 262.932H123.084C122.568 262.932 122.148 262.513 122.148 261.997C122.148 261.48 122.568 261.062 123.084 261.062H145.152C145.668 261.062 146.087 261.48 146.087 261.997C146.087 262.513 145.668 262.932 145.152 262.932Z" fill="#F2F2F2"/>
<path d="M188.631 142.871L165.817 165.687L188.444 188.315L181.712 195.047L151.791 165.5L181.712 135.952L188.631 142.871Z" fill="#269984"/>
<path d="M225.845 135.952L255.767 165.5L225.845 195.047L219.113 188.315L241.741 165.687L218.926 142.872L225.845 135.952Z" fill="#269984"/>
<circle cx="55.9271" cy="42.8685" r="3.73782" fill="#269984"/>
<circle cx="65.8944" cy="42.8685" r="3.73782" fill="#269984"/>
<circle cx="75.8617" cy="42.8685" r="3.73782" fill="#269984"/>
<path opacity="0.1" d="M47.6209 49.098H359.936V50.3439H47.6209V49.098Z" fill="black"/>
<path d="M17.0653 281.296C15.9864 281.896 14.8487 282.384 13.6689 282.75C11.56 283.326 9.30524 283.115 7.17436 283.607C6.30261 283.809 5.353 284.23 5.0758 285.081C4.87256 285.705 5.09392 286.38 5.30549 287.001C7.66019 293.903 9.07849 301.232 12.8339 307.484C14.4108 310.11 16.3693 312.488 18.6442 314.54C19.4978 315.309 20.4651 316.061 21.6077 316.182C23.261 316.357 24.7435 315.158 24.9178 313.505C24.9737 312.975 24.8875 312.439 24.6691 311.953C24.3326 311.205 23.7067 310.626 23.3032 309.912C22.8653 309.002 22.6092 308.016 22.547 307.009C22.1762 304.056 21.8187 300.971 22.8423 298.177C23.5279 296.303 24.7866 294.705 25.8351 293.007C26.8837 291.309 27.7545 289.364 27.5213 287.382C27.3622 286.03 26.7025 284.792 26.0051 283.622C25.3067 282.449 23.9266 279.299 22.524 278.908C21.0675 278.502 18.3357 280.645 17.0653 281.296Z" fill="black"/>
<path d="M55.4548 305.139C55.4763 305.806 55.3833 306.473 55.1796 307.109C54.7398 308.269 53.6506 309.064 53.0874 310.169C52.3047 311.706 52.6593 313.563 53.1785 315.208C53.5036 316.24 53.9297 317.313 54.8034 317.951C55.5498 318.414 56.399 318.686 57.2757 318.743C64.7668 319.78 72.3755 319.185 79.9342 319.402C81.3124 319.442 82.7708 319.49 83.9737 318.816C85.1755 318.143 85.9199 316.45 85.102 315.341C84.3674 314.345 82.9148 314.354 81.6787 314.296C78.4601 314.132 75.3943 312.869 72.9936 310.718C72.5205 310.313 72.1091 309.841 71.7761 309.315C71.5185 308.849 71.3049 308.36 71.1374 307.854C70.0776 304.984 68.818 302.192 67.3654 299.499C66.9589 298.745 66.4986 297.96 65.7434 297.557C65.19 297.306 64.5905 297.174 63.9832 297.173C62.0987 297.05 57.2198 296.409 55.7633 297.874C54.4175 299.228 55.4852 303.419 55.4548 305.139Z" fill="black"/>
<circle cx="67.0478" cy="125.815" r="12.0337" transform="rotate(-85.9349 67.0478 125.815)" fill="#FBBEBE"/>
<path d="M56.1817 135.751C55.4657 137.667 54.2521 139.467 52.4851 140.498L69.1286 143.894C68.5252 141.464 68.4454 138.934 68.8955 136.472C69.0605 135.876 69.0938 135.252 68.9949 134.641C68.6819 133.433 67.3229 132.852 66.1069 132.575C63.069 131.882 60.3827 131.511 57.5593 130.17C56.6969 131.647 56.8174 134.048 56.1817 135.751Z" fill="#FBBEBE"/>
<path d="M52.3459 135.993C55.9735 134.351 60.153 134.461 63.6899 136.289C65.8233 137.413 67.5903 139.111 69.3259 140.785C70.9264 142.329 72.6332 144.097 72.7468 146.317C72.8016 147.393 72.4662 148.445 72.2967 149.508C71.6723 154.017 73.9682 158.427 78.0194 160.501C79.3417 162.704 79.615 165.372 79.6346 167.941C79.712 177.675 76.6408 187.528 78.8334 197.011C79.3481 199.238 80.1459 201.395 80.591 203.636C81.167 206.539 81.1381 209.525 81.4398 212.47C81.7664 215.658 82.4795 218.796 83.5633 221.812C82.839 222.964 81.3315 223.406 79.974 223.313C78.6164 223.219 77.3475 222.63 76.1358 222.01C70.2701 219.009 64.8976 215.051 58.8228 212.5C54.8035 210.812 50.5216 209.761 46.6223 207.812C42.7229 205.863 39.0969 202.769 37.9043 198.576C37.3886 196.763 37.3578 194.853 37.3294 192.968C37.2108 185.03 37.1007 177.005 38.8285 169.256C40.3526 162.423 43.2901 155.886 43.9306 148.914C44.1383 146.645 44.1437 144.215 45.4116 142.322C47.2036 139.645 51.0736 138.952 52.3459 135.993Z" fill="black"/>
<path d="M60.2036 125.984C60.9128 125.06 62.2811 124.933 63.4134 125.207C64.5462 125.481 65.5908 126.065 66.7349 126.287C67.2609 126.436 67.8251 126.356 68.2893 126.068C68.6895 125.674 68.9289 125.146 68.9608 124.585C69.3609 122.201 69.4544 119.775 69.2389 117.367C69.1792 117.029 69.2017 116.682 69.3046 116.355C69.5876 115.672 70.452 115.509 71.1583 115.291C73.5531 114.481 75.0943 112.15 74.9014 109.628C74.8838 109.041 74.6369 108.483 74.2133 108.075C73.7255 107.677 73.0413 107.653 72.4125 107.648C69.1777 107.622 65.943 107.623 62.7082 107.65C61.5113 107.66 60.2536 107.69 59.2153 108.287C58.4474 108.728 57.8778 109.438 57.1883 109.994C55.3919 111.444 52.9623 111.739 50.7755 112.482C49.7089 112.786 48.7392 113.364 47.9644 114.158C47.2381 114.989 46.8884 116.224 47.3449 117.229C47.5795 117.648 47.8415 118.05 48.1285 118.435C49.418 120.496 48.5599 123.171 48.7524 125.594C48.9924 128.622 53.4721 133.532 56.51 134.248C61.4133 135.405 58.5811 127.972 60.2036 125.984Z" fill="black"/>
<path d="M53.4098 258.699C53.7193 260.909 54.1165 263.127 54.0102 265.356C53.8623 268.469 52.7398 271.467 52.5317 274.576C52.3774 276.898 52.7354 279.245 52.4132 281.55C52.2065 283.025 51.7251 284.448 51.4278 285.908C50.4743 290.715 51.5204 295.704 54.3237 299.723C54.5274 300.064 54.8173 300.345 55.1641 300.538C55.4966 300.661 55.8526 300.708 56.2058 300.675C59.7079 300.604 63.2013 300.287 66.6589 299.726C66.9116 299.715 67.1516 299.61 67.3303 299.43C67.4082 299.31 67.4582 299.175 67.4763 299.033C68.1173 295.737 66.655 292.433 66.2833 289.096C65.8866 285.532 66.7412 281.962 67.5899 278.478C67.9748 276.76 68.4553 275.064 69.0297 273.4C69.4402 272.28 69.9358 271.19 70.2908 270.051C70.7948 268.262 71.1014 266.424 71.2057 264.568C71.453 261.64 71.5833 258.705 71.598 255.764C71.6822 252.977 71.4496 250.189 70.9064 247.453C70.1263 243.99 68.5297 240.775 66.9464 237.598C66.0996 237.801 65.3047 238.179 64.6132 238.707C62.5724 240.028 60.4421 241.205 58.2382 242.229C56.7562 242.917 53.8682 243.406 52.9279 244.839C52.0008 246.253 52.5988 249.139 52.6698 250.698C52.7912 253.375 53.0381 256.041 53.4098 258.699Z" fill="black"/>
<path opacity="0.1" d="M53.4098 258.699C53.7193 260.909 54.1165 263.127 54.0102 265.356C53.8623 268.469 52.7398 271.467 52.5317 274.576C52.3774 276.898 52.7354 279.245 52.4132 281.55C52.2065 283.025 51.7251 284.448 51.4278 285.908C50.4743 290.715 51.5204 295.704 54.3237 299.723C54.5274 300.064 54.8173 300.345 55.1641 300.538C55.4966 300.661 55.8526 300.708 56.2058 300.675C59.7079 300.604 63.2013 300.287 66.6589 299.726C66.9116 299.715 67.1516 299.61 67.3303 299.43C67.4082 299.31 67.4582 299.175 67.4763 299.033C68.1173 295.737 66.655 292.433 66.2833 289.096C65.8866 285.532 66.7412 281.962 67.5899 278.478C67.9748 276.76 68.4553 275.064 69.0297 273.4C69.4402 272.28 69.9358 271.19 70.2908 270.051C70.7948 268.262 71.1014 266.424 71.2057 264.568C71.453 261.64 71.5833 258.705 71.598 255.764C71.6822 252.977 71.4496 250.189 70.9064 247.453C70.1263 243.99 68.5297 240.775 66.9464 237.598C66.0996 237.801 65.3047 238.179 64.6132 238.707C62.5724 240.028 60.4421 241.205 58.2382 242.229C56.7562 242.917 53.8682 243.406 52.9279 244.839C52.0008 246.253 52.5988 249.139 52.6698 250.698C52.7912 253.375 53.0381 256.041 53.4098 258.699Z" fill="black"/>
<path d="M37.141 211.493C35.543 215.795 37.8918 220.444 39.9326 224.555C44.9608 234.683 48.4522 245.49 51.9245 256.251C52.185 257.057 52.4451 257.936 52.1547 258.732C51.9039 259.297 51.4974 259.78 50.9827 260.122C48.5883 261.941 45.5392 262.588 42.6874 263.54C39.9306 264.46 37.2904 265.697 34.8201 267.228C32.7529 268.509 30.8165 269.987 28.8844 271.463L22.7327 276.161C22.3341 276.43 21.9863 276.767 21.7047 277.157C21.1112 278.087 21.3541 279.303 21.6499 280.366C22.432 283.183 23.4389 285.931 24.6618 288.586C24.8626 289.168 25.2456 289.67 25.7535 290.018C26.7139 290.534 27.8878 289.849 28.6219 289.043C29.3546 288.236 29.9888 287.233 31.0226 286.886C32.055 286.54 33.1912 286.959 34.2692 286.808C36.0131 286.563 37.1704 284.957 38.4271 283.724C43.5631 278.685 52.137 279.051 57.7863 274.596C58.6032 273.865 59.4676 273.19 60.3746 272.574C61.3296 272.01 62.4124 271.7 63.4036 271.201C66.4166 269.684 68.3114 266.546 69.3266 263.328C70.3414 260.11 70.6308 256.713 71.3601 253.419C71.7376 251.715 72.2338 250.031 72.4013 248.294C72.509 246.679 72.4742 245.058 72.296 243.449L70.2581 218.233C70.0916 216.18 69.9261 214.125 69.6028 212.09C63.5501 212.307 57.5003 212.55 51.4426 212.622C46.623 212.679 41.7143 213.016 37.141 211.493Z" fill="black"/>
<path d="M34.9159 217.391C35.7367 218.712 37.7359 218.685 39.1121 217.961C40.4887 217.237 41.5578 216.02 42.9375 215.302C44.7916 214.337 46.9852 214.374 49.074 214.433C52.3812 214.526 55.7296 214.626 58.912 215.532C62.2031 216.47 65.407 218.274 68.8102 217.914C69.4023 217.852 70.0498 217.682 70.372 217.181C70.5606 216.818 70.6497 216.412 70.6296 216.003L70.7403 213.03C70.8084 212.516 70.7266 211.993 70.5038 211.525C70.2183 211.135 69.8274 210.835 69.3759 210.661C64.5323 208.316 59.008 207.879 53.6296 207.695C50.8953 207.602 48.1601 207.563 45.4239 207.579C43.102 207.594 40.3149 207.258 38.0567 207.878C35.0271 208.711 33.3786 214.919 34.9159 217.391Z" fill="black"/>
<path d="M65.3308 139.522C58.9841 139.466 53.2326 135.277 46.8864 135.175C46.12 135.122 45.3511 135.254 44.6463 135.561C43.7624 136.007 43.181 136.868 42.5096 137.596C40.6329 139.628 37.9158 140.712 35.9876 142.696C34.1805 144.556 33.1745 147.327 33.8886 149.82C34.6022 152.313 37.2953 154.226 39.8189 153.626C40.8351 150.336 42.9327 147.485 45.7723 145.536C47.2503 144.588 48.8077 143.771 50.4268 143.093C53.2786 141.801 56.4688 140.484 59.4465 141.453C60.5445 141.868 61.5798 142.432 62.523 143.131L67.4881 146.466C66.9097 144.184 66.3891 141.625 65.3308 139.522Z" fill="#269984"/>
<path d="M39.0879 151.42C38.2455 152.472 39.4596 153.995 39.274 155.33C39.1496 156.216 38.4204 156.894 38.1167 157.736C37.8018 158.608 37.9693 159.575 37.8493 160.494C37.7298 161.163 37.552 161.82 37.3199 162.458C36.7851 164.365 36.4119 166.314 36.2043 168.283L35.093 176.579C34.9006 177.828 34.783 179.087 34.7419 180.35C34.7982 181.293 34.735 182.24 34.5543 183.168C34.308 184.075 33.7634 184.868 33.397 185.733C33.0307 186.598 32.8613 187.644 33.3554 188.442C31.6981 189.823 31.2049 192.535 32.3647 194.355C32.585 194.638 32.7579 194.956 32.8755 195.295C32.9396 195.77 32.8613 196.253 32.6507 196.683L31.5267 199.676C31.2392 200.442 31.1486 201.608 31.9474 201.783C31.2857 202.471 30.7695 203.285 30.4316 204.178C30.0976 205.089 30.2504 206.107 30.8352 206.88C31.1143 207.125 31.3519 207.413 31.5389 207.734C31.6486 208.181 31.6202 208.65 31.4581 209.081C31.1182 210.402 31.3396 211.805 32.0688 212.957C32.8338 214.107 34.2056 214.695 35.5661 214.456C37.8126 213.949 39.8318 213.149 42.0974 213.564C46.9762 214.46 51.8698 215.359 56.5948 216.867C61.9869 218.589 67.2081 221.114 72.8441 221.644C73.2153 221.719 73.6003 221.659 73.9308 221.474C74.2178 221.202 74.3966 220.835 74.4333 220.442C75.0142 217.719 75.595 214.997 76.1753 212.274C76.8771 209.257 77.4119 206.203 77.7763 203.126C77.9752 201.14 78.031 199.143 78.0878 197.149L78.5369 181.271C78.747 178.931 78.4345 176.573 77.6225 174.368L75.0406 166.125C73.567 161.421 70.1867 157.249 68.9829 152.469C68.2209 149.443 67.6582 146.197 65.615 143.838C62.7034 140.477 57.6644 139.953 53.2543 140.531C51.262 140.793 49.2525 141.243 47.5286 142.277C45.5359 143.471 44.0686 145.354 42.6478 147.192C41.4773 148.708 40.2863 149.926 39.0879 151.42Z" fill="#269984"/>
<path d="M49.3862 198.122C49.7501 199.689 50.5126 201.134 50.9798 202.673C51.7624 205.251 51.6953 208.028 52.477 210.607C52.8046 211.69 53.2797 212.729 53.5152 213.836C54.0637 216.415 53.2625 219.083 52.2678 221.525C51.2727 223.967 50.0611 226.375 49.7378 228.993C49.5106 230.836 49.8372 232.917 51.258 234.114C52.7331 235.356 54.8767 235.271 56.798 235.106C57.4871 235.087 58.1683 234.945 58.8089 234.688C60.2776 233.993 60.8962 232.254 61.2405 230.665C62.3914 225.341 62.0623 219.823 61.7278 214.386L60.8526 200.168C60.6841 197.431 60.5044 194.637 59.6601 192.009C59.3535 191.053 58.8192 189.121 57.946 188.511C57.0811 187.906 54.6113 187.879 53.5397 187.829C48.5159 187.593 48.5722 194.605 49.3862 198.122Z" fill="#FBBEBE"/>
<path d="M54.9531 145.627C53.9266 145.089 52.6336 145.321 51.6424 145.919C50.6844 146.575 49.845 147.389 49.1623 148.327C46.9447 151.034 44.5969 154.139 44.926 157.622C45.0494 158.929 45.5495 160.165 45.8879 161.432C47.3747 166.989 45.7312 172.866 45.9197 178.615C46.0284 181.936 46.7518 185.204 47.4717 188.449C47.6181 189.111 47.8537 189.878 48.4943 190.101C48.9752 190.269 49.4953 190.053 49.9714 189.872C53.572 188.541 57.5967 189.048 60.7546 191.231C61.9447 190.596 61.499 188.588 61.2316 187.267C60.4392 183.339 61.5147 179.287 62.8213 175.498C64.1289 171.71 65.6922 167.927 65.9087 163.926C66.1536 159.392 64.65 154.967 63.1671 150.676C62.8429 149.74 62.4903 148.757 61.739 148.11C61.0964 147.632 60.3599 147.296 59.5782 147.123C58.0032 146.657 56.4076 146.389 54.9531 145.627Z" fill="black"/>
<path d="M-144.547 319.412H205.063V320.242H-144.547V319.412Z" fill="black"/>
</g>
</svg>
