<svg width="186" height="361" viewBox="0 0 186 361" fill="none" xmlns="http://www.w3.org/2000/svg">
<path d="M14.5066 4.04411C14.9899 4.40296 26.4989 13.1016 38.5095 35.9687C49.5283 56.948 63.011 94.3671 64.6676 153.491C67.8075 265.499 144.101 326.072 144.873 326.672L143.191 328.835C142.995 328.682 123.405 313.294 103.726 284.139C77.667 245.472 63.1677 200.18 61.9285 153.568C58.7963 41.7504 13.3314 6.58735 12.872 6.24416L14.5066 4.04411Z" fill="black"/>
<circle cx="167.997" cy="343.187" r="17.8081" transform="rotate(158 167.997 343.187)" fill="#36D6BA"/>
<circle cx="91.2912" cy="303.261" r="17.8081" transform="rotate(158 91.2912 303.261)" fill="#FBB03B"/>
<circle cx="110.433" cy="248.249" r="17.8081" transform="rotate(158 110.433 248.249)" fill="#36D6BA"/>
<circle cx="53.3943" cy="231.403" r="17.8081" transform="rotate(158 53.3943 231.403)" fill="#36D6BA"/>
<circle cx="87.7266" cy="155.48" r="17.8081" transform="rotate(158 87.7266 155.48)" fill="#FBB03B"/>
<path d="M4.28587 7.46754C4.28587 7.46754 37.2184 41.4399 -0.000143893 91.9357L4.28587 7.46754Z" fill="black"/>
<path d="M24.8905 -0.000209889C24.8905 -0.000209889 49.8666 40.1845 107.878 16.3164L24.8905 -0.000209889Z" fill="black"/>
</svg>
