<svg width="818" height="744" viewBox="0 0 818 744" fill="none" xmlns="http://www.w3.org/2000/svg">
<path d="M800.968 743.8C770.024 737.855 740.261 732.747 711.681 728.475L723.085 703.778C719.279 702.282 702.474 716.415 702.474 716.415L717.597 644.708C698.415 647.296 688.375 720.517 688.375 720.517L667.053 695.737L677.312 723.583C589.836 711.878 514.266 707.495 450.69 707.277L460.45 686.14C456.644 684.643 439.839 698.776 439.839 698.776L454.962 627.07C435.78 629.657 425.739 702.879 425.739 702.879L404.418 678.099L415.283 707.592C361.98 708.741 318.498 712.799 284.931 717.442C294.849 684.508 328.221 653.208 328.221 653.208C302.797 661.696 289.422 675.946 282.409 689.238C282.035 648.561 285.909 573.15 312.826 489.684C312.826 489.684 259.831 618.365 266.183 704.783L266.922 720.127C222.402 727.265 202.299 743.8 202.299 743.8H800.968Z" fill="black"/>
<path d="M770.707 739.091C770.486 738.728 765.248 729.982 763.432 711.819C761.766 695.156 762.837 667.069 777.402 627.891C804.998 553.67 771.043 493.785 770.697 493.188L772.371 492.216C772.46 492.368 781.221 507.636 786.398 531.948C793.236 564.182 790.746 597.697 779.218 628.566C751.67 702.661 772.151 737.736 772.361 738.082L770.707 739.091Z" fill="black"/>
<circle cx="759.917" cy="476.245" r="12.5846" fill="#36D6BA"/>
<circle cx="799.608" cy="522.712" r="12.5846" fill="#FBB03B"/>
<circle cx="772.502" cy="553.689" r="12.5846" fill="#36D6BA"/>
<circle cx="805.416" cy="579.826" r="12.5846" fill="#36D6BA"/>
<circle cx="762.822" cy="620.484" r="12.5846" fill="#FBB03B"/>
<path d="M778.31 739.554C778.31 739.554 765.725 708.576 803.479 685.343L778.31 739.554Z" fill="black"/>
<path d="M762.833 738.992C762.833 738.992 757.106 706.051 712.777 706.332L762.833 738.992Z" fill="black"/>
<path d="M512.423 393.788C514.616 393.708 516.848 393.589 519.055 393.434L519.211 395.655C516.978 395.81 514.723 395.931 512.505 396.013L512.423 393.788Z" fill="#E6E6E6"/>
<path d="M491.514 0.427877C494.499 0.218779 497.513 0.0745397 500.475 0L500.531 2.22554C496.096 2.33687 491.567 2.60502 487.127 3.01837L486.922 0.801544C488.446 0.660209 489.977 0.53533 491.514 0.427877ZM473.454 2.51596L473.811 4.71343C469.402 5.42784 464.973 6.30199 460.642 7.31167L460.137 5.14421C464.516 4.12388 468.996 3.23909 473.454 2.51596ZM514.048 0.11423C518.559 0.306871 523.112 0.658273 527.583 1.15779L527.335 3.36881C522.916 2.87607 518.414 2.52854 513.954 2.3388L514.048 0.11423ZM447.031 8.67952L447.684 10.8083C443.424 12.1161 439.154 13.5895 434.996 15.1877L434.197 13.1112C438.404 11.4936 442.723 10.0019 447.031 8.67952ZM541.015 3.1297C545.447 3.93705 549.91 4.91091 554.28 6.02319L553.732 8.17904C549.409 7.0803 544.997 6.11806 540.615 5.31942L541.015 3.1297ZM421.701 18.4171L422.642 20.4345C418.604 22.3174 414.583 24.3629 410.69 26.5139L409.614 24.5652C413.551 22.39 417.616 20.3213 421.701 18.4171ZM567.333 9.83053C571.624 11.2458 575.915 12.8266 580.087 14.5294L579.246 16.5914C575.121 14.907 570.878 13.3436 566.636 11.9447L567.333 9.83053ZM397.976 31.5303L399.183 33.4006C395.441 35.8197 391.736 38.3986 388.172 41.0646L386.838 39.2814C390.443 36.5854 394.19 33.9785 397.976 31.5303ZM592.485 20.0938C596.539 22.0831 600.57 24.236 604.468 26.4935L603.353 28.419C599.498 26.1876 595.512 24.0579 591.503 22.0909L592.485 20.0938ZM376.257 47.777L377.708 49.4643C374.329 52.3714 371.01 55.4314 367.839 58.5601L366.275 56.9764C369.482 53.8119 372.839 50.716 376.257 47.777ZM615.985 33.6977C619.721 36.2156 623.42 38.8971 626.981 41.6677L625.613 43.4237C622.093 40.6851 618.435 38.0336 614.74 35.5428L615.985 33.6977ZM356.943 66.8369L358.611 68.3113C355.659 71.651 352.784 75.135 350.066 78.6684L348.301 77.3102C351.051 73.7381 353.958 70.2145 356.943 66.8369ZM637.406 50.3675C640.768 53.3733 644.067 56.533 647.213 59.7566L645.62 61.3103C642.509 58.1226 639.247 54.9996 635.923 52.0277L637.406 50.3675ZM340.393 88.3528L342.245 89.587C339.777 93.2937 337.402 97.1378 335.187 101.013L333.255 99.9084C335.494 95.9887 337.897 92.101 340.393 88.3528ZM656.356 69.7885C659.278 73.2212 662.115 76.7981 664.791 80.4186L663.001 81.7429C660.355 78.1631 657.549 74.6258 654.66 71.2299L656.356 69.7885ZM326.924 111.93L328.926 112.899C326.983 116.916 325.156 121.05 323.494 125.189L321.429 124.359C323.11 120.173 324.957 115.992 326.924 111.93ZM672.478 91.5986C674.901 95.3953 677.223 99.3256 679.378 103.277L677.424 104.342C675.293 100.436 672.998 96.5502 670.602 92.7961L672.478 91.5986ZM316.803 137.139L318.921 137.824C317.548 142.071 316.305 146.42 315.229 150.751L313.069 150.214C314.157 145.833 315.414 141.434 316.803 137.139ZM685.457 115.397C687.338 119.494 689.1 123.709 690.693 127.924L688.611 128.711C687.036 124.543 685.294 120.377 683.435 116.325L685.457 115.397ZM310.252 163.497L312.445 163.884C311.67 168.274 311.04 172.746 310.571 177.175L308.358 176.94C308.833 172.461 309.47 167.938 310.252 163.497ZM695.05 140.782C696.348 145.097 697.513 149.514 698.511 153.909L696.341 154.402C695.353 150.056 694.202 145.689 692.918 141.424L695.05 140.782ZM307.392 190.48L309.615 190.562C309.451 195.009 309.438 199.525 309.576 203.985L307.352 204.054C307.211 199.545 307.225 194.977 307.392 190.48ZM701.063 167.242C701.757 171.688 702.309 176.222 702.702 180.718L700.485 180.912C700.096 176.465 699.551 171.982 698.863 167.586L701.063 167.242ZM310.448 217.383C310.885 221.823 311.481 226.301 312.216 230.69L310.022 231.058C309.276 226.619 308.675 222.091 308.232 217.602L310.448 217.383ZM314.887 243.845C315.927 248.184 317.128 252.539 318.458 256.783L316.334 257.449C314.989 253.155 313.774 248.753 312.723 244.361L314.887 243.845ZM322.912 269.445C324.535 273.592 326.321 277.735 328.222 281.757L326.21 282.709C324.287 278.64 322.48 274.45 320.841 270.257L322.912 269.445ZM334.371 293.676C336.55 297.565 338.891 301.425 341.326 305.147L339.464 306.367C337 302.601 334.633 298.698 332.43 294.765L334.371 293.676ZM349.053 316.118C351.747 319.676 354.594 323.181 357.513 326.536L355.836 327.997C352.882 324.605 350.002 321.06 347.278 317.462L349.053 316.118ZM366.668 336.354C369.815 339.509 373.113 342.595 376.47 345.528L375.005 347.204C371.61 344.238 368.275 341.116 365.092 337.927L366.668 336.354ZM386.875 354.014C390.429 356.714 394.116 359.325 397.836 361.772L396.614 363.632C392.851 361.157 389.121 358.518 385.528 355.786L386.875 354.014ZM409.301 368.766C413.191 370.959 417.202 373.043 421.221 374.959L420.264 376.969C416.198 375.03 412.142 372.923 408.208 370.705L409.301 368.766ZM433.541 380.319C437.693 381.959 441.951 383.473 446.201 384.82L445.528 386.941C441.231 385.579 436.922 384.048 432.723 382.39L433.541 380.319ZM459.144 388.437C463.476 389.487 467.899 390.399 472.292 391.148L471.918 393.342C467.474 392.585 463 391.663 458.62 390.601L459.144 388.437ZM485.595 392.945C490.025 393.389 494.532 393.685 498.99 393.824L498.919 396.05C494.411 395.908 489.853 395.609 485.373 395.161L485.595 392.945Z" fill="#E6E6E6"/>
<path d="M701.211 194.646L703.436 194.605C703.477 196.852 703.48 199.111 703.445 201.319L701.22 201.285C701.254 199.102 701.251 196.867 701.211 194.646Z" fill="#E6E6E6"/>
<path d="M519.358 631.616L510.646 662.594L532.911 666.466L545.495 640.329L519.358 631.616Z" fill="#FFB8B8"/>
<path d="M661.661 639.361L667.469 674.21L689.734 676.147L684.894 636.457L661.661 639.361Z" fill="#FFB8B8"/>
<circle cx="602.61" cy="223.101" r="28.0734" fill="#FFB8B8"/>
<path d="M585.185 240.525C585.185 240.525 590.025 270.534 589.057 273.439C588.089 276.343 619.551 269.082 619.551 269.082C619.551 269.082 621.003 237.621 621.971 235.685L585.185 240.525Z" fill="#FFB8B8"/>
<path d="M628.747 329.586L634.556 394.445L619.067 392.509V334.426L628.747 329.586Z" fill="#FFB8B8"/>
<path d="M627.629 268.565C626.655 264.673 622.961 262.096 618.974 262.525C607.293 263.774 584.681 266.451 583.249 268.599C581.997 270.477 573.057 287.325 566.894 299.003C564.002 304.353 560.623 309.426 556.798 314.156C553.224 318.665 549.367 327.286 554.207 341.202C561.952 363.467 562.92 394.445 562.92 394.445L623.907 380.892C623.907 380.892 619.067 353.787 630.683 336.362C639.844 322.62 631.546 284.197 627.629 268.565Z" fill="black"/>
<path d="M559.048 382.828L564.856 430.263L514.518 636.457C514.518 636.457 553.24 650.977 553.24 650.009C553.24 649.041 611.322 504.802 611.322 504.802L658.757 646.137L700.383 642.265L658.757 463.176C658.757 463.176 658.273 412.354 628.747 385.732L622.966 370.818C622.966 370.818 586.153 350.883 559.048 382.828Z" fill="black"/>
<path d="M692.638 666.466L657.788 660.658L655.852 682.923L638.427 692.603C638.427 692.603 611.322 693.572 621.002 713.901C630.683 734.23 655.852 729.389 655.852 729.389C655.852 729.389 681.989 743.91 698.446 738.102C698.446 738.102 701.834 727.937 700.382 724.549C698.81 720.881 693.606 693.572 693.606 693.572L692.638 666.466Z" fill="black"/>
<path d="M542.591 654.849L507.742 649.041L505.806 671.306L488.381 680.987C488.381 680.987 461.275 681.955 470.956 702.284C480.636 722.613 505.806 717.773 505.806 717.773C505.806 717.773 531.943 732.293 548.4 726.485C548.4 726.485 551.788 719.225 550.336 712.932C549.438 709.044 543.559 681.955 543.559 681.955L542.591 654.849Z" fill="black"/>
<path d="M602.609 266.662C602.609 266.662 577.73 263.592 576.133 281.585C574.536 299.576 578.408 360.563 578.408 360.563L555.175 442.847C555.175 442.847 523.229 487.377 543.558 483.505C563.887 479.633 569.696 445.751 569.696 445.751L598.737 375.083L609.892 316.121C612.108 304.643 612.158 292.853 610.041 281.356C608.616 273.78 606.312 267.074 602.609 266.662Z" fill="#FFB8B8"/>
<path d="M618.79 181.758C600.305 181.758 585.321 202.526 585.321 228.146V260.695H593.336L597.977 248.636L596.817 260.695H648.34L652.559 249.732L651.504 260.695H657.305V235.138C657.305 205.657 640.061 181.758 618.79 181.758Z" fill="black"/>
<path d="M622.309 188.972C618.232 183.497 611.837 180.234 605.012 180.145H604.192C588.369 180.145 575.542 194.462 575.542 212.124H580.844L581.7 205.607L582.956 212.124H614.4L617.034 206.61L616.375 212.124H622.561C625.448 226.459 621.3 240.795 610.119 255.131H620.656L625.925 244.103L624.608 255.131H644.695L648.646 229.768C648.646 210.773 637.611 194.667 622.309 188.972Z" fill="black"/>
<path d="M0 138.396H421.101V170.342H0V138.396Z" fill="black"/>
<path d="M0 219.712H421.101V251.658H0V219.712Z" fill="black"/>
<path d="M0 301.028H421.101V332.974H0V301.028Z" fill="black"/>
<circle cx="210.067" cy="154.369" r="31.9456" fill="#36D6BA"/>
<circle cx="49.3705" cy="235.685" r="31.9456" fill="#36D6BA"/>
<circle cx="329.136" cy="317.001" r="31.9456" fill="#36D6BA"/>
</svg>
