<svg width="330" height="330" viewBox="0 0 330 330" fill="none" xmlns="http://www.w3.org/2000/svg">
<mask id="mask0_1_7010" style="mask-type:alpha" maskUnits="userSpaceOnUse" x="0" y="0" width="330" height="330">
<path d="M0 0H330V330H0V0Z" fill="black"/>
</mask>
<g mask="url(#mask0_1_7010)">
<path d="M0 0H330V330H0V0Z" fill="white"/>
<path opacity="0.4" d="M90.419 105.253H319.095V285.812H90.419V105.253Z" fill="#F2F2F2"/>
<path d="M287.176 264.85H57.5466V83.3378H287.176V264.85ZM58.4993 263.897H286.223V84.2908H58.4993V263.897Z" fill="black"/>
<path d="M12.9723 320.732H277.907V321.857H12.9723V320.732Z" fill="black"/>
<path opacity="0.4" d="M140.442 227.866L140.308 133.537L247.09 180.55L140.442 227.866Z" fill="#40FFDE"/>
<path d="M118.754 137.64C118.754 137.64 128.814 126.335 130.903 130.643C132.991 134.951 120.678 141.501 120.678 141.501L118.754 137.64Z" fill="#A0616A"/>
<path d="M124.02 142.303C124.02 142.303 119.546 143.946 118.25 145.943C116.954 147.944 112.643 150.03 112.643 150.03L112.266 150.254L108.198 152.679L102.867 155.852L85.9928 165.904L63.7205 174.823C63.549 171.712 63.3823 168.601 63.2251 165.657C63.1775 164.775 63.1678 163.898 63.1871 163.022C63.468 162.936 63.7538 162.86 64.0444 162.798C70.6335 161.393 73.4344 159.349 73.4344 159.349L86.3166 151.578C86.3166 151.578 96.4309 145.133 102.848 142.107C103.749 141.679 104.578 141.322 105.292 141.059C111.104 138.925 120.499 135.476 120.499 135.476L120.609 135.69L122.933 140.192L124.02 142.303Z" fill="#D0CDE1"/>
<path d="M124.02 142.303C124.02 142.303 119.546 143.946 118.25 145.943C116.954 147.944 112.643 150.03 112.643 150.03L112.266 150.254L108.198 152.679L102.867 155.852L85.9928 165.904L63.7205 174.823C63.549 171.712 63.3823 168.601 63.2251 165.657C63.1775 164.775 63.1678 163.898 63.1871 163.022C63.468 162.936 63.7538 162.86 64.0444 162.798C70.6335 161.393 73.4344 159.349 73.4344 159.349L86.3166 151.578C86.3166 151.578 96.4309 145.133 102.848 142.107C103.749 141.679 104.578 141.322 105.292 141.059C111.104 138.925 120.499 135.476 120.499 135.476L120.609 135.69L122.933 140.192L124.02 142.303Z" fill="black"/>
<path d="M120.499 227.765L120.366 133.436L227.148 180.449L120.499 227.765Z" fill="#36D6BA"/>
<path opacity="0.2" d="M220.325 177.445L120.491 221.738L120.499 227.765L227.148 180.449L220.325 177.445Z" fill="black"/>
<path d="M90.6574 305.582V315.587H98.28L97.3272 305.106L90.6574 305.582Z" fill="#A0616A"/>
<path d="M61.1197 305.106L58.7377 316.54L68.2659 317.016V305.106H61.1197Z" fill="#A0616A"/>
<path d="M64.9314 214.589C64.9314 214.589 62.5492 213.636 62.0729 222.211C61.5965 230.786 61.1197 260.324 61.1197 260.324C61.1197 260.324 56.3557 286.526 58.2614 294.149C60.1672 301.771 60.1672 307.012 60.1672 307.012H68.7423L69.219 302.248L69.6953 289.385C69.6953 289.385 74.4593 277.474 73.0301 266.517L84.464 231.739L90.1809 268.899C90.1809 268.899 87.799 277.951 88.2752 287.479C88.7518 297.007 88.7518 309.394 88.7518 309.394L98.2801 308.441L105.903 263.659C105.903 263.659 110.19 218.876 105.903 216.494C101.615 214.112 64.9314 214.589 64.9314 214.589Z" fill="#36D6BA"/>
<path d="M93.5156 312.252C93.5156 312.252 89.2281 306.535 87.3222 310.823C85.4167 315.111 81.1288 320.828 84.4638 323.686C87.7988 326.545 92.0865 327.497 93.5156 326.545C94.945 325.592 109.714 317.969 109.714 317.969C109.714 317.969 112.572 309.87 106.855 309.394C101.138 308.917 99.2326 307.488 99.2326 307.488L93.5156 312.252Z" fill="black"/>
<path d="M60.6437 313.682C60.6437 313.682 60.6437 308.918 58.738 310.347C56.8321 311.776 55.4031 317.969 55.4031 317.969C55.4031 317.969 43.9693 327.021 54.9265 327.021C65.8839 327.021 73.0301 328.927 72.0773 324.639C71.1247 320.352 69.6954 313.205 69.6954 313.205C69.6954 313.205 64.9313 307.012 60.6437 313.682Z" fill="black"/>
<ellipse cx="90.6575" cy="120.259" rx="11.9102" ry="11.9102" fill="#A0616A"/>
<path d="M81.3666 124.309C81.3666 124.309 79.461 138.125 76.6026 140.031C73.7442 141.936 95.6589 142.413 95.6589 142.413C95.6589 142.413 94.2295 131.455 95.6589 128.597L81.3666 124.309Z" fill="#A0616A"/>
<path d="M118.765 218.876C118.765 218.876 125.911 232.216 121.147 232.692C116.383 233.169 114.478 219.353 114.478 219.353L118.765 218.876Z" fill="#A0616A"/>
<path d="M79.6534 128.908C83.375 130.722 87.8568 129.726 90.4594 126.506C92.0616 124.411 92.9911 121.361 95.5463 120.71C97.2144 120.285 99.1384 121.087 100.628 120.224C103.408 118.614 101.456 113.508 104.037 111.595C101.734 111.563 99.8407 109.772 99.68 107.476C99.614 108.367 98.4412 108.767 97.5862 108.506C96.7308 108.246 96.059 107.588 95.2604 107.185C93.8651 106.482 92.2138 106.61 90.6584 106.755C86.6833 107.125 82.3942 107.63 79.4741 110.352C76.7301 112.91 75.8182 117.001 76.3524 120.714C76.8866 124.427 77.8305 125.646 79.8273 128.822L79.6534 128.908Z" fill="black"/>
<path d="M109.237 145.033L109.17 145.509L108.198 152.679L104.211 182.055L103.997 183.622C103.997 183.622 104.468 184.77 105.059 186.6C106.059 189.682 107.412 194.699 107.464 199.425C107.481 200.352 107.436 201.28 107.331 202.202C106.617 208.276 106.436 214.35 106.393 217.009C106.379 217.895 106.379 218.4 106.379 218.4L63.0253 216.971C63.2963 216.361 63.536 215.737 63.7448 215.103C65.311 210.499 65.8778 205.614 65.4072 200.773C64.9833 196.743 64.3211 185.761 63.7208 174.823C63.5493 171.712 63.3825 168.601 63.2254 165.657C63.1777 164.775 63.1683 163.899 63.1874 163.022C63.4228 152.651 68.2501 142.92 76.3647 136.458C76.3647 136.458 77.2414 136.496 78.6229 136.577C82.9679 136.829 92.3246 137.487 95.2638 138.568C95.399 138.616 95.5313 138.671 95.6593 138.735C97.079 139.435 100.047 140.821 102.848 142.108C106.159 143.632 109.237 145.033 109.237 145.033Z" fill="black"/>
<path d="M102.568 145.509H109.237C109.237 145.509 114.954 152.179 114.001 158.849C113.048 165.518 114.001 168.853 114.001 168.853L116.859 183.622C116.859 183.622 120.195 198.867 120.195 205.06V221.258L112.572 222.211C112.572 222.211 112.572 217.447 111.143 215.541C109.713 213.636 109.237 208.872 109.237 208.872L103.52 178.381L102.568 145.509Z" fill="black"/>
<path d="M9.24162 142.266L22.9772 136.953L28.1055 150.213L14.37 155.526L9.24162 142.266Z" fill="#36D6BA"/>
<path d="M25.6236 149.167L11.1653 154.759L5.76697 140.801L20.2256 135.209L25.6236 149.167ZM11.6182 153.782L24.6308 148.749L19.7722 136.187L6.7601 141.219L11.6182 153.782Z" fill="black"/>
<path d="M299.016 36.8004L312.461 32.1781L317.249 46.105L303.804 50.7273L299.016 36.8004Z" fill="#36D6BA"/>
<path d="M304.943 48.2866L299.903 33.6266L314.055 28.7611L319.096 43.4212L304.943 48.2866ZM300.862 34.1163L305.399 47.3103L318.136 42.9314L313.6 29.7374L300.862 34.1163Z" fill="black"/>
<path d="M42.963 321.449L42.3592 321.223C42.2268 321.173 29.0233 316.115 22.8385 304.645C16.6532 293.174 19.6819 279.363 19.7131 279.225L19.8557 278.596L20.459 278.822C20.5919 278.872 33.7947 283.931 39.9799 295.401C46.1653 306.872 43.1367 320.682 43.1053 320.821L42.963 321.449ZM23.8289 304.11C29.058 313.809 39.4917 318.78 42.135 319.915C42.6378 317.081 44.214 305.624 38.9897 295.935C33.7657 286.247 23.3279 281.269 20.6831 280.131C20.1804 282.966 18.6045 294.422 23.8289 304.11Z" fill="black"/>
<path d="M27.5651 300.621C38.6802 307.308 42.9612 320.591 42.9612 320.591C42.9612 320.591 29.2205 323.031 18.1053 316.344C6.99021 309.657 2.70956 296.374 2.70956 296.374C2.70956 296.374 16.4497 293.933 27.5651 300.621Z" fill="#36D6BA"/>
<path d="M3.6261 13.5708H326.814V14.2635H4.31864C3.93609 14.2635 3.6261 13.9532 3.6261 13.5708Z" fill="black"/>
<circle cx="7.94295" cy="6.35317" r="4.31685" fill="#36D6BA"/>
<ellipse cx="21.2533" cy="6.35317" rx="4.31685" ry="4.31685" fill="#36D6BA"/>
<ellipse cx="34.5627" cy="6.35317" rx="4.31685" ry="4.31685" fill="#36D6BA"/>
<path d="M118.634 32.6412H220.302V33.7836H118.634V32.6412Z" fill="black"/>
<path d="M118.634 40.6375H220.302V41.7799H118.634V40.6375Z" fill="black"/>
<path d="M118.634 48.6338H220.302V49.7761H118.634V48.6338Z" fill="black"/>
</g>
</svg>
