<svg width="331" height="331" viewBox="0 0 331 331" fill="none" xmlns="http://www.w3.org/2000/svg">
<mask id="mask0_1_7348" style="mask-type:alpha" maskUnits="userSpaceOnUse" x="0" y="0" width="331" height="331">
<path d="M0 0H331V331H0V0Z" fill="black"/>
</mask>
<g mask="url(#mask0_1_7348)">
<path d="M0 0.548023H331V331.548H0V0.548023Z" fill="white"/>
<path opacity="0.4" d="M42.1963 -83.3352H461.378V247.637H42.1963V-83.3352Z" fill="#F2F2F2"/>
<path d="M-44.9771 -250.154H286.023V80.8457H-44.9771V-250.154Z" fill="#D9D9D9"/>
<path d="M324.744 56.4897H194.861V53.8125H135.967V56.4897H5.54732C0.695436 56.4897 -3.23818 60.4231 -3.23818 65.2755V243.126C-3.23818 247.978 0.695436 251.911 5.54732 251.911H324.744C329.596 251.911 333.53 247.978 333.53 243.126V65.2755C333.53 60.4231 329.596 56.4897 324.745 56.4897H324.744Z" fill="#269984"/>
<path d="M8.54113 72.0163H321.752V248.699H8.54113V72.0163Z" fill="#36D6BA"/>
<circle cx="164.879" cy="63.9852" r="3.21241" fill="#36D6BA"/>
<path d="M303.772 94.5031H288.924V79.6563H303.772V94.5031ZM289.57 93.8579H303.126V80.3018H289.57V93.8579Z" fill="#269984"/>
<path d="M342.324 245.487H311.757V243.285C311.757 243.044 311.562 242.848 311.321 242.848H300.84C300.599 242.848 300.403 243.044 300.403 243.285V245.487H293.853V243.285C293.853 243.044 293.658 242.848 293.416 242.848H282.936C282.695 242.848 282.5 243.044 282.5 243.285V245.487H275.949V243.285C275.949 243.044 275.754 242.848 275.513 242.848H265.033C264.792 242.848 264.596 243.044 264.596 243.285V245.487H258.046V243.285C258.046 243.044 257.85 242.848 257.609 242.848H247.129C246.888 242.848 246.693 243.044 246.693 243.285V245.487H240.142V243.285C240.142 243.044 239.947 242.848 239.706 242.848H229.225C228.984 242.848 228.789 243.044 228.789 243.285V245.487H222.239V243.285C222.239 243.044 222.043 242.848 221.802 242.848H211.321C211.08 242.848 210.885 243.044 210.885 243.285V245.487H204.335V243.285C204.335 243.044 204.139 242.848 203.899 242.848H121.803C121.562 242.848 121.366 243.044 121.366 243.285V245.487H114.816V243.285C114.816 243.044 114.621 242.848 114.38 242.848H103.899C103.658 242.848 103.463 243.044 103.463 243.285V245.487H96.9129V243.285C96.9129 243.044 96.717 242.848 96.476 242.848H85.9955C85.7546 242.848 85.5592 243.044 85.5592 243.285V245.487H79.0088V243.285C79.0088 243.044 78.8134 242.848 78.5725 242.848H68.092C67.851 242.848 67.6556 243.044 67.6556 243.285V245.487H61.1048V243.285C61.1048 243.044 60.9099 242.848 60.6684 242.848H50.1884C49.947 242.848 49.7516 243.044 49.7516 243.285V245.487H43.2017V243.285C43.2017 243.044 43.0058 242.848 42.7649 242.848H42.7644H32.2849C32.0439 242.848 31.848 243.044 31.848 243.285V245.487H25.2977V243.285C25.2977 243.044 25.1023 242.848 24.8608 242.848H14.3808C14.1399 242.848 13.9445 243.044 13.9445 243.285V245.487H-6.14285C-11.9311 245.487 -16.6229 250.179 -16.6229 255.967V260.706C-16.6229 266.494 -11.9311 271.186 -6.14285 271.186H342.324C348.112 271.186 352.805 266.494 352.805 260.706V255.967C352.805 250.179 348.112 245.487 342.324 245.487Z" fill="#269984"/>
<path d="M-59.7291 260.434H395.911V261.825H-59.7291V260.434Z" fill="#269984"/>
<path d="M302.39 170.467H201.546V113.056H302.39V170.467ZM202.545 169.469H301.392V114.055H202.545V169.469Z" fill="#269984"/>
<path d="M117.676 181.95H27.8155V126.036H117.676V181.95ZM28.8136 180.951H116.677V127.035H28.8136V180.951Z" fill="#269984"/>
<path d="M69.7968 160.483L69.7111 159.367C69.454 157.048 70.2263 154.515 72.3728 151.939C74.3044 149.664 75.3779 147.99 75.3779 146.058C75.3779 143.868 74.0042 142.408 71.2993 142.366C69.7527 142.36 68.2404 142.823 66.9631 143.696L65.9332 140.992C67.35 139.961 69.7968 139.274 72.0721 139.274C77.0097 139.274 79.242 142.323 79.242 145.585C79.242 148.505 77.6106 150.609 75.5498 153.056C73.6604 155.288 72.9737 157.178 73.1025 159.367L73.1452 160.483H69.7968ZM68.8525 166.494C68.76 165.095 69.8193 163.886 71.218 163.794C71.288 163.79 71.3581 163.788 71.4281 163.789C72.9311 163.789 73.9611 164.905 73.9611 166.494C74.0198 167.905 72.9228 169.095 71.5123 169.153C70.1014 169.212 68.9103 168.115 68.8525 166.705C68.8496 166.634 68.8496 166.564 68.8525 166.494Z" fill="#FBB03B"/>
<path d="M249.019 148.002L248.934 146.886C248.676 144.567 249.449 142.034 251.596 139.459C253.528 137.183 254.601 135.509 254.601 133.577C254.601 131.387 253.227 129.928 250.522 129.885C248.975 129.879 247.463 130.343 246.186 131.216L245.156 128.511C246.572 127.48 249.019 126.793 251.295 126.793C256.233 126.793 258.465 129.842 258.465 133.104C258.465 136.024 256.834 138.128 254.772 140.575C252.884 142.807 252.196 144.696 252.325 146.885L252.368 148.002H249.019ZM248.075 154.013C247.983 152.614 249.042 151.405 250.441 151.313C250.51 151.309 250.581 151.307 250.651 151.308C252.154 151.308 253.185 152.424 253.185 154.013C253.242 155.424 252.146 156.614 250.735 156.672C249.324 156.731 248.133 155.634 248.075 154.224C248.072 154.153 248.072 154.083 248.075 154.013Z" fill="#FBB03B"/>
<circle cx="166.91" cy="184.035" r="43.0794" fill="black"/>
<path d="M150.272 243.029L137.394 240.697L141.571 213.807L154.449 216.138L150.272 243.029Z" fill="black"/>
<path d="M163.15 241.542L167.327 218.469L180.205 220.801L176.028 243.874L163.15 241.542Z" fill="black"/>
<ellipse cx="173.945" cy="242.973" rx="4.08983" ry="10.9062" transform="rotate(-78.587 173.945 242.973)" fill="black"/>
<ellipse cx="147.001" cy="243.003" rx="4.08982" ry="10.9062" transform="rotate(-82.4537 147.001 243.003)" fill="black"/>
<circle cx="169.926" cy="173.498" r="14.7233" fill="white"/>
<circle cx="175.977" cy="168.22" r="4.90778" fill="#269984"/>
<ellipse cx="206.688" cy="176.187" rx="21.5397" ry="6.76197" transform="rotate(-12.9101 206.688 176.187)" fill="black"/>
<ellipse cx="122.125" cy="190.25" rx="21.5397" ry="6.76198" transform="rotate(-12.9101 122.125 190.25)" fill="black"/>
<path d="M155.078 201.012C154.113 206.347 157.654 211.454 162.988 212.419C168.323 213.385 173.429 209.844 174.395 204.509C175.361 199.175 171.237 197.288 165.902 196.322C160.568 195.356 156.044 195.678 155.078 201.012Z" fill="white"/>
<path d="M3.08538 60.3638H73.9191V127.743H3.08538V60.3638Z" fill="#FBB03B"/>
<path d="M11.1338 68.4128H65.869V110.269H11.1338V68.4128Z" fill="white"/>
<path d="M11.08 115.207H40.8522V116.774H11.08V115.207Z" fill="#F2F2F2"/>
<path d="M11.08 119.908H40.8522V121.475H11.08V119.908Z" fill="#F2F2F2"/>
<circle cx="20.8739" cy="89.3523" r="6.26784" fill="#269984"/>
<circle cx="38.5018" cy="89.3523" r="6.26784" fill="#36D6BA"/>
<circle cx="56.13" cy="89.3523" r="6.26784" transform="rotate(-80.7825 56.13 89.3523)" fill="#E6E6E6"/>
<circle cx="38.5022" cy="64.2808" r="3.13392" fill="#269984"/>
<path d="M36.7768 190.83H107.611V258.209H36.7768V190.83Z" fill="#FBB03B"/>
<path d="M44.8252 198.879H99.5604V240.735H44.8252V198.879Z" fill="white"/>
<path d="M56.87 205.758H76.0588V224.947H56.87V205.758Z" fill="#36D6BA"/>
<path d="M64.2152 210.556V233.857H87.5162V210.556H64.2152ZM86.5054 232.847H65.226V211.567H86.5054V232.847Z" fill="#269984"/>
<path d="M44.7714 244.89H74.5436V246.457H44.7714V244.89Z" fill="#F2F2F2"/>
<circle cx="72.1936" cy="194.747" r="3.13392" fill="#269984"/>
<path d="M221.198 170.658H292.031V238.037H221.198V170.658Z" fill="#FBB03B"/>
<path d="M229.247 178.707H283.982V220.564H229.247V178.707Z" fill="white"/>
<path d="M250.727 211.475H262.502V214.964H250.727V211.475Z" fill="#269984"/>
<path d="M236.491 184.307H276.737V185.803H236.491V184.307Z" fill="#269984"/>
<path d="M236.491 189.042H276.737V190.538H236.491V189.042Z" fill="#269984"/>
<path d="M236.491 193.778H276.737V195.274H236.491V193.778Z" fill="#269984"/>
<path d="M236.491 198.514H276.737V200.01H236.491V198.514Z" fill="#269984"/>
<path d="M236.491 203.249H276.737V204.745H236.491V203.249Z" fill="#269984"/>
<path d="M229.193 224.718H258.965V226.285H229.193V224.718Z" fill="#F2F2F2"/>
<path d="M229.193 228.636H270.718V230.203H229.193V228.636Z" fill="#F2F2F2"/>
<circle cx="256.615" cy="174.575" r="3.13392" fill="#269984"/>
<path d="M-16.6229 284.209H236.492V285.156H-16.6229V284.209Z" fill="black"/>
<path d="M165.475 306.465H418.59V307.412H165.475V306.465Z" fill="black"/>
</g>
</svg>
