<svg width="206" height="203" viewBox="0 0 206 203" fill="none" xmlns="http://www.w3.org/2000/svg">
<g opacity="0.5">
<path d="M0 8.90874H134.178V189.213H0V8.90874Z" fill="url(#paint0_linear_1_7425)"/>
</g>
<path d="M1.74746 11.3561H131.734V185.371H1.74746V11.3561Z" fill="#F2F2F2"/>
<path d="M11.8816 18.6927H56.6076V20.09H11.8816V18.6927Z" fill="#E0E0E0"/>
<path d="M11.8816 24.9822H56.6076V26.3795H11.8816V24.9822Z" fill="#36D6BA"/>
<path d="M63.2476 18.6927H107.974V20.09H63.2476V18.6927Z" fill="#E0E0E0"/>
<path d="M70.2336 58.5295H114.96V59.9269H70.2336V58.5295Z" fill="#E0E0E0"/>
<path d="M71.2836 62.3712H116.01V63.7685H71.2836V62.3712Z" fill="#E0E0E0"/>
<path d="M73.3818 66.2163H118.108V67.6136H73.3818V66.2163Z" fill="#E0E0E0"/>
<path d="M70.2336 120.376H114.96V121.774H70.2336V120.376Z" fill="#E0E0E0"/>
<path d="M71.2836 124.221H116.01V125.619H71.2836V124.221Z" fill="#E0E0E0"/>
<path d="M73.3818 128.063H118.108V129.46H73.3818V128.063Z" fill="#E0E0E0"/>
<g opacity="0.5">
<path d="M12.2323 44.2004H59.7529V92.4212H12.2323V44.2004Z" fill="url(#paint1_linear_1_7425)"/>
</g>
<path d="M12.531 45.2504H59.3036V91.3737H12.531V45.2504Z" fill="#F5F5F5"/>
<g opacity="0.5">
<path d="M14.1795 48.0452H57.8045V78.095H14.1795V48.0452Z" fill="url(#paint2_linear_1_7425)"/>
</g>
<path d="M14.4793 48.3954H57.5028V77.3979H14.4793V48.3954Z" fill="white"/>
<mask id="mask0_1_7425" style="mask-type:alpha" maskUnits="userSpaceOnUse" x="14" y="48" width="44" height="30">
<path d="M14.4793 48.3954H57.5028V77.3979H14.4793V48.3954Z" fill="black"/>
</mask>
<g mask="url(#mask0_1_7425)">
<path d="M10.8321 76.3507L21.6665 59.5769L26.2085 66.9136L35.9927 56.7822L44.3795 66.9136L51.7162 51.8901L70.5845 81.94L9.43474 79.8424L10.8321 76.3507Z" fill="#36D6BA"/>
<circle cx="19.2186" cy="52.5875" r="3.1447" fill="#36D6BA"/>
</g>
<g opacity="0.5">
<path d="M12.2323 106.05H59.7529V154.271H12.2323V106.05Z" fill="url(#paint3_linear_1_7425)"/>
</g>
<path d="M12.531 107.097H59.3036V153.221H12.531V107.097Z" fill="#F5F5F5"/>
<g opacity="0.5">
<path d="M14.1795 109.895H57.8045V139.945H14.1795V109.895Z" fill="url(#paint4_linear_1_7425)"/>
</g>
<path d="M14.4793 110.242H57.5028V139.245H14.4793V110.242Z" fill="white"/>
<mask id="mask1_1_7425" style="mask-type:alpha" maskUnits="userSpaceOnUse" x="14" y="110" width="44" height="30">
<path d="M14.4793 110.242H57.5028V139.245H14.4793V110.242Z" fill="black"/>
</mask>
<g mask="url(#mask1_1_7425)">
<path opacity="0.4" d="M10.8321 138.198L21.6665 121.424L26.2085 128.764L35.9927 118.629L44.3795 128.764L51.7162 113.737L70.5845 143.787L9.43474 141.692L10.8321 138.198Z" fill="#BDBDBD"/>
<circle opacity="0.4" cx="19.2186" cy="114.437" r="3.1447" fill="#BDBDBD"/>
</g>
<g opacity="0.5">
<path d="M19.6991 176.846L54.8439 8.16432e-05L186.448 26.1539L151.304 203L19.6991 176.846Z" fill="url(#paint5_linear_1_7425)"/>
</g>
<path d="M22.1607 173.418L56.0795 2.74027L183.572 28.077L149.654 198.754L22.1607 173.418Z" fill="white"/>
<path d="M63.5102 13.8299L63.7825 12.4593L154.263 30.4406L153.99 31.8111L63.5102 13.8299Z" fill="#E0E0E0"/>
<path d="M37.7654 143.382L38.0378 142.012L128.518 159.993L128.246 161.363L37.7654 143.382Z" fill="#E0E0E0"/>
<path d="M36.1952 151.262L36.4676 149.891L106.384 163.786L106.112 165.157L36.1952 151.262Z" fill="#E0E0E0"/>
<path d="M34.63 159.147L34.9023 157.777L60.9479 162.953L60.6756 164.323L34.63 159.147Z" fill="#36D6BA"/>
<path d="M61.941 21.7138L62.2133 20.3433L107.452 29.3336L107.18 30.7041L61.941 21.7138Z" fill="#36D6BA"/>
<path d="M60.3776 29.5957L60.65 28.2252L142.218 44.4352L141.945 45.8057L60.3776 29.5957Z" fill="#E0E0E0"/>
<path opacity="0.7" d="M58.8104 37.4799L59.0828 36.1094L78.9596 40.0595L78.6872 41.43L58.8104 37.4799Z" fill="#3AD29F"/>
<path d="M57.2451 45.3628L57.5175 43.9923L147.998 61.9735L147.725 63.344L57.2451 45.3628Z" fill="#E0E0E0"/>
<g opacity="0.5">
<path d="M56.2264 123.897L65.4891 77.2882L146.713 93.4299L137.451 140.039L56.2264 123.897Z" fill="url(#paint6_linear_1_7425)"/>
</g>
<path d="M56.8906 123.315L65.9491 77.733L146.146 93.6706L137.088 139.253L56.8906 123.315Z" fill="white"/>
<path d="M55.6789 53.248L55.9513 51.8774L146.431 69.8587L146.159 71.2292L55.6789 53.248Z" fill="#E0E0E0"/>
<path d="M66.5153 118.816L73.122 85.5711L83.0619 87.5465L76.4552 120.791L66.5153 118.816Z" fill="#36D6BA"/>
<path d="M84.3367 122.358L88.7639 100.081L98.7038 102.056L94.2766 124.333L84.3367 122.358Z" fill="#3AD29F"/>
<path d="M102.161 125.899L104.545 113.905L114.485 115.88L112.101 127.874L102.161 125.899Z" fill="#F15A24"/>
<path d="M119.982 129.443L124.819 105.108L134.758 107.083L129.922 131.418L119.982 129.443Z" fill="#FBB03B"/>
<path d="M163.758 74.6751C145.904 56.105 116.376 55.5251 97.8064 73.3792C97.5349 73.6404 97.2665 73.9046 97.0015 74.1724C79.3481 91.9695 79.0488 120.948 96.3163 139.122C111.979 155.608 137.248 158.397 156.129 145.722L189.846 180.793C190.716 181.697 192.153 181.725 193.057 180.856L201.459 172.777C202.362 171.908 202.391 170.471 201.522 169.567L167.813 134.499C181.154 116.215 179.445 90.9917 163.758 74.6751ZM153.256 131.061C139.973 143.831 118.854 143.415 106.084 130.132C93.3145 116.849 93.7306 95.7295 107.013 82.9601C120.296 70.1914 141.414 70.6066 154.183 83.8879C166.954 97.1696 166.54 118.289 153.258 131.06L153.256 131.061Z" fill="url(#paint7_linear_1_7425)"/>
<path d="M105.424 97.7292C101.672 97.7292 101.666 103.561 105.424 103.561C109.182 103.561 109.182 97.7292 105.424 97.7292Z" fill="url(#paint8_linear_1_7425)"/>
<path d="M131.578 79.0495C121.479 78.8223 112.291 83.8879 107.405 91.5357C105.81 94.031 110.337 96.2362 111.923 93.7528C115.968 87.4215 123.655 83.3998 131.97 83.6094C140.683 83.8281 148.612 88.8129 152.81 95.7305C154.402 98.3546 158.576 95.9697 156.999 93.3608C151.894 84.9827 142.008 79.2978 131.578 79.0495Z" fill="url(#paint9_linear_1_7425)"/>
<path d="M167.418 72.9035C149.564 54.3337 120.036 53.7535 101.466 71.6078C101.195 71.869 100.926 72.1332 100.661 72.4009C83.0076 90.1982 82.7083 119.177 99.9756 137.351C115.639 153.836 140.908 156.623 159.788 143.948L193.503 179.022C194.372 179.925 195.81 179.954 196.713 179.084L205.115 171.006C206.019 170.136 206.047 168.699 205.178 167.795L171.46 132.725C184.803 114.444 183.099 89.2229 167.418 72.9035ZM156.916 129.266C143.633 142.035 122.513 141.62 109.744 128.337C96.9742 115.054 97.3901 93.9344 110.673 81.1648C123.955 68.396 145.073 68.8111 157.843 82.0924C170.614 95.3742 170.199 116.494 156.917 129.264L156.916 129.266Z" fill="#36D6BA"/>
<path d="M109.084 95.9548C105.331 95.9548 105.325 101.786 109.084 101.786C112.841 101.786 112.841 95.9548 109.084 95.9548Z" fill="#36D6BA"/>
<path d="M135.237 77.2781C125.139 77.0507 115.95 82.1164 111.064 89.7642C109.469 92.2595 113.996 94.4646 115.582 91.9813C119.628 85.6499 127.314 81.6286 135.629 81.8381C144.342 82.0565 152.271 87.0413 156.469 93.959C158.061 96.5832 162.235 94.1985 160.658 91.5891C155.545 83.1875 145.671 77.5024 135.237 77.2781Z" fill="#36D6BA"/>
<defs>
<linearGradient id="paint0_linear_1_7425" x1="67.089" y1="457.416" x2="67.089" y2="637.72" gradientUnits="userSpaceOnUse">
<stop stop-color="#808080" stop-opacity="0.25098"/>
<stop offset="0.54" stop-color="#808080" stop-opacity="0.121569"/>
<stop offset="1" stop-color="#808080" stop-opacity="0.101961"/>
</linearGradient>
<linearGradient id="paint1_linear_1_7425" x1="35.9926" y1="554.207" x2="35.9926" y2="602.428" gradientUnits="userSpaceOnUse">
<stop stop-color="#808080" stop-opacity="0.25098"/>
<stop offset="0.54" stop-color="#808080" stop-opacity="0.121569"/>
<stop offset="1" stop-color="#808080" stop-opacity="0.101961"/>
</linearGradient>
<linearGradient id="paint2_linear_1_7425" x1="35.992" y1="568.533" x2="35.992" y2="598.583" gradientUnits="userSpaceOnUse">
<stop stop-color="#808080" stop-opacity="0.25098"/>
<stop offset="0.54" stop-color="#808080" stop-opacity="0.121569"/>
<stop offset="1" stop-color="#808080" stop-opacity="0.101961"/>
</linearGradient>
<linearGradient id="paint3_linear_1_7425" x1="35.9926" y1="492.357" x2="35.9926" y2="540.578" gradientUnits="userSpaceOnUse">
<stop stop-color="#808080" stop-opacity="0.25098"/>
<stop offset="0.54" stop-color="#808080" stop-opacity="0.121569"/>
<stop offset="1" stop-color="#808080" stop-opacity="0.101961"/>
</linearGradient>
<linearGradient id="paint4_linear_1_7425" x1="35.992" y1="506.683" x2="35.992" y2="536.733" gradientUnits="userSpaceOnUse">
<stop stop-color="#808080" stop-opacity="0.25098"/>
<stop offset="0.54" stop-color="#808080" stop-opacity="0.121569"/>
<stop offset="1" stop-color="#808080" stop-opacity="0.101961"/>
</linearGradient>
<linearGradient id="paint5_linear_1_7425" x1="451.168" y1="193.089" x2="628.014" y2="228.233" gradientUnits="userSpaceOnUse">
<stop stop-color="#808080" stop-opacity="0.25098"/>
<stop offset="0.54" stop-color="#808080" stop-opacity="0.121569"/>
<stop offset="1" stop-color="#808080" stop-opacity="0.101961"/>
</linearGradient>
<linearGradient id="paint6_linear_1_7425" x1="500.736" y1="208.966" x2="547.345" y2="218.229" gradientUnits="userSpaceOnUse">
<stop stop-color="#808080" stop-opacity="0.25098"/>
<stop offset="0.54" stop-color="#808080" stop-opacity="0.121569"/>
<stop offset="1" stop-color="#808080" stop-opacity="0.101961"/>
</linearGradient>
<linearGradient id="paint7_linear_1_7425" x1="164.498" y1="457.82" x2="164.498" y2="578.95" gradientUnits="userSpaceOnUse">
<stop stop-color="#B3B3B3" stop-opacity="0.25098"/>
<stop offset="0.54" stop-color="#B3B3B3" stop-opacity="0.101961"/>
<stop offset="1" stop-color="#B3B3B3" stop-opacity="0.0509804"/>
</linearGradient>
<linearGradient id="paint8_linear_1_7425" x1="127.065" y1="535.743" x2="127.065" y2="541.574" gradientUnits="userSpaceOnUse">
<stop stop-opacity="0.121569"/>
<stop offset="0.55" stop-opacity="0.0901961"/>
<stop offset="1" stop-opacity="0.0196078"/>
</linearGradient>
<linearGradient id="paint9_linear_1_7425" x1="153.848" y1="542.439" x2="153.848" y2="560.267" gradientUnits="userSpaceOnUse">
<stop stop-opacity="0.121569"/>
<stop offset="0.55" stop-opacity="0.0901961"/>
<stop offset="1" stop-opacity="0.0196078"/>
</linearGradient>
</defs>
</svg>
