<svg width="76" height="52" viewBox="0 0 76 52" fill="none" xmlns="http://www.w3.org/2000/svg">
<path d="M72.4217 5.01091C70.3701 1.36146 68.1435 0.690185 63.6101 0.434902C59.0814 0.127638 47.6934 0 37.8276 0C27.9429 0 16.5502 0.127638 12.0262 0.430191C7.50217 0.690185 5.2709 1.35674 3.20036 5.01091C1.08727 8.65563 0 14.9334 0 25.9858V26V26.0141V26.0236C0 37.0287 1.08727 43.3537 3.20036 46.9607C5.2709 50.6101 7.49744 51.2719 12.0214 51.5792C16.5502 51.8439 27.9429 51.9999 37.8276 51.9999C47.6934 51.9999 59.0814 51.8439 63.6148 51.5839C68.1483 51.2766 70.3748 50.6148 72.4264 46.9654C74.5584 43.3585 75.6362 37.0334 75.6362 26.0283V26.0047V25.9905C75.6362 14.9334 74.5584 8.65563 72.4217 5.01091ZM28.3636 40.1818V11.8182L51.9999 26L28.3636 40.1818Z" fill="white"/>
</svg>
