<svg width="197" height="202" viewBox="0 0 197 202" fill="none" xmlns="http://www.w3.org/2000/svg">
<path d="M0.0195539 36.7668L84.3707 13.043L115.561 123.943L31.2102 147.667L0.0195539 36.7668Z" fill="url(#paint0_linear_1_7562)"/>
<path d="M0 37.2605L84.9186 13.9179L96.5892 56.3745L11.6706 79.7172L0 37.2605Z" fill="url(#paint1_linear_1_7562)"/>
<path d="M1.44895 37.9038L84.0049 15.2106L113.911 124.008L31.3554 146.701L1.44895 37.9038Z" fill="#EEEEEE"/>
<path d="M1.32478 37.8271L84.0709 15.0816L95.4694 56.5484L12.7233 79.2939L1.32478 37.8271Z" fill="#36D6BA"/>
<path d="M33.3424 86.2094L55.7885 80.0393L56.2589 81.7507L33.8128 87.9208L33.3424 86.2094Z" fill="#BDBDBD"/>
<path d="M35.2254 93.0591L57.6715 86.8891L58.142 88.6005L35.6959 94.7705L35.2254 93.0591Z" fill="#F5F5F5"/>
<path d="M34.2849 89.6347L92.8735 73.5297L93.3439 75.2411L34.7553 91.3461L34.2849 89.6347Z" fill="#FBB03B"/>
<path d="M38.0177 44.4148L60.4638 38.2448L60.9343 39.9562L38.4882 46.1262L38.0177 44.4148Z" fill="white"/>
<path d="M39.0629 48.2183L75.2054 38.2833L75.6758 39.9947L39.5333 49.9297L39.0629 48.2183Z" fill="white"/>
<path opacity="0.2" d="M47.533 52.2346C47.3886 51.7095 47.6973 51.1668 48.2224 51.0225L68.767 45.3752C69.2921 45.2308 69.8347 45.5395 69.9791 46.0646C70.1234 46.5897 69.8148 47.1324 69.2897 47.2767L48.7451 52.9241C48.22 53.0684 47.6773 52.7597 47.533 52.2346Z" fill="black"/>
<circle cx="24.2885" cy="90.8479" r="4.14407" fill="#FBB03B"/>
<path d="M37.8955 102.759L60.3416 96.5893L60.8121 98.3007L38.366 104.471L37.8955 102.759Z" fill="#BDBDBD"/>
<path d="M39.7756 109.609L62.2217 103.439L62.6922 105.151L40.2461 111.321L39.7756 109.609Z" fill="#F5F5F5"/>
<path d="M38.8351 106.185L97.4237 90.0797L97.8941 91.7911L39.3055 107.896L38.8351 106.185Z" fill="#E0E0E0"/>
<circle cx="28.8358" cy="107.399" r="4.14407" fill="#E0E0E0"/>
<path d="M42.4428 119.308L64.8889 113.138L65.3593 114.849L42.9132 121.019L42.4428 119.308Z" fill="#BDBDBD"/>
<path d="M44.3258 126.155L66.7719 119.985L67.2424 121.696L44.7963 127.866L44.3258 126.155Z" fill="#F5F5F5"/>
<path d="M43.3833 122.733L101.972 106.628L102.442 108.339L43.8538 124.444L43.3833 122.733Z" fill="#E0E0E0"/>
<circle cx="33.3868" cy="123.949" r="4.14407" transform="rotate(-15.37 33.3868 123.949)" fill="#E0E0E0"/>
<path d="M10.5999 56.7906C12.3485 62.8517 18.6794 66.3475 24.7402 64.5987C30.8013 62.85 34.297 56.5194 32.5486 50.4584C31.2141 45.8328 27.1227 42.5408 22.3189 42.227L23.1294 45.0554C23.7137 47.1077 22.5307 49.2465 20.4819 49.8425C18.4298 50.4267 16.2911 49.2438 15.6948 47.195L14.8844 44.3664C10.9794 47.1901 9.26562 52.16 10.5999 56.7906Z" fill="url(#paint2_linear_1_7562)"/>
<path d="M32.3142 49.5722C30.6395 43.4903 24.3519 39.9176 18.27 41.5924C12.1884 43.2669 8.61577 49.5547 10.2904 55.6365C11.569 60.2812 15.6245 63.624 20.4277 63.9928L19.647 61.1561C19.0875 59.0982 20.2942 56.9742 22.3484 56.4016C24.4064 55.8421 26.5304 57.0485 27.103 59.1031L27.8838 61.9396C31.8196 59.1628 33.5915 54.2164 32.3142 49.5722Z" fill="#36D6BA"/>
<circle cx="20.8837" cy="51.0942" r="4.38991" fill="white" stroke="white"/>
<path d="M22.3434 56.4016C20.2891 56.9744 19.0824 59.0982 19.6419 61.1562L20.4226 63.9928C23.0714 64.194 25.7077 63.4692 27.8814 61.9423L27.1007 59.1058C26.529 57.0489 24.4032 55.8405 22.3434 56.4016Z" fill="white"/>
<path d="M22.3434 56.4016V56.4016ZM22.3434 56.4016C20.2891 56.9744 19.0824 59.0982 19.6419 61.1562L20.4226 63.9928C23.0714 64.194 25.7077 63.4692 27.8814 61.9423L27.1007 59.1058C26.529 57.0489 24.4032 55.8405 22.3434 56.4016Z" stroke="white"/>
<path d="M16.5543 52.0252C16.0348 51.4624 15.6763 50.77 15.5169 50.0207C15.3616 49.2649 15.508 48.4786 15.9248 47.8297C16.3976 47.1355 17.181 46.7195 17.9726 46.433C18.7641 46.1467 19.5935 45.9603 20.3444 45.5847C21.5988 44.9507 22.5465 43.8404 22.9757 42.5024C23.2256 43.0999 23.392 43.7288 23.4701 44.3718C23.546 45.022 23.3504 45.6747 22.9298 46.1764C23.4917 45.701 23.6133 46.4196 23.5889 46.8762C24.0131 47.1733 24.8046 47.0246 24.9829 47.5109C25.1842 47.9893 25.2677 48.5092 25.226 49.0264C25.1585 49.5396 25.588 50.2908 25.1018 50.4636" fill="white"/>
<path d="M16.5543 52.0252C16.0348 51.4624 15.6763 50.77 15.5169 50.0207C15.3616 49.2649 15.508 48.4786 15.9248 47.8297C16.3976 47.1355 17.181 46.7195 17.9726 46.433C18.7641 46.1467 19.5935 45.9603 20.3444 45.5847C21.5988 44.9507 22.5465 43.8404 22.9757 42.5024C23.2256 43.0999 23.392 43.7288 23.4701 44.3718C23.546 45.022 23.3504 45.6747 22.9298 46.1764C23.4917 45.701 23.6133 46.4196 23.5889 46.8762C24.0131 47.1733 24.8046 47.0246 24.9829 47.5109C25.1842 47.9893 25.2677 48.5092 25.226 49.0264C25.1585 49.5396 25.588 50.2908 25.1018 50.4636" stroke="white"/>
<path d="M23.1294 46.009C23.1294 46.009 26.155 45.4552 25.2554 50.4177L23.1294 46.009Z" fill="white"/>
<path d="M172.295 192.954H143.813V77.2031H197L172.295 192.954Z" fill="url(#paint3_linear_1_7562)"/>
<path d="M170.877 192.954H142.957V77.2031H195.093L170.877 192.954Z" fill="#BDBDBD"/>
<path d="M90.1583 50.4748L177.535 41.2141L189.71 156.092L102.334 165.352L90.1583 50.4748Z" fill="url(#paint4_linear_1_7562)"/>
<path d="M90.0468 50.378L177.625 41.0959L182.265 84.8822L94.6876 94.1643L90.0468 50.378Z" fill="url(#paint5_linear_1_7562)"/>
<path d="M91.3706 51.245L176.512 42.2212L188.404 154.426L103.263 163.449L91.3706 51.245Z" fill="#F5F5F5"/>
<path d="M91.2611 51.1497L176.598 42.105L181.131 84.8704L95.7937 93.9151L91.2611 51.1497Z" fill="#36D6BA"/>
<path d="M115.023 104.079L138.172 101.626L138.359 103.391L115.21 105.844L115.023 104.079Z" fill="#BDBDBD"/>
<path d="M115.772 111.142L138.921 108.688L139.108 110.453L115.959 112.907L115.772 111.142Z" fill="#F5F5F5"/>
<path d="M115.397 107.611L175.82 101.207L176.007 102.972L115.584 109.376L115.397 107.611Z" fill="#FBB03B"/>
<path d="M126.404 63.5933L149.553 61.1398L149.741 62.9048L126.592 65.3583L126.404 63.5933Z" fill="white"/>
<path d="M126.819 67.518L164.093 63.5674L164.28 65.3324L127.006 69.283L126.819 67.518Z" fill="white"/>
<path opacity="0.2" d="M134.524 72.8476C134.467 72.3061 134.86 71.8205 135.401 71.7631L156.589 69.5175C157.131 69.4601 157.616 69.8526 157.674 70.3941C157.731 70.9357 157.338 71.4212 156.797 71.4786L135.609 73.7242C135.067 73.7816 134.582 73.3891 134.524 72.8476Z" fill="black"/>
<circle cx="105.335" cy="107.189" r="4.14408" transform="rotate(-6.05 105.335 107.189)" fill="#FBB03B"/>
<path d="M116.834 121.145L139.983 118.691L140.17 120.456L117.021 122.91L116.834 121.145Z" fill="#BDBDBD"/>
<path d="M117.582 128.207L140.731 125.754L140.918 127.519L117.769 129.972L117.582 128.207Z" fill="#F5F5F5"/>
<path d="M117.207 124.677L177.631 118.273L177.818 120.038L117.394 126.442L117.207 124.677Z" fill="#E0E0E0"/>
<circle cx="107.144" cy="124.255" r="4.14408" fill="#E0E0E0"/>
<path d="M118.642 138.211L141.791 135.758L141.978 137.523L118.829 139.976L118.642 138.211Z" fill="#BDBDBD"/>
<path d="M119.389 145.273L142.538 142.82L142.726 144.585L119.577 147.038L119.389 145.273Z" fill="#F5F5F5"/>
<path d="M119.015 141.743L179.438 135.338L179.625 137.103L119.202 143.508L119.015 141.743Z" fill="#E0E0E0"/>
<circle cx="108.952" cy="141.321" r="4.14408" fill="#E0E0E0"/>
<path d="M97.3364 71.3706C98.0723 77.6355 103.748 82.1178 110.013 81.382C116.278 80.646 120.76 74.9705 120.024 68.7056C119.462 63.9187 115.955 59.9998 111.26 58.9114L111.606 61.8343C111.842 63.9462 110.335 65.8554 108.226 66.1161C106.107 66.3604 104.187 64.8469 103.931 62.7285L103.585 59.8055C99.2715 61.9566 96.7718 66.5836 97.3364 71.3706Z" fill="url(#paint6_linear_1_7562)"/>
<path d="M119.932 67.7696C119.265 61.4967 113.639 56.9525 107.367 57.6195C101.094 58.2868 96.5495 63.9126 97.2168 70.1853C97.7257 74.9733 101.183 78.9281 105.86 80.0721L105.55 77.1465C105.33 75.0236 106.867 73.1225 108.988 72.8915C111.111 72.6725 113.012 74.2091 113.243 76.3306L113.554 79.2563C117.889 77.1545 120.44 72.5601 119.932 67.7696Z" fill="#36D6BA"/>
<circle cx="108.416" cy="67.4091" r="4.38991" fill="white" stroke="white"/>
<path d="M108.988 72.8914C106.867 73.1224 105.33 75.0235 105.549 77.1463L105.86 80.072C108.441 80.7015 111.161 80.415 113.554 79.2616L113.243 76.3358C113.015 74.2123 111.113 72.6724 108.988 72.8914Z" fill="white"/>
<path d="M108.988 72.8914V72.8914ZM108.988 72.8914C106.867 73.1224 105.33 75.0235 105.549 77.1463L105.86 80.072C108.441 80.7015 111.161 80.415 113.554 79.2616L113.243 76.3358C113.015 74.2123 111.113 72.6724 108.988 72.8914Z" stroke="white"/>
<path d="M103.985 67.6341C103.563 66.9942 103.321 66.2524 103.285 65.4865C103.255 64.7165 103.526 63.9653 104.042 63.3929C104.62 62.7823 105.463 62.4985 106.289 62.3447C107.116 62.1905 107.956 62.1529 108.767 61.8827C110.107 61.4605 111.222 60.5184 111.862 59.2677C112.013 59.8974 112.075 60.5444 112.049 61.1911C112.018 61.8454 111.719 62.4582 111.222 62.885C111.852 62.5067 111.857 63.2335 111.763 63.6818C112.133 64.0439 112.938 64.025 113.035 64.5356C113.158 65.0396 113.158 65.5658 113.035 66.07C112.884 66.5643 113.189 67.3775 112.678 67.4667" fill="white"/>
<path d="M103.985 67.6341C103.563 66.9942 103.321 66.2524 103.285 65.4865C103.255 64.7165 103.526 63.9653 104.042 63.3929C104.62 62.7823 105.463 62.4985 106.289 62.3447C107.116 62.1905 107.956 62.1529 108.767 61.8827C110.107 61.4605 111.222 60.5184 111.862 59.2677C112.013 59.8974 112.075 60.5444 112.049 61.1911C112.018 61.8454 111.719 62.4582 111.222 62.885C111.852 62.5067 111.857 63.2335 111.763 63.6818C112.133 64.0439 112.938 64.025 113.035 64.5356C113.158 65.0396 113.158 65.5658 113.035 66.07C112.884 66.5643 113.189 67.3775 112.678 67.4667" stroke="white"/>
<path d="M111.45 62.7635C111.45 62.7635 114.524 62.7068 112.835 67.4587L111.45 62.7635Z" fill="white"/>
<path d="M59.5163 0.108035H147.382V115.629H59.5163V0.108035Z" fill="url(#paint7_linear_1_7562)"/>
<path d="M59.4136 0H147.482V44.0315H59.4136V0Z" fill="url(#paint8_linear_1_7562)"/>
<path d="M60.6397 1.00214H146.258V113.835H60.6397V1.00214Z" fill="#F5F5F5"/>
<path d="M60.5429 0.896792H146.358V43.9017H60.5429V0.896792Z" fill="#36D6BA"/>
<path d="M78.5912 56.0342H101.87V57.8091H78.5912V56.0342Z" fill="#BDBDBD"/>
<path d="M78.5912 63.1365H101.87V64.9113H78.5912V63.1365Z" fill="#F5F5F5"/>
<path d="M78.5912 59.5867H139.353V61.3616H78.5912V59.5867Z" fill="#FBB03B"/>
<path d="M94.1756 16.9762H117.454V18.7511H94.1756V16.9762Z" fill="white"/>
<path d="M94.1756 20.9203H131.659V22.6951H94.1756V20.9203Z" fill="white"/>
<path opacity="0.2" d="M101.279 27.0365C101.279 26.4919 101.72 26.0505 102.265 26.0505H123.571C124.116 26.0505 124.557 26.4919 124.557 27.0365C124.557 27.5811 124.116 28.0226 123.571 28.0226H102.265C101.72 28.0226 101.279 27.5811 101.279 27.0365Z" fill="black"/>
<circle cx="68.6312" cy="58.1063" r="4.14407" transform="rotate(-80.7825 68.6312 58.1063)" fill="#FBB03B"/>
<path d="M78.5912 73.1967H101.87V74.9716H78.5912V73.1967Z" fill="#BDBDBD"/>
<path d="M78.5912 80.299H101.87V82.0738H78.5912V80.299Z" fill="#F5F5F5"/>
<path d="M78.5912 76.7492H139.353V78.5241H78.5912V76.7492Z" fill="#E0E0E0"/>
<circle cx="68.6312" cy="75.2688" r="4.14407" transform="rotate(-80.7825 68.6312 75.2688)" fill="#E0E0E0"/>
<path d="M78.5912 90.3619H101.87V92.1368H78.5912V90.3619Z" fill="#BDBDBD"/>
<path d="M78.5912 97.4614H101.87V99.2363H78.5912V97.4614Z" fill="#F5F5F5"/>
<path d="M78.5912 93.9117H139.353V95.6865H78.5912V93.9117Z" fill="#E0E0E0"/>
<circle cx="68.6312" cy="92.4313" r="4.14407" transform="rotate(-80.7825 68.6312 92.4313)" fill="#E0E0E0"/>
<path d="M64.4622 21.6472C64.5414 27.9548 69.7191 33.0039 76.0267 32.9247C82.3342 32.8455 87.3835 27.6681 87.3043 21.3605C87.2438 16.5465 84.1717 12.2877 79.6229 10.7114L79.6581 13.6533C79.6837 15.7947 77.9691 17.5519 75.8274 17.5785C73.6943 17.5981 71.9456 15.8917 71.913 13.7586L71.8778 10.8167C67.3725 12.5057 64.4077 16.8357 64.4622 21.6472Z" fill="url(#paint9_linear_1_7562)"/>
<path d="M87.3033 20.4449C87.3006 14.1368 82.1845 9.02536 75.8763 9.02805C69.5683 9.03074 64.4568 14.147 64.4595 20.4551C64.4617 25.2698 67.4828 29.5663 72.0129 31.1968V28.2523C72.0188 26.1179 73.7475 24.3896 75.8814 24.3835C78.0155 24.3896 79.744 26.1179 79.7499 28.2523V31.1941C84.2817 29.5609 87.3027 25.262 87.3033 20.4449Z" fill="#36D6BA"/>
<circle cx="75.8869" cy="18.8752" r="4.38991" fill="white" stroke="white"/>
<path d="M75.8788 24.3835C73.7449 24.3894 72.0163 26.1179 72.0103 28.252V31.1939C74.5116 32.0907 77.2463 32.0907 79.7474 31.1939V28.252C79.7414 26.1179 78.013 24.3894 75.8788 24.3835Z" fill="white"/>
<path d="M75.8788 24.3835V24.3835ZM75.8788 24.3835C73.7449 24.3894 72.0163 26.1179 72.0103 28.252V31.1939C74.5116 32.0907 77.2463 32.0907 79.7474 31.1939V28.252C79.7414 26.1179 78.013 24.3894 75.8788 24.3835Z" stroke="white"/>
<path d="M71.4597 18.6293C71.1079 17.9483 70.9466 17.185 70.9923 16.4194C71.0422 15.65 71.3913 14.9304 71.9648 14.4152C72.605 13.8747 73.4722 13.6775 74.3097 13.6046C75.1472 13.5318 75.9954 13.5775 76.8221 13.4155C78.199 13.1361 79.4063 12.317 80.1746 11.1409C80.257 11.7825 80.2505 12.4324 80.1557 13.0723C80.0563 13.7195 79.6948 14.2969 79.1561 14.6689C79.8234 14.3609 79.7505 15.0824 79.6073 15.5173C79.9369 15.9169 80.7419 15.9819 80.7824 16.5006C80.8497 17.0156 80.7921 17.5389 80.6149 18.0268C80.4123 18.5024 80.6284 19.3425 80.1125 19.3777" fill="white"/>
<path d="M71.4597 18.6293C71.1079 17.9483 70.9466 17.185 70.9923 16.4194C71.0422 15.65 71.3913 14.9304 71.9648 14.4152C72.605 13.8747 73.4722 13.6775 74.3097 13.6046C75.1472 13.5318 75.9954 13.5775 76.8221 13.4155C78.199 13.1361 79.4063 12.317 80.1746 11.1409C80.257 11.7825 80.2505 12.4324 80.1557 13.0723C80.0563 13.7195 79.6948 14.2969 79.1561 14.6689C79.8234 14.3609 79.7505 15.0824 79.6073 15.5173C79.9369 15.9169 80.7419 15.9819 80.7824 16.5006C80.8497 17.0156 80.7921 17.5389 80.6149 18.0268C80.4123 18.5024 80.6284 19.3425 80.1125 19.3777" stroke="white"/>
<path d="M79.3929 14.5745C79.3929 14.5745 82.4564 14.8446 80.2763 19.3887L79.3929 14.5745Z" fill="white"/>
<path d="M51.4901 82.3251L32.2637 68.8636H5.64326V82.3251V88.9194V201.569H172.017V82.3251H51.4901Z" fill="url(#paint10_linear_1_7562)"/>
<path d="M7.06679 83.6867V90.0892V199.437H170.877V83.6867H52.2086" fill="white"/>
<path d="M52.2086 83.6866L33.2766 70.6195H7.06679V83.6866" fill="#BDBDBD"/>
<path d="M43.8585 100.768H134.088V182.353H43.8585V100.768Z" fill="url(#paint11_linear_1_7562)"/>
<path d="M45.0845 101.362H133.266V180.87H45.0845V101.362Z" fill="white"/>
<path d="M72.4532 160.871H107.124V163.71H72.4532V160.871Z" fill="#BDBDBD"/>
<path d="M51.2958 166.552H127.056V169.391H51.2958V166.552Z" fill="#E0E0E0"/>
<path d="M51.2958 172.233H127.056V175.072H51.2958V172.233Z" fill="#E0E0E0"/>
<path d="M67.6014 131.762C67.7505 143.673 77.5275 153.208 89.4386 153.059C101.35 152.91 110.885 143.133 110.735 131.222C110.622 122.135 104.824 114.093 96.2372 111.115L96.3047 116.672C96.3425 120.7 93.1196 124.002 89.0917 124.063C85.0636 124.1 81.7612 120.878 81.7005 116.85L81.6329 111.293C73.1073 114.475 67.4944 122.663 67.6014 131.762Z" fill="url(#paint12_linear_1_7562)"/>
<path d="M110.744 129.496C110.742 117.584 101.084 107.929 89.1716 107.931C77.2594 107.933 67.6046 117.592 67.6067 129.504C67.6086 138.599 73.3153 146.715 81.8733 149.795V144.238C81.8898 140.216 85.1459 136.96 89.1673 136.944C93.189 136.96 96.4451 140.216 96.4613 144.238V149.795C105.027 146.718 110.741 138.597 110.744 129.496Z" fill="#BDBDBD"/>
<path d="M87.3093 133.132C87.3093 132.416 87.8898 131.835 88.606 131.835C89.3222 131.835 89.9027 132.416 89.9027 133.132V139.683C89.9027 140.399 89.3222 140.98 88.606 140.98C87.8898 140.98 87.3093 140.399 87.3093 139.683V133.132Z" fill="white" stroke="white"/>
<circle cx="88.6194" cy="124.773" r="8.29085" fill="white" stroke="white"/>
<path d="M88.6051 135.177C84.5837 135.193 81.3276 138.449 81.3111 142.471V148.028C86.033 149.72 91.1961 149.72 95.918 148.028V142.482C95.9078 138.448 92.6385 135.183 88.6051 135.177Z" fill="white"/>
<path d="M88.6051 135.177V135.177ZM88.6051 135.177C84.5837 135.193 81.3276 138.449 81.3111 142.471V148.028C86.033 149.72 91.1961 149.72 95.918 148.028V142.482C95.9078 138.448 92.6385 135.183 88.6051 135.177Z" stroke="white"/>
<path d="M80.2583 124.314C79.594 123.028 79.2887 121.587 79.3749 120.143C79.4703 118.691 80.1297 117.334 81.2119 116.361C82.4195 115.332 84.0566 114.967 85.6397 114.84C87.2227 114.713 88.8247 114.789 90.3807 114.483C92.9801 113.957 95.2599 112.411 96.7104 110.191C96.8103 111.406 96.9102 112.641 96.6752 113.84C96.4402 115.04 95.8243 116.215 94.7842 116.855C96.0431 116.272 95.9053 117.639 95.6324 118.457C96.2565 119.211 97.772 119.335 97.8503 120.31C97.9287 121.286 97.9152 122.293 97.5342 123.193C97.1534 124.093 97.5613 125.676 96.5888 125.746" fill="white"/>
<path d="M80.2583 124.314C79.594 123.028 79.2887 121.587 79.3749 120.143C79.4703 118.691 80.1297 117.334 81.2119 116.361C82.4195 115.332 84.0566 114.967 85.6397 114.84C87.2227 114.713 88.8247 114.789 90.3807 114.483C92.9801 113.957 95.2599 112.411 96.7104 110.191C96.8103 111.406 96.9102 112.641 96.6752 113.84C96.4402 115.04 95.8243 116.215 94.7842 116.855C96.0431 116.272 95.9053 117.639 95.6324 118.457C96.2565 119.211 97.772 119.335 97.8503 120.31C97.9287 121.286 97.9152 122.293 97.5342 123.193C97.1534 124.093 97.5613 125.676 96.5888 125.746" stroke="white"/>
<path d="M95.2433 116.656C95.2433 116.656 101.027 117.161 96.9101 125.746L95.2433 116.656Z" fill="white"/>
<defs>
<linearGradient id="paint0_linear_1_7562" x1="607.032" y1="1170.17" x2="638.308" y2="1281.37" gradientUnits="userSpaceOnUse">
<stop stop-color="#808080" stop-opacity="0.25098"/>
<stop offset="0.54" stop-color="#808080" stop-opacity="0.121569"/>
<stop offset="1" stop-color="#808080" stop-opacity="0.101961"/>
</linearGradient>
<linearGradient id="paint1_linear_1_7562" x1="624.151" y1="1237.01" x2="635.822" y2="1279.47" gradientUnits="userSpaceOnUse">
<stop stop-color="#B3B3B3" stop-opacity="0.25098"/>
<stop offset="0.54" stop-color="#B3B3B3" stop-opacity="0.101961"/>
<stop offset="1" stop-color="#B3B3B3" stop-opacity="0.0509804"/>
</linearGradient>
<linearGradient id="paint2_linear_1_7562" x1="708.195" y1="56.7713" x2="709.13" y2="34.4571" gradientUnits="userSpaceOnUse">
<stop stop-opacity="0.121569"/>
<stop offset="0.55" stop-opacity="0.0901961"/>
<stop offset="1" stop-opacity="0.0196078"/>
</linearGradient>
<linearGradient id="paint3_linear_1_7562" x1="170.407" y1="1185.77" x2="170.407" y2="1301.52" gradientUnits="userSpaceOnUse">
<stop stop-color="#808080" stop-opacity="0.25098"/>
<stop offset="0.54" stop-color="#808080" stop-opacity="0.121569"/>
<stop offset="1" stop-color="#808080" stop-opacity="0.101961"/>
</linearGradient>
<linearGradient id="paint4_linear_1_7562" x1="379.494" y1="1208.54" x2="391.67" y2="1323.42" gradientUnits="userSpaceOnUse">
<stop stop-color="#808080" stop-opacity="0.25098"/>
<stop offset="0.54" stop-color="#808080" stop-opacity="0.121569"/>
<stop offset="1" stop-color="#808080" stop-opacity="0.101961"/>
</linearGradient>
<linearGradient id="paint5_linear_1_7562" x1="390.776" y1="1279.14" x2="395.417" y2="1322.93" gradientUnits="userSpaceOnUse">
<stop stop-color="#B3B3B3" stop-opacity="0.25098"/>
<stop offset="0.54" stop-color="#B3B3B3" stop-opacity="0.101961"/>
<stop offset="1" stop-color="#B3B3B3" stop-opacity="0.0509804"/>
</linearGradient>
<linearGradient id="paint6_linear_1_7562" x1="737.865" y1="104.852" x2="738.801" y2="82.538" gradientUnits="userSpaceOnUse">
<stop stop-opacity="0.121569"/>
<stop offset="0.55" stop-opacity="0.0901961"/>
<stop offset="1" stop-opacity="0.0196078"/>
</linearGradient>
<linearGradient id="paint7_linear_1_7562" x1="103.449" y1="1263.09" x2="103.449" y2="1378.61" gradientUnits="userSpaceOnUse">
<stop stop-color="#808080" stop-opacity="0.25098"/>
<stop offset="0.54" stop-color="#808080" stop-opacity="0.121569"/>
<stop offset="1" stop-color="#808080" stop-opacity="0.101961"/>
</linearGradient>
<linearGradient id="paint8_linear_1_7562" x1="103.448" y1="1334.69" x2="103.448" y2="1378.72" gradientUnits="userSpaceOnUse">
<stop stop-color="#B3B3B3" stop-opacity="0.25098"/>
<stop offset="0.54" stop-color="#B3B3B3" stop-opacity="0.101961"/>
<stop offset="1" stop-color="#B3B3B3" stop-opacity="0.0509804"/>
</linearGradient>
<linearGradient id="paint9_linear_1_7562" x1="833.776" y1="89.7042" x2="834.708" y2="67.3953" gradientUnits="userSpaceOnUse">
<stop stop-opacity="0.121569"/>
<stop offset="0.55" stop-opacity="0.0901961"/>
<stop offset="1" stop-opacity="0.0196078"/>
</linearGradient>
<linearGradient id="paint10_linear_1_7562" x1="88.83" y1="1177.15" x2="88.83" y2="1309.86" gradientUnits="userSpaceOnUse">
<stop stop-color="#808080" stop-opacity="0.25098"/>
<stop offset="0.54" stop-color="#808080" stop-opacity="0.121569"/>
<stop offset="1" stop-color="#808080" stop-opacity="0.101961"/>
</linearGradient>
<linearGradient id="paint11_linear_1_7562" x1="88.9733" y1="1196.37" x2="88.9733" y2="1277.95" gradientUnits="userSpaceOnUse">
<stop stop-color="#808080" stop-opacity="0.25098"/>
<stop offset="0.54" stop-color="#808080" stop-opacity="0.121569"/>
<stop offset="1" stop-color="#808080" stop-opacity="0.101961"/>
</linearGradient>
<linearGradient id="paint12_linear_1_7562" x1="821.167" y1="209.976" x2="822.927" y2="167.884" gradientUnits="userSpaceOnUse">
<stop stop-opacity="0.121569"/>
<stop offset="0.55" stop-opacity="0.0901961"/>
<stop offset="1" stop-opacity="0.0196078"/>
</linearGradient>
</defs>
</svg>
