<svg width="294" height="57" viewBox="0 0 294 57" fill="none" xmlns="http://www.w3.org/2000/svg">
<path d="M8.70617 40.1688L6.6777 47.4802H0L8.70617 18.9952H17.1588L25.9915 47.4802H19.0605L16.8629 40.1688H8.70617ZM15.933 35.3509L14.158 29.3073C13.6508 27.6168 13.1439 25.5037 12.7213 23.8131H12.6366C12.214 25.5037 11.7914 27.659 11.3266 29.3073L9.63602 35.3509H15.933Z" fill="#36D6BA"/>
<path d="M29.33 17.4738H35.7537V47.4803H29.33V17.4738Z" fill="#36D6BA"/>
<path d="M60.519 44.4794C60.519 48.452 59.7159 51.7063 57.3914 53.7772C55.1093 55.7214 52.0241 56.3128 48.9811 56.3128C46.2764 56.3128 43.4028 55.7636 41.543 54.707L42.8108 49.8467C44.1211 50.6074 46.4033 51.4106 48.8123 51.4106C51.8549 51.4106 54.1797 49.7623 54.1797 45.9586V44.6063H54.095C52.8694 46.3389 50.883 47.311 48.5163 47.311C43.4028 47.311 39.768 43.1694 39.768 37.2103C39.768 30.5751 44.0788 26.3488 49.1502 26.3488C51.9819 26.3488 53.757 27.5745 54.8136 29.265H54.8979L55.1093 26.8137H60.688C60.6034 28.1238 60.519 29.8566 60.519 32.9418V44.4794ZM54.095 35.2239C54.095 34.8013 54.0527 34.3787 53.968 34.0407C53.5032 32.3501 52.2775 31.2091 50.5026 31.2091C48.1783 31.2091 46.2764 33.3222 46.2764 37.0836C46.2764 40.1687 47.7978 42.5777 50.5026 42.5777C52.1508 42.5777 53.4611 41.4789 53.8837 39.9573C54.0527 39.4925 54.095 38.8162 54.095 38.2669V35.2239Z" fill="#36D6BA"/>
<path d="M86.0871 36.9145C86.0871 44.4794 80.7197 47.945 75.1835 47.945C69.1399 47.945 64.4911 43.9724 64.4911 37.2948C64.4911 30.6173 68.8861 26.3488 75.5214 26.3488C81.8608 26.3488 86.0871 30.7018 86.0871 36.9145ZM71.1262 37.1258C71.1262 40.6757 72.6054 43.3384 75.3522 43.3384C77.8459 43.3384 79.4518 40.8448 79.4518 37.1258C79.4518 34.0407 78.2686 30.9131 75.3522 30.9131C72.2672 30.9131 71.1262 34.0829 71.1262 37.1258Z" fill="#36D6BA"/>
<path d="M155.002 26.3072L158.087 36.4503C158.425 37.6758 158.848 39.1972 159.101 40.2962H159.228C159.524 39.1972 159.862 37.6336 160.158 36.4503L162.694 26.3072H169.583L164.764 39.9157C161.806 48.1146 159.82 51.4112 157.495 53.4821C155.255 55.4261 152.889 56.1023 151.283 56.3135L149.93 50.8617C150.733 50.7349 151.748 50.3546 152.72 49.7629C153.692 49.2559 154.748 48.2415 155.382 47.1849C155.593 46.889 155.72 46.5509 155.72 46.2551C155.72 46.0439 155.678 45.7057 155.425 45.1985L147.859 26.3072H155.002Z" fill="#36D6BA"/>
<path d="M179.471 20.6861V26.3071H184.078V31.0404H179.471V38.5209C179.471 41.0144 180.063 42.1556 182.007 42.1556C182.894 42.1556 183.275 42.1134 183.908 41.9865L183.951 46.8467C183.106 47.1848 181.584 47.4383 179.767 47.4383C177.696 47.4383 175.963 46.6776 174.949 45.6211C173.766 44.3955 173.174 42.4091 173.174 39.493V31.0404H170.427V26.3071H173.174V22.4189L179.471 20.6861Z" fill="#36D6BA"/>
<path d="M187.797 16.967H194.221V28.7582H194.305C194.981 27.8707 195.827 27.1523 196.841 26.6451C197.813 26.138 198.996 25.8421 200.18 25.8421C204.279 25.8421 207.407 28.6737 207.407 34.8862V46.9733H200.983V35.6047C200.983 32.9 200.053 31.0403 197.644 31.0403C195.954 31.0403 194.897 32.1393 194.432 33.2803C194.263 33.7029 194.221 34.2523 194.221 34.7173V46.9733H187.797V16.967Z" fill="#36D6BA"/>
<path d="M212.562 32.8998C212.562 30.3216 212.477 28.1241 212.393 26.3068H217.802L218.098 29.0962H218.225C219.112 27.7859 220.93 25.842 224.48 25.842C227.142 25.842 229.256 27.1944 230.143 29.3498H230.227C230.988 28.251 231.918 27.4479 232.89 26.8563C234.031 26.18 235.299 25.842 236.82 25.842C240.793 25.842 243.794 28.6313 243.794 34.8016V46.9731H237.539V35.7314C237.539 32.7307 236.567 30.9979 234.496 30.9979C233.017 30.9979 231.96 32.0123 231.537 33.238C231.368 33.7028 231.284 34.379 231.284 34.8861V46.9731H225.029V35.3933C225.029 32.7729 224.099 30.9979 222.071 30.9979C220.422 30.9979 219.45 32.2658 219.07 33.3224C218.859 33.8295 218.816 34.4213 218.816 34.9283V46.9731H212.562V32.8998Z" fill="#36D6BA"/>
<path d="M255.542 20.559C255.542 22.3341 254.19 23.771 252.076 23.771C250.048 23.771 248.695 22.3341 248.738 20.559C248.695 18.6995 250.048 17.3049 252.118 17.3049C254.19 17.3049 255.499 18.6995 255.542 20.559ZM248.907 46.9731V26.3067H255.331V46.9731H248.907Z" fill="#36D6BA"/>
<path d="M275.997 46.4661C274.856 46.9731 272.701 47.438 270.249 47.438C263.571 47.438 259.303 43.3386 259.303 36.8302C259.303 30.7867 263.445 25.842 271.137 25.842C272.827 25.842 274.686 26.1379 276.039 26.6449L275.025 31.4206C274.264 31.0825 273.123 30.7867 271.433 30.7867C268.052 30.7867 265.854 33.1957 265.896 36.5766C265.896 40.3803 268.432 42.3665 271.559 42.3665C273.081 42.3665 274.264 42.1131 275.236 41.6903L275.997 46.4661Z" fill="#36D6BA"/>
<path d="M279.503 41.3522C280.687 42.0707 283.138 42.916 285.04 42.916C286.984 42.916 287.787 42.2398 287.787 41.1833C287.787 40.1267 287.153 39.6196 284.744 38.8165C280.476 37.3795 278.827 35.0552 278.869 32.6462C278.869 28.758 282.166 25.842 287.28 25.842C289.689 25.842 291.844 26.3913 293.112 27.0253L291.971 31.4629C291.041 30.9557 289.266 30.2795 287.491 30.2795C285.927 30.2795 285.04 30.9134 285.04 31.97C285.04 32.9421 285.843 33.4492 288.378 34.3367C292.309 35.6892 293.957 37.6754 294 40.7184C294 44.5642 290.957 47.438 285.04 47.438C282.335 47.438 279.926 46.8042 278.363 45.9588L279.503 41.3522Z" fill="#36D6BA"/>
<path d="M129.333 38.2119C129.33 38.3289 129.321 38.4456 129.312 38.5637C129.157 40.4076 128.353 42.4222 126.868 44.7335C126.179 45.8113 125.449 46.9252 124.745 48.0045L124.687 48.0911C124.347 48.609 124.017 49.1147 123.699 49.6038C123.195 50.3793 122.457 50.8189 121.62 50.843C120.771 50.8672 119.952 50.4504 119.428 49.7278C119.1 49.2751 118.906 48.7378 118.851 48.1297C118.581 45.1092 119.347 42.1116 121.006 39.6884L121.092 39.5632C122.016 38.2854 122.677 37.157 123.08 36.1116C123.469 36.4127 123.957 36.5909 124.487 36.5909C126.648 36.6258 128.188 37.092 129.327 38.2059L129.333 38.2119Z" fill="#269984"/>
<path d="M135.32 32.9997C135.013 33.1863 134.702 33.3512 134.39 33.4934C134.47 33.385 134.578 33.2995 134.708 33.2513C134.913 33.1754 135.117 33.0913 135.32 32.9997Z" fill="#269984"/>
<path d="M125.619 12.0819C125.192 12.0879 124.775 12.0975 124.369 12.1131C124.514 12.089 124.663 12.077 124.815 12.077H124.849C125.11 12.077 125.366 12.0782 125.619 12.0819Z" fill="#36D6BA"/>
<path d="M125.385 17.9576H125.386C125.462 17.9576 125.538 17.9576 125.612 17.9588C125.441 17.9588 125.275 17.9611 125.114 17.9636C125.203 17.9611 125.293 17.9588 125.385 17.9576Z" fill="#36D6BA"/>
<path d="M141.407 47.7574C141.653 48.6824 141.476 49.6013 140.907 50.3432C140.329 51.0957 139.429 51.5463 138.499 51.5463C137.916 51.5463 137.362 51.3751 136.852 51.0404C134.314 49.3747 132.524 46.8241 131.807 43.8577L131.77 43.7036C131.208 41.0853 130.469 39.3258 129.333 38.2118L129.327 38.2059C128.398 37.2978 127.202 36.8197 125.62 36.657C125.262 36.6186 124.886 36.5968 124.487 36.5908C123.957 36.5908 123.469 36.4125 123.08 36.1115C122.843 35.9296 122.642 35.7021 122.491 35.4408C122.296 35.1047 122.184 34.7145 122.183 34.3002L122.181 33.0501C122.179 32.8272 122.219 32.6153 122.299 32.4202C122.39 32.195 122.507 31.989 122.647 31.8073C123.086 31.2351 123.744 30.9003 124.475 30.9003H125.29C125.401 30.9003 125.512 30.8992 125.62 30.8955C127.148 30.8618 128.489 30.5823 129.605 30.0862C129.669 30.0597 129.732 30.0308 129.794 30.0008C130.118 29.8478 130.422 29.6755 130.705 29.4852C132.393 28.352 133.34 26.5792 133.34 24.3368C133.34 20.3684 130.782 18.1139 126.126 17.9634C126.19 17.9646 126.252 17.9657 126.315 17.9671C126.337 17.9683 126.358 17.9683 126.38 17.9683C126.581 17.9683 126.8 17.9465 127.439 17.8297C128.398 17.6528 129.095 16.818 129.096 15.8438L129.099 14.6058C129.099 14.3335 129.055 14.0819 128.966 13.8579C128.585 12.9064 127.805 12.2681 126.87 12.1128C130.794 12.2596 133.74 12.8582 136.004 13.9819C136.736 14.3443 137.398 14.7623 137.998 15.2368C140.405 17.1624 141.625 19.9517 141.625 23.5286C141.625 28.1737 138.551 31.5495 135.32 32.9995C135.116 33.091 134.913 33.1753 134.708 33.2512C134.578 33.2994 134.47 33.3848 134.39 33.4932C134.306 33.61 134.258 33.7522 134.258 33.9016C134.258 34.181 134.425 34.4326 134.683 34.541C135.607 34.9276 136.418 35.5106 137.126 36.3078C138.278 37.5965 139.165 39.4464 139.849 41.9405C140.202 43.2171 140.555 44.5514 140.897 45.8425L140.925 45.9461C141.09 46.5674 141.25 47.1733 141.407 47.7574Z" fill="#36D6BA"/>
<path d="M125.619 12.0819C125.192 12.0879 124.775 12.0975 124.369 12.1131C124.514 12.089 124.663 12.077 124.815 12.077H124.849C125.11 12.077 125.366 12.0782 125.619 12.0819Z" fill="#269984"/>
<path d="M125.385 17.9576H125.386C125.462 17.9576 125.538 17.9576 125.612 17.9588C125.441 17.9588 125.275 17.9611 125.114 17.9636C125.203 17.9611 125.293 17.9588 125.385 17.9576Z" fill="#269984"/>
<path d="M126.501 17.9651C126.457 17.9665 126.419 17.9676 126.381 17.9676C126.359 17.9676 126.337 17.9676 126.315 17.9665C126.253 17.9651 126.19 17.964 126.126 17.9628C126.037 17.9603 125.947 17.958 125.855 17.9568H125.854C125.778 17.9568 125.702 17.9568 125.628 17.958H125.613C125.539 17.9568 125.463 17.9568 125.387 17.9568H125.386C125.294 17.958 125.204 17.9603 125.115 17.9628C125.051 17.964 124.988 17.9651 124.926 17.9665C124.904 17.9676 124.882 17.9676 124.861 17.9676C124.659 17.9676 124.44 17.9459 123.802 17.8291C122.843 17.6522 122.146 16.8174 122.145 15.8432L122.141 14.6052C122.141 14.333 122.186 14.0813 122.275 13.8573C122.655 12.9059 123.436 12.2676 124.371 12.1122C124.776 12.0965 125.193 12.0869 125.62 12.0809C125.89 12.0844 126.155 12.0893 126.415 12.0977C125.636 12.8167 125.148 13.8476 125.148 14.9917C125.148 16.178 125.672 17.2427 126.501 17.9651Z" fill="#269984"/>
<path d="M125.853 17.9576H125.855C125.946 17.9588 126.036 17.9611 126.125 17.9636C125.964 17.9611 125.798 17.9588 125.627 17.9588C125.702 17.9576 125.777 17.9576 125.853 17.9576Z" fill="#269984"/>
<path d="M126.87 12.1131C126.464 12.0975 126.047 12.0879 125.62 12.0819C125.873 12.0782 126.129 12.077 126.391 12.077H126.424C126.576 12.077 126.725 12.089 126.87 12.1131Z" fill="#269984"/>
<path d="M125.823 36.6963C125.754 36.7024 125.686 36.7084 125.62 36.7156C125.262 36.6772 124.885 36.6542 124.487 36.6482C123.957 36.6482 123.469 36.4688 123.08 36.164C122.843 35.981 122.642 35.751 122.491 35.4872C122.296 35.1476 122.184 34.7538 122.183 34.3346L122.181 33.0725C122.179 32.8472 122.219 32.633 122.299 32.4354C122.39 32.2077 122.507 32.0007 122.647 31.8164C123.086 31.2383 123.744 30.8999 124.475 30.8999H125.29C125.401 30.8999 125.512 30.8987 125.62 30.895C125.692 30.8973 125.767 30.8987 125.841 30.8987C125.053 31.6188 124.56 32.6546 124.56 33.806C124.56 34.9477 125.046 35.9761 125.823 36.6963Z" fill="#269984"/>
<path d="M140.892 7.5312C141.435 6.86083 142.099 6.20508 142.911 5.8841C143.553 5.63029 144.252 5.60002 144.921 5.75654C145.237 5.83039 145.543 5.94179 145.837 6.07816C146.585 6.42495 147.222 6.92354 147.729 7.57494C148.795 8.94785 148.922 10.3992 148.021 11.9032C147.125 13.4001 145.881 14.5281 144.198 15.1017C143.295 15.4097 142.37 15.4614 141.436 15.2494C140.44 15.0237 139.907 14.3301 139.602 13.4168C139.359 12.6918 139.262 11.9236 139.334 11.1619C139.405 10.4134 139.635 9.68862 139.96 9.01286C140.206 8.50065 140.502 8.01752 140.858 7.57347C140.87 7.55933 140.881 7.54537 140.892 7.5312Z" fill="#36D6BA"/>
<path d="M94.8828 12.2834C95.0161 12.3252 95.1494 12.3669 95.283 12.4078C95.3486 12.4277 95.4016 12.388 95.4016 12.318C95.4016 12.3025 95.4016 12.2869 95.4016 12.2713C95.4016 12.202 95.3486 12.1291 95.283 12.1087C95.1494 12.0677 95.0161 12.0259 94.8828 11.9837C94.8174 11.9628 94.7642 12.0025 94.7642 12.0725V12.1194C94.7643 12.189 94.8171 12.2626 94.8828 12.2834Z" fill="black"/>
<path d="M99.9861 19.6488C99.9861 19.8409 99.9861 20.033 99.9861 20.2249C99.9861 21.0825 100.667 21.8862 101.508 21.9893C103.219 22.203 104.935 22.3279 106.648 22.3638C107.49 22.3803 108.171 21.7115 108.171 20.9011V20.3546C108.171 19.543 107.49 18.8789 106.648 18.84C104.935 18.7647 103.219 18.6003 101.508 18.3471C100.666 18.2217 99.9861 18.7905 99.9861 19.6488Z" fill="#269984"/>
<path d="M118.828 12.3705C118.812 12.374 118.796 12.3774 118.78 12.3809C115.77 12.9728 114.69 13.1499 111.616 13.2535C111.078 13.264 110.539 13.2653 109.999 13.2578C109.075 13.2445 108.262 13.8565 108.161 14.7442C108.04 15.7935 108.89 16.7169 109.952 16.7048C110.764 16.698 111.574 16.671 112.382 16.6239C112.887 16.5953 113.295 16.9476 113.295 17.4222V18.379C113.295 18.5473 113.151 18.6968 112.972 18.7123C112.361 18.7644 111.749 18.8048 111.135 18.8338C110.299 18.872 109.618 19.5322 109.618 20.3388C109.618 20.5191 109.618 20.6995 109.618 20.88C109.618 21.6857 110.299 22.3147 111.135 22.2539C111.749 22.2106 112.361 22.1559 112.972 22.0897C113.151 22.0704 113.295 22.1898 113.295 22.3581V22.8704C113.295 23.5891 112.676 24.2566 111.909 24.3352C111.274 24.3994 110.637 24.4511 109.999 24.4904C109.075 24.5472 108.262 25.2198 108.161 26.1153C108.04 27.1735 108.89 28.0331 109.952 27.9407C110.692 27.8786 111.431 27.7998 112.169 27.7043C112.792 27.6248 113.295 28.0205 113.295 28.6059C113.295 29.1907 112.791 29.7521 112.169 29.8426C109.456 30.2339 106.717 30.3984 103.98 30.3362C103.052 30.3146 102.238 30.9456 102.136 31.8674C102.016 32.9573 102.866 33.9242 103.933 33.9215C106.69 33.9234 109.45 33.6949 112.183 33.2362C112.798 33.1341 113.295 33.5061 113.295 34.084V34.8537C113.295 35.0218 113.151 35.188 112.972 35.2237C112.139 35.3884 111.461 36.1426 111.461 36.9394C111.461 37.1177 111.461 37.2958 111.461 37.4741C111.461 38.2697 112.139 38.7884 112.972 38.601C113.151 38.5618 113.295 38.6642 113.295 38.8327V39.7192C113.295 40.2325 112.853 40.7577 112.307 40.8804C111.54 41.0514 110.77 41.2046 109.999 41.3393C109.075 41.5001 108.262 42.2652 108.161 43.1719C108.04 44.2432 108.89 45.0073 109.952 44.7949C110.692 44.6491 111.431 44.4865 112.169 44.3071C112.792 44.1569 113.295 44.4952 113.295 45.0805C113.295 45.665 112.791 46.284 112.169 46.4454C110.341 46.9168 108.501 47.2852 106.658 47.5507C105.731 47.6839 104.916 48.4389 104.814 49.3621C104.694 50.4532 105.545 51.2623 106.611 51.0821C108.849 50.7102 111.082 50.1867 113.295 49.5111C114.661 49.094 116.02 48.6192 117.366 48.0865C118.763 47.5309 119.88 45.9802 119.88 44.7119V13.1041C119.88 12.5759 119.403 12.2496 118.828 12.3705Z" fill="#269984"/>
<path d="M104.335 28.0906C105.333 28.1193 106.143 27.3179 106.143 26.3444C106.143 25.3697 105.333 24.569 104.335 24.5137C100.852 24.3286 97.3711 23.7762 93.9501 22.8571C92.9691 22.5918 92.1798 23.2084 92.1796 24.2766C92.1796 25.3441 92.9689 26.4365 93.9501 26.6749C97.3711 27.5138 100.852 27.9859 104.335 28.0906Z" fill="#269984"/>
<path d="M96.4592 14.9705C99.0664 15.6678 101.7 16.155 104.334 16.432C105.333 16.5355 106.142 15.7949 106.142 14.8215C106.142 13.8469 105.333 12.9859 104.334 12.8551C101.7 12.5172 99.0664 11.9695 96.4592 11.2116C95.4707 10.9225 94.6741 11.5063 94.6741 12.5586C94.6741 13.6094 95.4709 14.7092 96.4592 14.9705Z" fill="#269984"/>
<path d="M104.335 42.0011C101.299 42.1819 98.2638 42.0835 95.2687 41.7062C94.2834 41.5806 93.4898 42.3027 93.49 43.3628C93.4898 44.4212 94.2834 45.3946 95.2687 45.4931C98.2636 45.8005 101.299 45.829 104.335 45.5783C105.333 45.494 106.143 44.6018 106.143 43.6284C106.143 42.6535 105.333 41.9448 104.335 42.0011Z" fill="#269984"/>
<path d="M104.736 39.7294C105.904 39.6674 107.072 39.5639 108.238 39.4193C109.235 39.2941 110.041 38.3879 110.041 37.4396C110.04 36.4898 109.235 35.8345 108.238 35.9322C107.072 36.05 105.904 36.1263 104.736 36.1616C103.738 36.19 102.928 36.9883 102.928 37.9876C102.928 38.9857 103.737 39.7853 104.736 39.7294Z" fill="#269984"/>
<path d="M101.657 48.0183C100.409 48.072 99.1621 48.0785 97.9207 48.0376C96.9288 48.0033 96.1284 48.7858 96.1284 49.8289C96.1287 50.8709 96.9288 51.7557 97.9207 51.7628C99.1621 51.7748 100.408 51.7396 101.657 51.6569C102.654 51.5895 103.464 50.6967 103.464 49.706C103.464 48.714 102.655 47.9782 101.657 48.0183Z" fill="#269984"/>
<path d="M103.968 20.1617C103.968 20.349 103.968 20.5361 103.968 20.7233C103.968 21.5599 104.651 22.2908 105.493 22.3262C105.878 22.3431 106.264 22.3558 106.649 22.3639C107.491 22.3805 108.172 21.7117 108.172 20.9013V20.3548C108.172 19.5432 107.491 18.8791 106.649 18.8402C106.264 18.8232 105.878 18.8018 105.493 18.7758C104.651 18.7176 103.968 19.3246 103.968 20.1617Z" fill="#36D6BA"/>
<path d="M119.085 12.3257C119.072 12.3283 119.061 12.3312 119.048 12.334C116.774 12.8335 115.962 13.0037 113.647 13.1715C113.242 13.1965 112.836 13.2161 112.43 13.2307C111.734 13.2552 111.121 13.9015 111.045 14.7773C110.954 15.812 111.594 16.6722 112.394 16.623C113.005 16.5871 113.615 16.5398 114.224 16.4809C114.65 16.4404 114.985 16.8804 114.897 17.4359L114.907 18.149C114.936 18.337 114.818 18.5194 114.668 18.5374C114.208 18.5929 113.747 18.642 113.285 18.6844C112.644 18.7421 112.125 19.439 112.143 20.2488V20.6964C112.124 21.5098 112.644 22.1295 113.285 22.0544C113.747 22.0011 114.208 21.9414 114.668 21.875C114.803 21.8559 114.911 21.9742 114.911 22.1405V22.6471C114.911 23.3585 114.445 24.0143 113.867 24.0971C113.389 24.165 112.91 24.2257 112.43 24.2796C111.734 24.3567 111.121 25.0493 111.045 25.9309C110.954 26.9728 111.594 27.7842 112.394 27.6743C112.951 27.5995 113.508 27.5148 114.063 27.4209C114.532 27.342 114.911 27.7393 114.911 28.3183C114.911 28.8967 114.532 29.4443 114.063 29.5313C112.021 29.9075 109.959 30.154 107.891 30.2704C107.19 30.3093 106.574 30.9881 106.497 31.8923C106.406 32.961 107.049 33.8336 107.855 33.7684C109.939 33.6044 112.016 33.3085 114.074 32.8808C114.597 32.7728 114.892 33.2397 114.892 33.9665L114.906 34.4315C114.939 34.6184 114.82 34.8193 114.668 34.8551C114.03 35.0042 113.205 35.6151 113.224 36.4149V36.8551C113.203 37.6654 114.008 38.2166 114.668 38.1927C115.188 38.1741 115.29 38.5412 115.267 38.7343L115.264 39.4507C115.319 39.9937 114.609 40.312 114.167 40.4286C113.59 40.5803 113.01 40.7217 112.43 40.8528C111.734 41.0085 111.121 41.7714 111.045 42.6612C110.954 43.7132 111.594 44.4523 112.394 44.2515C112.951 44.1131 113.508 43.9652 114.063 43.8077C114.532 43.675 114.911 44.0294 114.911 44.6082C114.911 45.1863 114.532 45.7779 114.063 45.9182C112.687 46.329 111.302 46.6807 109.913 46.9736C109.213 47.12 108.598 47.8851 108.521 48.789C108.43 49.8576 109.073 50.6196 109.877 50.4302C111.564 50.0369 113.245 49.5564 114.911 48.9891C115.94 48.6389 116.964 48.2555 117.98 47.8389C119.034 47.4045 119.88 45.9817 119.88 44.7116V13.1038C119.88 12.576 119.519 12.2257 119.085 12.3257Z" fill="#36D6BA"/>
<path d="M104.334 28.0907C105.333 28.1193 106.142 27.3178 106.142 26.3444C106.142 25.3697 105.333 24.569 104.334 24.5137C102.37 24.4093 100.407 24.1882 98.4545 23.8505C97.4615 23.6767 96.6602 24.3439 96.6602 25.3835C96.6602 26.4218 97.4617 27.417 98.4545 27.5631C100.407 27.8557 102.37 28.0315 104.334 28.0907Z" fill="#36D6BA"/>
<path d="M102.128 16.1508C102.863 16.2609 103.599 16.3547 104.335 16.4322C105.333 16.5357 106.143 15.7951 106.143 14.8217C106.143 13.8471 105.333 12.986 104.335 12.8552C103.599 12.7607 102.863 12.6501 102.128 12.5229C101.13 12.349 100.323 12.9961 100.323 14.0122C100.323 15.027 101.13 16.0039 102.128 16.1508Z" fill="#36D6BA"/>
<path d="M104.334 42.0012C103.197 42.069 102.059 42.0975 100.924 42.0869C99.9269 42.076 99.1215 42.8617 99.1214 43.8855C99.1214 44.9081 99.9269 45.759 100.924 45.7425C102.059 45.727 103.197 45.6721 104.334 45.5784C105.333 45.4941 106.142 44.6018 106.142 43.6284C106.142 42.6534 105.333 41.9448 104.334 42.0012Z" fill="#36D6BA"/>
<path d="M107.014 39.556C107.422 39.5154 107.83 39.4698 108.239 39.4193C109.235 39.2941 110.041 38.3879 110.041 37.4396C110.041 36.4898 109.235 35.8345 108.239 35.9322C107.83 35.9735 107.422 36.0095 107.014 36.0407C106.016 36.115 105.206 36.9387 105.206 37.9236C105.206 38.9075 106.016 39.6574 107.014 39.556Z" fill="#36D6BA"/>
<path d="M101.657 48.0183C100.977 48.0474 100.298 48.0627 99.6202 48.0641C98.6253 48.0642 97.8218 48.866 97.8218 49.8979C97.8218 50.9287 98.6253 51.7771 99.6202 51.7498C100.298 51.733 100.977 51.7021 101.657 51.6569C102.654 51.5895 103.464 50.6967 103.464 49.706C103.464 48.714 102.655 47.9782 101.657 48.0183Z" fill="#36D6BA"/>
<path d="M92.0343 12.6084C92.1137 12.638 92.1784 12.5911 92.1784 12.5042C92.1784 12.4167 92.1137 12.3234 92.0343 12.2933C91.867 12.2309 91.7001 12.1679 91.5333 12.1039V11.9048C91.6196 11.9379 91.7059 11.9708 91.7922 12.0036C91.8591 12.029 91.9135 11.9899 91.9135 11.9164V11.8669C91.9136 11.7935 91.859 11.7133 91.7922 11.6879C91.7059 11.655 91.6196 11.6217 91.5333 11.5884V11.3892C91.7001 11.4541 91.867 11.518 92.0343 11.5808C92.1137 11.6106 92.1784 11.5645 92.1784 11.4773C92.1784 11.3904 92.1137 11.2961 92.0343 11.2655C91.867 11.2021 91.7001 11.1379 91.5333 11.0731V10.8738C91.7001 10.939 91.867 11.0034 92.0343 11.0669C92.1137 11.0972 92.1784 11.0506 92.1784 10.964C92.1784 10.8768 92.1137 10.7821 92.0343 10.7516C91.867 10.6879 91.7001 10.6232 91.5333 10.5577V10.3584C91.6196 10.3925 91.7059 10.4263 91.7922 10.4597C91.8591 10.4855 91.9135 10.4472 91.9135 10.3735V10.3242C91.9136 10.2508 91.859 10.1702 91.7922 10.144C91.7059 10.1103 91.6196 10.0762 91.5333 10.0421V9.84303C91.7001 9.90941 91.867 9.97476 92.0343 10.0393C92.1137 10.0701 92.1784 10.024 92.1784 9.93714C92.1784 9.8505 92.1137 9.75489 92.0343 9.72395C91.867 9.65909 91.7001 9.59326 91.5333 9.5267C91.4909 9.50974 91.4484 9.49276 91.4058 9.47565C91.2484 9.41229 91.0908 9.34808 90.9336 9.2829C90.6613 9.31069 90.3894 9.33664 90.1181 9.36106C90.1575 9.57909 90.1969 9.79679 90.2363 10.0143C90.4321 9.99336 90.6282 9.97157 90.8246 9.94862C90.8278 9.94997 90.8309 9.95113 90.8341 9.95263V12.6652C91.0244 12.7403 91.2151 12.8143 91.4058 12.8871C91.4483 12.9033 91.4909 12.9195 91.5333 12.9356C91.7001 12.9988 91.867 13.0609 92.0343 13.1223C92.1137 13.1518 92.1784 13.1047 92.1784 13.0176C92.1784 12.9304 92.1137 12.8364 92.0343 12.807C91.867 12.7453 91.7001 12.6828 91.5333 12.6193V12.4202C91.7001 12.4839 91.867 12.5466 92.0343 12.6084Z" fill="#269984"/>
<path d="M92.5581 10.4364C92.4214 10.3853 92.2847 10.3336 92.1482 10.2814C92.081 10.2558 92.0266 10.2947 92.0269 10.3679C92.0269 10.3843 92.0269 10.4008 92.0269 10.4173C92.0269 10.4906 92.0812 10.5711 92.1482 10.5966C92.2847 10.6484 92.4214 10.6998 92.5581 10.7507C92.6254 10.7753 92.6797 10.7363 92.6799 10.6632V10.614C92.6797 10.5412 92.6254 10.461 92.5581 10.4364Z" fill="#269984"/>
<path d="M92.5581 11.9729C92.4214 11.9232 92.2847 11.873 92.1482 11.8221C92.081 11.7972 92.0266 11.8359 92.0269 11.9094C92.0269 11.9259 92.0269 11.9424 92.0269 11.959C92.0269 12.0325 92.0812 12.112 92.1482 12.1371C92.2847 12.1876 92.4214 12.2379 92.5581 12.2873C92.6254 12.3115 92.6797 12.272 92.6799 12.1988V12.1496C92.6797 12.0762 92.6254 11.9974 92.5581 11.9729Z" fill="#269984"/>
<path d="M91.0712 25.1267C91.1502 25.1515 91.2148 25.1006 91.2146 25.013C91.2146 24.9252 91.1505 24.8345 91.0712 24.8096C90.9376 24.7673 90.8039 24.7244 90.6706 24.6812V24.481C90.7237 24.4983 90.7769 24.5155 90.8301 24.5327C90.8968 24.5543 90.9508 24.5118 90.9508 24.4377V24.388C90.9508 24.3138 90.8968 24.2366 90.8301 24.215C90.7769 24.1977 90.7237 24.1804 90.6706 24.163V23.9628C90.8775 24.0309 91.0849 24.0977 91.2926 24.1633C91.3719 24.1879 91.4361 24.1379 91.4361 24.0499C91.4361 23.9628 91.3718 23.8714 91.2926 23.8465C91.0849 23.7806 90.8775 23.7133 90.6706 23.6449V23.4447C90.8039 23.4889 90.9376 23.5328 91.0712 23.576C91.1502 23.6015 91.2148 23.5511 91.2146 23.4638C91.2146 23.3763 91.1505 23.2844 91.0712 23.2589C90.9376 23.2153 90.8039 23.1714 90.6706 23.1267V22.9264C90.7237 22.9442 90.7769 22.962 90.8301 22.9797C90.8968 23.0018 90.9508 22.9599 90.9508 22.8859V22.8361C90.9508 22.7623 90.8968 22.6843 90.8301 22.662C90.7769 22.6442 90.7237 22.6264 90.6706 22.6085V22.4084C90.8039 22.4534 90.9376 22.4984 91.0712 22.5423C91.1502 22.5684 91.2148 22.5183 91.2146 22.4308C91.2146 22.3432 91.1505 22.2516 91.0712 22.2251C90.9376 22.1807 90.8039 22.1358 90.6706 22.0904C90.5956 22.0648 90.5206 22.039 90.4456 22.0132C90.3214 21.9702 90.1972 21.9267 90.0734 21.8829C89.802 21.9276 89.5312 21.9709 89.2611 22.0124C89.3004 22.2289 89.3396 22.4453 89.3789 22.6617C89.5739 22.6283 89.769 22.594 89.9646 22.5587C89.9678 22.5599 89.9709 22.561 89.9741 22.5622V25.2889C90.1311 25.3415 90.2882 25.3937 90.4456 25.4447C90.5204 25.469 90.5955 25.4933 90.6706 25.5172C90.8039 25.56 90.9376 25.602 91.0712 25.6437C91.1502 25.6683 91.2148 25.617 91.2146 25.5294C91.2146 25.4419 91.1505 25.3511 91.0712 25.3263C90.9376 25.2845 90.8039 25.2422 90.6706 25.1992V24.9992C90.8039 25.0423 90.9376 25.0848 91.0712 25.1267Z" fill="#269984"/>
<path d="M91.5933 24.4561C91.4571 24.4145 91.3211 24.372 91.185 24.3289C91.1181 24.3076 91.0643 24.3504 91.0641 24.4243V24.474C91.0641 24.5478 91.1184 24.6248 91.185 24.6459C91.3211 24.6886 91.4571 24.7307 91.5933 24.7723C91.6602 24.7927 91.7147 24.7493 91.7146 24.676C91.7146 24.6595 91.7146 24.6429 91.7146 24.6265C91.7146 24.553 91.6603 24.4771 91.5933 24.4561Z" fill="#269984"/>
<path d="M95.415 48.118C95.0919 48.091 94.7691 48.0607 94.4469 48.0273C94.3707 48.0194 94.2946 48.0111 94.2186 48.003C94.0926 47.9894 93.9665 47.9751 93.8405 47.9604C93.565 48.0661 93.2898 48.1702 93.015 48.2725C93.0549 48.4752 93.0949 48.6777 93.1348 48.8802C93.333 48.8028 93.5314 48.7249 93.7301 48.6458L93.7398 48.647V51.3116C93.8992 51.3273 94.0588 51.3422 94.2186 51.3562C94.2946 51.363 94.3707 51.3695 94.4469 51.3758C94.5824 51.387 94.7179 51.3978 94.8533 51.4079C94.9337 51.4139 94.999 51.3492 94.999 51.2637C94.999 51.1782 94.9337 51.1042 94.8533 51.0979C94.7179 51.0876 94.5824 51.0767 94.4469 51.0652V50.8694C94.5824 50.8812 94.7179 50.8922 94.8533 50.9028C94.9337 50.909 94.999 50.8443 94.999 50.7592C94.999 50.6734 94.9337 50.5995 94.8533 50.593C94.7179 50.5822 94.5824 50.5707 94.4469 50.5588V50.3632C94.5009 50.368 94.5548 50.3728 94.6087 50.3773C94.6765 50.3833 94.7315 50.3294 94.7314 50.2571C94.7314 50.2407 94.7314 50.2246 94.7314 50.2085C94.7314 50.1362 94.6765 50.0731 94.6087 50.067C94.5548 50.0623 94.5009 50.0575 94.4469 50.0525V49.8569C94.6569 49.8764 94.8673 49.8945 95.0779 49.9112C95.1584 49.9178 95.2236 49.8533 95.2236 49.7678C95.2236 49.6825 95.1583 49.6082 95.0779 49.6016C94.8673 49.5845 94.6569 49.566 94.4469 49.5462V49.3506C94.5824 49.3636 94.7179 49.3759 94.8533 49.3878C94.9337 49.3949 94.999 49.3307 94.999 49.2453C94.999 49.1599 94.9337 49.0851 94.8533 49.0779C94.7179 49.0657 94.5824 49.0531 94.4469 49.0398V48.8443C94.5009 48.8495 94.5548 48.8549 94.6087 48.8599C94.6765 48.8665 94.7315 48.8129 94.7314 48.7408C94.7314 48.7245 94.7314 48.7083 94.7314 48.6922C94.7314 48.62 94.6765 48.5565 94.6087 48.5495C94.5548 48.5442 94.5009 48.539 94.4469 48.5336V48.338C94.7691 48.3708 95.0919 48.4004 95.415 48.4268C95.4955 48.4333 95.5607 48.3693 95.5607 48.2841C95.5607 48.1989 95.4955 48.1246 95.415 48.118Z" fill="#269984"/>
<path d="M95.4756 48.8047V48.7565C95.4754 48.6848 95.4204 48.6218 95.3527 48.6164C95.2147 48.6052 95.0766 48.5933 94.9388 48.5808C94.8709 48.5747 94.8158 48.6284 94.8161 48.7002V48.7488C94.8162 48.8209 94.8711 48.8846 94.9388 48.8905C95.0766 48.9027 95.2147 48.9144 95.3527 48.9252C95.4204 48.9305 95.4756 48.8766 95.4756 48.8047Z" fill="#269984"/>
<path d="M95.3831 50.1288C95.2449 50.1187 95.1071 50.1083 94.9692 50.0973C94.9014 50.0915 94.8464 50.146 94.8464 50.2179V50.2664C94.8467 50.3386 94.9013 50.4015 94.9692 50.407C95.1071 50.4177 95.2452 50.4279 95.3831 50.4376C95.4508 50.4424 95.5061 50.3879 95.5061 50.3158C95.5061 50.2997 95.5061 50.2836 95.5061 50.2677C95.5061 50.1958 95.451 50.1335 95.3831 50.1288Z" fill="#269984"/>
<path d="M92.7593 42.8915C92.8389 42.9049 92.9039 42.8456 92.9036 42.7591C92.9036 42.6722 92.8392 42.5917 92.7593 42.5777C92.5356 42.539 92.3121 42.499 92.0891 42.4574C92.0891 42.3913 92.0891 42.325 92.0891 42.2589C92.1203 42.2648 92.1514 42.2705 92.1828 42.2764C92.2499 42.289 92.3043 42.2391 92.3043 42.166C92.3043 42.1496 92.3043 42.1333 92.3043 42.1168C92.3041 42.0435 92.2499 41.9744 92.1828 41.9613C92.1514 41.9554 92.1203 41.9497 92.0891 41.9437C92.0891 41.8775 92.0891 41.8114 92.0891 41.7452C92.2381 41.7736 92.3873 41.8014 92.5366 41.8285C92.6161 41.8428 92.6806 41.7842 92.6808 41.6974C92.6808 41.6107 92.6161 41.5287 92.5366 41.5142C92.3873 41.4868 92.2381 41.4587 92.0891 41.43C92.0284 41.4183 91.9677 41.4064 91.907 41.3945C91.7673 41.3668 91.6275 41.3388 91.488 41.31C91.215 41.3935 90.9423 41.4753 90.6704 41.5556C90.7099 41.7647 90.7494 41.9736 90.7891 42.1823C90.9853 42.1211 91.1818 42.0589 91.3786 41.9958L91.3882 41.9979C91.3882 42.8989 91.3882 43.7999 91.3882 44.7012C91.5609 44.7335 91.7338 44.7651 91.907 44.7956C91.9677 44.8064 92.0284 44.8168 92.0891 44.8273C92.2381 44.8529 92.3873 44.8779 92.5366 44.9021C92.6161 44.9148 92.6806 44.8553 92.6808 44.7683C92.6808 44.6816 92.6161 44.6006 92.5366 44.5878C92.3873 44.5632 92.2381 44.5381 92.0891 44.5121C92.0891 44.446 92.0891 44.3797 92.0891 44.3136C92.2751 44.3462 92.4615 44.3778 92.6478 44.4081C92.7276 44.421 92.7921 44.361 92.7922 44.2747C92.7921 44.1878 92.7277 44.1073 92.6478 44.094C92.4615 44.0633 92.2751 44.0313 92.0891 43.9984C92.0891 43.9322 92.0891 43.8661 92.0891 43.7999C92.1573 43.8122 92.2256 43.8241 92.2938 43.8361C92.361 43.8479 92.4155 43.7975 92.4155 43.7243V43.6751C92.4154 43.6017 92.3608 43.5331 92.2938 43.5212C92.2256 43.5091 92.1573 43.4972 92.0891 43.4847C92.0891 43.4185 92.0891 43.3524 92.0891 43.2863C92.2381 43.3133 92.3873 43.3396 92.5366 43.3654C92.6161 43.3791 92.6806 43.3201 92.6808 43.2329C92.6808 43.1462 92.6161 43.0644 92.5366 43.051C92.3873 43.025 92.2381 42.9985 92.0891 42.9709C92.0891 42.9047 92.0891 42.8387 92.0891 42.7726C92.3121 42.8139 92.5356 42.8535 92.7593 42.8915Z" fill="#269984"/>
<path d="M98.9131 20.3684C98.8571 20.3581 98.8012 20.3476 98.7454 20.337C98.8109 20.1487 98.849 19.926 98.8606 19.6757C98.878 19.6792 98.8955 19.6824 98.9131 19.6857C98.9942 19.701 99.06 19.6458 99.06 19.5625C99.06 19.4792 98.9942 19.399 98.9131 19.3835C98.8959 19.3802 98.8786 19.3769 98.8614 19.3735C98.8589 19.3088 98.8552 19.2441 98.849 19.1808C98.8704 19.1849 98.8917 19.1891 98.9131 19.1932C98.9942 19.209 99.06 19.1542 99.06 19.0703C99.06 18.9868 98.9942 18.9071 98.9131 18.891C98.8759 18.8838 98.8387 18.8764 98.8012 18.8691C98.7848 18.7901 98.7637 18.7129 98.74 18.6384C98.7695 18.6208 98.7897 18.5898 98.7897 18.5488V18.5014C98.7897 18.4309 98.7344 18.363 98.666 18.3488L98.6196 18.3394C98.5809 18.2622 98.5372 18.1899 98.4885 18.1217C98.5543 18.1353 98.6204 18.1489 98.6865 18.1625C98.7675 18.1791 98.8333 18.1242 98.8333 18.0412C98.8332 17.9575 98.7675 17.8764 98.6865 17.86C98.4727 17.8159 98.2589 17.7705 98.0454 17.7237C98.0446 17.7234 98.0438 17.7237 98.0432 17.7235C97.9361 17.6652 97.8185 17.6174 97.6875 17.5882C96.8714 17.4006 96.4842 18.0555 96.4839 19.0141C96.4892 19.9513 96.8469 20.8073 97.6632 20.9764C97.798 21.0042 97.9202 21.0075 98.0322 20.9931C98.0365 20.9942 98.0405 20.9975 98.0454 20.9984C98.2589 21.0408 98.4727 21.0818 98.6865 21.1216C98.7675 21.1371 98.8333 21.0805 98.8333 20.9975C98.8332 20.9137 98.7675 20.8344 98.6865 20.8189C98.6174 20.8059 98.5483 20.793 98.4792 20.7797C98.5282 20.7318 98.5721 20.6759 98.6116 20.6142C98.7121 20.6335 98.8125 20.6522 98.9131 20.6705C98.9942 20.6857 99.06 20.6301 99.06 20.5465C99.06 20.4634 98.9942 20.3832 98.9131 20.3684ZM97.2262 19.1878C97.2213 18.4214 97.4058 18.1056 97.6777 18.1667C97.9742 18.2331 98.125 18.6474 98.125 19.3727C98.1249 20.1176 97.9694 20.459 97.6827 20.3996C97.396 20.34 97.2213 19.9415 97.2262 19.1878Z" fill="#269984"/>
<path d="M99.4479 18.5017C99.3084 18.4755 99.1691 18.4488 99.0299 18.4217C98.9615 18.4084 98.9059 18.4542 98.9059 18.5246V18.572C98.9059 18.6427 98.9615 18.7104 99.0299 18.7237C99.1691 18.7507 99.3084 18.7769 99.4479 18.8029C99.5163 18.8155 99.5719 18.7686 99.5718 18.6986C99.5718 18.683 99.5718 18.6673 99.5718 18.6515C99.5718 18.5817 99.5163 18.5146 99.4479 18.5017Z" fill="#269984"/>
<path d="M99.4479 19.9738C99.3084 19.9492 99.1691 19.9236 99.0299 19.8978C98.9615 19.8855 98.9059 19.9315 98.9059 20.0019V20.0492C98.9059 20.1198 98.9615 20.1872 99.0299 20.1998C99.1691 20.2256 99.3084 20.2505 99.4479 20.275C99.5163 20.2869 99.5719 20.2397 99.5718 20.1698C99.5718 20.154 99.5718 20.1382 99.5718 20.1226C99.5718 20.0526 99.5163 19.9859 99.4479 19.9738Z" fill="#269984"/>
<path d="M101.859 38.718C101.803 38.7174 101.747 38.7165 101.691 38.7157C101.757 38.5203 101.795 38.2946 101.807 38.0469C101.824 38.0473 101.842 38.0476 101.859 38.0478C101.941 38.0491 102.007 37.9832 102.007 37.9017C102.007 37.8199 101.941 37.7526 101.859 37.751C101.842 37.7509 101.825 37.7505 101.807 37.7502C101.805 37.6872 101.801 37.6243 101.795 37.5631C101.816 37.5636 101.838 37.564 101.859 37.5643C101.941 37.5659 102.007 37.5007 102.007 37.4188C102.007 37.3366 101.941 37.2695 101.859 37.2678C101.822 37.267 101.784 37.2661 101.747 37.2653C101.731 37.1908 101.709 37.1187 101.686 37.0493C101.715 37.0271 101.735 36.9932 101.735 36.9527C101.735 36.9373 101.735 36.9219 101.735 36.9063C101.735 36.8369 101.68 36.7795 101.611 36.7777C101.596 36.7773 101.58 36.7768 101.565 36.7763C101.526 36.7074 101.482 36.6432 101.433 36.585C101.499 36.5873 101.565 36.5892 101.632 36.5912C101.713 36.5935 101.779 36.5289 101.779 36.447C101.779 36.3647 101.713 36.2968 101.632 36.2942C101.417 36.2874 101.203 36.279 100.988 36.2694C100.987 36.2694 100.986 36.2699 100.986 36.2697C100.878 36.2302 100.76 36.2046 100.628 36.1974C99.8079 36.152 99.4181 36.8611 99.4181 37.8024C99.4233 38.7216 99.7835 39.5015 100.604 39.5279C100.74 39.5324 100.862 39.5151 100.975 39.4813C100.979 39.4818 100.983 39.4841 100.988 39.4844C101.202 39.4896 101.417 39.4934 101.632 39.496C101.713 39.4966 101.779 39.4311 101.779 39.349C101.779 39.2672 101.713 39.2 101.632 39.199C101.562 39.198 101.493 39.1968 101.423 39.1957C101.473 39.1401 101.517 39.0778 101.557 39.0107C101.657 39.0123 101.758 39.0135 101.859 39.0146C101.941 39.0156 102.007 38.9495 102.007 38.8676C102.007 38.786 101.941 38.7189 101.859 38.718ZM100.165 37.8464C100.16 37.095 100.345 36.7534 100.618 36.7672C100.916 36.7817 101.068 37.1627 101.068 37.8748C101.068 38.606 100.912 38.9684 100.623 38.9586C100.335 38.9485 100.16 38.5871 100.165 37.8464Z" fill="#269984"/>
<path d="M102.396 36.7942C102.256 36.7924 102.116 36.7899 101.976 36.7869C101.908 36.7854 101.852 36.8405 101.852 36.9091V36.9556C101.852 37.0249 101.908 37.0821 101.976 37.0833C102.116 37.0861 102.256 37.0883 102.396 37.0899C102.464 37.0908 102.52 37.0352 102.52 36.9665V36.9203C102.52 36.8518 102.464 36.7952 102.396 36.7942Z" fill="#269984"/>
<path d="M102.396 38.2398C102.256 38.2391 102.116 38.238 101.976 38.2363C101.908 38.2352 101.852 38.2907 101.852 38.3597V38.4061C101.852 38.475 101.908 38.532 101.976 38.5327C102.116 38.5342 102.256 38.5352 102.396 38.5355C102.464 38.5354 102.52 38.4795 102.52 38.411V38.3647C102.52 38.2958 102.464 38.2402 102.396 38.2398Z" fill="#269984"/>
<path d="M101.616 31.4158C101.384 31.401 101.152 31.3848 100.919 31.3668C100.903 31.2941 100.884 31.2237 100.861 31.1555C100.898 31.1369 100.924 31.0998 100.924 31.0536V31.0069C100.924 30.9375 100.868 30.8763 100.8 30.871C100.779 30.8691 100.759 30.8675 100.738 30.8657C100.699 30.7948 100.656 30.7276 100.607 30.6664C100.678 30.6726 100.749 30.6785 100.82 30.6845C100.902 30.6915 100.967 30.6299 100.968 30.5475C100.968 30.465 100.902 30.3929 100.82 30.386C100.606 30.3677 100.391 30.3479 100.177 30.3268C100.175 30.3266 100.173 30.3276 100.17 30.3276C100.06 30.2794 99.9375 30.2447 99.801 30.2305C98.9816 30.1405 98.5926 30.8329 98.5925 31.7788C98.5975 32.703 98.9573 33.506 99.7766 33.577C99.9122 33.5886 100.035 33.5778 100.148 33.5498C100.158 33.5527 100.167 33.5572 100.177 33.5582C100.581 33.5896 100.985 33.6163 101.389 33.6378C101.47 33.6422 101.536 33.5789 101.536 33.497C101.536 33.415 101.47 33.3446 101.389 33.3403C101.123 33.3257 100.858 33.3087 100.592 33.2899C100.642 33.2369 100.687 33.1766 100.727 33.1112C100.834 33.1186 100.941 33.1258 101.048 33.1326C101.129 33.1376 101.195 33.0751 101.195 32.9928C101.195 32.9103 101.129 32.8397 101.048 32.8344C100.986 32.8304 100.924 32.8261 100.861 32.8219C100.927 32.6286 100.966 32.4045 100.978 32.1559C101.096 32.1642 101.214 32.1721 101.332 32.1798C101.413 32.1846 101.479 32.1226 101.479 32.0403C101.479 31.958 101.413 31.8876 101.332 31.8821C101.214 31.8743 101.097 31.8661 100.979 31.8577C100.977 31.7941 100.973 31.7311 100.967 31.6689C101.183 31.685 101.4 31.6995 101.616 31.7128C101.698 31.7176 101.764 31.6555 101.764 31.5732C101.764 31.4913 101.698 31.4207 101.616 31.4158ZM99.7962 33.0056C99.5085 32.98 99.333 32.6074 99.3378 31.8632C99.333 31.1078 99.5183 30.774 99.7911 30.8024C100.089 30.8329 100.24 31.2245 100.24 31.94C100.24 32.6751 100.084 33.0308 99.7962 33.0056Z" fill="#269984"/>
<path d="M101.164 31.1977C101.304 31.208 101.444 31.2176 101.583 31.2268C101.652 31.231 101.708 31.1787 101.708 31.1094C101.708 31.0937 101.708 31.0783 101.708 31.0628C101.708 30.9937 101.652 30.934 101.583 30.9296C101.444 30.9202 101.304 30.9103 101.164 30.8998C101.096 30.8945 101.04 30.9467 101.04 31.0159C101.04 31.0316 101.04 31.0472 101.04 31.0628C101.04 31.1321 101.096 31.1925 101.164 31.1977Z" fill="#269984"/>
<path d="M101.583 32.3823C101.444 32.3742 101.304 32.3657 101.164 32.3565C101.096 32.3518 101.04 32.4041 101.04 32.4737C101.04 32.4894 101.04 32.505 101.04 32.5204C101.04 32.59 101.096 32.6499 101.164 32.6543C101.304 32.6633 101.444 32.6717 101.583 32.6794C101.652 32.6833 101.708 32.63 101.708 32.5611C101.708 32.5455 101.708 32.53 101.708 32.5145C101.708 32.4454 101.652 32.3861 101.583 32.3823Z" fill="#269984"/>
<path d="M113.909 4.27386C113.957 3.39237 114.114 2.45007 114.593 1.69703C114.973 1.1013 115.535 0.65624 116.183 0.384191C116.489 0.255772 116.81 0.164324 117.136 0.100757C117.964 -0.0606848 118.791 -0.0299573 119.602 0.206222C121.31 0.703647 122.287 1.83074 122.443 3.61793C122.599 5.39691 122.245 7.07851 121.194 8.56414C120.63 9.36177 119.895 9.95982 118.993 10.345C118.033 10.7555 117.174 10.5007 116.373 9.92705C115.737 9.4717 115.194 8.8936 114.797 8.21888C114.407 7.55579 114.162 6.81723 114.026 6.06202C113.922 5.48921 113.878 4.91099 113.906 4.32922C113.907 4.31073 113.908 4.29228 113.909 4.27386Z" fill="#36D6BA"/>
<path d="M129.099 14.6056L129.096 15.8435C129.095 16.8178 128.397 17.6525 127.439 17.8294C126.922 17.9234 126.68 17.9558 126.5 17.9655C125.672 17.243 125.148 16.1783 125.148 14.992C125.148 13.848 125.636 12.817 126.415 12.0981C126.568 12.1017 126.72 12.1065 126.87 12.1125C127.805 12.2678 128.585 12.9062 128.966 13.8576C129.055 14.0817 129.099 14.3332 129.099 14.6056Z" fill="#36D6BA"/>
<path d="M129.06 33.0727L129.057 34.3349C129.056 34.7541 128.944 35.1478 128.749 35.4874C128.598 35.7512 128.397 35.9812 128.16 36.1643C127.771 36.469 127.283 36.6485 126.753 36.6485C126.429 36.6556 126.119 36.6701 125.822 36.6965C125.046 35.9764 124.56 34.9479 124.56 33.8062C124.56 32.6549 125.053 31.6191 125.84 30.8989C125.877 30.9001 125.914 30.9001 125.95 30.9001H126.765C127.496 30.9001 128.154 31.2385 128.593 31.8166C128.733 32.0009 128.85 32.208 128.942 32.4356C129.021 32.6332 129.061 32.8474 129.06 33.0727Z" fill="#36D6BA"/>
<circle cx="137.243" cy="21.4913" r="0.581852" fill="#269984"/>
<circle cx="137.243" cy="25.1046" r="0.581852" fill="#269984"/>
<mask id="mask0_1_7722" style="mask-type:alpha" maskUnits="userSpaceOnUse" x="122" y="12" width="20" height="40">
<path d="M141.407 47.7574C141.653 48.6824 141.476 49.6013 140.907 50.3432C140.329 51.0957 139.429 51.5463 138.499 51.5463C137.916 51.5463 137.362 51.3751 136.852 51.0404C134.314 49.3747 132.524 46.8241 131.807 43.8577L131.77 43.7036C131.208 41.0853 130.469 39.3258 129.333 38.2118L129.327 38.2059C128.398 37.2978 127.202 36.8197 125.62 36.657C125.262 36.6186 124.886 36.5968 124.487 36.5908C123.957 36.5908 123.469 36.4125 123.08 36.1115C122.843 35.9296 122.642 35.7021 122.491 35.4408C122.296 35.1047 122.184 34.7145 122.183 34.3002L122.181 33.0501C122.179 32.8272 122.219 32.6153 122.299 32.4202C122.39 32.195 122.507 31.989 122.647 31.8073C123.086 31.2351 123.744 30.9003 124.475 30.9003H125.29C125.401 30.9003 125.512 30.8992 125.62 30.8955C127.148 30.8618 128.489 30.5823 129.605 30.0862C129.669 30.0597 129.732 30.0308 129.794 30.0008C130.118 29.8478 130.422 29.6755 130.705 29.4852C132.393 28.352 133.34 26.5792 133.34 24.3368C133.34 20.3684 130.782 18.1139 126.126 17.9634C126.19 17.9646 126.252 17.9657 126.315 17.9671C126.337 17.9683 126.358 17.9683 126.38 17.9683C126.581 17.9683 126.8 17.9465 127.439 17.8297C128.398 17.6528 129.095 16.818 129.096 15.8438L129.099 14.6058C129.099 14.3335 129.055 14.0819 128.966 13.8579C128.585 12.9064 127.805 12.2681 126.87 12.1128C130.794 12.2596 133.74 12.8582 136.004 13.9819C136.736 14.3443 137.398 14.7623 137.998 15.2368C140.405 17.1624 141.625 19.9517 141.625 23.5286C141.625 28.1737 138.551 31.5495 135.32 32.9995C135.116 33.091 134.913 33.1753 134.708 33.2512C134.578 33.2994 134.47 33.3848 134.39 33.4932C134.306 33.61 134.258 33.7522 134.258 33.9016C134.258 34.181 134.425 34.4326 134.683 34.541C135.607 34.9276 136.418 35.5106 137.126 36.3078C138.278 37.5965 139.165 39.4464 139.849 41.9405C140.202 43.2171 140.555 44.5514 140.897 45.8425L140.925 45.9461C141.09 46.5674 141.25 47.1733 141.407 47.7574Z" fill="black"/>
</mask>
<g mask="url(#mask0_1_7722)">
<path d="M140.232 52.0557C139.537 50.5952 138.886 49.1169 138.251 47.6322C137.929 46.8918 137.624 46.1439 137.31 45.401C137 44.6564 136.695 43.9112 136.368 43.1771C136.05 42.4395 135.718 41.7082 135.356 40.9936C135 40.2761 134.619 39.5711 134.2 38.8903C134.1 38.7165 133.986 38.5522 133.878 38.3842C133.769 38.2165 133.66 38.0487 133.542 37.8869C133.426 37.7246 133.314 37.5578 133.194 37.3983L132.825 36.9244C132.322 36.3002 131.769 35.7159 131.178 35.1631C131.837 35.6327 132.442 36.1792 133.003 36.7695C133.559 37.3649 134.057 38.0131 134.516 38.6865C135.431 40.0372 136.159 41.501 136.81 42.9845C137.454 44.4736 138.027 45.9822 138.599 47.4925C139.168 49.0034 139.722 50.5208 140.232 52.0557Z" fill="#269984"/>
</g>
</svg>
