<svg width="2454" height="632" viewBox="0 0 2454 632" fill="none" xmlns="http://www.w3.org/2000/svg">
<path d="M1543.72 514.179L960.664 510.251L966.549 110.681L1549.62 119.267L1543.72 514.179Z" fill="#F1F1F1"/>
<path d="M1609.27 0L1323.03 115.595V510.086L1609.27 631.185H2454V0H1609.27Z" fill="#36D6BA"/>
<path d="M844.731 0H0V631.185H844.731L1130.97 510.086V115.595L844.731 0Z" fill="#36D6BA"/>
<circle cx="987.141" cy="21.9831" r="16.1133" fill="#F1F1F1"/>
<circle cx="1061.4" cy="56.9276" r="10.1646" fill="#F1F1F1"/>
<circle cx="1130.19" cy="87.5043" r="7.25947" fill="#F1F1F1"/>
<circle cx="1471.69" cy="21.9832" r="16.1133" fill="#F1F1F1"/>
<circle cx="1397.43" cy="56.9277" r="10.1646" fill="#F1F1F1"/>
<circle cx="1328.63" cy="87.5043" r="7.25947" fill="#F1F1F1"/>
<ellipse cx="1236.83" cy="568.746" rx="86.2692" ry="9.82813" fill="#F1F1F1"/>
<line x1="1347.11" y1="424.709" x2="1552.61" y2="472.415" stroke="white" stroke-width="2"/>
<line x1="1347.04" y1="393.502" x2="1552.54" y2="424.694" stroke="white" stroke-width="2"/>
<line x1="1346.99" y1="360.469" x2="1552.5" y2="382.488" stroke="white" stroke-width="2"/>
<path d="M1526.7 249.469V297.174L1361.56 286.165V249.469H1526.7Z" fill="#269984"/>
<path opacity="0.2" d="M1526.7 249.469V297.174L1361.56 286.165V284.33L1523.03 293.504V249.469H1526.7Z" fill="black"/>
<line x1="1107.34" y1="426.657" x2="901.838" y2="474.363" stroke="white" stroke-width="2"/>
<line x1="1107.26" y1="395.479" x2="901.762" y2="426.671" stroke="white" stroke-width="2"/>
<line x1="1107.22" y1="362.458" x2="901.718" y2="384.476" stroke="white" stroke-width="2"/>
<path d="M927.299 249.469V297.174L1092.43 286.165V249.469H927.299Z" fill="#269984"/>
<path opacity="0.2" d="M927.299 249.469V297.174L1092.43 286.165V284.33L930.968 293.504V249.469H927.299Z" fill="black"/>
<line x1="1157.65" y1="146.535" x2="1301.21" y2="148.3" stroke="#3F3D56" stroke-width="2"/>
<path d="M1163.43 154.872L1164.66 153.586L1158.32 147.545L1164.81 141.659L1163.61 140.343L1155.71 147.513L1163.43 154.872Z" fill="#36D6BA"/>
<path d="M1295.22 156.494L1294.02 155.177L1300.51 149.294L1294.17 143.25L1295.4 141.965L1303.12 149.326L1295.22 156.494Z" fill="#36D6BA"/>
<circle cx="1229.41" cy="148.417" r="12.0122" fill="#36D6BA"/>
<path d="M1259.58 556.543C1259.58 556.543 1269.02 564.493 1273.99 563.996C1278.96 563.499 1288.4 563.499 1284.42 568.965C1280.45 574.431 1264.05 577.412 1257.09 577.91C1250.13 578.406 1234.73 578.903 1235.72 575.922C1236.72 572.941 1237.71 559.026 1241.69 558.033C1245.66 557.039 1259.58 556.543 1259.58 556.543Z" fill="black"/>
<path d="M1205.39 548.736C1205.39 548.736 1212.34 558.931 1217.26 559.788C1222.18 560.646 1231.28 563.183 1225.98 567.379C1220.68 571.576 1204.09 570.04 1197.25 568.649C1190.42 567.258 1175.45 563.597 1177.21 560.992C1178.96 558.388 1183.66 545.253 1187.76 545.364C1191.85 545.475 1205.39 548.736 1205.39 548.736Z" fill="black"/>
<path d="M1265.11 402.927C1265.11 402.927 1271.5 446.725 1270.01 454.676C1268.52 462.626 1267.53 475.049 1267.53 475.049C1267.53 475.049 1268.52 485.484 1267.53 490.453C1266.53 495.422 1260.57 542.628 1260.57 543.622C1260.57 544.616 1261.56 547.597 1260.57 550.082C1259.58 552.566 1257.59 550.579 1260.57 554.555C1263.55 558.53 1261.56 559.524 1261.07 559.524C1260.57 559.524 1241.19 561.511 1240.2 559.524C1239.2 557.536 1240.69 557.039 1240.2 554.555C1239.7 552.07 1239.2 551.573 1238.21 551.076C1237.22 550.579 1235.23 551.573 1236.72 549.089C1238.21 546.604 1241.69 543.622 1240.69 542.132C1239.7 540.641 1241.19 529.709 1241.19 529.709C1241.19 529.709 1242.18 505.36 1242.68 490.453C1243.18 475.545 1238.21 460.141 1238.21 460.141C1237.59 472.339 1233.06 484.013 1225.29 493.434C1212.37 508.839 1205.91 537.66 1205.91 537.66C1205.91 537.66 1202.93 542.132 1204.42 546.107C1205.91 550.082 1210.38 547.597 1205.91 550.082C1201.44 552.566 1186.03 549.089 1184.54 547.597C1183.05 546.107 1186.53 544.12 1185.54 540.144C1184.54 536.168 1180.57 537.163 1184.05 535.175C1187.52 533.187 1188.52 533.684 1188.52 531.697C1188.52 529.709 1197.46 486.478 1211.38 474.055L1212.37 428.836C1212.37 428.836 1199.95 397.034 1212.87 394.052C1225.79 391.071 1265.11 402.927 1265.11 402.927Z" fill="black"/>
<path d="M1256.1 285.229C1256.1 285.229 1247.65 306.099 1249.64 309.08C1251.63 312.062 1225.29 299.142 1225.29 299.142C1225.29 299.142 1233.74 278.272 1233.74 275.788C1233.74 273.303 1256.1 285.229 1256.1 285.229Z" fill="#A0616A"/>
<circle cx="1249.89" cy="272.061" r="18.3857" fill="#A0616A"/>
<path d="M1225.29 290.695C1225.29 290.695 1238.21 289.204 1244.67 297.155C1251.13 305.106 1252.12 307.093 1252.12 307.093C1252.12 307.093 1267.53 331.939 1264.54 344.362C1263.82 345.483 1263.15 346.644 1262.56 347.84C1261.56 349.827 1261.56 377.654 1262.56 382.127C1263.55 386.599 1264.54 388.09 1263.55 394.55C1262.56 401.009 1271.5 411.444 1261.07 413.432C1250.63 415.419 1242.68 413.929 1239.2 409.457C1235.72 404.985 1238.71 402.003 1227.77 402.003C1216.84 402.003 1209.88 394.55 1209.88 394.55C1209.88 394.55 1215.35 388.586 1213.36 387.592C1211.38 386.599 1213.36 384.115 1214.36 381.63C1215.35 379.146 1215.35 377.158 1213.86 377.158C1212.37 377.158 1213.36 376.164 1214.36 373.679C1215.35 371.194 1196.97 328.46 1207.9 316.038C1218.83 303.615 1224.29 296.658 1224.29 296.658C1224.29 296.658 1222.31 289.204 1225.29 290.695Z" fill="#36D6BA"/>
<path d="M1253.61 337.902V359.766L1269.51 412.438C1269.51 412.438 1279.95 439.769 1269.51 439.769C1259.08 439.769 1259.64 413.683 1259.64 413.683L1237.22 374.177C1237.22 374.177 1228.27 342.871 1229.26 340.386C1230.26 337.902 1253.61 337.902 1253.61 337.902Z" fill="#A0616A"/>
<path d="M1245.17 305.602C1245.17 305.602 1260.07 311.565 1256.1 327.467C1252.12 343.367 1256.1 342.871 1256.1 342.871C1256.1 342.871 1235.72 340.883 1229.26 345.355L1227.77 339.392C1227.77 339.392 1221.81 305.106 1245.17 305.602Z" fill="#36D6BA"/>
<path d="M1256.16 258.258C1258.49 259.085 1261.09 258.682 1263.06 257.186C1264.93 255.643 1265.72 252.795 1264.62 250.633C1263.67 248.766 1261.63 247.741 1259.68 246.977C1255.38 245.293 1250.84 244.269 1246.23 243.94C1244.04 243.783 1241.73 243.808 1239.76 244.813C1238.79 245.309 1237.95 246.026 1236.99 246.542C1235.22 247.488 1233.17 247.698 1231.26 248.308C1227.3 249.597 1224.1 252.538 1222.48 256.371C1221.96 257.657 1221.6 259.001 1221.4 260.373C1220.83 264.132 1221.23 267.974 1222.56 271.534C1224.68 277.174 1229.12 282.104 1229.37 288.123C1232.09 286.151 1233.1 282.59 1235.28 280.033C1236.9 278.143 1239.11 276.858 1241.56 276.39C1242.24 276.348 1242.89 276.111 1243.43 275.707C1243.81 275.254 1244.05 274.7 1244.12 274.113L1245.98 265.327C1246.36 263.54 1246.83 261.591 1248.3 260.505C1249.22 259.919 1250.26 259.553 1251.34 259.436C1253.9 258.988 1256.5 258.75 1259.1 258.727" fill="black"/>
</svg>
