<svg width="330" height="330" viewBox="0 0 330 330" fill="none" xmlns="http://www.w3.org/2000/svg">
<mask id="mask0_1_7153" style="mask-type:alpha" maskUnits="userSpaceOnUse" x="0" y="0" width="330" height="330">
<path d="M0 0H330V330H0V0Z" fill="black"/>
</mask>
<g mask="url(#mask0_1_7153)">
<path d="M0 1.32155H330V331.321H0V1.32155Z" fill="white"/>
<path opacity="0.4" d="M-135.479 -10.0404H224.144V273.906H-135.479V-10.0404Z" fill="#F2F2F2"/>
<path d="M320.431 313.949C320.431 313.949 320.011 313.387 319.428 312.757L319.596 312.699C319.596 312.699 312.097 293.956 313.767 286.042C315.437 278.128 307.102 258.97 307.102 258.97C307.102 258.97 294.809 233.794 300.627 213.702C301.292 211.335 301.794 208.926 302.129 206.492C303.868 194.592 303.253 192.139 300.338 187.79L300.018 187.324C300.378 186.973 300.662 186.553 300.853 186.089C303.353 179.425 289.194 167.347 292.96 156.098C296.436 145.673 287.388 124.163 286.044 121.07L285.892 120.717L285.44 120.865C285.515 118.178 286.573 115.613 288.412 113.654L288.496 113.57C289.746 112.42 291.264 111.575 292.435 110.341L292.503 110.262C292.619 110.151 292.74 110.041 292.85 109.926C294.011 108.708 294.803 106.901 294.173 105.336C293.601 103.908 291.994 103.035 291.616 101.544C291.525 100.874 291.468 100.198 291.447 99.5222C291.143 97.4221 289.1 96.1034 287.246 95.0638C284.941 93.7618 282.52 92.438 279.858 92.4067C276.255 92.4067 273.03 94.8225 269.454 95.1215C268.236 95.2266 266.97 95.0794 265.815 95.484C264.934 95.8507 264.125 96.3697 263.425 97.0172C263.013 97.3411 262.624 97.6919 262.259 98.0677C261.451 98.8238 260.763 99.7166 260.794 100.788C260.853 101.57 261.219 102.297 261.813 102.81C257.453 108.741 258.726 117.083 264.657 121.444C265.281 121.903 265.944 122.307 266.639 122.65C266.681 122.939 266.723 123.233 266.765 123.543C267.29 127.486 267.6 133.065 266.198 137.433C260.216 140.516 250.895 145.542 249.225 147.773C248.963 148.156 248.882 148.634 249.004 149.082C248.957 149.286 248.946 149.498 248.973 149.706C247.665 150.005 245.927 149.706 243.811 147.773C238.811 143.194 222.988 129.446 222.988 129.446C222.988 129.446 215.909 111.952 210.909 115.266C205.91 118.58 216.739 134.844 216.739 134.844L240.444 160.262C240.444 160.262 241.279 165.676 250.023 162.762C252.911 161.801 255.522 160.881 257.727 160.088L258.252 160.535C256.283 172.057 255.264 187.413 262.527 191.918C263.096 192.673 263.506 193.533 263.735 194.45C263.698 194.586 263.661 194.728 263.63 194.865C263.073 197.164 262.722 199.508 262.58 201.87C261.21 205 260.58 208.404 260.736 211.816L257.953 251.471C257.953 251.471 257.538 260.215 260.453 266.879C263.367 273.544 272.531 306.865 266.282 309.364L266.875 309.443C265.085 311.287 262.07 314.08 259.775 314.632C256.288 315.461 257.265 320.808 264.995 321.7C272.726 322.593 273.655 322.519 279.091 317.987C283.88 313.996 284.641 312.21 284.752 311.828L285.025 311.865C285.025 311.865 282.11 301.035 285.025 296.456C287.939 291.876 278.366 263.975 278.366 263.975C278.286 260.41 278.417 256.843 278.76 253.294C280.23 257.143 281.281 259.81 281.281 259.81C281.281 259.81 283.78 271.889 286.695 273.99C289.609 276.091 305.023 304.811 302.523 317.304L302.234 318.76L302.938 318.555H303.001C302.04 320.933 300.291 324.694 298.359 326.075C295.444 328.175 298.359 332.739 305.858 330.654C313.357 328.569 314.187 328.155 317.522 321.91C320.856 315.666 320.431 313.949 320.431 313.949Z" fill="url(#paint0_linear_1_7153)"/>
<path d="M265.237 202.742L263.41 200.489C261.541 203.962 260.649 207.877 260.831 211.816L258.111 250.589C258.111 250.589 257.701 259.138 260.553 265.656C263.405 272.173 272.364 304.749 266.256 307.19L284.558 309.664C284.558 309.664 281.706 299.077 284.558 294.597C287.41 290.117 278.041 262.835 278.041 262.835C278.041 262.835 277.227 240.033 284.962 234.734C292.698 229.436 265.237 202.742 265.237 202.742Z" fill="#555388"/>
<path d="M268.325 305.662C268.325 305.662 263.299 311.533 259.896 312.347C256.493 313.161 257.444 318.381 265 319.258C272.557 320.135 273.466 320.061 278.786 315.629C284.106 311.197 284.342 309.532 284.342 309.532C284.342 309.532 283.291 305.594 282.021 305.51C280.75 305.425 268.325 305.662 268.325 305.662Z" fill="black"/>
<path d="M266.461 203.966L263.415 200.489C261.546 203.962 260.655 207.877 260.837 211.816L258.116 250.589C258.116 250.589 257.707 259.138 260.558 265.656C263.41 272.173 272.369 304.749 266.261 307.19L284.558 309.664C284.558 309.664 281.706 299.077 284.558 294.597C287.409 290.117 278.041 262.835 278.041 262.835C278.041 262.835 277.227 240.033 284.962 234.734C292.698 229.436 266.461 203.966 266.461 203.966Z" fill="#36D6BA"/>
<path d="M284.589 257.106C284.589 257.106 279.5 157.216 258.61 121.863C258.61 121.863 243.291 93.8822 230.487 85.7214V82.497C209.597 68.034 183.89 82.497 183.89 82.497V83.9254L178.534 88.3892L154.413 88.3049C152.203 85.6415 148.921 84.1011 145.459 84.1038H35.3969C32.1444 84.1002 29.0393 85.4603 26.8368 87.8531H1.78695C1.78695 87.8531 0.311167 86.1365 -3.56984 84.4082V82.497C-24.4604 68.034 -50.167 82.497 -50.167 82.497V86.3778C-50.7776 86.7811 -51.3202 87.2791 -51.774 87.8531C-51.774 87.8531 -72.9324 102.032 -77.7535 119.72C-77.7535 119.72 -103.733 197.653 -104.269 258.713C-104.804 319.773 -81.2351 328.343 -68.9202 329.951C-56.6052 331.558 -34.6433 329.425 -13.2168 275.335L-4.11089 243.736C-4.11089 243.736 -2.50382 224.988 16.78 236.772C36.0638 248.557 53.1996 230.344 53.1996 230.344H125.514C125.514 230.344 149.592 245.322 171.575 233.516C171.575 233.516 180.146 222.268 188.181 260.299C188.181 260.299 212.821 338.501 250.848 330.466C288.874 322.431 284.589 257.106 284.589 257.106Z" fill="url(#paint1_linear_1_7153)"/>
<path d="M182.068 90.6373V84.8602C182.068 84.8602 207.275 70.6815 227.756 84.8602V90.1122L182.068 90.6373Z" fill="black"/>
<path opacity="0.1" d="M182.068 90.6373V84.8602C182.068 84.8602 207.275 70.6815 227.756 84.8602V90.1122L182.068 90.6373Z" fill="black"/>
<path d="M28.1974 90.1122H3.51486C3.51486 90.1122 -2.78708 82.76 -23.7931 83.2849C-44.7995 83.81 -49.0009 90.1122 -49.0009 90.1122C-49.0009 90.1122 -69.7445 104.029 -74.4709 121.359C-74.4709 121.359 -99.9411 197.769 -100.466 257.637C-100.991 317.504 -77.8845 325.907 -65.8059 327.483C-53.7273 329.058 -32.1956 326.957 -11.1896 273.916L-2.26182 242.932C-2.26182 242.932 -0.686221 224.552 18.2193 236.105C37.1248 247.659 53.9301 229.803 53.9301 229.803H124.826C124.826 229.803 148.458 244.507 169.99 232.955C169.99 232.955 178.392 221.926 186.27 259.212C186.27 259.212 210.427 335.885 247.713 328.008C284.999 320.13 280.798 256.061 280.798 256.061C280.798 256.061 275.809 158.12 255.328 123.46C255.328 123.46 235.634 87.4862 222.505 85.9109C222.505 85.9109 194.147 80.6591 183.118 85.3855L176.817 90.6368L28.1974 90.1122Z" fill="black"/>
<ellipse cx="-29.0446" cy="141.577" rx="45.6886" ry="45.6886" fill="white"/>
<ellipse cx="209.376" cy="141.577" rx="45.6886" ry="45.6886" fill="white"/>
<path d="M-18.8567 149.549L-24.2343 143.441C-25.1763 142.375 -25.1763 140.774 -24.2343 139.708L-18.846 133.606C-18.3144 133.002 -17.5499 132.654 -16.7454 132.65H-1.9362C-0.378569 132.647 0.886357 133.907 0.889169 135.464V135.475V147.685C0.892346 149.243 -0.36821 150.507 -1.92551 150.51H-1.93086H-16.7401C-17.5512 150.509 -18.3223 150.159 -18.8567 149.549Z" fill="black"/>
<path d="M4.56455 133.7V149.455L11.3916 141.577L4.56455 133.7Z" stroke="#535461" stroke-width="2"/>
<ellipse cx="32.9235" cy="191.467" rx="33.0849" ry="33.0849" fill="white"/>
<ellipse cx="31.8731" cy="186.216" rx="22.0566" ry="22.0566" fill="black"/>
<ellipse cx="147.408" cy="191.467" rx="33.0849" ry="33.0849" fill="white"/>
<ellipse cx="146.357" cy="186.216" rx="22.0566" ry="22.0566" fill="black"/>
<ellipse opacity="0.1" cx="31.8733" cy="186.215" rx="14.7044" ry="14.7044" fill="#D9D9D9" stroke="black" stroke-width="2"/>
<ellipse opacity="0.1" cx="146.358" cy="186.215" rx="14.7044" ry="14.7044" fill="#D9D9D9" stroke="black" stroke-width="2"/>
<ellipse cx="91.2158" cy="195.143" rx="9.45282" ry="9.45282" fill="white"/>
<ellipse cx="76.7688" cy="163.592" rx="2.06386" ry="2.06386" fill="white"/>
<ellipse cx="84.4996" cy="163.592" rx="2.06386" ry="2.06386" fill="white"/>
<ellipse cx="83.4699" cy="173.386" rx="2.06386" ry="2.06386" fill="white"/>
<ellipse cx="90.6908" cy="173.612" rx="2.10063" ry="2.10063" fill="white"/>
<ellipse cx="97.9008" cy="173.386" rx="2.06386" ry="2.06386" fill="white"/>
<ellipse cx="80.377" cy="168.749" rx="2.06386" ry="2.06386" fill="white"/>
<ellipse cx="87.0142" cy="168.886" rx="2.10063" ry="2.10063" fill="white"/>
<ellipse cx="93.8414" cy="168.886" rx="2.10063" ry="2.10063" fill="white"/>
<ellipse cx="100.994" cy="168.749" rx="2.06386" ry="2.06386" fill="white"/>
<ellipse cx="90.6908" cy="163.634" rx="2.10063" ry="2.10063" fill="white"/>
<ellipse cx="98.0432" cy="163.634" rx="2.10063" ry="2.10063" fill="white"/>
<ellipse cx="104.088" cy="163.592" rx="2.06386" ry="2.06386" fill="white"/>
<path d="M8.24122 99.5651C8.24122 96.3747 10.8276 93.7884 14.0179 93.7884C17.2083 93.7884 19.7947 96.3747 19.7947 99.5651V107.968C19.7947 111.158 17.2083 113.744 14.0179 113.744C10.8276 113.744 8.24122 111.158 8.24122 107.968V99.5651Z" fill="white"/>
<path d="M161.587 99.5651C161.587 96.3747 164.173 93.7884 167.364 93.7884C170.554 93.7884 173.14 96.3747 173.14 99.5651V107.968C173.14 111.158 170.554 113.744 167.364 113.744C164.173 113.744 161.587 111.158 161.587 107.968V99.5651Z" fill="white"/>
<ellipse cx="209.901" cy="113.744" rx="12.6038" ry="12.6038" fill="black"/>
<ellipse cx="183.118" cy="140.527" rx="12.6038" ry="12.6038" fill="black"/>
<ellipse cx="237.734" cy="138.951" rx="12.6038" ry="12.6038" fill="black"/>
<ellipse cx="212.002" cy="166.784" rx="12.6038" ry="12.6038" fill="black"/>
<path d="M25.0464 121.359C25.0464 102.072 40.6819 86.436 59.9693 86.436H120.887C140.175 86.436 155.81 102.072 155.81 121.359C155.81 140.646 140.175 156.282 120.887 156.282H59.9693C40.6819 156.282 25.0464 140.646 25.0464 121.359Z" fill="white"/>
<path d="M202.286 118.996L209.639 106.392L217.516 118.996H202.286Z" stroke="#E2E2EC" stroke-width="2"/>
<path d="M176.554 134.75H189.683V146.304H176.554V134.75Z" fill="#D9D9D9" stroke="#E2E2EC" stroke-width="2"/>
<ellipse cx="237.735" cy="138.952" rx="7.35219" ry="7.35219" fill="#D9D9D9" stroke="#E2E2EC" stroke-width="2"/>
<line x1="206.67" y1="160.169" x2="218.486" y2="171.985" stroke="#E2E2EC" stroke-width="2"/>
<line x1="218.734" y1="161.601" x2="206.655" y2="173.154" stroke="#E2E2EC" stroke-width="2"/>
<path d="M302.906 314.122C302.906 314.122 300.464 321.475 297.613 323.491C294.761 325.508 297.613 330.009 304.965 327.971C312.317 325.934 313.11 325.529 316.366 319.422C319.622 313.314 319.218 311.686 319.218 311.686C319.218 311.686 316.775 308.429 315.542 308.834C314.307 309.239 302.906 314.122 302.906 314.122Z" fill="black"/>
<path d="M287.84 131.274C287.84 131.274 254.855 149.597 262.591 144.303C267.79 140.748 267.474 131.31 266.708 125.497C266.466 123.685 266.183 122.225 266.009 121.406C265.91 120.944 265.847 120.687 265.847 120.687C265.847 120.687 281.843 111.087 280.945 116.858C280.945 116.911 280.945 116.963 280.919 117.016C280.841 117.401 280.801 117.794 280.798 118.187C280.687 124.121 287.84 131.274 287.84 131.274Z" fill="#C87486"/>
<path d="M251.998 149.192C251.998 149.192 249.146 153.672 244.262 149.192C239.378 144.713 223.902 131.274 223.902 131.274C223.902 131.274 216.98 114.169 212.086 117.43C207.191 120.692 217.789 136.573 217.789 136.573L241.001 161.412C241.001 161.412 241.815 166.706 250.37 163.854C258.925 161.003 265.032 158.561 265.032 158.561L251.998 149.192Z" fill="#C87486"/>
<path d="M318.383 310.457L302.103 316.16L301.416 316.36L301.699 314.937C304.141 302.721 289.095 274.62 286.223 272.583C283.35 270.545 280.919 258.724 280.919 258.724C280.919 258.724 275.583 231.846 274.769 226.164C274.564 224.741 273.818 223.607 272.915 222.042C271.553 219.67 270.494 217.136 269.764 214.5C267.974 208.198 263.798 197.013 265.332 190.685C265.642 189.398 264.376 192.686 264.807 191.43L265.054 190.738L298.023 186.252C298.57 186.917 299.082 187.609 299.556 188.327C302.051 192.029 301.888 192.029 302.413 199.066C302.186 203.312 301.587 207.53 300.622 211.67C296.185 231.431 306.194 257.884 306.194 257.884C306.194 257.884 314.34 276.616 312.712 284.352C311.084 292.087 318.383 310.457 318.383 310.457Z" fill="#36D6BA"/>
<path opacity="0.1" d="M299.555 188.321C294.677 194.44 263.425 199.193 263.814 197.249C263.931 196.579 263.88 195.889 263.666 195.243C263.977 193.953 264.352 192.678 264.79 191.425L265.037 190.732L298.022 186.252C298.569 186.915 299.081 187.606 299.555 188.321Z" fill="black"/>
<path d="M285.397 122.708C285.397 122.708 271.953 126.794 268.277 136.163C264.601 145.532 271.066 146.041 271.066 146.041C271.066 146.041 259.513 176.5 262.574 192.36C262.574 192.36 264.202 194.398 263.798 196.43C263.394 198.462 297.597 193.174 300.033 186.657C302.471 180.14 288.632 168.335 292.298 157.338C295.963 146.341 285.397 122.708 285.397 122.708Z" fill="#FBB03B"/>
<path opacity="0.1" d="M280.918 117.835C280.895 117.957 280.854 118.076 280.797 118.187C280.24 119.237 278.471 118.087 279.085 119.663C276.722 122.036 275.976 126.789 272.368 126.789C270.407 126.795 268.469 126.355 266.702 125.502C266.46 123.691 266.177 122.231 266.003 121.411C267.579 120.476 280.182 113.177 280.939 116.863C280.998 117.185 280.99 117.516 280.918 117.835Z" fill="black"/>
<ellipse cx="272.364" cy="112.951" rx="13.0291" ry="13.0291" fill="#C87486"/>
<path opacity="0.1" d="M285.398 154.486L262.596 165.073C262.596 165.073 247.12 153.268 249.561 150.017C252.003 146.766 271.145 137.413 271.145 137.413C271.145 137.413 290.692 141.457 285.398 154.486Z" fill="black"/>
<path d="M285.398 153.693L262.595 164.28C262.595 164.28 247.119 152.469 249.566 149.214C252.014 145.958 271.15 136.61 271.15 136.61C271.15 136.61 290.691 140.643 285.398 153.693Z" fill="#FBB03B"/>
<path opacity="0.1" d="M268.603 107.368C266.613 107.169 264.554 106.949 262.826 105.945C261.823 105.367 260.904 104.412 260.873 103.251C260.836 101.886 261.986 100.82 263.041 99.9533C263.726 99.3207 264.517 98.8139 265.378 98.4565C266.507 98.0627 267.742 98.2045 268.934 98.1045C272.442 97.8104 275.582 95.4259 279.106 95.447C281.695 95.447 284.074 96.7707 286.327 98.0468C288.128 99.0659 290.129 100.357 290.428 102.406C290.448 103.066 290.503 103.725 290.591 104.38C290.964 105.84 292.534 106.691 293.096 108.088C293.711 109.616 292.933 111.386 291.799 112.578C290.665 113.77 289.173 114.589 287.981 115.703C285.744 117.777 284.498 120.708 284.557 123.758C284.584 123.957 284.553 124.159 284.468 124.342C284.285 124.562 284.018 124.695 283.732 124.709C282.436 124.95 280.834 125.082 280.056 124.01C279.279 122.939 279.894 121.154 279.006 120.098C277.877 118.738 275.503 119.82 273.975 118.927C273.46 118.593 273.057 118.112 272.82 117.546C271.559 114.831 273.003 112.699 273.529 110.104C274.143 107.074 270.74 107.584 268.603 107.368Z" fill="black"/>
<path d="M269.012 106.954C267.022 106.754 264.963 106.534 263.236 105.53C262.233 104.953 261.314 103.997 261.282 102.836C261.246 101.471 262.396 100.405 263.451 99.538C264.136 98.9058 264.927 98.3993 265.788 98.0414C266.917 97.6483 268.152 97.7891 269.344 97.6899C272.851 97.3958 275.992 95.0113 279.516 95.0324C282.105 95.0324 284.484 96.3559 286.737 97.6319C288.538 98.6509 290.539 99.9426 290.838 101.991C290.858 102.651 290.913 103.31 291.001 103.965C291.374 105.425 292.944 106.276 293.506 107.673C294.12 109.201 293.343 110.971 292.209 112.163C291.074 113.355 289.583 114.174 288.391 115.288C286.146 117.366 284.898 120.306 284.962 123.365C284.988 123.563 284.957 123.766 284.873 123.948C284.69 124.168 284.423 124.301 284.137 124.315C282.84 124.556 281.238 124.688 280.461 123.617C279.684 122.545 280.298 120.76 279.411 119.704C278.282 118.344 275.908 119.426 274.38 118.533C273.865 118.199 273.462 117.718 273.224 117.152C271.953 114.432 273.403 112.284 273.928 109.663C274.548 106.665 271.145 107.179 269.012 106.954Z" fill="black"/>
</g>
<defs>
<linearGradient id="paint0_linear_1_7153" x1="300.163" y1="-1747.35" x2="300.163" y2="-1508.57" gradientUnits="userSpaceOnUse">
<stop stop-color="#808080" stop-opacity="0.25098"/>
<stop offset="0.54" stop-color="#808080" stop-opacity="0.121569"/>
<stop offset="1" stop-color="#808080" stop-opacity="0.101961"/>
</linearGradient>
<linearGradient id="paint1_linear_1_7153" x1="125.372" y1="-1747.21" x2="125.372" y2="-1492.23" gradientUnits="userSpaceOnUse">
<stop stop-color="#808080" stop-opacity="0.25098"/>
<stop offset="0.54" stop-color="#808080" stop-opacity="0.121569"/>
<stop offset="1" stop-color="#808080" stop-opacity="0.101961"/>
</linearGradient>
</defs>
</svg>
