<svg width="330" height="330" viewBox="0 0 330 330" fill="none" xmlns="http://www.w3.org/2000/svg">
<mask id="mask0_1_7063" style="mask-type:alpha" maskUnits="userSpaceOnUse" x="0" y="0" width="330" height="330">
<path d="M0 0H330V330H0V0Z" fill="black"/>
</mask>
<g mask="url(#mask0_1_7063)">
<path d="M0 0H330V330H0V0Z" fill="white"/>
<path opacity="0.4" d="M21.2568 17.2469H311.56V208.198H21.2568V17.2469Z" fill="#F2F2F2"/>
<path d="M284.018 311.908C279.419 317.942 284.691 329.694 284.691 329.694C284.691 329.694 297.42 331.662 302.019 325.627C306.618 319.593 301.347 307.841 301.347 307.841C301.347 307.841 288.618 305.873 284.018 311.908Z" fill="#36D6BA"/>
<path d="M-49.5883 132.54H397.635V133.463H-49.5883V132.54Z" fill="#2F2E41"/>
<path d="M-4.12747 123.54C-23.4994 123.54 -39.2035 107.836 -39.2035 88.4638C-39.2035 69.0918 -23.4994 53.3874 -4.12747 53.3874C15.2449 53.3874 30.9491 69.0918 30.9491 88.4638C30.9273 107.827 15.2359 123.518 -4.12747 123.54ZM-4.12747 54.3106C-22.9899 54.3106 -38.2804 69.6014 -38.2804 88.4638C-38.2804 107.326 -22.9899 122.617 -4.12747 122.617C14.7352 122.617 30.0258 107.326 30.0258 88.4638C30.0048 69.6103 14.7261 54.332 -4.12747 54.3106Z" fill="#2F2E41"/>
<path d="M-4.12796 46.2335C-16.089 46.2335 -25.8197 38.3141 -25.8197 28.58C-25.8197 18.8457 -16.089 10.9262 -4.12796 10.9262C7.83312 10.9262 17.5638 18.8457 17.5638 28.58C17.5638 38.3141 7.83312 46.2335 -4.12796 46.2335ZM-4.12796 11.6775C-15.5802 11.6775 -24.8966 19.2601 -24.8966 28.58C-24.8966 37.8999 -15.5802 45.4823 -4.12796 45.4823C7.32425 45.4823 16.6408 37.8999 16.6408 28.58C16.6408 19.2601 7.32425 11.6775 -4.12796 11.6775Z" fill="#2F2E41"/>
<path d="M6.02663 38.157C3.4385 38.157 1.41144 34.3048 1.41144 29.3878C1.41144 24.4704 3.4385 20.6185 6.02663 20.6185C8.61477 20.6185 10.6419 24.4704 10.6419 29.3878C10.6419 34.3048 8.61477 38.157 6.02663 38.157ZM6.02663 21.5417C4.02489 21.5417 2.33443 25.1347 2.33443 29.3878C2.33443 33.6407 4.02489 37.2338 6.02663 37.2338C8.02838 37.2338 9.71896 33.6407 9.71896 29.3878C9.71896 25.1347 8.02838 21.5417 6.02663 21.5417Z" fill="#2F2E41"/>
<path d="M41.1027 79.6943C30.907 79.6943 22.6418 71.4292 22.6418 61.2333C22.6418 51.0374 30.907 42.7722 41.1027 42.7722C51.2986 42.7722 59.5642 51.0374 59.5642 61.2333C59.5524 71.4244 51.2938 79.683 41.1027 79.6943ZM41.1027 43.695C31.4168 43.695 23.5647 51.5473 23.5647 61.2333C23.5647 70.9192 31.4168 78.7715 41.1027 78.7715C50.7887 78.7715 58.6411 70.9192 58.6411 61.2333C58.63 51.5517 50.7842 43.706 41.1027 43.695Z" fill="#2F2E41"/>
<path d="M-4.12784 132.77C-10.727 132.77 -15.8966 130.54 -15.8966 127.694C-15.8966 124.846 -10.727 122.617 -4.12784 122.617C2.47174 122.617 7.64128 124.846 7.64128 127.694C7.64128 130.54 2.47174 132.77 -4.12784 132.77ZM-4.12784 123.54C-10.6154 123.54 -14.9738 125.688 -14.9738 127.694C-14.9738 129.699 -10.6154 131.847 -4.12784 131.847C2.35986 131.847 6.7183 129.699 6.7183 127.694C6.7183 125.688 2.35986 123.54 -4.12784 123.54Z" fill="#2F2E41"/>
<path d="M152.332 123.54C132.959 123.54 117.255 107.836 117.255 88.4638C117.255 69.0918 132.959 53.3874 152.332 53.3874C171.704 53.3874 187.408 69.0918 187.408 88.4638C187.386 107.827 171.695 123.518 152.332 123.54ZM152.332 54.3106C133.47 54.3106 118.178 69.6014 118.178 88.4638C118.178 107.326 133.47 122.617 152.332 122.617C171.194 122.617 186.485 107.326 186.485 88.4638C186.464 69.6103 171.185 54.332 152.332 54.3106Z" fill="#2F2E41"/>
<path d="M152.331 54.3103C140.351 54.3103 130.639 44.5984 130.639 32.6184C130.639 20.6383 140.351 10.9262 152.331 10.9262C164.312 10.9262 174.023 20.6383 174.023 32.6184C174.01 44.5929 164.306 54.2968 152.331 54.3103ZM152.331 11.8493C140.861 11.8493 131.562 21.1479 131.562 32.6184C131.562 44.0887 140.861 53.3871 152.331 53.3871C163.802 53.3871 173.1 44.0887 173.1 32.6184C173.087 21.1532 163.796 11.8622 152.331 11.8493Z" fill="#2F2E41"/>
<path d="M142.178 38.157C139.59 38.157 137.562 34.3048 137.562 29.3878C137.562 24.4704 139.59 20.6185 142.178 20.6185C144.766 20.6185 146.793 24.4704 146.793 29.3878C146.793 34.3048 144.766 38.157 142.178 38.157ZM142.178 21.5417C140.176 21.5417 138.485 25.1347 138.485 29.3878C138.485 33.6407 140.176 37.2338 142.178 37.2338C144.179 37.2338 145.87 33.6407 145.87 29.3878C145.87 25.1347 144.179 21.5417 142.178 21.5417Z" fill="#2F2E41"/>
<path d="M162.486 38.157C159.898 38.157 157.87 34.3048 157.87 29.3878C157.87 24.4704 159.898 20.6185 162.486 20.6185C165.074 20.6185 167.101 24.4704 167.101 29.3878C167.101 34.3048 165.074 38.157 162.486 38.157ZM162.486 21.5417C160.484 21.5417 158.793 25.1347 158.793 29.3878C158.793 33.6407 160.484 37.2338 162.486 37.2338C164.487 37.2338 166.178 33.6407 166.178 29.3878C166.178 25.1347 164.487 21.5417 162.486 21.5417Z" fill="#2F2E41"/>
<path d="M201.715 126.309C191.519 126.309 183.254 118.043 183.254 107.848C183.254 97.6517 191.519 89.3865 201.715 89.3865C211.911 89.3865 220.176 97.6517 220.176 107.848C220.165 118.039 211.906 126.297 201.715 126.309ZM201.715 90.3095C192.029 90.3095 184.177 98.1616 184.177 107.848C184.177 117.534 192.029 125.386 201.715 125.386C211.401 125.386 219.253 117.534 219.253 107.848C219.242 98.1663 211.397 90.3205 201.715 90.3095Z" fill="#2F2E41"/>
<path d="M99.6019 104.617C89.4061 104.681 81.089 96.4677 81.0249 86.2719C80.961 76.076 89.1749 67.7589 99.3707 67.6949C109.566 67.631 117.884 75.8444 117.948 86.0403C117.948 86.0789 117.948 86.1177 117.948 86.1561C117.968 96.3154 109.761 104.574 99.6019 104.617ZM99.6019 68.618C89.9158 68.5574 82.0148 76.3602 81.954 86.0463C81.8932 95.7322 89.6964 103.634 99.3823 103.694C109.068 103.755 116.97 95.9521 117.03 86.2659C117.03 86.2294 117.031 86.1929 117.031 86.1561C117.05 76.5048 109.253 68.6594 99.6019 68.618Z" fill="#2F2E41"/>
<path d="M152.332 132.77C145.732 132.77 140.562 130.54 140.562 127.694C140.562 124.846 145.732 122.617 152.332 122.617C158.931 122.617 164.1 124.846 164.1 127.694C164.1 130.54 158.931 132.77 152.332 132.77ZM152.332 123.54C145.844 123.54 141.485 125.688 141.485 127.694C141.485 129.699 145.844 131.847 152.332 131.847C158.819 131.847 163.177 129.699 163.177 127.694C163.177 125.688 158.819 123.54 152.332 123.54Z" fill="#2F2E41"/>
<path d="M313.867 124.924C294.495 124.924 278.791 109.22 278.791 89.8477C278.791 70.4758 294.495 54.7714 313.867 54.7714C333.239 54.7714 348.944 70.4758 348.944 89.8477C348.922 109.211 333.23 124.902 313.867 124.924ZM313.867 55.6946C295.005 55.6946 279.714 70.9857 279.714 89.8477C279.714 108.71 295.005 124.001 313.867 124.001C332.73 124.001 348.02 108.71 348.02 89.8477C347.999 70.9945 332.721 55.716 313.867 55.6946Z" fill="#2F2E41"/>
<path d="M332.329 58.9257C320.349 58.9257 310.637 49.214 310.637 37.2339C310.637 25.2538 320.349 15.542 332.329 15.542C344.309 15.542 354.021 25.2538 354.021 37.2339C354.007 49.2083 344.303 58.9122 332.329 58.9257ZM332.329 16.4648C320.859 16.4648 311.56 25.7634 311.56 37.2339C311.56 48.7041 320.859 58.0026 332.329 58.0026C343.799 58.0026 353.098 48.7041 353.098 37.2339C353.085 25.7687 343.794 16.4777 332.329 16.4648Z" fill="#2F2E41"/>
<path d="M322.174 51.0794C319.586 51.0794 317.559 47.2277 317.559 42.3104C317.559 37.3932 319.586 33.5411 322.174 33.5411C324.763 33.5411 326.79 37.3932 326.79 42.3104C326.79 47.2277 324.763 51.0794 322.174 51.0794ZM322.174 34.4642C320.173 34.4642 318.482 38.0575 318.482 42.3104C318.482 46.5633 320.173 50.1563 322.174 50.1563C324.176 50.1563 325.867 46.5633 325.867 42.3104C325.867 38.0575 324.176 34.4642 322.174 34.4642Z" fill="#2F2E41"/>
<path d="M261.253 106.002C251.057 106.002 242.792 97.7359 242.792 87.5402C242.792 77.3444 251.057 69.0791 261.253 69.0791C271.449 69.0791 279.714 77.3444 279.714 87.5402C279.703 97.7312 271.444 105.99 261.253 106.002ZM261.253 70.002C251.567 70.002 243.715 77.8542 243.715 87.5402C243.715 97.2264 251.567 105.078 261.253 105.078C270.939 105.078 278.791 97.2264 278.791 87.5402C278.78 77.8589 270.934 70.0132 261.253 70.002Z" fill="#2F2E41"/>
<path d="M299.79 132.309C293.191 132.309 288.022 130.079 288.022 127.232C288.022 124.385 293.191 122.155 299.79 122.155C306.39 122.155 311.56 124.385 311.56 127.232C311.56 130.079 306.39 132.309 299.79 132.309ZM299.79 123.079C293.303 123.079 288.945 125.226 288.945 127.232C288.945 129.238 293.303 131.386 299.79 131.386C306.278 131.386 310.637 129.238 310.637 127.232C310.637 125.226 306.278 123.079 299.79 123.079Z" fill="#2F2E41"/>
<path d="M99.7283 32.6308C85.2868 17.3262 53.5094 23.3165 53.19 23.3788L53.0137 22.473C53.3381 22.4098 85.6124 16.3272 100.4 31.9972L99.7283 32.6308Z" fill="#36D6BA"/>
<path d="M103.41 36.7719C101.039 35.2901 97.7386 33.7281 95.1154 33.2052L99.5615 31.7817L102.067 27.844C101.906 30.514 102.578 34.1028 103.41 36.7719Z" fill="#36D6BA"/>
<path d="M244.65 57.5539C230.208 42.2487 198.431 48.2393 198.112 48.3016L197.935 47.3958C198.259 47.3326 230.534 41.2499 245.321 56.92L244.65 57.5539Z" fill="#36D6BA"/>
<path d="M248.33 61.6945C245.959 60.2127 242.658 58.651 240.035 58.1279L244.481 56.7044L246.987 52.7668C246.826 55.4366 247.498 59.0255 248.33 61.6945Z" fill="#36D6BA"/>
<path d="M224.328 159.08C224.328 159.08 217.28 159.08 216.497 163.387C215.714 167.694 214.539 214.681 215.322 220.555C216.105 226.428 216.105 225.253 216.105 225.253C216.105 225.253 214.544 236.415 218.065 236.903C221.587 237.392 221.587 224.079 221.587 224.079L224.328 176.308V159.08Z" fill="#9E616A"/>
<path d="M254.87 159.08C254.87 159.08 261.918 159.08 262.701 163.387C263.484 167.694 264.659 214.681 263.876 220.555C263.093 226.428 263.093 225.253 263.093 225.253C263.093 225.253 264.654 236.415 261.132 236.903C257.611 237.392 257.611 224.079 257.611 224.079L254.87 176.308V159.08Z" fill="#9E616A"/>
<path d="M223.153 322.752H220.021C216.128 322.752 212.972 325.907 212.972 329.799V329.8H232.159V320.794H223.153V322.752Z" fill="black"/>
<path d="M253.303 322.752H256.435C260.328 322.752 263.483 325.907 263.483 329.799V329.8H244.297V320.794H253.303V322.752Z" fill="#2F2E41"/>
<circle cx="236.466" cy="139.893" r="10.1806" fill="#9E616A"/>
<path d="M234.117 145.375C234.117 145.375 232.942 158.297 231.376 159.471C229.81 160.646 247.821 158.688 247.821 158.688C247.821 158.688 241.556 149.291 242.731 146.158C243.906 143.026 234.117 145.375 234.117 145.375Z" fill="#9E616A"/>
<path d="M257.219 159.079C257.219 159.079 235.682 150.074 221.586 159.079C221.586 159.079 218.062 168.085 220.803 173.176C223.544 178.266 227.852 190.405 223.544 198.627C219.237 206.85 223.936 203.326 223.936 203.326C223.936 203.326 218.454 225.253 217.671 242.482C216.888 259.711 220.02 321.577 222.37 321.969C224.719 322.36 232.159 323.143 232.942 321.969C233.725 320.794 239.207 238.958 239.207 238.958C239.207 238.958 241.556 322.752 243.905 322.752C246.255 322.752 252.52 322.752 253.695 320.794C254.869 318.836 264.658 243.265 261.134 227.602C257.61 211.94 255.261 204.109 255.261 204.109C255.261 204.109 259.568 201.368 258.393 199.802C257.219 198.235 251.345 181.399 254.086 178.657C256.827 175.916 257.219 159.079 257.219 159.079Z" fill="black"/>
<ellipse cx="242.927" cy="133.758" rx="16.4455" ry="16.4455" fill="black"/>
<path d="M253.196 125.525C247.44 124.172 243.761 118.537 244.838 112.722C244.79 112.891 244.745 113.061 244.704 113.233C243.311 119.19 247.01 125.15 252.967 126.544C258.917 127.936 264.871 124.248 266.274 118.301C266.315 118.129 266.35 117.957 266.382 117.784C264.757 123.47 258.953 126.877 253.196 125.525Z" fill="#2F2E41"/>
<ellipse cx="253.866" cy="119.62" rx="8.04781" ry="8.04781" fill="black"/>
<path d="M158.066 329.078H302.515V329.743H158.066V329.078Z" fill="black"/>
</g>
</svg>
