<svg width="215" height="198" viewBox="0 0 215 198" fill="none" xmlns="http://www.w3.org/2000/svg">
<g opacity="0.1">
<ellipse cx="65.3235" cy="138.102" rx="4.87337" ry="6.38077" fill="#269984"/>
<path d="M69.1827 110.802C69.8627 109.615 70.2145 108.268 70.2023 106.901C70.2023 103.376 68.0183 100.52 65.3245 100.52C62.6309 100.52 60.4339 103.385 60.4339 106.909C60.4215 108.277 60.7733 109.623 61.4533 110.81C60.0945 113.232 60.0945 116.186 61.4533 118.608C60.0945 121.03 60.0945 123.985 61.4533 126.407C60.7721 127.593 60.4205 128.94 60.4339 130.308C60.4339 133.828 62.6182 136.689 65.3074 136.689C67.9968 136.689 70.1852 133.828 70.1852 130.308C70.1986 128.94 69.8468 127.593 69.1656 126.407C70.5243 123.985 70.5243 121.03 69.1656 118.608C70.5243 116.186 70.5243 113.232 69.1656 110.81L69.1827 110.802Z" fill="#269984"/>
<ellipse cx="65.3235" cy="99.1109" rx="4.87337" ry="6.38077" fill="#269984"/>
<ellipse cx="65.3235" cy="91.3126" rx="4.87337" ry="6.38077" fill="#269984"/>
<path d="M47.0812 37.9412C46.4131 37.0944 45.8064 36.2015 45.2653 35.2691L58.0698 33.1659L44.2206 33.2689C41.5409 27.4235 41.3861 20.7323 43.7923 14.7689L62.3737 24.4088L45.2441 11.8097C51.6208 0.599809 65.8776 -3.31847 77.088 3.05801C88.2982 9.43475 92.2163 23.6917 85.8398 34.9019C85.2355 35.9642 84.5486 36.9777 83.7855 37.9324C84.8238 39.2513 85.717 40.6785 86.4492 42.1893L69.8205 50.8482L87.5457 44.9C90.0764 52.3752 88.6605 60.6226 83.7811 66.8257C91.7541 76.9603 90.0012 91.639 79.867 99.6113C69.7324 107.584 55.0537 105.831 47.0812 95.6967C40.418 87.2265 40.418 75.2961 47.0812 66.8257C40.4175 58.3553 40.4175 46.4243 47.0812 37.9539V37.9412Z" fill="#36D6BA"/>
<path opacity="0.1" d="M88.7787 52.3771C88.787 57.6146 87.0261 62.7017 83.781 66.8128C91.7538 76.9477 90.001 91.6261 79.8666 99.5987C69.732 107.571 55.0534 105.819 47.0808 95.6843C40.4177 87.2139 40.4177 75.2832 47.0808 66.8128C43.9507 62.8389 88.7787 49.7563 88.7787 52.3771Z" fill="black"/>
</g>
<circle cx="59.0737" cy="55.8647" r="42.8068" fill="#269984"/>
<path d="M59.0748 35.3822L42.0092 74.7545L43.6021 76.3477L59.079 69.5214L74.5553 76.3477L76.1487 74.7545L59.0748 35.3822Z" fill="#36D6BA"/>
<path d="M59.0746 13.045C35.4233 13.0333 16.2408 32.1968 16.2288 55.8479C16.2169 79.4987 35.3805 98.6814 59.0316 98.6931C82.6824 98.7051 101.865 79.5419 101.877 55.8906V55.8691C101.877 32.2266 82.7168 13.0572 59.0746 13.045ZM59.0746 92.9631C38.5761 92.9631 21.9586 76.3461 21.9586 55.8479C21.9586 35.3494 38.5761 18.7325 59.0746 18.7325C79.5725 18.7325 96.1898 35.3494 96.1898 55.8479V55.8691C96.1874 76.3659 79.5711 92.9805 59.0746 92.9805V92.9631Z" fill="black"/>
<g opacity="0.1">
<ellipse cx="122.22" cy="124.458" rx="3.64432" ry="4.76631" fill="#269984"/>
<path d="M125.099 104.061C125.605 103.175 125.867 102.17 125.857 101.149C125.857 98.5155 124.225 96.3786 122.217 96.3786C120.208 96.3786 118.572 98.5199 118.572 101.149C118.561 102.17 118.825 103.176 119.335 104.061C118.318 105.871 118.318 108.08 119.335 109.889C118.318 111.699 118.318 113.908 119.335 115.718C118.825 116.603 118.561 117.608 118.572 118.63C118.572 121.263 120.204 123.4 122.217 123.4C124.229 123.4 125.857 121.259 125.857 118.63C125.867 117.609 125.605 116.604 125.099 115.718C126.107 113.906 126.107 111.702 125.099 109.889C126.107 108.077 126.107 105.873 125.099 104.061Z" fill="#269984"/>
<ellipse cx="122.22" cy="95.3209" rx="3.64432" ry="4.76631" fill="#269984"/>
<ellipse cx="122.22" cy="89.4923" rx="3.64432" ry="4.7663" fill="#269984"/>
<path d="M108.586 49.6106C108.085 48.9789 107.631 48.3121 107.228 47.6151L116.799 46.0432L106.449 46.1203C104.442 41.7528 104.321 36.7521 106.114 32.2928L120.002 39.4997L107.194 30.0785C112.007 21.729 122.678 18.8625 131.028 23.6764C139.377 28.4902 142.244 39.1608 137.43 47.5106C137.008 48.2426 136.533 48.9431 136.01 49.6064C136.785 50.5931 137.452 51.6598 138.001 52.7883L125.582 59.2415L138.828 54.7965C140.718 60.3829 139.66 66.5455 136.014 71.1809C141.977 78.7494 140.677 89.719 133.108 95.6824C125.54 101.646 114.57 100.345 108.607 92.7764C103.616 86.4426 103.616 77.5147 108.607 71.1809C103.627 64.8516 103.627 55.936 108.607 49.6064L108.586 49.6106Z" fill="#36D6BA"/>
<path opacity="0.1" d="M139.744 60.3978C139.75 64.3117 138.434 68.1128 136.01 71.1853C141.974 78.7534 140.672 89.7232 133.104 95.6865C125.536 101.65 114.566 100.349 108.603 92.7804C103.612 86.447 103.612 77.5187 108.603 71.1853C106.256 68.2175 139.744 58.4409 139.744 60.3978Z" fill="black"/>
</g>
<ellipse cx="107.29" cy="194.206" rx="107.29" ry="3.7942" fill="#E9F8F5"/>
<ellipse cx="107.29" cy="129.186" rx="107.29" ry="3.7942" fill="#E9F8F5"/>
<ellipse cx="107.29" cy="161.694" rx="107.29" ry="3.7942" fill="#E9F8F5"/>
<path d="M206.374 30.2927C204.845 30.0041 203.265 30.1767 201.835 30.7893C200.098 31.5633 198.115 31.5633 196.379 30.7893C194.323 29.8872 191.974 29.9323 189.955 30.9136C189.387 31.2156 188.753 31.3743 188.109 31.376C185.506 31.376 183.343 28.7552 182.894 25.2996C183.406 24.9175 183.842 24.4424 184.178 23.8989C185.703 21.4409 188.062 19.8607 190.718 19.8607C193.373 19.8607 195.702 21.4197 197.227 23.852C198.15 25.3468 199.791 26.2475 201.548 26.2243H201.616C203.71 26.203 205.505 27.8643 206.374 30.2927Z" fill="#36D6BA"/>
<circle cx="164.99" cy="79.7663" r="42.8068" fill="#269984"/>
<path d="M183.366 90.8064C181.876 89.3161 178.291 87.0677 176.514 86.2286C174.463 85.2437 173.709 85.2606 172.257 86.31C171.05 87.1665 170.266 87.993 168.878 87.6888C167.491 87.3848 164.742 85.3121 162.082 82.6611C159.423 80.0107 157.359 77.2783 157.063 75.8696C156.768 74.4605 157.581 73.6941 158.447 72.4863C159.491 71.0345 159.521 70.2808 158.528 68.2296C157.671 66.4523 155.449 62.8766 153.946 61.3777C152.443 59.879 152.117 60.2087 151.295 60.5212C150.449 60.8762 149.636 61.3059 148.867 61.806C147.377 62.8038 146.542 63.6345 145.955 64.8851C145.368 66.1356 144.704 68.4566 148.117 74.5333C150.635 79.182 153.824 83.4345 157.581 87.1533C161.313 90.9195 165.58 94.1143 170.244 96.6349C176.317 100.06 178.642 99.3798 179.893 98.7973C181.143 98.2149 181.974 97.3886 182.968 95.8853C183.468 95.1165 183.898 94.3039 184.252 93.4572C184.535 92.6352 184.869 92.301 183.366 90.8064Z" fill="#36D6BA"/>
<path d="M164.99 36.9639C141.339 36.9522 122.156 56.1156 122.145 79.7667C122.133 103.417 141.296 122.6 164.947 122.612C188.598 122.624 207.781 103.46 207.792 79.8091V79.7667C207.781 56.1322 188.624 36.9759 164.99 36.9639ZM164.99 116.882C144.492 116.882 127.875 100.265 127.875 79.7667C127.875 59.2682 144.492 42.6509 164.99 42.6509C185.488 42.6509 202.105 59.2682 202.105 79.7667C202.105 100.265 185.488 116.882 164.99 116.882Z" fill="black"/>
<circle cx="95.0796" cy="150.046" r="42.8068" fill="#269984"/>
<path d="M119.929 137.113L107.112 150.153C107.02 150.241 107.017 150.387 107.105 150.48L107.112 150.487L116.105 160.049C116.708 160.657 116.705 161.639 116.097 162.242C115.808 162.528 115.419 162.69 115.013 162.692C114.602 162.691 114.208 162.528 113.917 162.238L104.971 152.71C104.876 152.616 104.723 152.616 104.628 152.71L102.449 154.91C100.646 156.754 98.1753 157.793 95.5968 157.793C92.9691 157.78 90.457 156.713 88.6248 154.829L86.5309 152.688C86.4359 152.594 86.2833 152.594 86.1885 152.688L77.264 162.195C76.6607 162.799 75.6818 162.8 75.0776 162.197L75.0754 162.195C74.4711 161.595 74.4676 160.619 75.0675 160.015L75.0754 160.007L84.0343 150.465C84.1164 150.369 84.1164 150.227 84.0343 150.131L71.2169 137.092C71.1256 136.999 70.9761 136.999 70.8839 137.09C70.8392 137.135 70.8143 137.196 70.8143 137.258V163.351C70.8213 165.451 72.5219 167.151 74.6215 167.158H116.533C118.633 167.151 120.333 165.451 120.34 163.351V137.28C120.346 137.15 120.245 137.04 120.115 137.034C120.045 137.031 119.976 137.06 119.929 137.113Z" fill="#36D6BA"/>
<path d="M95.5846 154.696C97.3398 154.714 99.027 154.018 100.261 152.769L118.928 133.768C118.265 133.219 117.433 132.917 116.573 132.912H74.6307C73.7698 132.914 72.937 133.218 72.2753 133.768L90.9465 152.769C92.1693 154.011 93.842 154.706 95.5846 154.696Z" fill="#36D6BA"/>
<path d="M95.0441 107.243C71.3931 107.231 52.2105 126.395 52.1985 150.046C52.1868 173.697 71.3503 192.879 95.0014 192.891C118.652 192.903 137.835 173.739 137.847 150.088V150.046C137.835 126.411 118.679 107.255 95.0441 107.243ZM95.0441 187.161C74.5459 187.161 57.9287 170.544 57.9287 150.046C57.9287 129.547 74.5459 112.93 95.0441 112.93C115.543 112.93 132.16 129.547 132.16 150.046C132.16 170.544 115.543 187.161 95.0441 187.161Z" fill="black"/>
<path d="M159.349 162.123C160.467 160.05 159.199 157.515 157.743 155.669C156.287 153.823 154.506 151.901 154.544 149.55C154.6 146.171 158.189 144.171 161.053 142.381C163.181 141.047 165.143 139.466 166.899 137.67C167.633 136.979 168.241 136.165 168.693 135.264C169.288 133.945 169.271 132.437 169.233 130.981C169.11 126.159 168.872 121.34 168.518 116.524" stroke="#3F3D56" stroke-width="4"/>
<path d="M173.969 116.284C173.885 114.489 172.892 112.86 171.335 111.963L170.154 114.297L170.192 111.471C167.399 110.649 164.468 112.246 163.646 115.039C162.824 117.832 164.421 120.763 167.214 121.585C170.007 122.407 172.938 120.81 173.76 118.017C173.926 117.455 173.996 116.869 173.969 116.284Z" fill="#FBB03B"/>
<path d="M164.565 151.965C163.233 154.554 160.055 155.573 157.465 154.241C155.796 153.382 154.709 151.699 154.613 149.824C154.573 149.094 154.69 148.364 154.955 147.683C156.016 144.969 159.075 143.628 161.79 144.689C163.181 145.233 164.277 146.341 164.805 147.738L161.511 150.419L165.135 149.562C165.139 150.397 164.943 151.221 164.565 151.965Z" fill="#FBB03B"/>
<path d="M161.961 141.73C159.053 141.867 156.584 139.621 156.447 136.713C156.332 134.259 157.926 132.051 160.291 131.388L160.261 133.56L161.456 131.195C164.365 131.059 166.833 133.308 166.969 136.217C167.105 139.126 164.857 141.594 161.948 141.73H161.961Z" fill="#FBB03B"/>
<path d="M174.761 133.213C171.854 133.363 169.375 131.128 169.225 128.22C169.075 125.312 171.31 122.834 174.217 122.683C175.221 122.631 176.218 122.867 177.091 123.363L176.162 125.932L178.059 124.057C180.205 126.024 180.35 129.359 178.382 131.505C177.442 132.531 176.134 133.143 174.745 133.208L174.761 133.213Z" fill="#FBB03B"/>
<path opacity="0.1" d="M173.259 117.689C172.042 117.822 170.86 118.199 169.636 118.275C168.411 118.353 167.066 118.057 166.304 117.111C165.945 116.559 165.619 115.987 165.327 115.398C164.994 114.878 164.538 114.449 164 114.147C162.676 116.74 163.705 119.916 166.298 121.239C168.891 122.563 172.067 121.534 173.39 118.941C173.599 118.533 173.753 118.099 173.849 117.65C173.657 117.655 173.455 117.667 173.259 117.689Z" fill="black"/>
<path opacity="0.1" d="M174.761 133.213C171.853 133.35 169.384 131.104 169.246 128.196C169.205 127.333 169.377 126.474 169.747 125.693C170.164 125.975 170.524 126.335 170.804 126.755C171.119 127.355 171.468 127.937 171.849 128.497C172.671 129.461 174.076 129.782 175.348 129.718C176.62 129.654 177.849 129.29 179.116 129.183C179.292 129.183 179.467 129.157 179.647 129.153C179.108 131.446 177.114 133.103 174.761 133.213Z" fill="black"/>
<path opacity="0.1" d="M161.961 141.73C159.052 141.866 156.584 139.619 156.448 136.711C156.409 135.886 156.565 135.063 156.903 134.309C157.338 134.595 157.716 134.957 158.021 135.379C158.366 135.994 158.748 136.587 159.164 137.157C160.051 138.146 161.55 138.497 162.894 138.441C164.239 138.385 165.464 138.094 166.748 138.013C166.093 140.136 164.18 141.621 161.961 141.73Z" fill="black"/>
<path opacity="0.1" d="M164.565 151.965C163.233 154.554 160.055 155.573 157.465 154.241C155.796 153.382 154.709 151.699 154.613 149.824C154.573 149.094 154.69 148.364 154.955 147.683C155.389 147.968 155.779 148.315 156.111 148.714C156.612 149.323 156.942 149.999 157.524 150.586C158.6 151.644 160.343 152.081 161.888 152.119C162.783 152.122 163.677 152.07 164.565 151.965Z" fill="black"/>
</svg>
