<?xml version="1.0" encoding="utf-8"?>
<!-- Generator: Adobe Illustrator 23.0.1, SVG Export Plug-In . SVG Version: 6.00 Build 0)  -->
<svg version="1.1" id="Layer_1" xmlns="http://www.w3.org/2000/svg" xmlns:xlink="http://www.w3.org/1999/xlink" x="0px" y="0px"
	 viewBox="0 0 484.6 642.6" style="enable-background:new 0 0 484.6 642.6;" xml:space="preserve">
<style type="text/css">
	.st0{fill:#F2F2F2;}
	.st1{fill:#36D6BA;}
	.st2{fill:#FF6584;}
	.st3{fill:#E6E6E6;}
	.st4{fill:#FFFFFF;}
	.st5{opacity:0.2;fill:#36D6BA;enable-background:new    ;}
	.st6{fill:#FFB9B9;}
	.st7{opacity:0.1;enable-background:new    ;}
	.st8{fill:#FBB03B;}
</style>
<g>
	<path d="M261.5,0h-30.8h-6.8H61.3H55H26.1c0,0,0,0,0,0C11.7,0,0,11.7,0,26.1V606c0,14.4,11.7,26,26.1,26h235.4
		c14.4,0,26-11.7,26.1-26V26.1l0,0c0,0,0,0,0,0C287.5,11.7,275.8,0,261.5,0z M217.3,20c-0.7,0.6-1.4,1.2-2.1,1.8
		c-3.7,2.7-8.1,4.2-12.7,4.2H82.7c-11.8,0-21.5-9.6-21.5-21.5V2h162.6v2.5C223.9,10.4,221.5,16,217.3,20z"/>
	<circle id="Ellipse_192" class="st0" cx="65.6" cy="96.6" r="6.3"/>
	<path id="Path_937" class="st1" d="M217.3,20c-0.7,0.6-1.4,1.2-2.1,1.8c15.5,27.3,41.7,46.8,72.3,53.8v-2.8
		C257.8,65.8,232.3,46.7,217.3,20z"/>
	<path id="Path_938" class="st1" d="M163.8,26h-2.9c21.2,53.9,69.4,92.4,126.7,101.1v-2.8C231.8,115.7,184.8,78.3,163.8,26z"/>
	<path id="Path_939" class="st1" d="M109.7,26h-2.8c23.6,82.1,95,143.2,180.6,153.1v-2.7C203.4,166.4,133.3,106.5,109.7,26z"/>
	<path id="Path_940" class="st0" d="M45,143h-1.6v-1.6h-0.3v1.6h-1.6v0.3h1.6v1.6h0.3v-1.6H45V143z"/>
	<path id="Path_941" class="st0" d="M155,61.6h-1.6v-1.6h-0.3v1.6h-1.6v0.3h1.6v1.6h0.3v-1.6h1.6V61.6z"/>
	<path id="Path_942" class="st0" d="M61.1,207.4h-1.6v-1.6h-0.3v1.6h-1.6v0.3h1.6v1.6h0.3v-1.6h1.6V207.4z"/>
	<path id="Path_943" class="st0" d="M136.2,160h-1.6v-1.6h-0.3v1.6h-1.6v0.3h1.6v1.6h0.3v-1.6h1.6V160z"/>
	<path id="Path_944" class="st0" d="M243.6,189.5H242v-1.6h-0.3v1.6H240v0.3h1.6v1.6h0.3v-1.6h1.6V189.5z"/>
	<circle id="Ellipse_193" class="st2" cx="224.8" cy="111.8" r="3.6"/>
	<path id="Path_945" class="st3" d="M96.6,195.7l-2,0.3c0.6,4.1,1.1,8.2,1.5,12.3l2-0.2C97.8,204,97.3,199.8,96.6,195.7z"/>
	<path id="Path_946" class="st3" d="M91.1,171.3l-2,0.6c1.2,3.9,2.3,8,3.2,12l2-0.5C93.3,179.3,92.3,175.3,91.1,171.3z"/>
	<path id="Path_947" class="st3" d="M82.2,147.8l-1.9,0.9c1.7,3.7,3.3,7.6,4.8,11.4l1.9-0.7C85.6,155.5,83.9,151.6,82.2,147.8z"/>
	<path id="Path_948" class="st3" d="M70.2,125.8l-1.7,1.1c2.2,3.5,4.3,7.1,6.3,10.7l1.8-1C74.6,133,72.4,129.3,70.2,125.8z"/>
	<path id="Path_949" class="st3" d="M55.3,105.7l-1.6,1.3c2.7,3.1,5.3,6.4,7.7,9.7l1.6-1.2C60.6,112.1,58,108.8,55.3,105.7z"/>
	<path id="Path_950" class="st3" d="M37.8,87.7l-1.4,1.5c3.1,2.7,6.1,5.6,9,8.6l1.5-1.4C44,93.4,40.9,90.5,37.8,87.7z"/>
	<path id="Path_951" class="st3" d="M18,72.3L16.9,74c3.4,2.3,6.8,4.8,10,7.3l1.3-1.6C24.9,77.1,21.5,74.6,18,72.3z"/>
	<path id="Path_952" class="st3" d="M0,61.6V64c2.1,1.1,4.3,2.3,6.3,3.5l1-1.8C4.9,64.3,2.5,62.9,0,61.6z"/>
	<path id="Path_953" class="st3" d="M96.2,388.9c0.3-2,0.6-4,0.9-6.1l2,0.3c-0.3,2-0.6,4.1-0.9,6.1L96.2,388.9z"/>
	<path id="Path_954" class="st3" d="M90.4,413.1l2,0.6c1.2-4,2.4-8,3.3-12.1l-2-0.5C92.7,405.1,91.6,409.1,90.4,413.1z"/>
	<path id="Path_955" class="st3" d="M81.4,436.2l1.9,0.9c1.8-3.8,3.4-7.6,4.9-11.5l-1.9-0.7C84.8,428.6,83.2,432.5,81.4,436.2z"/>
	<path id="Path_956" class="st3" d="M69.4,457.9l1.7,1.1c2.3-3.5,4.5-7.1,6.5-10.7l-1.8-1C73.8,450.8,71.6,454.4,69.4,457.9z"/>
	<path id="Path_957" class="st3" d="M54.4,477.7L56,479c2.7-3.2,5.4-6.4,7.9-9.8l-1.6-1.2C59.7,471.3,57.1,474.6,54.4,477.7z"/>
	<path id="Path_958" class="st3" d="M36.9,495.2l1.4,1.5c3.1-2.7,6.2-5.6,9.2-8.6l-1.5-1.5C43,489.7,40,492.5,36.9,495.2z"/>
	<path id="Path_959" class="st3" d="M17.2,510.3l1.1,1.7c3.5-2.3,6.9-4.7,10.2-7.3l-1.2-1.6C24,505.6,20.6,508,17.2,510.3z"/>
	<path id="Path_960" class="st3" d="M7.6,518.5c-2.5,1.4-5,2.8-7.6,4.1v-2.3c2.2-1.1,4.4-2.3,6.6-3.5L7.6,518.5z"/>
	<path id="Path_961" class="st3" d="M96.8,221l2.1,0c0,2.1,0,4.2,0,6.2l-2.1,0C96.8,225.2,96.8,223.1,96.8,221z"/>
	<path id="Path_962" class="st4" d="M9,269.8h210.4c32.6,0,59,26.4,59,59c0,0,0,0,0,0v7.8H68.1c-32.6,0-59-26.4-59-59c0,0,0,0,0,0
		l0,0L9,269.8L9,269.8z"/>
	<path id="Path_963" class="st0" d="M148.7,631.1c-0.2-0.3-5-8.4-6.7-25.2c-1.5-15.4-0.5-41.4,12.9-77.6
		c25.5-68.6-5.9-123.9-6.2-124.5l1.5-0.9c0.1,0.1,8.2,14.2,13,36.7c6.3,29.8,4,60.8-6.6,89.3c-25.5,68.5-6.5,100.9-6.3,101.2
		L148.7,631.1z"/>
	<circle id="Ellipse_194" class="st1" cx="138.7" cy="388.2" r="11.6"/>
	<circle id="Ellipse_195" class="st0" cx="175.4" cy="431.2" r="11.6"/>
	<circle id="Ellipse_196" class="st1" cx="150.3" cy="459.8" r="11.6"/>
	<circle id="Ellipse_197" class="st1" cx="180.7" cy="483.9" r="11.6"/>
	<circle id="Ellipse_198" class="st0" cx="141.4" cy="521.5" r="11.6"/>
	<path id="Path_964" class="st0" d="M155.7,631.5c0,0-11.6-28.6,23.3-50.1L155.7,631.5z"/>
	<path id="Path_965" class="st0" d="M141.4,631c0,0-5.3-30.4-46.3-30.2L141.4,631z"/>
	<circle id="Ellipse_199" class="st5" cx="95.1" cy="303.2" r="71.6"/>
	<circle id="Ellipse_200" class="st5" cx="95.1" cy="303.2" r="50.4"/>
	<circle id="Ellipse_201" class="st1" cx="95.1" cy="303.2" r="33.3"/>
	<path id="Path_966" class="st4" d="M101.1,296.1c0-3.3-2.7-6-6-6.1c-3.3,0-6,2.7-6.1,6c0,1.8,0.8,3.5,2.2,4.7L89,316.4h12.1
		l-2.2-15.6C100.3,299.6,101.1,297.9,101.1,296.1z"/>
	<path id="Path_967" d="M429.4,47.7c0,0-19.9-17.9-46.8,15.8s-68.8,50.2-78.4,63.3c0,0,39.9-16.5,53.7-23.4s13.1-5.5,13.1-5.5
		s-18.6,13.1-22,26.1s-0.7,24.1-6.9,37.1s118.3,8.9,118.3,8.9s12.4-21.3,8.9-43.3S467.9,50.4,429.4,47.7z"/>
	<path id="Path_968" class="st6" d="M391.6,103.9c0,0,4.3,30.4-14.3,37.2s-11.8,16.1-11.8,16.1l27.9,13.6l29.7-9.3l9.9-14.9
		c0,0-16.1-3.7-11.8-14.9S427,117,427,117L391.6,103.9z"/>
	<path id="Path_969" class="st7" d="M391.6,103.9c0,0,4.3,30.4-14.3,37.2s-11.8,16.1-11.8,16.1l27.9,13.6l29.7-9.3l9.9-14.9
		c0,0-16.1-3.7-11.8-14.9S427,117,427,117L391.6,103.9z"/>
	<path id="Path_970" class="st6" d="M469.7,190.7c0,0-4.3,57-3.1,59.5s0,88.6,0,88.6s8.7,46.5-2.5,49s-8.7-52.1-8.7-52.1l-11.2-71.9
		l1.2-71.3L469.7,190.7z"/>
	<path id="Path_971" class="st7" d="M469.7,190.7c0,0-4.3,57-3.1,59.5s0,88.6,0,88.6s8.7,46.5-2.5,49s-8.7-52.1-8.7-52.1l-11.2-71.9
		l1.2-71.3L469.7,190.7z"/>
	<path id="Path_972" class="st6" d="M348.9,362.4c0,0-20.5,77.5-19.8,115.3c0.6,37.8,8.7,90.5,8.7,90.5s1.2,22.9-0.6,25.4
		s9.3,13,9.3,13l11.8-6.8l4.3-5v-4.3c0,0-6.8-21.1-1.2-37.8s8.7-58.9,3.1-71.9l38.4-114L348.9,362.4z"/>
	<path id="Path_973" d="M347.6,596.6c0,0-7.4-9.3-12.4-6.2s-13,24.2-13,24.2s-27.9,26.6-8.1,27.9s28.5-5.6,31-10.5s25.4-18,25.4-18
		s-2.5-23.5-6.2-24.2s-9.3,9.3-9.3,9.3L347.6,596.6z"/>
	<path id="Path_974" class="st6" d="M416.4,367.3v76.8c0.1,9.3,0.7,18.6,1.9,27.9c1.9,13.6-10.5,115.3-10.5,115.3l1.2,18l15.5-1.2
		l1.9-15.5l22.3-68.2c0,0,7.4-41.5,3.7-57s19.2-114.6,19.2-114.6L416.4,367.3z"/>
	<path id="Path_975" d="M404,601l4.6-1c0,0,3.5-7.7,7.8-5.8c3.1,1.4,5.9,3.1,8.6,5.2l1.9,3.5c0,0,4.3,9.3,9.9,15.5
		s11.8,19.8,2.5,21.1s-21.7,1.9-25.4-1.2s-1.2-8.1-5-9.3s-6.8-5-6.2-6.2S404,601,404,601z"/>
	<circle id="Ellipse_202" class="st6" cx="416.4" cy="97.8" r="27.5"/>
	<path id="Path_976" class="st8" d="M364.4,146.1l8.2-2.9c0,0-3.2,5.3,14.1,8.4s35.3,4.2,43.4-6c0,0,3.1-1.5,7.4,2.9
		s6.8,3.1,6.8,3.1l-3.1,16.1l-6.2,29.7l-8.1,22.3l-22.9-5l-24.8-18l-9.3-24.2v-22.3L364.4,146.1z"/>
	<path id="Path_977" class="st8" d="M440,154.8l6.2-4.3c0,0,21.1,3.7,22.3,13.6l-16.1,31c3.3,8.6,3.1,18.2-0.6,26.6
		c-6.2,14.3-5.6,17.4-5.6,17.4l-4.3,18.6l-78.7,6.2c0,0-3.1-7.4-4.3-8.7c-1.2-1.2-1.2-5.6,0-5.6s0-1.9-1.2-3.7s-1.9-2.5,0-5
		s-3.1-24.8-3.1-24.8V192l-21.1-27.9c0,0,7.4-11.2,11.2-12.4s21.4-6.1,21.4-6.1l4,5.9l5.6,44.9l8.1,27.3l33.9-5.8l13.2-22.1l8.7-26
		L440,154.8z"/>
	<path id="Path_978" class="st8" d="M463.5,160.3l5,3.7c0,0,4.3,34.7,3.1,37.2s-22.9,5-23.5,3.7
		C447.4,203.7,463.5,160.3,463.5,160.3z"/>
	<path id="Path_979" class="st1" d="M361.3,143l6.2,40.9c0,0-5.6,60.7-4.3,73.1l1.2,3.7c0,0-2.5-1.2-3.1,1.2s0,10.5,0,10.5
		s-3.7,3.7-5,24.2s-16.1,69.4-10.5,71.3s39,11.2,57,9.3s82.4-23.5,81.8-29.1S453,263.8,453,263.8s-5.6-9.3-5.6-10.5
		s7.4-6.2,5.6-11.2s-11.8-57-11.8-57l6.8-37.2l-9.3-2.5l-6.8,35.9c0,0-26.6,13-54.5,1.2l-6.2-42.1L361.3,143z"/>
	<path id="Path_980" class="st8" d="M319.8,414.2c10.7,8,25.9,5.8,33.8-5c8-10.7,5.8-25.9-5-33.8c-10.7-8-25.9-5.8-33.8,5
		c-5.3,7.1-6.3,16.4-2.6,24.4L249,457.5l-8.4-10l-3.8,2.5l-4.2-5l3.5-2.9l-4.2-5l-5.4,4.5l2.6,3.1l-5.8,4.9l-2.6-3.1l-8.5,7.1
		l3.9,4.6l3.1-2.6l4.2,5l-3.8,3.2l7.8,9.2l-9.2,7.8l9.4,11.1L319.8,414.2z M335.6,378.9c8.8,0.8,15.3,8.5,14.6,17.3
		c-0.8,8.8-8.5,15.3-17.3,14.6s-15.3-8.5-14.6-17.3c0,0,0,0,0,0C319.1,384.7,326.8,378.1,335.6,378.9
		C335.6,378.9,335.6,378.9,335.6,378.9z"/>
	<path id="Path_981" class="st6" d="M329,198.1c0,0,4.3,57,3.1,59.5c-1.2,2.5,0,88.6,0,88.6s-8.7,46.5,2.5,49s8.7-52.1,8.7-52.1
		l11.2-71.9l-1.2-71.3L329,198.1z"/>
	<path id="Path_982" class="st8" d="M338.3,162.2l-5,1.9c0,0-9.3,39-6.8,39s32.2,3.7,32.2,2.5s-5.6-31.6-5.6-31.6L338.3,162.2z"/>
</g>
</svg>
