<svg xmlns="http://www.w3.org/2000/svg" xmlns:xlink="http://www.w3.org/1999/xlink" viewBox="0 0 1767.78 338.6"><defs><style>.cls-1{fill:none;}.cls-2{fill:#fff;}.cls-3{fill:#b3b3b3;}.cls-4{clip-path:url(#clip-path);}</style><clipPath id="clip-path"><path class="cls-1" d="M850.26,287.16a17.57,17.57,0,0,1-3,15.55,18.41,18.41,0,0,1-14.47,7.23,17.85,17.85,0,0,1-9.91-3,71.52,71.52,0,0,1-30.33-43.19l-.23-.93c-3.37-15.74-7.82-26.32-14.65-33l0,0c-5.59-5.46-12.78-8.34-22.29-9.32q-3.23-.34-6.82-.39a13.83,13.83,0,0,1-13.85-13.78v-7.51a9.76,9.76,0,0,1,.71-3.79,15.82,15.82,0,0,1,2.09-3.69,13.72,13.72,0,0,1,11-5.45h4.9c.67,0,1.34,0,2,0a62.13,62.13,0,0,0,24-4.87c.38-.15.76-.33,1.14-.51a41.44,41.44,0,0,0,5.47-3.1c10.15-6.81,15.85-17.47,15.85-31,0-23.86-15.39-37.41-43.38-38.32l1.14,0h.39a35,35,0,0,0,6.36-.83,12.17,12.17,0,0,0,10-11.94l0-7.45a12,12,0,0,0-.81-4.49,16.5,16.5,0,0,0-12.6-10.5c23.6.89,41.31,4.49,54.92,11.24a67.06,67.06,0,0,1,12,7.55c14.46,11.58,21.8,28.35,21.8,49.85,0,27.94-18.48,48.23-37.91,56.95-1.22.55-2.45,1.06-3.68,1.52a4.12,4.12,0,0,0-1.91,1.45,4.17,4.17,0,0,0,1.76,6.3,40.34,40.34,0,0,1,14.69,10.62c6.93,7.75,12.26,18.88,16.38,33.87,2.12,7.68,4.24,15.7,6.3,23.46l.16.63C848.35,280,849.32,283.65,850.26,287.16Z"/></clipPath></defs><title>Asset 21</title><g id="Layer_2" data-name="Layer 2"><g id="Layer_1-2" data-name="Layer 1"><path class="cls-2" d="M52.35,241.53l-12.2,44H0L52.35,114.22h50.82l53.11,171.27H114.61l-13.22-44Zm43.45-29L85.13,176.22c-3-10.16-6.1-22.87-8.64-33H76c-2.54,10.16-5.08,23.12-7.88,33L57.94,212.56Z"/><path class="cls-2" d="M176.36,105.07H215V285.49H176.36Z"/><path class="cls-2" d="M363.89,267.45c0,23.89-4.82,43.46-18.8,55.91-13.72,11.69-32.27,15.24-50.57,15.24-16.26,0-33.54-3.3-44.73-9.65l7.63-29.23a76.33,76.33,0,0,0,36.08,9.41c18.3,0,32.28-9.91,32.28-32.78v-8.14h-.51c-7.37,10.42-19.31,16.27-33.55,16.27-30.74,0-52.6-24.91-52.6-60.74,0-39.89,25.92-65.31,56.42-65.31,17,0,27.7,7.37,34,17.54h.51l1.27-14.74h33.54c-.51,7.88-1,18.3-1,36.85ZM325.27,211.8a31.1,31.1,0,0,0-.76-7.12c-2.8-10.16-10.17-17-20.84-17-14,0-25.41,12.7-25.41,35.32,0,18.55,9.14,33,25.41,33A21,21,0,0,0,324,240.26c1-2.79,1.27-6.86,1.27-10.16Z"/><path class="cls-2" d="M517.63,222c0,45.49-32.27,66.33-65.56,66.33-36.34,0-64.29-23.89-64.29-64s26.42-65.82,66.32-65.82C492.22,158.43,517.63,184.61,517.63,222Zm-90,1.27c0,21.35,8.9,37.36,25.42,37.36,15,0,24.64-15,24.64-37.36,0-18.55-7.11-37.35-24.64-37.35C434.53,185.88,427.67,204.94,427.67,223.23Z"/><path class="cls-2" d="M932,158.18l18.55,61c2,7.37,4.58,16.52,6.1,23.12h.77c1.78-6.6,3.81-16,5.59-23.12l15.24-61h41.43l-29,81.83C972.92,289.31,961,309.13,947,321.58a71.19,71.19,0,0,1-37.36,17l-8.13-32.78a48.73,48.73,0,0,0,16.77-6.6c5.85-3.05,12.2-9.15,16-15.51a10,10,0,0,0,2-5.59,14,14,0,0,0-1.77-6.35L889.06,158.18Z"/><path class="cls-2" d="M1079.14,124.38v33.8h27.7v28.46h-27.7v45c0,15,3.55,21.85,15.24,21.85a49,49,0,0,0,11.44-1l.25,29.22c-5.08,2-14.23,3.56-25.15,3.56-12.46,0-22.88-4.57-29-10.93-7.12-7.37-10.68-19.31-10.68-36.84V186.64h-16.51V158.18h16.51V134.8Z"/><path class="cls-2" d="M1129.19,102h38.63v70.9h.51a43.43,43.43,0,0,1,15.25-12.71,44.1,44.1,0,0,1,20.07-4.83c24.65,0,43.45,17,43.45,54.39v72.67h-38.62V214.09c0-16.27-5.59-27.45-20.08-27.45-10.16,0-16.51,6.61-19.31,13.47a24.47,24.47,0,0,0-1.27,8.64v73.69h-38.63Z"/><path class="cls-2" d="M1278.11,197.82c0-15.5-.51-28.71-1-39.64h32.53L1311.4,175h.76c5.33-7.88,16.26-19.57,37.61-19.57,16,0,28.71,8.14,34,21.1h.51a52.24,52.24,0,0,1,16-15c6.86-4.06,14.48-6.1,23.63-6.1,23.89,0,41.93,16.78,41.93,53.88v73.18h-37.61V214.85c0-18-5.84-28.46-18.3-28.46-8.89,0-15.24,6.1-17.78,13.47a32.18,32.18,0,0,0-1.53,9.91v72.67h-37.61V212.82c0-15.76-5.59-26.43-17.79-26.43-9.91,0-15.75,7.62-18,14a25.64,25.64,0,0,0-1.52,9.66v72.42h-37.61Z"/><path class="cls-2" d="M1536.54,123.62c0,10.67-8.13,19.31-20.84,19.31-12.2,0-20.33-8.64-20.07-19.31-.26-11.18,7.87-19.57,20.33-19.57S1536.29,112.44,1536.54,123.62Zm-39.9,158.82V158.18h38.63V282.44Z"/><path class="cls-2" d="M1659.53,279.39c-6.86,3.05-19.82,5.85-34.56,5.85-40.15,0-65.82-24.65-65.82-63.78,0-36.34,24.91-66.08,71.16-66.08,10.16,0,21.34,1.78,29.47,4.83l-6.1,28.72c-4.57-2-11.43-3.81-21.6-3.81-20.32,0-33.54,14.48-33.29,34.81,0,22.87,15.25,34.82,34.06,34.82,9.14,0,16.26-1.53,22.11-4.07Z"/><path class="cls-2" d="M1680.62,248.65c7.11,4.32,21.85,9.4,33.29,9.4,11.69,0,16.51-4.07,16.51-10.42s-3.81-9.4-18.29-14.23c-25.67-8.64-35.58-22.62-35.32-37.1,0-23.38,19.82-40.92,50.56-40.92,14.49,0,27.45,3.31,35.07,7.12l-6.86,26.68c-5.59-3.05-16.26-7.11-26.93-7.11-9.41,0-14.74,3.81-14.74,10.16,0,5.85,4.83,8.9,20.07,14.23,23.64,8.13,33.55,20.08,33.8,38.37,0,23.13-18.3,40.41-53.87,40.41-16.27,0-30.75-3.81-40.15-8.89Z"/><path class="cls-3" d="M777.67,229.76c0,.71-.08,1.41-.13,2.12-.93,11.08-5.77,23.2-14.7,37.1-4.14,6.48-8.53,13.18-12.76,19.66l-.35.53c-2,3.11-4,6.15-5.94,9.09-3,4.66-7.47,7.31-12.51,7.45A15.83,15.83,0,0,1,718.1,299a19.09,19.09,0,0,1-3.46-9.61,77.65,77.65,0,0,1,13-50.76l.51-.75c5.56-7.69,9.53-14.47,12-20.76a13.77,13.77,0,0,0,8.46,2.89c13,.21,22.25,3,29.1,9.71Z"/><path class="cls-3" d="M813.66,198.42a52,52,0,0,1-5.59,3,4.12,4.12,0,0,1,1.91-1.45C811.22,199.48,812.44,199,813.66,198.42Z"/><path class="cls-2" d="M755.34,72.64q-3.86.06-7.52.19a16.91,16.91,0,0,1,2.68-.21h.2C752.27,72.62,753.82,72.62,755.34,72.64Z"/><path class="cls-2" d="M753.93,108h1.36c-1,0-2,0-3,0C752.83,108,753.37,108,753.93,108Z"/><path class="cls-2" d="M850.26,287.16a17.57,17.57,0,0,1-3,15.55,18.41,18.41,0,0,1-14.47,7.23,17.85,17.85,0,0,1-9.91-3,71.52,71.52,0,0,1-30.33-43.19l-.23-.93c-3.37-15.74-7.82-26.32-14.65-33l0,0c-5.59-5.46-12.78-8.34-22.29-9.32q-3.23-.34-6.82-.39a13.83,13.83,0,0,1-13.85-13.78v-7.51a9.76,9.76,0,0,1,.71-3.79,15.82,15.82,0,0,1,2.09-3.69,13.72,13.72,0,0,1,11-5.45h4.9c.67,0,1.34,0,2,0a62.13,62.13,0,0,0,24-4.87c.38-.15.76-.33,1.14-.51a41.44,41.44,0,0,0,5.47-3.1c10.15-6.81,15.85-17.47,15.85-31,0-23.86-15.39-37.41-43.38-38.32l1.14,0h.39a35,35,0,0,0,6.36-.83,12.17,12.17,0,0,0,10-11.94l0-7.45a12,12,0,0,0-.81-4.49,16.5,16.5,0,0,0-12.6-10.5c23.6.89,41.31,4.49,54.92,11.24a67.06,67.06,0,0,1,12,7.55c14.46,11.58,21.8,28.35,21.8,49.85,0,27.94-18.48,48.23-37.91,56.95-1.22.55-2.45,1.06-3.68,1.52a4.12,4.12,0,0,0-1.91,1.45,4.17,4.17,0,0,0,1.76,6.3,40.34,40.34,0,0,1,14.69,10.62c6.93,7.75,12.26,18.88,16.38,33.87,2.12,7.68,4.24,15.7,6.3,23.46l.16.63C848.35,280,849.32,283.65,850.26,287.16Z"/><path class="cls-3" d="M755.34,72.64q-3.86.06-7.52.19a16.91,16.91,0,0,1,2.68-.21h.2C752.27,72.62,753.82,72.62,755.34,72.64Z"/><path class="cls-3" d="M753.93,108h1.36c-1,0-2,0-3,0C752.83,108,753.37,108,753.93,108Z"/><path class="cls-3" d="M760.63,108l-.72,0h-.39l-1.14,0-1.63,0h-2.82l-1.63,0-1.14,0h-.39a35,35,0,0,1-6.37-.83,12.18,12.18,0,0,1-10-11.95l0-7.44a12.26,12.26,0,0,1,.8-4.5,16.5,16.5,0,0,1,12.6-10.49q3.66-.14,7.52-.19c1.62,0,3.21,0,4.78.1a23.7,23.7,0,0,0,.51,35.28Z"/><path class="cls-3" d="M756.74,108h0c.55,0,1.09,0,1.63,0-1,0-2,0-3,0Z"/><path class="cls-3" d="M762.85,72.83q-3.66-.14-7.51-.19c1.52,0,3.06,0,4.63,0h.2A16.81,16.81,0,0,1,762.85,72.83Z"/><path class="cls-3" d="M756.56,220.65c-.42,0-.82.07-1.22.12-2.15-.24-4.42-.37-6.82-.41a13.88,13.88,0,0,1-12-7,13.91,13.91,0,0,1-1.86-6.93v-7.59a10,10,0,0,1,.71-3.83,16,16,0,0,1,2.09-3.72,13.66,13.66,0,0,1,11-5.51h4.9c.67,0,1.34,0,2,0l1.32,0a23.7,23.7,0,0,0-.1,34.86Z"/><path class="cls-2" d="M847.17,45.29c3.26-4,7.26-8,12.13-9.91a20.23,20.23,0,0,1,12.09-.77,29.08,29.08,0,0,1,5.51,1.94,30.28,30.28,0,0,1,11.37,9c6.42,8.25,7.18,17,1.77,26s-12.87,15.79-23,19.24a30,30,0,0,1-16.61.88c-6-1.35-9.2-5.52-11-11a32.79,32.79,0,0,1-1.61-13.55,38.56,38.56,0,0,1,3.76-12.93,44.76,44.76,0,0,1,5.4-8.65Z"/><path class="cls-2" d="M570.52,73.86l2.4.75a.53.53,0,0,0,.72-.54v-.28a1.08,1.08,0,0,0-.72-1l-2.4-.75a.52.52,0,0,0-.72.53v.28A1.11,1.11,0,0,0,570.52,73.86Z"/><path class="cls-3" d="M601.21,118.15c0,1.15,0,2.31,0,3.46a10.9,10.9,0,0,0,9.14,10.61,297.43,297.43,0,0,0,30.91,2.25,8.91,8.91,0,0,0,9.16-8.79v-3.29a9.4,9.4,0,0,0-9.16-9.11,301.94,301.94,0,0,1-30.91-3A7.66,7.66,0,0,0,601.21,118.15Z"/><path class="cls-3" d="M714.5,74.38l-.29.06c-18.1,3.56-24.6,4.63-43.08,5.25q-4.85.09-9.72,0c-5.55-.08-10.44,3.6-11,8.93a10.68,10.68,0,0,0,10.77,11.79q7.32-.06,14.61-.48a4.94,4.94,0,0,1,5.49,4.8v5.75a2.1,2.1,0,0,1-1.94,2q-5.52.48-11,.73a9.34,9.34,0,0,0-9.12,9.05v3.26a8.33,8.33,0,0,0,9.12,8.26q5.53-.39,11-1a1.66,1.66,0,0,1,1.94,1.62v3.08c0,4.32-3.72,8.33-8.34,8.8q-5.73.59-11.48.94c-5.55.34-10.44,4.38-11,9.77a9.8,9.8,0,0,0,10.77,11q6.68-.56,13.33-1.42c3.74-.48,6.77,1.9,6.77,5.42a8,8,0,0,1-6.77,7.44,298.27,298.27,0,0,1-49.24,3c-5.58-.13-10.47,3.66-11.09,9.2A11.07,11.07,0,0,0,624.93,204a297.35,297.35,0,0,0,49.61-4.12c3.7-.61,6.69,1.63,6.69,5.1v4.63a2.42,2.42,0,0,1-1.94,2.22c-5,1-9.09,5.53-9.09,10.32v3.22c0,4.78,4.08,7.9,9.09,6.77a1.47,1.47,0,0,1,1.94,1.39v5.34c0,3.08-2.66,6.24-5.94,7q-6.91,1.55-13.88,2.76c-5.55,1-10.44,5.56-11,11-.73,6.44,4.38,11,10.77,9.76q6.68-1.32,13.33-2.94c3.74-.9,6.77,1.13,6.77,4.65s-3,7.24-6.77,8.21a311.44,311.44,0,0,1-33.14,6.65c-5.57.8-10.47,5.34-11.08,10.89-.73,6.56,4.39,11.42,10.8,10.34a314.93,314.93,0,0,0,40.19-9.45q12.32-3.75,24.48-8.56c8.4-3.34,15.11-12.67,15.12-20.29V78.79C720.83,75.62,718,73.65,714.5,74.38Z"/><path class="cls-3" d="M627.35,168.91a10.55,10.55,0,0,0,10.87-10.5,11.31,11.31,0,0,0-10.87-11,303.47,303.47,0,0,1-62.44-10c-5.9-1.6-10.65,2.11-10.65,8.53s4.75,13,10.65,14.42A299.69,299.69,0,0,0,627.35,168.91Z"/><path class="cls-3" d="M580,90a307.62,307.62,0,0,0,47.35,8.78,9.65,9.65,0,0,0,10.87-9.68c0-5.86-4.87-11-10.87-11.82A311.29,311.29,0,0,1,580,67.41c-5.94-1.73-10.73,1.78-10.73,8.1S574.06,88.45,580,90Z"/><path class="cls-3" d="M627.35,252.55a296,296,0,0,1-54.51-1.77c-5.93-.76-10.7,3.58-10.7,10s4.77,12.21,10.7,12.81a297,297,0,0,0,54.51.51,12.11,12.11,0,0,0,10.87-11.73C638.22,256.47,633.35,252.21,627.35,252.55Z"/><path class="cls-3" d="M629.77,238.89q10.53-.55,21.05-1.87c6-.75,10.84-6.2,10.84-11.9s-4.84-9.65-10.84-9.06q-10.52,1-21.05,1.38a11.08,11.08,0,0,0-10.88,11A10.34,10.34,0,0,0,629.77,238.89Z"/><path class="cls-3" d="M611.25,288.73q-11.26.48-22.47.11A10.44,10.44,0,0,0,578,299.61c0,6.27,4.81,11.59,10.77,11.63q11.21.12,22.47-.63a12,12,0,0,0,10.87-11.73A10.16,10.16,0,0,0,611.25,288.73Z"/><path class="cls-2" d="M625.15,121.23v3.38a9.74,9.74,0,0,0,9.16,9.63c2.32.11,4.64.18,7,.23a8.91,8.91,0,0,0,9.16-8.79v-3.29a9.4,9.4,0,0,0-9.16-9.11q-3.46-.15-7-.38A8.3,8.3,0,0,0,625.15,121.23Z"/><path class="cls-2" d="M716,74.11l-.22,0c-13.67,3-18.56,4-32.48,5q-3.65.22-7.32.36c-4.18.14-7.86,4-8.32,9.3-.55,6.22,3.3,11.39,8.11,11.09,3.68-.21,7.34-.5,11-.85,2.57-.24,4.58,2.4,4.05,5.74l.06,4.29a2,2,0,0,1-1.44,2.33c-2.76.34-5.53.63-8.31.89-3.85.34-7,4.54-6.87,9.4v2.7c-.11,4.89,3,8.61,6.87,8.16q4.17-.48,8.31-1.08c.81-.11,1.47.6,1.47,1.6v3c0,4.28-2.81,8.23-6.28,8.72q-4.32.62-8.65,1.1c-4.18.46-7.86,4.63-8.32,9.93-.55,6.27,3.3,11.14,8.11,10.48q5-.68,10-1.52c2.82-.47,5.1,1.91,5.1,5.4s-2.28,6.77-5.1,7.29A297.48,297.48,0,0,1,648.74,182c-4.22.24-7.93,4.32-8.39,9.76-.55,6.42,3.33,11.67,8.17,11.28a300,300,0,0,0,37.39-5.34c3.15-.65,4.92,2.16,4.92,6.53l.08,2.79a2.26,2.26,0,0,1-1.43,2.55c-3.83.9-8.79,4.57-8.68,9.38v2.65c-.12,4.87,4.71,8.18,8.68,8,3.13-.11,3.74,2.09,3.61,3.25l0,4.31c.33,3.27-3.94,5.18-6.6,5.88q-5.21,1.38-10.45,2.55c-4.18.94-7.86,5.53-8.32,10.88-.55,6.32,3.3,10.77,8.11,9.56q5-1.24,10-2.67c2.82-.8,5.1,1.33,5.1,4.81s-2.28,7-5.1,7.88q-12.42,3.7-25,6.35c-4.2.88-7.9,5.48-8.36,10.91-.55,6.43,3.31,11,8.15,9.87q15.21-3.54,30.27-8.66,9.27-3.17,18.45-6.92c6.34-2.61,11.42-11.17,11.43-18.8V78.79C720.83,75.62,718.65,73.51,716,74.11Z"/><path class="cls-2" d="M627.35,168.91a10.55,10.55,0,0,0,10.87-10.5,11.31,11.31,0,0,0-10.87-11,301.79,301.79,0,0,1-35.35-4c-6-1-10.79,3-10.79,9.22S586,164.86,592,165.73A300.06,300.06,0,0,0,627.35,168.91Z"/><path class="cls-2" d="M614.08,97.11q6.63,1,13.27,1.69a9.65,9.65,0,0,0,10.87-9.68c0-5.86-4.87-11-10.87-11.82q-6.63-.85-13.27-2c-6-1-10.85,2.84-10.85,9S608.08,96.23,614.08,97.11Z"/><path class="cls-2" d="M627.35,252.55q-10.26.62-20.51.51A10.67,10.67,0,0,0,596,263.88c0,6.15,4.84,11.26,10.83,11.17q10.24-.15,20.51-1a12.11,12.11,0,0,0,10.87-11.73C638.22,256.47,633.35,252.21,627.35,252.55Z"/><path class="cls-2" d="M643.46,237.85c2.45-.25,4.91-.52,7.36-.83,6-.75,10.84-6.2,10.84-11.9s-4.84-9.65-10.84-9.06c-2.45.24-4.91.46-7.36.65A11.64,11.64,0,0,0,632.59,228,9.73,9.73,0,0,0,643.46,237.85Z"/><path class="cls-2" d="M611.25,288.73c-4.09.17-8.17.27-12.25.27a10.84,10.84,0,0,0-10.81,11c0,6.2,4.83,11.3,10.81,11.13q6.12-.15,12.25-.55a12,12,0,0,0,10.87-11.73A10.16,10.16,0,0,0,611.25,288.73Z"/><path class="cls-3" d="M553.39,75.81a.6.6,0,0,0,.86-.62,1.43,1.43,0,0,0-.86-1.27l-3-1.14v-1.2l1.55.6a.51.51,0,0,0,.73-.53v-.29a1.23,1.23,0,0,0-.73-1.08l-1.55-.6v-1.2c1,.39,2,.78,3,1.15a.6.6,0,0,0,.86-.62,1.44,1.44,0,0,0-.86-1.27l-3-1.16v-1.2c1,.4,2,.78,3,1.16a.59.59,0,0,0,.86-.61,1.45,1.45,0,0,0-.86-1.28c-1-.38-2-.77-3-1.17V62.29l1.55.6a.5.5,0,0,0,.73-.51v-.3a1.24,1.24,0,0,0-.73-1.08l-1.55-.62V59.19l3,1.18a.6.6,0,0,0,.86-.62,1.47,1.47,0,0,0-.86-1.28l-3-1.19-.77-.3-2.84-1.16c-1.64.17-3.27.32-4.9.47.23,1.31.47,2.62.71,3.93l3.53-.4.06,0V76.15c1.15.46,2.29.9,3.44,1.34l.77.29c1,.38,2,.76,3,1.12a.6.6,0,0,0,.86-.63,1.43,1.43,0,0,0-.86-1.26l-3-1.13v-1.2Z"/><path class="cls-3" d="M556.54,62.75q-1.23-.45-2.46-.93a.51.51,0,0,0-.73.52v.3a1.22,1.22,0,0,0,.73,1.08l2.46.92a.51.51,0,0,0,.73-.52v-.3A1.24,1.24,0,0,0,556.54,62.75Z"/><path class="cls-3" d="M556.54,72l-2.46-.9a.51.51,0,0,0-.73.52v.3a1.21,1.21,0,0,0,.73,1.07l2.46.9a.51.51,0,0,0,.73-.53v-.29A1.22,1.22,0,0,0,556.54,72Z"/><path class="cls-3" d="M547.6,151.09a.65.65,0,0,0,.86-.69,1.33,1.33,0,0,0-.86-1.22l-2.41-.77V147.2l1,.31a.54.54,0,0,0,.73-.57v-.3a1.16,1.16,0,0,0-.73-1l-1-.31v-1.2c1.25.41,2.49.81,3.74,1.2a.64.64,0,0,0,.86-.68,1.34,1.34,0,0,0-.86-1.22l-3.74-1.21V141l2.41.79a.63.63,0,0,0,.86-.67,1.37,1.37,0,0,0-.86-1.24l-2.41-.79v-1.2l1,.32a.54.54,0,0,0,.73-.57v-.3a1.16,1.16,0,0,0-.73-1l-1-.33v-1.2l2.41.81a.64.64,0,0,0,.86-.67,1.37,1.37,0,0,0-.86-1.24l-2.41-.81-1.35-.47c-.75-.25-1.49-.52-2.24-.78l-4.88.78c.23,1.3.47,2.6.7,3.9l3.53-.61,0,0v16.39l2.84.94,1.35.43,2.41.76a.64.64,0,0,0,.86-.68,1.33,1.33,0,0,0-.86-1.22l-2.41-.77v-1.2Z"/><path class="cls-3" d="M550.74,147.05l-2.46-.76a.53.53,0,0,0-.72.57v.3a1.13,1.13,0,0,0,.72,1l2.46.76a.54.54,0,0,0,.73-.58v-.29A1.13,1.13,0,0,0,550.74,147.05Z"/><path class="cls-3" d="M573.72,289.33q-2.91-.25-5.82-.55l-1.37-.15-2.28-.25c-1.65.63-3.31,1.26-5,1.87l.72,3.66,3.58-1.41h.06v16l2.88.27,1.37.11,2.44.2a.84.84,0,0,0,.88-.87,1,1,0,0,0-.88-1l-2.44-.19v-1.18l2.44.2a.82.82,0,0,0,.88-.86,1,1,0,0,0-.88-1L567.9,304v-1.17l1,.08a.69.69,0,0,0,.74-.72v-.29a.84.84,0,0,0-.74-.85l-1-.09v-1.18c1.26.12,2.53.23,3.79.33a.82.82,0,0,0,.88-.86,1,1,0,0,0-.88-1l-3.79-.34v-1.17l2.44.22a.82.82,0,0,0,.88-.86,1,1,0,0,0-.88-1l-2.44-.23v-1.18l1,.1a.69.69,0,0,0,.74-.72v-.29a.86.86,0,0,0-.74-.86l-1-.1v-1.17c1.94.2,3.88.37,5.82.53a.82.82,0,0,0,.88-.85A1,1,0,0,0,573.72,289.33Z"/><path class="cls-3" d="M574.09,293.45v-.29a.85.85,0,0,0-.74-.84l-2.49-.21a.68.68,0,0,0-.74.72v.29a.85.85,0,0,0,.74.85l2.49.21A.7.7,0,0,0,574.09,293.45Z"/><path class="cls-3" d="M573.53,301.42l-2.49-.19a.69.69,0,0,0-.74.72v.3a.84.84,0,0,0,.74.84c.83.06,1.66.13,2.49.18a.69.69,0,0,0,.74-.73v-.29A.83.83,0,0,0,573.53,301.42Z"/><path class="cls-3" d="M557.75,257.9a.75.75,0,0,0,.87-.8,1.13,1.13,0,0,0-.87-1.09c-1.34-.23-2.69-.47-4-.72V254.1l.56.1a.62.62,0,0,0,.74-.66v-.3a1,1,0,0,0-.74-.93l-.56-.11V251l2.69.5a.74.74,0,0,0,.87-.79,1.14,1.14,0,0,0-.87-1.1l-2.69-.51-1.09-.21-2.52-.51c-1.64.5-3.28,1-4.92,1.48.24,1.25.48,2.51.71,3.77l3.55-1.13.06,0v16.25q1.56.3,3.12.57l1.09.19,2.69.45a.75.75,0,0,0,.87-.8,1.11,1.11,0,0,0-.87-1.09l-2.69-.46v-1.19l3.36.57a.75.75,0,0,0,.87-.8,1.11,1.11,0,0,0-.87-1.09l-3.36-.57v-1.2l1.23.22a.62.62,0,0,0,.73-.67v-.3a.94.94,0,0,0-.73-.92l-1.23-.22v-1.2c.9.17,1.79.33,2.69.48a.75.75,0,0,0,.87-.8,1.12,1.12,0,0,0-.87-1.09l-2.69-.48v-1.2C555.06,257.43,556.41,257.67,557.75,257.9Z"/><path class="cls-3" d="M594.75,122.47l-1-.19a13.94,13.94,0,0,0,.7-4l.31.06a.73.73,0,0,0,.89-.74,1.14,1.14,0,0,0-.89-1.08l-.31-.06c0-.39,0-.78-.07-1.16l.38.08a.73.73,0,0,0,.89-.74,1.15,1.15,0,0,0-.89-1.08l-.67-.13c-.1-.48-.23-.94-.37-1.39a.59.59,0,0,0,.3-.54v-.28a1,1,0,0,0-.74-.92l-.28-.06a10.12,10.12,0,0,0-.79-1.31l1.19.25a.71.71,0,0,0,.88-.73,1.15,1.15,0,0,0-.88-1.09c-1.29-.26-2.57-.54-3.86-.82h0a7.92,7.92,0,0,0-2.14-.81c-4.9-1.13-7.23,2.81-7.23,8.57s2.18,10.78,7.09,11.8a6.52,6.52,0,0,0,2.22.1l.07,0c1.29.26,2.57.5,3.86.74a.72.72,0,0,0,.88-.74,1.13,1.13,0,0,0-.88-1.08l-1.25-.23a5.66,5.66,0,0,0,.8-1l1.81.34a.73.73,0,0,0,.89-.75A1.13,1.13,0,0,0,594.75,122.47Zm-10.14-7.1c0-4.6,1.08-6.5,2.71-6.14,1.79.4,2.69,2.9,2.69,7.26s-.93,6.53-2.66,6.17S584.58,119.91,584.61,115.37Z"/><path class="cls-3" d="M598,111.25l-2.52-.48a.6.6,0,0,0-.74.62v.28a1,1,0,0,0,.74.91c.84.17,1.68.32,2.52.48a.61.61,0,0,0,.74-.63v-.28A1,1,0,0,0,598,111.25Z"/><path class="cls-3" d="M598,120.1l-2.52-.46a.61.61,0,0,0-.74.63v.28a1,1,0,0,0,.74.91c.84.15,1.68.31,2.52.45a.61.61,0,0,0,.74-.63V121A.94.94,0,0,0,598,120.1Z"/><path class="cls-3" d="M612.46,232.81l-1,0a14.64,14.64,0,0,0,.7-4h.31a.87.87,0,0,0,.89-.88.92.92,0,0,0-.89-.91h-.31c0-.38,0-.76-.07-1.13h.38a.87.87,0,0,0,.89-.88.91.91,0,0,0-.89-.9l-.67,0a13.05,13.05,0,0,0-.37-1.3.7.7,0,0,0,.3-.58v-.28a.77.77,0,0,0-.75-.77h-.28a7.79,7.79,0,0,0-.79-1.15l1.2,0a.86.86,0,0,0,.88-.87.92.92,0,0,0-.88-.92l-3.88-.15h0a7.14,7.14,0,0,0-2.15-.44c-4.93-.27-7.27,4-7.27,9.65s2.19,10.22,7.13,10.38a7.22,7.22,0,0,0,2.23-.28l.07,0,3.88.06a.87.87,0,0,0,.88-.88.9.9,0,0,0-.88-.9l-1.26,0a7,7,0,0,0,.81-1.11l1.81,0a.87.87,0,0,0,.89-.88A.9.9,0,0,0,612.46,232.81Zm-10.19-5.24c0-4.52,1.09-6.58,2.73-6.49s2.71,2.38,2.71,6.66-.94,6.57-2.68,6.51S602.25,232,602.27,227.57Z"/><path class="cls-3" d="M615.69,221.24l-2.52,0a.73.73,0,0,0-.75.73v.28a.77.77,0,0,0,.75.77l2.52,0a.75.75,0,0,0,.75-.74V222A.77.77,0,0,0,615.69,221.24Z"/><path class="cls-3" d="M615.69,229.93l-2.52,0a.74.74,0,0,0-.75.74v.28a.76.76,0,0,0,.75.76l2.52,0a.76.76,0,0,0,.75-.75v-.28A.76.76,0,0,0,615.69,229.93Z"/><path class="cls-3" d="M611,188.9l-4.19-.29a12.43,12.43,0,0,0-.34-1.27.69.69,0,0,0,.37-.62v-.28a.84.84,0,0,0-.74-.82l-.38,0a8.82,8.82,0,0,0-.78-1.2l1.28.11a.79.79,0,0,0,.88-.82,1,1,0,0,0-.88-1l-3.87-.36h0a7.54,7.54,0,0,0-2.22-.59c-4.93-.54-7.27,3.63-7.27,9.31s2.2,10.39,7.12,10.82a6.77,6.77,0,0,0,2.24-.17.48.48,0,0,0,.17.05q3.64.28,7.29.48a.83.83,0,0,0,.88-.85,1,1,0,0,0-.88-.94c-1.6-.09-3.2-.19-4.79-.3a6.92,6.92,0,0,0,.81-1.08l1.93.13a.82.82,0,0,0,.88-.84,1,1,0,0,0-.88-.95l-1.12-.07a14.88,14.88,0,0,0,.7-4l2.12.14a.82.82,0,0,0,.89-.83,1,1,0,0,0-.89-1l-2.12-.14c0-.38,0-.76-.07-1.14q1.95.15,3.9.27a.83.83,0,0,0,.89-.84A1,1,0,0,0,611,188.9Zm-10.94,9.56c-1.73-.15-2.78-2.39-2.76-6.87s1.09-6.55,2.73-6.38c1.79.19,2.7,2.54,2.7,6.84S601.79,198.61,600.06,198.46Z"/><path class="cls-3" d="M608.29,187.59l2.52.17a.69.69,0,0,0,.75-.7v-.28a.81.81,0,0,0-.75-.8l-2.52-.18a.69.69,0,0,0-.75.7v.28A.83.83,0,0,0,608.29,187.59Z"/><path class="cls-3" d="M610.81,194.71l-2.52-.15a.69.69,0,0,0-.75.7v.28a.82.82,0,0,0,.75.81l2.52.15a.71.71,0,0,0,.75-.71v-.28A.81.81,0,0,0,610.81,194.71Z"/><path class="cls-2" d="M684.92,25.7c.29-5.3,1.23-11,4.11-15.5a20.79,20.79,0,0,1,9.56-7.89,29.26,29.26,0,0,1,5.73-1.7,31,31,0,0,1,14.83.63c10.27,3,16.14,9.77,17.08,20.51S735,42.56,728.72,51.49A30.66,30.66,0,0,1,715.49,62.2c-5.78,2.47-10.94.94-15.76-2.51a33.79,33.79,0,0,1-9.47-10.27,39.21,39.21,0,0,1-4.64-13A46,46,0,0,1,684.9,26C684.91,25.92,684.91,25.81,684.92,25.7Z"/><path class="cls-2" d="M776.26,87.82l0,7.44a12.18,12.18,0,0,1-10,11.95,46.07,46.07,0,0,1-5.64.81,23.7,23.7,0,0,1-.51-35.28c.92,0,1.83.05,2.74.09a16.51,16.51,0,0,1,12.6,10.49A12.26,12.26,0,0,1,776.26,87.82Z"/><path class="cls-2" d="M776,198.86v7.59a13.91,13.91,0,0,1-1.86,6.93,13.88,13.88,0,0,1-12,7c-1.94,0-3.81.13-5.59.29a23.7,23.7,0,0,1,.1-34.86h5.57a13.68,13.68,0,0,1,11,5.51,16,16,0,0,1,2.09,3.72A10,10,0,0,1,776,198.86Z"/><circle class="cls-3" cx="825.23" cy="129.22" r="3.5"/><circle class="cls-3" cx="825.23" cy="150.95" r="3.5"/><g class="cls-4"><path class="cls-3" d="M843.2,313c-4.18-8.78-8.09-17.67-11.91-26.6-1.94-4.45-3.77-8.94-5.66-13.41s-3.69-9-5.66-13.37-3.91-8.84-6.09-13.13-4.43-8.55-7-12.65c-.6-1-1.28-2-1.94-3s-1.31-2-2-3-1.37-2-2.1-2.94L798.66,222a101.93,101.93,0,0,0-9.9-10.59,76.12,76.12,0,0,1,11,9.66,95.48,95.48,0,0,1,9.1,11.53,161,161,0,0,1,13.79,25.84c3.87,9,7.32,18,10.76,27.1S840.13,303.77,843.2,313Z"/></g></g></g></svg>