<svg width="53" height="53" viewBox="0 0 53 53" fill="none" xmlns="http://www.w3.org/2000/svg">
<path d="M26.4988 4.75775C30.0273 4.62544 33.5606 4.72377 37.0762 5.05209C38.7815 5.03088 40.4756 5.32995 42.0705 5.93377C44.2725 6.95841 46.0425 8.72695 47.069 10.9281C47.6728 12.523 47.9718 14.2172 47.9506 15.9224C47.9506 18.5675 48.245 19.4478 48.245 26.4998C48.3773 30.0282 48.279 33.5616 47.9506 37.0772C47.9718 38.7825 47.6728 40.4766 47.0689 42.0715C46.0436 44.274 44.2741 46.044 42.0719 47.0699C40.4769 47.6737 38.7828 47.9728 37.0776 47.9516C34.4325 47.9516 33.5522 48.2459 26.5002 48.2459C22.9718 48.3783 19.4385 48.2799 15.9228 47.9516C14.2171 47.973 12.5225 47.6739 10.9271 47.0699C8.72667 46.0445 6.95822 44.2761 5.93279 42.0756C5.32898 40.4807 5.0299 38.7865 5.05112 37.0813C5.05112 34.4362 4.75677 33.5559 4.75677 26.5039C4.62446 22.9755 4.72279 19.4421 5.05111 15.9265C5.0299 14.2212 5.32897 12.5271 5.93279 10.9322C6.44519 9.84126 7.14069 8.84617 7.98912 7.9901C8.67797 6.96219 9.72568 6.22841 10.9271 5.93241C12.5221 5.32859 14.2162 5.02952 15.9215 5.05073C19.4371 4.72241 22.9704 4.62409 26.4988 4.7564L26.4988 4.75775ZM26.4988 0.0550347C22.8723 -0.0741529 19.2413 0.0241527 15.6271 0.349386C13.4187 0.344132 11.2278 0.742212 9.16242 1.52404C7.3792 2.10543 5.76521 3.11406 4.46106 4.46204C3.11308 5.76619 2.10445 7.38018 1.52306 9.16339C0.600554 11.1873 0.196843 13.4091 0.3484 15.6281C0.0236256 19.2423 -0.0742174 22.8733 0.0554238 26.4998C-0.0737651 30.1263 0.0245405 33.7573 0.349779 37.3715C0.344526 39.58 0.742603 41.7708 1.52443 43.8362C2.10582 45.6194 3.11445 47.2334 4.46243 48.5376C5.76657 49.8855 7.38057 50.8942 9.16378 51.4756C11.2292 52.2574 13.42 52.6555 15.6285 52.6502C19.2427 52.9755 22.8737 53.0738 26.5002 52.9446C30.1267 53.0738 33.7577 52.9755 37.3719 52.6502C39.5803 52.6555 41.7712 52.2574 43.8366 51.4756C47.4227 50.24 50.2404 47.4224 51.476 43.8362C52.2578 41.7708 52.6559 39.58 52.6506 37.3715C52.6506 34.4335 52.945 33.5559 52.945 26.4998C53.0741 22.8733 52.9758 19.2423 52.6506 15.6281C52.6559 13.4197 52.2578 11.2288 51.476 9.1634C50.8946 7.38019 49.8859 5.76619 48.538 4.46204C47.2338 3.11406 45.6198 2.10543 43.8366 1.52404C41.7707 0.742511 39.5794 0.344888 37.3705 0.350743C33.7564 0.0255199 30.1253 -0.0728013 26.4988 0.056398L26.4988 0.0550347ZM26.4988 12.9844C22.8965 12.9253 19.4243 14.3302 16.8768 16.8777C14.3292 19.4253 12.9243 22.8975 12.9835 26.4998C12.9835 33.9641 19.0345 40.0152 26.4988 40.0152C33.9632 40.0152 40.0142 33.9641 40.0142 26.4998C40.0142 19.0355 33.9632 12.9844 26.4988 12.9844ZM26.4988 35.3152C24.1483 35.3581 21.8814 34.4433 20.219 32.781C18.5567 31.1186 17.6419 28.8517 17.6848 26.5012C17.6419 24.1506 18.5567 21.8837 20.219 20.2214C21.8814 18.559 24.1483 17.6442 26.4988 17.6872C28.8493 17.6442 31.1163 18.559 32.7786 20.2214C34.441 21.8837 35.3558 24.1506 35.3128 26.5012C35.3558 28.8517 34.441 31.1186 32.7786 32.781C31.1163 34.4433 28.8493 35.3581 26.4988 35.3152ZM40.6029 9.16476C38.8177 9.16476 37.3705 10.6119 37.3705 12.3971C37.3705 14.1823 38.8177 15.6295 40.6029 15.6295C42.3881 15.6295 43.8352 14.1823 43.8352 12.3971C43.8197 10.6184 42.3816 9.1803 40.6029 9.16476" fill="white"/>
</svg>
